%TF.GenerationSoftware,KiCad,Pcbnew,(6.0.11)*%
%TF.CreationDate,2023-07-21T15:58:32-05:00*%
%TF.ProjectId,MB,4d422e6b-6963-4616-945f-706362585858,rev?*%
%TF.SameCoordinates,Original*%
%TF.FileFunction,Copper,L4,Bot*%
%TF.FilePolarity,Positive*%
%FSLAX46Y46*%
G04 Gerber Fmt 4.6, Leading zero omitted, Abs format (unit mm)*
G04 Created by KiCad (PCBNEW (6.0.11)) date 2023-07-21 15:58:32*
%MOMM*%
%LPD*%
G01*
G04 APERTURE LIST*
G04 Aperture macros list*
%AMRoundRect*
0 Rectangle with rounded corners*
0 $1 Rounding radius*
0 $2 $3 $4 $5 $6 $7 $8 $9 X,Y pos of 4 corners*
0 Add a 4 corners polygon primitive as box body*
4,1,4,$2,$3,$4,$5,$6,$7,$8,$9,$2,$3,0*
0 Add four circle primitives for the rounded corners*
1,1,$1+$1,$2,$3*
1,1,$1+$1,$4,$5*
1,1,$1+$1,$6,$7*
1,1,$1+$1,$8,$9*
0 Add four rect primitives between the rounded corners*
20,1,$1+$1,$2,$3,$4,$5,0*
20,1,$1+$1,$4,$5,$6,$7,0*
20,1,$1+$1,$6,$7,$8,$9,0*
20,1,$1+$1,$8,$9,$2,$3,0*%
G04 Aperture macros list end*
%TA.AperFunction,ComponentPad*%
%ADD10R,1.700000X1.700000*%
%TD*%
%TA.AperFunction,ComponentPad*%
%ADD11O,1.700000X1.700000*%
%TD*%
%TA.AperFunction,ComponentPad*%
%ADD12RoundRect,0.249999X1.550001X-0.790001X1.550001X0.790001X-1.550001X0.790001X-1.550001X-0.790001X0*%
%TD*%
%TA.AperFunction,ComponentPad*%
%ADD13O,3.600000X2.080000*%
%TD*%
%TA.AperFunction,ComponentPad*%
%ADD14R,1.680000X1.680000*%
%TD*%
%TA.AperFunction,ComponentPad*%
%ADD15C,1.680000*%
%TD*%
%TA.AperFunction,ComponentPad*%
%ADD16RoundRect,0.249999X0.790001X1.550001X-0.790001X1.550001X-0.790001X-1.550001X0.790001X-1.550001X0*%
%TD*%
%TA.AperFunction,ComponentPad*%
%ADD17O,2.080000X3.600000*%
%TD*%
%TA.AperFunction,ComponentPad*%
%ADD18R,1.508000X1.508000*%
%TD*%
%TA.AperFunction,ComponentPad*%
%ADD19C,1.508000*%
%TD*%
%TA.AperFunction,ComponentPad*%
%ADD20C,1.800000*%
%TD*%
%TA.AperFunction,ComponentPad*%
%ADD21C,1.676400*%
%TD*%
%TA.AperFunction,ViaPad*%
%ADD22C,1.000000*%
%TD*%
%TA.AperFunction,ViaPad*%
%ADD23C,0.800000*%
%TD*%
%TA.AperFunction,ViaPad*%
%ADD24C,0.700000*%
%TD*%
%TA.AperFunction,Conductor*%
%ADD25C,0.700000*%
%TD*%
%TA.AperFunction,Conductor*%
%ADD26C,0.500000*%
%TD*%
%TA.AperFunction,Conductor*%
%ADD27C,0.293370*%
%TD*%
G04 APERTURE END LIST*
D10*
X192252600Y-117729000D03*
D11*
X194792600Y-117729000D03*
X197332600Y-117729000D03*
X199872600Y-117729000D03*
X202412600Y-117729000D03*
X204952600Y-117729000D03*
X207492600Y-117729000D03*
D12*
X216370400Y-73736200D03*
D13*
X216370400Y-68656200D03*
D14*
X194559200Y-42214600D03*
D15*
X194559200Y-44754600D03*
X194559200Y-47294600D03*
X194559200Y-49834600D03*
X194559200Y-52374600D03*
X194559200Y-54914600D03*
D14*
X214879200Y-42214600D03*
D15*
X214879200Y-44754600D03*
X214879200Y-47294600D03*
X214879200Y-49834600D03*
X214879200Y-52374600D03*
X214879200Y-54914600D03*
D16*
X147548600Y-31851600D03*
D17*
X142468600Y-31851600D03*
D18*
X190512400Y-65710000D03*
D19*
X193052400Y-65710000D03*
D20*
X200672400Y-65710000D03*
X208292400Y-65710000D03*
D21*
X142262200Y-119964200D03*
X142262200Y-117424200D03*
X139722200Y-119964200D03*
X139722200Y-117424200D03*
X185442200Y-102184200D03*
X147342200Y-84404200D03*
X147342200Y-86944200D03*
X149882200Y-84404200D03*
X149882200Y-86944200D03*
X152422200Y-84404200D03*
X152422200Y-86944200D03*
X154962200Y-84404200D03*
X154962200Y-86944200D03*
X157502200Y-84404200D03*
X157502200Y-86944200D03*
X160042200Y-84404200D03*
X160042200Y-86944200D03*
X162582200Y-84404200D03*
X162582200Y-86944200D03*
X165122200Y-84404200D03*
X165122200Y-86944200D03*
X144802200Y-117424200D03*
X149882200Y-117424200D03*
X149882200Y-119964200D03*
X152422200Y-117424200D03*
X152422200Y-119964200D03*
X154962200Y-117424200D03*
X154962200Y-119964200D03*
X157502200Y-117424200D03*
X157502200Y-119964200D03*
X160042200Y-117424200D03*
X160042200Y-119964200D03*
X162582200Y-117424200D03*
X162582200Y-119964200D03*
X165122200Y-117424200D03*
X165122200Y-119964200D03*
X167662200Y-117424200D03*
X167662200Y-119964200D03*
X170202200Y-117424200D03*
X170202200Y-119964200D03*
X172742200Y-117424200D03*
X172742200Y-119964200D03*
X175282200Y-117424200D03*
X175282200Y-119964200D03*
X177822200Y-117424200D03*
X177822200Y-119964200D03*
X180362200Y-117424200D03*
X180362200Y-119964200D03*
X182902200Y-117424200D03*
X182902200Y-119964200D03*
X185442200Y-117424200D03*
X185442200Y-119964200D03*
X167662200Y-84404200D03*
X167662200Y-86944200D03*
X170202200Y-84404200D03*
X170202200Y-86944200D03*
X172742200Y-84404200D03*
X172742200Y-86944200D03*
X175282200Y-84404200D03*
X175282200Y-86944200D03*
X177822200Y-84404200D03*
X177822200Y-86944200D03*
X180362200Y-84404200D03*
X180362200Y-86944200D03*
X182902200Y-84404200D03*
X182902200Y-86944200D03*
X185442200Y-84404200D03*
X185442200Y-86944200D03*
X185442200Y-89484200D03*
X182902200Y-89484200D03*
X185442200Y-92024200D03*
X182902200Y-92024200D03*
X185442200Y-94564200D03*
X182902200Y-94564200D03*
X137182200Y-119964200D03*
X137182200Y-117424200D03*
X185442200Y-107264200D03*
X182902200Y-102184200D03*
X185442200Y-104724200D03*
X182902200Y-107264200D03*
X144802200Y-119964200D03*
X147342200Y-117424200D03*
X182902200Y-104724200D03*
X147342200Y-119964200D03*
X134642200Y-119964200D03*
X134642200Y-117424200D03*
D12*
X214821000Y-107238800D03*
D13*
X214821000Y-102158800D03*
D10*
X131876800Y-37134800D03*
D11*
X131876800Y-39674800D03*
D10*
X131648200Y-63017400D03*
D11*
X131648200Y-65557400D03*
D22*
X168732200Y-35712400D03*
D23*
X215900000Y-91440000D03*
X182880000Y-68580000D03*
X149860000Y-93980000D03*
X134620000Y-55880000D03*
X187960000Y-45720000D03*
X137160000Y-66040000D03*
X165100000Y-109220000D03*
X157480000Y-93980000D03*
X160020000Y-78740000D03*
D24*
X196596000Y-104038400D03*
D23*
X213360000Y-96520000D03*
X157480000Y-78740000D03*
X167640000Y-40640000D03*
X147320000Y-109220000D03*
X147320000Y-99060000D03*
X200660000Y-45720000D03*
X203200000Y-83820000D03*
X154940000Y-96520000D03*
X132080000Y-101600000D03*
X182880000Y-73660000D03*
X215900000Y-93980000D03*
X205740000Y-50800000D03*
X137160000Y-111760000D03*
X162560000Y-104140000D03*
D24*
X163068000Y-60909200D03*
D23*
X213360000Y-93980000D03*
X170180000Y-101600000D03*
X215900000Y-83820000D03*
X167640000Y-43180000D03*
X157480000Y-99060000D03*
X187960000Y-76200000D03*
X147320000Y-45720000D03*
X162560000Y-33020000D03*
X190500000Y-43180000D03*
X190500000Y-40640000D03*
X132080000Y-104140000D03*
X203200000Y-45720000D03*
X147320000Y-48260000D03*
X172720000Y-53340000D03*
X154940000Y-30480000D03*
X170180000Y-48260000D03*
X200660000Y-48260000D03*
D24*
X161036000Y-61010800D03*
D22*
X137134600Y-115112800D03*
D23*
X132080000Y-96520000D03*
X134620000Y-104140000D03*
X132080000Y-81280000D03*
X157480000Y-101600000D03*
X210820000Y-58420000D03*
X154940000Y-109220000D03*
X162560000Y-101600000D03*
X198120000Y-48260000D03*
X132080000Y-50800000D03*
X172720000Y-101600000D03*
X170180000Y-53340000D03*
D24*
X174599600Y-40436800D03*
D23*
X167640000Y-93980000D03*
D24*
X161899600Y-44094400D03*
D23*
X182880000Y-66040000D03*
X132080000Y-99060000D03*
X157480000Y-104140000D03*
X134620000Y-45720000D03*
X165100000Y-30480000D03*
X134620000Y-86360000D03*
X190500000Y-104140000D03*
X157480000Y-109220000D03*
X190500000Y-76200000D03*
D24*
X192252600Y-115443000D03*
D23*
X182880000Y-60960000D03*
X139700000Y-45720000D03*
X203200000Y-81280000D03*
X208280000Y-38100000D03*
X167640000Y-68580000D03*
X187960000Y-50800000D03*
D24*
X174091600Y-34493200D03*
D23*
X175260000Y-93980000D03*
X167640000Y-101600000D03*
D24*
X141274800Y-43738800D03*
X203428600Y-105283000D03*
D23*
X210820000Y-38100000D03*
X210820000Y-48260000D03*
X134620000Y-60960000D03*
X213360000Y-81280000D03*
X144780000Y-106680000D03*
X149860000Y-101600000D03*
X182880000Y-71120000D03*
X177800000Y-71120000D03*
X170180000Y-63500000D03*
X203200000Y-53340000D03*
X132080000Y-71120000D03*
D24*
X164592000Y-62433200D03*
D23*
X152400000Y-30480000D03*
X162560000Y-93980000D03*
D24*
X174498000Y-41656000D03*
D23*
X149860000Y-99060000D03*
X167944800Y-32207200D03*
X132080000Y-111760000D03*
X142240000Y-76200000D03*
X160020000Y-33020000D03*
D24*
X207619600Y-73558400D03*
X211201000Y-91948000D03*
X164592000Y-59588400D03*
D23*
X137160000Y-81280000D03*
X147320000Y-78740000D03*
X177800000Y-73660000D03*
X142240000Y-73660000D03*
X142240000Y-45720000D03*
X154940000Y-99060000D03*
X167640000Y-104140000D03*
X198120000Y-45720000D03*
X213360000Y-86360000D03*
X177800000Y-68580000D03*
X172720000Y-55880000D03*
X162560000Y-76200000D03*
X134620000Y-83820000D03*
X134620000Y-58420000D03*
X187960000Y-73660000D03*
X167640000Y-96520000D03*
X132080000Y-93980000D03*
X137160000Y-88900000D03*
X210820000Y-45720000D03*
D24*
X197612000Y-95605600D03*
D23*
X210820000Y-40640000D03*
X149860000Y-96520000D03*
D24*
X208229200Y-87376000D03*
X175869600Y-41808400D03*
D23*
X190500000Y-45720000D03*
X187960000Y-40640000D03*
X152400000Y-99060000D03*
X149860000Y-76200000D03*
X172720000Y-50800000D03*
X137160000Y-83820000D03*
X157480000Y-76200000D03*
X134620000Y-43180000D03*
X154940000Y-76200000D03*
X132080000Y-86360000D03*
X172720000Y-63500000D03*
D24*
X165201600Y-42468800D03*
D23*
X152400000Y-93980000D03*
X175260000Y-106680000D03*
X182880000Y-63500000D03*
X200660000Y-43180000D03*
X170180000Y-50800000D03*
X170180000Y-109220000D03*
X162560000Y-30480000D03*
X132080000Y-91440000D03*
X134620000Y-66040000D03*
X154940000Y-93980000D03*
X167640000Y-66040000D03*
X134620000Y-48260000D03*
X175260000Y-78740000D03*
D24*
X161899600Y-42468800D03*
D23*
X162560000Y-78740000D03*
D24*
X163474400Y-46075600D03*
D23*
X137160000Y-73660000D03*
X203200000Y-43180000D03*
X175260000Y-73660000D03*
X137160000Y-76200000D03*
X147320000Y-96520000D03*
X134620000Y-53340000D03*
X134620000Y-91440000D03*
X165100000Y-78740000D03*
X152400000Y-76200000D03*
X154940000Y-78740000D03*
X137160000Y-93980000D03*
X152400000Y-96520000D03*
X137160000Y-109220000D03*
X154940000Y-104140000D03*
X200660000Y-53340000D03*
X165100000Y-33020000D03*
D24*
X175920400Y-40640000D03*
D23*
X172720000Y-106680000D03*
X134620000Y-93980000D03*
D24*
X188595000Y-83058000D03*
D23*
X137160000Y-45720000D03*
X132080000Y-55880000D03*
X167640000Y-60960000D03*
X210820000Y-83820000D03*
X187960000Y-78740000D03*
X132080000Y-114300000D03*
X215900000Y-81280000D03*
X144780000Y-45720000D03*
X170180000Y-93980000D03*
X170180000Y-60960000D03*
X172720000Y-93980000D03*
X187960000Y-43180000D03*
X172720000Y-58420000D03*
X132080000Y-58420000D03*
X134620000Y-109220000D03*
X195580000Y-114300000D03*
D24*
X163068000Y-59588400D03*
D23*
X170180000Y-96520000D03*
D24*
X164592000Y-60909200D03*
D23*
X149860000Y-104140000D03*
X139700000Y-43180000D03*
X132080000Y-83820000D03*
X195580000Y-111760000D03*
X180340000Y-33020000D03*
X157480000Y-30480000D03*
X147320000Y-101600000D03*
X198120000Y-43180000D03*
X185420000Y-78740000D03*
X134620000Y-50800000D03*
X154940000Y-33020000D03*
X215900000Y-86360000D03*
D24*
X196799200Y-42214800D03*
D23*
X137160000Y-101600000D03*
D24*
X161036000Y-62534800D03*
D23*
X147320000Y-76200000D03*
X160020000Y-76200000D03*
X167640000Y-109220000D03*
X175260000Y-104140000D03*
X182880000Y-50800000D03*
X134620000Y-88900000D03*
X149860000Y-78740000D03*
X132080000Y-53340000D03*
X137160000Y-96520000D03*
D24*
X177698400Y-39827200D03*
D23*
X149860000Y-45720000D03*
X137160000Y-104140000D03*
X205740000Y-48260000D03*
X160020000Y-93980000D03*
X165100000Y-93980000D03*
X132080000Y-88900000D03*
D24*
X174193200Y-42824400D03*
D23*
X177800000Y-50800000D03*
D24*
X198120000Y-89382600D03*
D23*
X144780000Y-109220000D03*
X185420000Y-58420000D03*
X152400000Y-104140000D03*
X172720000Y-60960000D03*
X175260000Y-96520000D03*
X180340000Y-50800000D03*
D24*
X163474400Y-44094400D03*
X163474400Y-42468800D03*
X214884000Y-40487600D03*
D23*
X142240000Y-104140000D03*
X137160000Y-78740000D03*
X147320000Y-93980000D03*
X166116000Y-76047600D03*
X175260000Y-109220000D03*
X170180000Y-66040000D03*
X170180000Y-104140000D03*
X175260000Y-101600000D03*
X134620000Y-111760000D03*
X152400000Y-101600000D03*
X203200000Y-50800000D03*
X205740000Y-81280000D03*
X180340000Y-30480000D03*
X165100000Y-101600000D03*
X172720000Y-96520000D03*
X215900000Y-96520000D03*
X149860000Y-48260000D03*
X200660000Y-81280000D03*
X213360000Y-38100000D03*
X203200000Y-48260000D03*
X190500000Y-50800000D03*
X134620000Y-101600000D03*
X172720000Y-76200000D03*
D22*
X137718800Y-48514000D03*
D24*
X147777200Y-34950400D03*
D23*
X137160000Y-86360000D03*
X137160000Y-91440000D03*
X132080000Y-109220000D03*
X157480000Y-33020000D03*
D24*
X161899600Y-46126400D03*
D23*
X170180000Y-58420000D03*
X134620000Y-99060000D03*
X213360000Y-83820000D03*
X137160000Y-43180000D03*
X200660000Y-55880000D03*
D24*
X161112200Y-109245400D03*
D23*
X142240000Y-109220000D03*
D24*
X208102200Y-108559600D03*
D23*
X165100000Y-104140000D03*
X134620000Y-81280000D03*
D24*
X145440400Y-70713600D03*
X205994000Y-108915200D03*
X165201600Y-44094400D03*
X210388200Y-72313800D03*
X165201600Y-46075600D03*
D23*
X149860000Y-109220000D03*
X172720000Y-104140000D03*
X134620000Y-96520000D03*
X215900000Y-88900000D03*
X160020000Y-30480000D03*
X205740000Y-58420000D03*
X167640000Y-63500000D03*
D24*
X161188400Y-113512600D03*
D23*
X137160000Y-106680000D03*
X162560000Y-96520000D03*
X142240000Y-106680000D03*
X134620000Y-71120000D03*
D24*
X163068000Y-62433200D03*
D23*
X132080000Y-106680000D03*
X152400000Y-78740000D03*
X152400000Y-33020000D03*
X190500000Y-78740000D03*
X157480000Y-96520000D03*
X154940000Y-101600000D03*
X152400000Y-109220000D03*
X134620000Y-63500000D03*
X165100000Y-96520000D03*
X170180000Y-55880000D03*
X210820000Y-50800000D03*
X175260000Y-76200000D03*
X167640000Y-38100000D03*
X205740000Y-43180000D03*
X137160000Y-71120000D03*
D24*
X202311000Y-88265000D03*
X161036000Y-59588400D03*
D23*
X210820000Y-55880000D03*
X172720000Y-78740000D03*
X190500000Y-109220000D03*
X200660000Y-50800000D03*
X134620000Y-106680000D03*
X205740000Y-45720000D03*
X190500000Y-106680000D03*
X210820000Y-76200000D03*
X137160000Y-99060000D03*
X215900000Y-78740000D03*
X160020000Y-96520000D03*
X202742800Y-100101400D03*
D22*
X177723800Y-54584600D03*
D24*
X197002400Y-94564200D03*
X199466200Y-89789000D03*
X188544200Y-82042000D03*
X160070800Y-109347000D03*
X160070800Y-113461800D03*
D25*
X182829200Y-38785800D02*
X203682600Y-38785800D01*
X203682600Y-38785800D02*
X208292400Y-43395600D01*
X168732200Y-35712400D02*
X179755800Y-35712400D01*
X179755800Y-35712400D02*
X182829200Y-38785800D01*
X208292400Y-43395600D02*
X208292400Y-65710000D01*
D26*
X137182200Y-117424200D02*
X137182200Y-115160400D01*
X137182200Y-119964200D02*
X137182200Y-117424200D01*
X137182200Y-115160400D02*
X137134600Y-115112800D01*
X177723800Y-54584600D02*
X188493400Y-54584600D01*
X210134200Y-102285800D02*
X210134200Y-110515400D01*
X206502000Y-114147600D02*
X204393800Y-114147600D01*
X210134200Y-110515400D02*
X206502000Y-114147600D01*
X193052400Y-59143600D02*
X193052400Y-65710000D01*
X188493400Y-54584600D02*
X193052400Y-59143600D01*
X204393800Y-114147600D02*
X202412600Y-116128800D01*
X207949800Y-100101400D02*
X210134200Y-102285800D01*
X202412600Y-116128800D02*
X202412600Y-117729000D01*
X202742800Y-100101400D02*
X207949800Y-100101400D01*
D27*
X178739800Y-111302800D02*
X180365400Y-112928400D01*
X191770000Y-112928400D02*
X194792600Y-115951000D01*
X178739800Y-93472000D02*
X178739800Y-111302800D01*
X194792600Y-115951000D02*
X194792600Y-117729000D01*
X182902200Y-92024200D02*
X180187600Y-92024200D01*
X180365400Y-112928400D02*
X191770000Y-112928400D01*
X180187600Y-92024200D02*
X178739800Y-93472000D01*
X192582800Y-71678800D02*
X196875400Y-67386200D01*
X196875400Y-50850800D02*
X195859200Y-49834600D01*
X189306200Y-94564200D02*
X192582800Y-91287600D01*
X195859200Y-49834600D02*
X194559200Y-49834600D01*
X196875400Y-67386200D02*
X196875400Y-50850800D01*
X185442200Y-94564200D02*
X189306200Y-94564200D01*
X192582800Y-91287600D02*
X192582800Y-71678800D01*
X205613000Y-92608400D02*
X205613000Y-85699600D01*
X199466200Y-96215200D02*
X199466200Y-114604800D01*
X199466200Y-114604800D02*
X199872600Y-115011200D01*
X202006200Y-96215200D02*
X205613000Y-92608400D01*
X199466200Y-94589600D02*
X199466200Y-96215200D01*
X212344000Y-62128400D02*
X214879200Y-59593200D01*
X199466200Y-89789000D02*
X199466200Y-94589600D01*
X199466200Y-96215200D02*
X202006200Y-96215200D01*
X212344000Y-78968600D02*
X212344000Y-62128400D01*
X199872600Y-115011200D02*
X199872600Y-117729000D01*
X205613000Y-85699600D02*
X212344000Y-78968600D01*
X197002400Y-94564200D02*
X199440800Y-94564200D01*
X199440800Y-94564200D02*
X199466200Y-94589600D01*
X214879200Y-59593200D02*
X214879200Y-54914600D01*
X206019400Y-121970800D02*
X207492600Y-120497600D01*
X173228000Y-121970800D02*
X206019400Y-121970800D01*
X207492600Y-120497600D02*
X207492600Y-117729000D01*
X172742200Y-119964200D02*
X172742200Y-121485000D01*
X172742200Y-121485000D02*
X173228000Y-121970800D01*
X143408400Y-102031800D02*
X148513800Y-107137200D01*
X188544200Y-82042000D02*
X187375800Y-80873600D01*
X187375800Y-80873600D02*
X146405600Y-80873600D01*
X148513800Y-107137200D02*
X170408600Y-107137200D01*
X143408400Y-83870800D02*
X143408400Y-102031800D01*
X170408600Y-107137200D02*
X172742200Y-109470800D01*
X172742200Y-109470800D02*
X172742200Y-117424200D01*
X146405600Y-80873600D02*
X143408400Y-83870800D01*
X160070800Y-109347000D02*
X160070800Y-113461800D01*
M02*
