G04 #@! TF.GenerationSoftware,KiCad,Pcbnew,(6.0.11)*
G04 #@! TF.CreationDate,2023-08-29T13:20:49-05:00*
G04 #@! TF.ProjectId,MB,4d422e6b-6963-4616-945f-706362585858,rev?*
G04 #@! TF.SameCoordinates,Original*
G04 #@! TF.FileFunction,Copper,L1,Top*
G04 #@! TF.FilePolarity,Positive*
%FSLAX46Y46*%
G04 Gerber Fmt 4.6, Leading zero omitted, Abs format (unit mm)*
G04 Created by KiCad (PCBNEW (6.0.11)) date 2023-08-29 13:20:49*
%MOMM*%
%LPD*%
G01*
G04 APERTURE LIST*
G04 Aperture macros list*
%AMRoundRect*
0 Rectangle with rounded corners*
0 $1 Rounding radius*
0 $2 $3 $4 $5 $6 $7 $8 $9 X,Y pos of 4 corners*
0 Add a 4 corners polygon primitive as box body*
4,1,4,$2,$3,$4,$5,$6,$7,$8,$9,$2,$3,0*
0 Add four circle primitives for the rounded corners*
1,1,$1+$1,$2,$3*
1,1,$1+$1,$4,$5*
1,1,$1+$1,$6,$7*
1,1,$1+$1,$8,$9*
0 Add four rect primitives between the rounded corners*
20,1,$1+$1,$2,$3,$4,$5,0*
20,1,$1+$1,$4,$5,$6,$7,0*
20,1,$1+$1,$6,$7,$8,$9,0*
20,1,$1+$1,$8,$9,$2,$3,0*%
G04 Aperture macros list end*
G04 #@! TA.AperFunction,SMDPad,CuDef*
%ADD10RoundRect,0.150000X-0.150000X0.825000X-0.150000X-0.825000X0.150000X-0.825000X0.150000X0.825000X0*%
G04 #@! TD*
G04 #@! TA.AperFunction,ComponentPad*
%ADD11R,1.700000X1.700000*%
G04 #@! TD*
G04 #@! TA.AperFunction,ComponentPad*
%ADD12O,1.700000X1.700000*%
G04 #@! TD*
G04 #@! TA.AperFunction,ComponentPad*
%ADD13RoundRect,0.249999X1.550001X-0.790001X1.550001X0.790001X-1.550001X0.790001X-1.550001X-0.790001X0*%
G04 #@! TD*
G04 #@! TA.AperFunction,ComponentPad*
%ADD14O,3.600000X2.080000*%
G04 #@! TD*
G04 #@! TA.AperFunction,SMDPad,CuDef*
%ADD15RoundRect,0.200000X-0.200000X-0.275000X0.200000X-0.275000X0.200000X0.275000X-0.200000X0.275000X0*%
G04 #@! TD*
G04 #@! TA.AperFunction,SMDPad,CuDef*
%ADD16R,2.500000X1.800000*%
G04 #@! TD*
G04 #@! TA.AperFunction,ComponentPad*
%ADD17RoundRect,0.249999X0.790001X1.550001X-0.790001X1.550001X-0.790001X-1.550001X0.790001X-1.550001X0*%
G04 #@! TD*
G04 #@! TA.AperFunction,ComponentPad*
%ADD18O,2.080000X3.600000*%
G04 #@! TD*
G04 #@! TA.AperFunction,ComponentPad*
%ADD19R,1.508000X1.508000*%
G04 #@! TD*
G04 #@! TA.AperFunction,ComponentPad*
%ADD20C,1.508000*%
G04 #@! TD*
G04 #@! TA.AperFunction,ComponentPad*
%ADD21C,1.800000*%
G04 #@! TD*
G04 #@! TA.AperFunction,SMDPad,CuDef*
%ADD22RoundRect,0.150000X0.875000X0.150000X-0.875000X0.150000X-0.875000X-0.150000X0.875000X-0.150000X0*%
G04 #@! TD*
G04 #@! TA.AperFunction,SMDPad,CuDef*
%ADD23RoundRect,0.250001X-2.049999X-0.799999X2.049999X-0.799999X2.049999X0.799999X-2.049999X0.799999X0*%
G04 #@! TD*
G04 #@! TA.AperFunction,ComponentPad*
%ADD24C,1.676400*%
G04 #@! TD*
G04 #@! TA.AperFunction,SMDPad,CuDef*
%ADD25R,1.400000X1.200000*%
G04 #@! TD*
G04 #@! TA.AperFunction,SMDPad,CuDef*
%ADD26R,1.220000X0.910000*%
G04 #@! TD*
G04 #@! TA.AperFunction,SMDPad,CuDef*
%ADD27RoundRect,0.140000X-0.140000X-0.170000X0.140000X-0.170000X0.140000X0.170000X-0.140000X0.170000X0*%
G04 #@! TD*
G04 #@! TA.AperFunction,SMDPad,CuDef*
%ADD28C,2.000000*%
G04 #@! TD*
G04 #@! TA.AperFunction,SMDPad,CuDef*
%ADD29RoundRect,0.218750X-0.256250X0.218750X-0.256250X-0.218750X0.256250X-0.218750X0.256250X0.218750X0*%
G04 #@! TD*
G04 #@! TA.AperFunction,SMDPad,CuDef*
%ADD30R,0.910000X1.220000*%
G04 #@! TD*
G04 #@! TA.AperFunction,SMDPad,CuDef*
%ADD31RoundRect,0.250000X-1.950000X-1.000000X1.950000X-1.000000X1.950000X1.000000X-1.950000X1.000000X0*%
G04 #@! TD*
G04 #@! TA.AperFunction,SMDPad,CuDef*
%ADD32R,4.600000X1.100000*%
G04 #@! TD*
G04 #@! TA.AperFunction,SMDPad,CuDef*
%ADD33R,9.400000X10.800000*%
G04 #@! TD*
G04 #@! TA.AperFunction,SMDPad,CuDef*
%ADD34RoundRect,0.200000X-0.275000X0.200000X-0.275000X-0.200000X0.275000X-0.200000X0.275000X0.200000X0*%
G04 #@! TD*
G04 #@! TA.AperFunction,SMDPad,CuDef*
%ADD35R,5.399999X2.899999*%
G04 #@! TD*
G04 #@! TA.AperFunction,SMDPad,CuDef*
%ADD36RoundRect,0.150000X0.587500X0.150000X-0.587500X0.150000X-0.587500X-0.150000X0.587500X-0.150000X0*%
G04 #@! TD*
G04 #@! TA.AperFunction,SMDPad,CuDef*
%ADD37RoundRect,0.200000X0.275000X-0.200000X0.275000X0.200000X-0.275000X0.200000X-0.275000X-0.200000X0*%
G04 #@! TD*
G04 #@! TA.AperFunction,SMDPad,CuDef*
%ADD38RoundRect,0.150000X0.150000X-0.587500X0.150000X0.587500X-0.150000X0.587500X-0.150000X-0.587500X0*%
G04 #@! TD*
G04 #@! TA.AperFunction,SMDPad,CuDef*
%ADD39RoundRect,0.250000X0.475000X-0.250000X0.475000X0.250000X-0.475000X0.250000X-0.475000X-0.250000X0*%
G04 #@! TD*
G04 #@! TA.AperFunction,SMDPad,CuDef*
%ADD40RoundRect,0.200000X0.200000X0.275000X-0.200000X0.275000X-0.200000X-0.275000X0.200000X-0.275000X0*%
G04 #@! TD*
G04 #@! TA.AperFunction,ComponentPad*
%ADD41R,1.680000X1.680000*%
G04 #@! TD*
G04 #@! TA.AperFunction,ComponentPad*
%ADD42C,1.680000*%
G04 #@! TD*
G04 #@! TA.AperFunction,SMDPad,CuDef*
%ADD43R,2.000000X1.500000*%
G04 #@! TD*
G04 #@! TA.AperFunction,SMDPad,CuDef*
%ADD44R,2.000000X3.800000*%
G04 #@! TD*
G04 #@! TA.AperFunction,SMDPad,CuDef*
%ADD45RoundRect,0.218750X-0.218750X-0.256250X0.218750X-0.256250X0.218750X0.256250X-0.218750X0.256250X0*%
G04 #@! TD*
G04 #@! TA.AperFunction,SMDPad,CuDef*
%ADD46R,1.200000X0.900000*%
G04 #@! TD*
G04 #@! TA.AperFunction,SMDPad,CuDef*
%ADD47RoundRect,0.250000X0.312500X0.625000X-0.312500X0.625000X-0.312500X-0.625000X0.312500X-0.625000X0*%
G04 #@! TD*
G04 #@! TA.AperFunction,SMDPad,CuDef*
%ADD48RoundRect,0.250000X0.250000X0.475000X-0.250000X0.475000X-0.250000X-0.475000X0.250000X-0.475000X0*%
G04 #@! TD*
G04 #@! TA.AperFunction,SMDPad,CuDef*
%ADD49RoundRect,0.225000X-0.225000X-0.250000X0.225000X-0.250000X0.225000X0.250000X-0.225000X0.250000X0*%
G04 #@! TD*
G04 #@! TA.AperFunction,SMDPad,CuDef*
%ADD50RoundRect,0.140000X0.140000X0.170000X-0.140000X0.170000X-0.140000X-0.170000X0.140000X-0.170000X0*%
G04 #@! TD*
G04 #@! TA.AperFunction,ViaPad*
%ADD51C,0.700000*%
G04 #@! TD*
G04 #@! TA.AperFunction,ViaPad*
%ADD52C,1.000000*%
G04 #@! TD*
G04 #@! TA.AperFunction,ViaPad*
%ADD53C,0.800000*%
G04 #@! TD*
G04 #@! TA.AperFunction,Conductor*
%ADD54C,0.500000*%
G04 #@! TD*
G04 #@! TA.AperFunction,Conductor*
%ADD55C,0.293370*%
G04 #@! TD*
G04 #@! TA.AperFunction,Conductor*
%ADD56C,0.300000*%
G04 #@! TD*
G04 #@! TA.AperFunction,Conductor*
%ADD57C,0.700000*%
G04 #@! TD*
G04 APERTURE END LIST*
D10*
X205257400Y-108951800D03*
X203987400Y-108951800D03*
X202717400Y-108951800D03*
X201447400Y-108951800D03*
X201447400Y-104001800D03*
X202717400Y-104001800D03*
X203987400Y-104001800D03*
X205257400Y-104001800D03*
D11*
X192252600Y-117729000D03*
D12*
X194792600Y-117729000D03*
X197332600Y-117729000D03*
X199872600Y-117729000D03*
X202412600Y-117729000D03*
X204952600Y-117729000D03*
X207492600Y-117729000D03*
D13*
X216370400Y-73736200D03*
D14*
X216370400Y-68656200D03*
D15*
X167678600Y-78384400D03*
X169328600Y-78384400D03*
D16*
X144570200Y-48539400D03*
X140570200Y-48539400D03*
D17*
X147548600Y-31851600D03*
D18*
X142468600Y-31851600D03*
D19*
X190512400Y-63500200D03*
D20*
X193052400Y-63500200D03*
D21*
X200672400Y-63500200D03*
X208292400Y-63500200D03*
D22*
X204243200Y-98399600D03*
X204243200Y-97129600D03*
X204243200Y-95859600D03*
X204243200Y-94589600D03*
X204243200Y-93319600D03*
X204243200Y-92049600D03*
X204243200Y-90779600D03*
X204243200Y-89509600D03*
X204243200Y-88239600D03*
X194943200Y-88239600D03*
X194943200Y-89509600D03*
X194943200Y-90779600D03*
X194943200Y-92049600D03*
X194943200Y-93319600D03*
X194943200Y-94589600D03*
X194943200Y-95859600D03*
X194943200Y-97129600D03*
X194943200Y-98399600D03*
D23*
X154731000Y-40030400D03*
X163531000Y-40030400D03*
D24*
X142262200Y-119964200D03*
X142262200Y-117424200D03*
X139722200Y-119964200D03*
X139722200Y-117424200D03*
X185442200Y-102184200D03*
X147342200Y-84404200D03*
X147342200Y-86944200D03*
X149882200Y-84404200D03*
X149882200Y-86944200D03*
X152422200Y-84404200D03*
X152422200Y-86944200D03*
X154962200Y-84404200D03*
X154962200Y-86944200D03*
X157502200Y-84404200D03*
X157502200Y-86944200D03*
X160042200Y-84404200D03*
X160042200Y-86944200D03*
X162582200Y-84404200D03*
X162582200Y-86944200D03*
X165122200Y-84404200D03*
X165122200Y-86944200D03*
X144802200Y-117424200D03*
X149882200Y-117424200D03*
X149882200Y-119964200D03*
X152422200Y-117424200D03*
X152422200Y-119964200D03*
X154962200Y-117424200D03*
X154962200Y-119964200D03*
X157502200Y-117424200D03*
X157502200Y-119964200D03*
X160042200Y-117424200D03*
X160042200Y-119964200D03*
X162582200Y-117424200D03*
X162582200Y-119964200D03*
X165122200Y-117424200D03*
X165122200Y-119964200D03*
X167662200Y-117424200D03*
X167662200Y-119964200D03*
X170202200Y-117424200D03*
X170202200Y-119964200D03*
X172742200Y-117424200D03*
X172742200Y-119964200D03*
X175282200Y-117424200D03*
X175282200Y-119964200D03*
X177822200Y-117424200D03*
X177822200Y-119964200D03*
X180362200Y-117424200D03*
X180362200Y-119964200D03*
X182902200Y-117424200D03*
X182902200Y-119964200D03*
X185442200Y-117424200D03*
X185442200Y-119964200D03*
X167662200Y-84404200D03*
X167662200Y-86944200D03*
X170202200Y-84404200D03*
X170202200Y-86944200D03*
X172742200Y-84404200D03*
X172742200Y-86944200D03*
X175282200Y-84404200D03*
X175282200Y-86944200D03*
X177822200Y-84404200D03*
X177822200Y-86944200D03*
X180362200Y-84404200D03*
X180362200Y-86944200D03*
X182902200Y-84404200D03*
X182902200Y-86944200D03*
X185442200Y-84404200D03*
X185442200Y-86944200D03*
X185442200Y-89484200D03*
X182902200Y-89484200D03*
X185442200Y-92024200D03*
X182902200Y-92024200D03*
X185442200Y-94564200D03*
X182902200Y-94564200D03*
X137182200Y-119964200D03*
X137182200Y-117424200D03*
X185442200Y-107264200D03*
X182902200Y-102184200D03*
X185442200Y-104724200D03*
X182902200Y-107264200D03*
X144802200Y-119964200D03*
X147342200Y-117424200D03*
X182902200Y-104724200D03*
X147342200Y-119964200D03*
X134642200Y-119964200D03*
X134642200Y-117424200D03*
D25*
X209212000Y-90537400D03*
X211412000Y-90537400D03*
X211412000Y-88837400D03*
X209212000Y-88837400D03*
D26*
X212013800Y-69027800D03*
X212013800Y-72297800D03*
D27*
X202872400Y-101828600D03*
X203832400Y-101828600D03*
D28*
X131318000Y-44170600D03*
X131216400Y-48260000D03*
D29*
X199948800Y-71729500D03*
X199948800Y-73304500D03*
D30*
X143297400Y-36169600D03*
X146567400Y-36169600D03*
D31*
X155032600Y-64897000D03*
X163432600Y-64897000D03*
D28*
X210159600Y-96621600D03*
D32*
X154742800Y-49908200D03*
X154742800Y-51608200D03*
X154742800Y-53308200D03*
D33*
X163892800Y-53308200D03*
D32*
X154742800Y-55008200D03*
X154742800Y-56708200D03*
D34*
X199948800Y-75578200D03*
X199948800Y-77228200D03*
D35*
X144043401Y-53368400D03*
X144043401Y-63268400D03*
D36*
X144803100Y-40777200D03*
X144803100Y-38877200D03*
X142928100Y-39827200D03*
D37*
X192049400Y-100443800D03*
X192049400Y-98793800D03*
D38*
X202605600Y-73937100D03*
X204505600Y-73937100D03*
X203555600Y-72062100D03*
D39*
X174244000Y-46085800D03*
X174244000Y-44185800D03*
D13*
X214821000Y-107238800D03*
D14*
X214821000Y-102158800D03*
D40*
X144106400Y-70713600D03*
X142456400Y-70713600D03*
D34*
X207645000Y-75349600D03*
X207645000Y-76999600D03*
D41*
X194305200Y-31343400D03*
D42*
X194305200Y-33883400D03*
X194305200Y-36423400D03*
X194305200Y-38963400D03*
X194305200Y-41503400D03*
X194305200Y-44043400D03*
D41*
X214625200Y-31343400D03*
D42*
X214625200Y-33883400D03*
X214625200Y-36423400D03*
X214625200Y-38963400D03*
X214625200Y-41503400D03*
X214625200Y-44043400D03*
D28*
X174117000Y-31927800D03*
D43*
X177672600Y-41464200D03*
D44*
X183972600Y-43764200D03*
D43*
X177672600Y-43764200D03*
X177672600Y-46064200D03*
D26*
X196291200Y-74888600D03*
X196291200Y-71618600D03*
D28*
X211353400Y-114401600D03*
D11*
X133700200Y-31851600D03*
D12*
X131160200Y-31851600D03*
D45*
X167741500Y-76047600D03*
X169316500Y-76047600D03*
D28*
X177596800Y-31927800D03*
D27*
X195432800Y-100558600D03*
X196392800Y-100558600D03*
D46*
X149402800Y-38532800D03*
X149402800Y-41832800D03*
D47*
X145632900Y-43764200D03*
X142707900Y-43764200D03*
D27*
X209222400Y-92506800D03*
X210182400Y-92506800D03*
D48*
X179562800Y-38455600D03*
X177662800Y-38455600D03*
D49*
X194881200Y-102641400D03*
X196431200Y-102641400D03*
D50*
X210182400Y-87147400D03*
X209222400Y-87147400D03*
D28*
X170484800Y-31927800D03*
D45*
X142468500Y-68275200D03*
X144043500Y-68275200D03*
D40*
X204253600Y-77114400D03*
X202603600Y-77114400D03*
D11*
X131648200Y-63017400D03*
D12*
X131648200Y-65557400D03*
D51*
X203987400Y-105638600D03*
D52*
X198704200Y-47650400D03*
X168732200Y-35712400D03*
X194386200Y-47650400D03*
D53*
X215900000Y-91440000D03*
X182880000Y-68580000D03*
X149860000Y-93980000D03*
X134620000Y-55880000D03*
X137160000Y-66040000D03*
X165100000Y-109220000D03*
X157480000Y-93980000D03*
X160020000Y-78740000D03*
D51*
X196596000Y-104038400D03*
D53*
X213360000Y-96520000D03*
X157480000Y-78740000D03*
X167640000Y-40640000D03*
D51*
X200660000Y-60960000D03*
X208280000Y-43180000D03*
D53*
X147320000Y-109220000D03*
X147320000Y-99060000D03*
X203200000Y-83820000D03*
X154940000Y-96520000D03*
X132080000Y-101600000D03*
X182880000Y-73660000D03*
X215900000Y-93980000D03*
D51*
X193040000Y-55880000D03*
D53*
X137160000Y-111760000D03*
X162560000Y-104140000D03*
D51*
X163068000Y-60909200D03*
D53*
X213360000Y-93980000D03*
X170180000Y-101600000D03*
X215900000Y-83820000D03*
X167640000Y-43180000D03*
X157480000Y-99060000D03*
X187960000Y-76200000D03*
X147320000Y-45720000D03*
X162560000Y-33020000D03*
X132080000Y-104140000D03*
X147320000Y-48260000D03*
D51*
X200660000Y-38100000D03*
D53*
X172720000Y-53340000D03*
X154940000Y-30480000D03*
X170180000Y-48260000D03*
D51*
X161036000Y-61010800D03*
D52*
X137134600Y-115112800D03*
D53*
X132080000Y-96520000D03*
X134620000Y-104140000D03*
X132080000Y-81280000D03*
X157480000Y-101600000D03*
X154940000Y-109220000D03*
D51*
X203200000Y-60960000D03*
D53*
X162560000Y-101600000D03*
X132080000Y-50800000D03*
X172720000Y-101600000D03*
X170180000Y-53340000D03*
D51*
X174599600Y-40436800D03*
D53*
X167640000Y-93980000D03*
D51*
X161899600Y-44094400D03*
D53*
X182880000Y-66040000D03*
X132080000Y-99060000D03*
D51*
X203200000Y-35560000D03*
D53*
X157480000Y-104140000D03*
X134620000Y-45720000D03*
D52*
X193979800Y-54305200D03*
D53*
X165100000Y-30480000D03*
X134620000Y-86360000D03*
X190500000Y-104140000D03*
D52*
X198755000Y-46075600D03*
D53*
X157480000Y-109220000D03*
X190500000Y-76200000D03*
D51*
X192252600Y-115443000D03*
X200660000Y-35560000D03*
D53*
X182880000Y-60960000D03*
X139700000Y-45720000D03*
X203200000Y-81280000D03*
D51*
X205740000Y-60960000D03*
D53*
X167640000Y-68580000D03*
D51*
X174091600Y-34493200D03*
D53*
X175260000Y-93980000D03*
X167640000Y-101600000D03*
D51*
X141274800Y-43738800D03*
D53*
X134620000Y-60960000D03*
X213360000Y-81280000D03*
X144780000Y-106680000D03*
X149860000Y-101600000D03*
X182880000Y-71120000D03*
D51*
X208280000Y-38100000D03*
D53*
X177800000Y-71120000D03*
X170180000Y-63500000D03*
X132080000Y-71120000D03*
D51*
X164592000Y-62433200D03*
X200660000Y-45720000D03*
D53*
X152400000Y-30480000D03*
X162560000Y-93980000D03*
D51*
X174498000Y-41656000D03*
D53*
X149860000Y-99060000D03*
X167944800Y-32207200D03*
D51*
X200660000Y-33020000D03*
D53*
X132080000Y-111760000D03*
X142240000Y-76200000D03*
X160020000Y-33020000D03*
D51*
X208280000Y-33020000D03*
X207619600Y-73558400D03*
X211201000Y-91948000D03*
X164592000Y-59588400D03*
X210820000Y-58420000D03*
D53*
X137160000Y-81280000D03*
X147320000Y-78740000D03*
X177800000Y-73660000D03*
X142240000Y-73660000D03*
D51*
X147320000Y-68580000D03*
D53*
X142240000Y-45720000D03*
X154940000Y-99060000D03*
X167640000Y-104140000D03*
X213360000Y-86360000D03*
X177800000Y-68580000D03*
X172720000Y-55880000D03*
X162560000Y-76200000D03*
X134620000Y-83820000D03*
X134620000Y-58420000D03*
X187960000Y-73660000D03*
X167640000Y-96520000D03*
D51*
X210820000Y-38100000D03*
D53*
X132080000Y-93980000D03*
X137160000Y-88900000D03*
D51*
X197612000Y-95605600D03*
D53*
X149860000Y-96520000D03*
D51*
X208229200Y-87376000D03*
X175869600Y-41808400D03*
D53*
X152400000Y-99060000D03*
X149860000Y-76200000D03*
X172720000Y-50800000D03*
X137160000Y-83820000D03*
X157480000Y-76200000D03*
X134620000Y-43180000D03*
X154940000Y-76200000D03*
D51*
X200660000Y-40640000D03*
D53*
X132080000Y-86360000D03*
X172720000Y-63500000D03*
D51*
X165201600Y-42468800D03*
D53*
X152400000Y-93980000D03*
X175260000Y-106680000D03*
X182880000Y-63500000D03*
D51*
X213360000Y-55880000D03*
D53*
X170180000Y-50800000D03*
X170180000Y-109220000D03*
X162560000Y-30480000D03*
X132080000Y-91440000D03*
X134620000Y-66040000D03*
X154940000Y-93980000D03*
D51*
X203200000Y-45720000D03*
D53*
X167640000Y-66040000D03*
X134620000Y-48260000D03*
X175260000Y-78740000D03*
D51*
X213360000Y-58420000D03*
X161899600Y-42468800D03*
D53*
X162560000Y-78740000D03*
D51*
X163474400Y-46075600D03*
D53*
X137160000Y-73660000D03*
D51*
X195580000Y-60960000D03*
D53*
X175260000Y-73660000D03*
X137160000Y-76200000D03*
X147320000Y-96520000D03*
X134620000Y-53340000D03*
X134620000Y-91440000D03*
X165100000Y-78740000D03*
X152400000Y-76200000D03*
X154940000Y-78740000D03*
X137160000Y-93980000D03*
X152400000Y-96520000D03*
X137160000Y-109220000D03*
X154940000Y-104140000D03*
X165100000Y-33020000D03*
D51*
X175920400Y-40640000D03*
D53*
X172720000Y-106680000D03*
X134620000Y-93980000D03*
D51*
X203200000Y-38100000D03*
X208280000Y-45720000D03*
X188595000Y-83058000D03*
X210820000Y-40640000D03*
D53*
X137160000Y-45720000D03*
X132080000Y-55880000D03*
D51*
X200660000Y-43180000D03*
D53*
X167640000Y-60960000D03*
D51*
X203200000Y-40640000D03*
D53*
X210820000Y-83820000D03*
X187960000Y-78740000D03*
X132080000Y-114300000D03*
D51*
X205740000Y-58420000D03*
D53*
X215900000Y-81280000D03*
X144780000Y-45720000D03*
X170180000Y-93980000D03*
X170180000Y-60960000D03*
X172720000Y-93980000D03*
D51*
X198120000Y-38100000D03*
D53*
X172720000Y-58420000D03*
D51*
X149860000Y-68580000D03*
D53*
X132080000Y-58420000D03*
X134620000Y-109220000D03*
X195580000Y-114300000D03*
D51*
X208280000Y-40640000D03*
X210820000Y-33020000D03*
D52*
X194335400Y-49098200D03*
D51*
X163068000Y-59588400D03*
D53*
X170180000Y-96520000D03*
D51*
X164592000Y-60909200D03*
X200660000Y-55880000D03*
D53*
X149860000Y-104140000D03*
X139700000Y-43180000D03*
X132080000Y-83820000D03*
D51*
X198120000Y-55880000D03*
D53*
X195580000Y-111760000D03*
D51*
X213360000Y-53340000D03*
D53*
X180340000Y-33020000D03*
X157480000Y-30480000D03*
X147320000Y-101600000D03*
X185420000Y-78740000D03*
D51*
X198120000Y-60960000D03*
D53*
X134620000Y-50800000D03*
X154940000Y-33020000D03*
X215900000Y-86360000D03*
X137160000Y-101600000D03*
D51*
X161036000Y-62534800D03*
D53*
X147320000Y-76200000D03*
X160020000Y-76200000D03*
X167640000Y-109220000D03*
X175260000Y-104140000D03*
X182880000Y-50800000D03*
X134620000Y-88900000D03*
X149860000Y-78740000D03*
X132080000Y-53340000D03*
X137160000Y-96520000D03*
D51*
X177698400Y-39827200D03*
D53*
X149860000Y-45720000D03*
D51*
X152400000Y-71120000D03*
D53*
X137160000Y-104140000D03*
D51*
X149860000Y-71120000D03*
D53*
X160020000Y-93980000D03*
X165100000Y-93980000D03*
X132080000Y-88900000D03*
D51*
X174193200Y-42824400D03*
D53*
X177800000Y-50800000D03*
D51*
X198120000Y-89382600D03*
X205740000Y-33020000D03*
D53*
X144780000Y-109220000D03*
X185420000Y-58420000D03*
X152400000Y-104140000D03*
X172720000Y-60960000D03*
D51*
X203200000Y-53340000D03*
D53*
X175260000Y-96520000D03*
X180340000Y-50800000D03*
D51*
X163474400Y-44094400D03*
X163474400Y-42468800D03*
D53*
X142240000Y-104140000D03*
X137160000Y-78740000D03*
X147320000Y-93980000D03*
X166116000Y-76047600D03*
X175260000Y-109220000D03*
X170180000Y-66040000D03*
X170180000Y-104140000D03*
X175260000Y-101600000D03*
D51*
X195580000Y-55880000D03*
X210820000Y-53340000D03*
D53*
X134620000Y-111760000D03*
D51*
X210820000Y-55880000D03*
D53*
X152400000Y-101600000D03*
X205740000Y-81280000D03*
X180340000Y-30480000D03*
X165100000Y-101600000D03*
X172720000Y-96520000D03*
X215900000Y-96520000D03*
X149860000Y-48260000D03*
X200660000Y-81280000D03*
X134620000Y-101600000D03*
X172720000Y-76200000D03*
D52*
X137718800Y-48514000D03*
D51*
X147777200Y-34950400D03*
D53*
X137160000Y-86360000D03*
X137160000Y-91440000D03*
X132080000Y-109220000D03*
D51*
X198120000Y-35560000D03*
D53*
X157480000Y-33020000D03*
D51*
X161899600Y-46126400D03*
D53*
X170180000Y-58420000D03*
X134620000Y-99060000D03*
X213360000Y-83820000D03*
X137160000Y-43180000D03*
D51*
X161112200Y-109245400D03*
D53*
X142240000Y-109220000D03*
X165100000Y-104140000D03*
X134620000Y-81280000D03*
D51*
X145440400Y-70713600D03*
X206770200Y-108951800D03*
X165201600Y-44094400D03*
X210388200Y-72313800D03*
X165201600Y-46075600D03*
D53*
X149860000Y-109220000D03*
X172720000Y-104140000D03*
X134620000Y-96520000D03*
X215900000Y-88900000D03*
X160020000Y-30480000D03*
X167640000Y-63500000D03*
D51*
X161188400Y-113512600D03*
D53*
X137160000Y-106680000D03*
X162560000Y-96520000D03*
X142240000Y-106680000D03*
X134620000Y-71120000D03*
D51*
X163068000Y-62433200D03*
D53*
X132080000Y-106680000D03*
X152400000Y-78740000D03*
X152400000Y-33020000D03*
X190500000Y-78740000D03*
X157480000Y-96520000D03*
X154940000Y-101600000D03*
X152400000Y-109220000D03*
X134620000Y-63500000D03*
X165100000Y-96520000D03*
X170180000Y-55880000D03*
X175260000Y-76200000D03*
D51*
X203200000Y-43180000D03*
D53*
X167640000Y-38100000D03*
X137160000Y-71120000D03*
D51*
X202311000Y-88265000D03*
X161036000Y-59588400D03*
X203200000Y-33020000D03*
D53*
X172720000Y-78740000D03*
X190500000Y-109220000D03*
X134620000Y-106680000D03*
X190500000Y-106680000D03*
X210820000Y-76200000D03*
X137160000Y-99060000D03*
X215900000Y-78740000D03*
X160020000Y-96520000D03*
D51*
X198120000Y-33020000D03*
D53*
X204089000Y-100101400D03*
D52*
X177723800Y-54584600D03*
X193954400Y-52806600D03*
X184632600Y-49377600D03*
D51*
X197002400Y-94564200D03*
X199466200Y-89789000D03*
X188544200Y-82042000D03*
X160070800Y-109347000D03*
X160070800Y-113461800D03*
D54*
X203987400Y-104001800D02*
X203987400Y-105638600D01*
D55*
X203987400Y-107289600D02*
X203987400Y-108951800D01*
X204520800Y-106756200D02*
X203987400Y-107289600D01*
X205587600Y-106756200D02*
X204520800Y-106756200D01*
X207035400Y-105308400D02*
X205587600Y-106756200D01*
X207035400Y-102743000D02*
X207035400Y-105308400D01*
X208737200Y-102158800D02*
X207619600Y-102158800D01*
X207619600Y-102158800D02*
X207035400Y-102743000D01*
D54*
X201447400Y-107238800D02*
X202717400Y-105968800D01*
X202717400Y-105968800D02*
X202717400Y-104001800D01*
X201447400Y-108951800D02*
X201447400Y-107238800D01*
D56*
X206770200Y-108951800D02*
X205257400Y-108951800D01*
D54*
X203987400Y-102616000D02*
X203987400Y-104001800D01*
X203832400Y-102461000D02*
X203987400Y-102616000D01*
X203832400Y-101828600D02*
X203832400Y-102461000D01*
X202717400Y-102565200D02*
X202717400Y-104001800D01*
X202872400Y-101828600D02*
X202872400Y-102410200D01*
X202872400Y-102410200D02*
X202717400Y-102565200D01*
X202872400Y-100733800D02*
X202872400Y-101828600D01*
X203504800Y-100101400D02*
X202872400Y-100733800D01*
X204089000Y-100101400D02*
X203504800Y-100101400D01*
D56*
X201447400Y-97561400D02*
X201879200Y-97129600D01*
X201447400Y-104001800D02*
X201447400Y-97561400D01*
D55*
X205257400Y-102057200D02*
X205257400Y-104001800D01*
X205994000Y-101320600D02*
X205257400Y-102057200D01*
D56*
X202717400Y-110083600D02*
X203657200Y-111023400D01*
X202717400Y-108951800D02*
X202717400Y-110083600D01*
X203657200Y-111023400D02*
X208940400Y-111023400D01*
D57*
X154731000Y-40030400D02*
X154731000Y-37826400D01*
X149402800Y-38532800D02*
X150191200Y-38532800D01*
X156845000Y-35712400D02*
X168732200Y-35712400D01*
X144803100Y-38877200D02*
X147101600Y-38877200D01*
X147101600Y-38877200D02*
X147446000Y-38532800D01*
X150191200Y-38532800D02*
X151688800Y-40030400D01*
X147446000Y-38532800D02*
X149402800Y-38532800D01*
X154731000Y-37826400D02*
X156845000Y-35712400D01*
X151688800Y-40030400D02*
X154731000Y-40030400D01*
X198704200Y-47650400D02*
X194386200Y-47650400D01*
D56*
X141274800Y-43738800D02*
X142682500Y-43738800D01*
D55*
X207619600Y-73558400D02*
X207619600Y-75236700D01*
X204505600Y-74660800D02*
X205106900Y-75262100D01*
D54*
X132562600Y-63017400D02*
X134620000Y-60960000D01*
D55*
X196392800Y-100558600D02*
X196392800Y-101295200D01*
X204243200Y-88239600D02*
X202336400Y-88239600D01*
D56*
X131216400Y-49936400D02*
X132080000Y-50800000D01*
D55*
X216370400Y-73736200D02*
X214932000Y-72297800D01*
X207619600Y-75236700D02*
X207645000Y-75262100D01*
X205106900Y-75262100D02*
X207645000Y-75262100D01*
X196606200Y-104028200D02*
X196596000Y-104038400D01*
X196606200Y-102641400D02*
X196606200Y-104028200D01*
X202336400Y-88239600D02*
X202311000Y-88265000D01*
D56*
X131216400Y-48260000D02*
X131216400Y-49936400D01*
D57*
X137744200Y-48539400D02*
X137718800Y-48514000D01*
D56*
X145440400Y-70713600D02*
X144106400Y-70713600D01*
X174117000Y-34467800D02*
X174091600Y-34493200D01*
D55*
X210404200Y-72297800D02*
X210388200Y-72313800D01*
D56*
X174117000Y-31927800D02*
X174117000Y-34467800D01*
D57*
X140570200Y-48539400D02*
X137744200Y-48539400D01*
D56*
X142682500Y-43738800D02*
X142707900Y-43764200D01*
D55*
X204505600Y-73937100D02*
X204505600Y-74660800D01*
X196606200Y-101508600D02*
X196606200Y-102641400D01*
X167741500Y-76047600D02*
X166116000Y-76047600D01*
X212013800Y-72297800D02*
X210404200Y-72297800D01*
D54*
X131648200Y-63017400D02*
X132562600Y-63017400D01*
D55*
X192252600Y-115443000D02*
X192252600Y-117729000D01*
X196392800Y-101295200D02*
X196606200Y-101508600D01*
X214932000Y-72297800D02*
X212013800Y-72297800D01*
D54*
X139722200Y-119964200D02*
X139722200Y-117424200D01*
X202412600Y-119151400D02*
X201345800Y-120218200D01*
D55*
X191770000Y-60833000D02*
X193052400Y-62115400D01*
D54*
X155632600Y-68815400D02*
X157226000Y-70408800D01*
X144043500Y-68275200D02*
X144043401Y-68275101D01*
X169773600Y-70408800D02*
X174244000Y-65938400D01*
X189204600Y-120218200D02*
X187829800Y-118843400D01*
X174244000Y-54610000D02*
X177698400Y-54610000D01*
X141150800Y-63268400D02*
X144043401Y-63268400D01*
D55*
X188036200Y-61823600D02*
X189026800Y-60833000D01*
X188036200Y-71094600D02*
X188036200Y-61823600D01*
D54*
X187829800Y-111833000D02*
X191417600Y-111833000D01*
D56*
X170484800Y-31927800D02*
X170484800Y-34696400D01*
D55*
X196291200Y-74903600D02*
X196265800Y-74878200D01*
D54*
X144043401Y-68275101D02*
X144043401Y-63268400D01*
X194868800Y-108381800D02*
X194868800Y-102653800D01*
X155632600Y-64897000D02*
X155632600Y-68815400D01*
D55*
X193052400Y-62115400D02*
X193052400Y-63500200D01*
X197852800Y-77228200D02*
X196291200Y-75666600D01*
D54*
X131648200Y-68122800D02*
X132356200Y-68830800D01*
X202412600Y-117729000D02*
X202412600Y-119151400D01*
X131648200Y-65557400D02*
X131648200Y-68122800D01*
X194868800Y-102653800D02*
X194881200Y-102641400D01*
D55*
X189026800Y-60833000D02*
X191770000Y-60833000D01*
X196291200Y-75666600D02*
X196291200Y-74903600D01*
D54*
X157226000Y-70408800D02*
X169773600Y-70408800D01*
D55*
X199948800Y-77228200D02*
X197852800Y-77228200D01*
D56*
X171170600Y-45237400D02*
X172019000Y-46085800D01*
D54*
X139722200Y-117424200D02*
X139722200Y-111833000D01*
X174244000Y-54610000D02*
X174244000Y-46085800D01*
D55*
X191819800Y-74878200D02*
X188036200Y-71094600D01*
D54*
X139722200Y-111833000D02*
X187829800Y-111833000D01*
X132356200Y-68830800D02*
X139722200Y-68830800D01*
X191417600Y-111833000D02*
X194868800Y-108381800D01*
X201345800Y-120218200D02*
X189204600Y-120218200D01*
X139722200Y-68830800D02*
X139722200Y-64697000D01*
X139722200Y-111833000D02*
X139722200Y-68830800D01*
D56*
X170484800Y-34696400D02*
X171170600Y-35382200D01*
D54*
X139722200Y-64697000D02*
X141150800Y-63268400D01*
D55*
X196265800Y-74878200D02*
X191819800Y-74878200D01*
D54*
X174244000Y-65938400D02*
X174244000Y-54610000D01*
D56*
X172019000Y-46085800D02*
X174244000Y-46085800D01*
D54*
X187829800Y-118843400D02*
X187829800Y-111833000D01*
X177698400Y-54610000D02*
X177723800Y-54584600D01*
D56*
X171170600Y-35382200D02*
X171170600Y-45237400D01*
D54*
X204724000Y-49631600D02*
X204724000Y-39319200D01*
D56*
X177596800Y-33985200D02*
X179562800Y-35951200D01*
D54*
X183972600Y-48717600D02*
X184632600Y-49377600D01*
D56*
X179562800Y-35951200D02*
X179562800Y-38455600D01*
X177596800Y-31927800D02*
X177596800Y-33985200D01*
D54*
X183972600Y-43764200D02*
X183972600Y-48717600D01*
X193954400Y-52806600D02*
X201549000Y-52806600D01*
X207619800Y-36423400D02*
X214625200Y-36423400D01*
X204724000Y-39319200D02*
X207619800Y-36423400D01*
X214625200Y-33883400D02*
X214625200Y-36423400D01*
X201549000Y-52806600D02*
X204724000Y-49631600D01*
D55*
X206845800Y-90537400D02*
X209212000Y-90537400D01*
X204243200Y-90779600D02*
X206603600Y-90779600D01*
X209212000Y-92496400D02*
X209222400Y-92506800D01*
X206603600Y-90779600D02*
X206845800Y-90537400D01*
X209212000Y-90537400D02*
X209212000Y-92496400D01*
X206425800Y-86868000D02*
X207568800Y-85725000D01*
X210182400Y-87398800D02*
X211412000Y-88628400D01*
X205943200Y-89509600D02*
X206425800Y-89027000D01*
X209804000Y-85725000D02*
X210182400Y-86103400D01*
X204243200Y-89509600D02*
X205943200Y-89509600D01*
X210182400Y-87147400D02*
X210182400Y-87398800D01*
X210182400Y-86103400D02*
X210182400Y-87147400D01*
X207568800Y-85725000D02*
X209804000Y-85725000D01*
X211412000Y-88628400D02*
X211412000Y-88837400D01*
X206425800Y-89027000D02*
X206425800Y-86868000D01*
D56*
X129209800Y-42062400D02*
X129209800Y-30073600D01*
D57*
X133700200Y-33979800D02*
X133700200Y-31851600D01*
X143297400Y-34382200D02*
X143297400Y-36169600D01*
D56*
X132892800Y-29565600D02*
X133700200Y-30373000D01*
D57*
X142468600Y-33553400D02*
X143297400Y-34382200D01*
D56*
X133700200Y-30373000D02*
X133700200Y-31851600D01*
X129717800Y-29565600D02*
X132892800Y-29565600D01*
X129209800Y-30073600D02*
X129717800Y-29565600D01*
D57*
X135890000Y-36169600D02*
X133700200Y-33979800D01*
X142468600Y-31851600D02*
X142468600Y-33553400D01*
D56*
X131318000Y-44170600D02*
X129209800Y-42062400D01*
D57*
X143297400Y-36169600D02*
X135890000Y-36169600D01*
D56*
X142468500Y-70701500D02*
X142456400Y-70713600D01*
X142468500Y-68275200D02*
X142468500Y-70701500D01*
D55*
X169328600Y-78384400D02*
X169328600Y-76059700D01*
X169328600Y-76059700D02*
X169316500Y-76047600D01*
X199948800Y-73304500D02*
X199948800Y-75578200D01*
X147116800Y-73152000D02*
X170383200Y-73152000D01*
X170383200Y-73152000D02*
X177038000Y-66497200D01*
X180111400Y-96494600D02*
X180111400Y-92024200D01*
X142722600Y-77546200D02*
X147116800Y-73152000D01*
X194943200Y-93319600D02*
X190550800Y-93319600D01*
X190550800Y-93319600D02*
X186867800Y-97002600D01*
X180111400Y-92024200D02*
X146659600Y-92024200D01*
X146659600Y-92024200D02*
X142722600Y-88087200D01*
X188442600Y-38150800D02*
X190170000Y-36423400D01*
X177038000Y-66497200D02*
X177038000Y-59715400D01*
X177038000Y-59715400D02*
X188442600Y-48310800D01*
X142722600Y-88087200D02*
X142722600Y-77546200D01*
X182902200Y-92024200D02*
X180111400Y-92024200D01*
X186867800Y-97002600D02*
X180619400Y-97002600D01*
X188442600Y-48310800D02*
X188442600Y-38150800D01*
X180619400Y-97002600D02*
X180111400Y-96494600D01*
X190170000Y-36423400D02*
X194305200Y-36423400D01*
X199237600Y-112217200D02*
X197332600Y-114122200D01*
X185442200Y-94564200D02*
X187121800Y-94564200D01*
X197916800Y-92049600D02*
X199237600Y-93370400D01*
X187121800Y-94564200D02*
X189636400Y-92049600D01*
X194943200Y-92049600D02*
X197916800Y-92049600D01*
X197332600Y-114122200D02*
X197332600Y-117729000D01*
X199237600Y-93370400D02*
X199237600Y-112217200D01*
X189636400Y-92049600D02*
X194943200Y-92049600D01*
X190550800Y-50012600D02*
X190550800Y-42875200D01*
X177822200Y-78108200D02*
X180746400Y-75184000D01*
X191922600Y-41503400D02*
X194305200Y-41503400D01*
X180746400Y-59817000D02*
X190550800Y-50012600D01*
X177822200Y-84404200D02*
X177822200Y-78108200D01*
X190550800Y-42875200D02*
X191922600Y-41503400D01*
X180746400Y-75184000D02*
X180746400Y-59817000D01*
X184962800Y-75641200D02*
X184962800Y-62077600D01*
X180362200Y-80241800D02*
X184962800Y-75641200D01*
X212776000Y-41503400D02*
X214625200Y-41503400D01*
X211048600Y-43230800D02*
X212776000Y-41503400D01*
X188518800Y-58521600D02*
X201980800Y-58521600D01*
X201980800Y-58521600D02*
X211048600Y-49453800D01*
X184962800Y-62077600D02*
X188518800Y-58521600D01*
X211048600Y-49453800D02*
X211048600Y-43230800D01*
X180362200Y-84404200D02*
X180362200Y-80241800D01*
X199390000Y-87680800D02*
X199466200Y-87757000D01*
X188315600Y-87223600D02*
X189585600Y-85953600D01*
X187045600Y-92024200D02*
X188315600Y-90754200D01*
X199466200Y-87757000D02*
X199466200Y-89789000D01*
X189585600Y-85953600D02*
X197662800Y-85953600D01*
X185442200Y-92024200D02*
X187045600Y-92024200D01*
X197662800Y-85953600D02*
X199390000Y-87680800D01*
X194943200Y-94589600D02*
X196977000Y-94589600D01*
X188315600Y-90754200D02*
X188315600Y-87223600D01*
X196977000Y-94589600D02*
X197002400Y-94564200D01*
D57*
X134391400Y-39827200D02*
X142928100Y-39827200D01*
X131160200Y-31851600D02*
X131160200Y-36596000D01*
X131160200Y-36596000D02*
X134391400Y-39827200D01*
D55*
X204952600Y-120167400D02*
X204952600Y-117729000D01*
X185442200Y-120875400D02*
X186080400Y-121513600D01*
X185442200Y-119964200D02*
X185442200Y-120875400D01*
X186080400Y-121513600D02*
X203606400Y-121513600D01*
X203606400Y-121513600D02*
X204952600Y-120167400D01*
D56*
X149402800Y-41832800D02*
X147346400Y-41832800D01*
X146507200Y-43764200D02*
X145632900Y-43764200D01*
X147320000Y-41275000D02*
X147320000Y-41859200D01*
X146822200Y-40777200D02*
X147320000Y-41275000D01*
X144803100Y-40777200D02*
X146822200Y-40777200D01*
X147320000Y-41859200D02*
X147320000Y-42951400D01*
X147320000Y-42951400D02*
X146507200Y-43764200D01*
X147346400Y-41832800D02*
X147320000Y-41859200D01*
X202605600Y-73937100D02*
X202605600Y-77112400D01*
D55*
X202605600Y-77101100D02*
X202592300Y-77114400D01*
D56*
X202605600Y-77112400D02*
X202603600Y-77114400D01*
D55*
X167662200Y-78400800D02*
X167678600Y-78384400D01*
X167662200Y-84404200D02*
X167662200Y-78400800D01*
X186867800Y-80314800D02*
X198069200Y-80314800D01*
X206058000Y-76999600D02*
X207645000Y-76999600D01*
X185442200Y-84404200D02*
X185442200Y-81740400D01*
X205943200Y-77114400D02*
X206058000Y-76999600D01*
X199085200Y-79298800D02*
X203428600Y-79298800D01*
X198069200Y-80314800D02*
X199085200Y-79298800D01*
X185442200Y-81740400D02*
X186867800Y-80314800D01*
X204253600Y-77114400D02*
X205943200Y-77114400D01*
X204253600Y-78473800D02*
X204253600Y-77114400D01*
X203428600Y-79298800D02*
X204253600Y-78473800D01*
X192659000Y-97129600D02*
X192049400Y-97739200D01*
X192049400Y-97739200D02*
X192049400Y-98793800D01*
X194943200Y-97129600D02*
X192659000Y-97129600D01*
X198043800Y-90779600D02*
X194943200Y-90779600D01*
X200863200Y-90601800D02*
X200253600Y-91211400D01*
X198475600Y-91211400D02*
X198043800Y-90779600D01*
X198602600Y-82042000D02*
X200863200Y-84302600D01*
X188544200Y-82042000D02*
X198602600Y-82042000D01*
X200253600Y-91211400D02*
X198475600Y-91211400D01*
X200863200Y-84302600D02*
X200863200Y-90601800D01*
X163296600Y-98602800D02*
X160042200Y-101857200D01*
X160070800Y-113461800D02*
X160042200Y-113490400D01*
X188442600Y-98602800D02*
X163296600Y-98602800D01*
X160042200Y-109318400D02*
X160070800Y-109347000D01*
X160042200Y-101857200D02*
X160042200Y-109318400D01*
X160042200Y-113490400D02*
X160042200Y-117424200D01*
X191185800Y-95859600D02*
X188442600Y-98602800D01*
X194943200Y-95859600D02*
X191185800Y-95859600D01*
X205714600Y-98399600D02*
X205994000Y-98679000D01*
X205994000Y-98679000D02*
X205994000Y-101320600D01*
X204243200Y-98399600D02*
X205714600Y-98399600D01*
X201879200Y-97129600D02*
X204243200Y-97129600D01*
D57*
X216370400Y-68656200D02*
X214528400Y-68656200D01*
X214528400Y-68656200D02*
X214156800Y-69027800D01*
X214156800Y-69027800D02*
X212013800Y-69027800D01*
X212013800Y-69027800D02*
X206200000Y-69027800D01*
X206200000Y-69027800D02*
X200672400Y-63500200D01*
D55*
X199948800Y-71729500D02*
X199948800Y-71069200D01*
X200279000Y-70739000D02*
X203250800Y-70739000D01*
X192837800Y-71578200D02*
X196265800Y-71578200D01*
X199822900Y-71603600D02*
X199948800Y-71729500D01*
X196265800Y-71578200D02*
X196291200Y-71603600D01*
X190512400Y-69252800D02*
X192837800Y-71578200D01*
X199948800Y-71069200D02*
X200279000Y-70739000D01*
X203250800Y-70739000D02*
X203555600Y-71043800D01*
X196291200Y-71603600D02*
X199822900Y-71603600D01*
X203555600Y-71043800D02*
X203555600Y-72062100D01*
X190512400Y-63500200D02*
X190512400Y-69252800D01*
X210134200Y-114401600D02*
X211353400Y-114401600D01*
X208940400Y-113207800D02*
X210134200Y-114401600D01*
X212572600Y-107238800D02*
X214821000Y-107238800D01*
X211048600Y-110134400D02*
X211785200Y-109397800D01*
X208940400Y-111023400D02*
X208940400Y-113207800D01*
X208940400Y-111023400D02*
X210159600Y-111023400D01*
X210159600Y-111023400D02*
X211048600Y-110134400D01*
X211785200Y-109397800D02*
X211785200Y-108026200D01*
X211785200Y-108026200D02*
X212572600Y-107238800D01*
X208737200Y-98044000D02*
X210159600Y-96621600D01*
X210108800Y-102158800D02*
X214821000Y-102158800D01*
X208737200Y-102158800D02*
X208737200Y-98044000D01*
X208737200Y-102158800D02*
X210108800Y-102158800D01*
G04 #@! TA.AperFunction,Conductor*
G36*
X209431807Y-86760962D02*
G01*
X209486345Y-86815500D01*
X209506307Y-86890000D01*
X209505228Y-86907899D01*
X209502439Y-86930949D01*
X209501900Y-86935405D01*
X209501901Y-87359394D01*
X209512567Y-87447540D01*
X209567081Y-87585228D01*
X209573222Y-87593319D01*
X209573224Y-87593322D01*
X209629118Y-87666960D01*
X209643705Y-87690410D01*
X209804000Y-88011000D01*
X210014359Y-88221359D01*
X210052923Y-88288154D01*
X210058000Y-88326718D01*
X210058000Y-89346282D01*
X210038038Y-89420782D01*
X210014359Y-89451641D01*
X209974641Y-89491359D01*
X209907846Y-89529923D01*
X209869282Y-89535000D01*
X208430438Y-89535000D01*
X208384695Y-89527805D01*
X207722856Y-89314308D01*
X207658083Y-89272439D01*
X207622922Y-89203791D01*
X207619600Y-89172504D01*
X207619600Y-86914213D01*
X207639562Y-86839713D01*
X207675520Y-86797864D01*
X207705786Y-86773651D01*
X207776431Y-86742699D01*
X207798866Y-86741000D01*
X209357307Y-86741000D01*
X209431807Y-86760962D01*
G37*
G04 #@! TD.AperFunction*
G04 #@! TA.AperFunction,Conductor*
G36*
X195973782Y-97860762D02*
G01*
X196004641Y-97884441D01*
X196145959Y-98025759D01*
X196184523Y-98092554D01*
X196189600Y-98131118D01*
X196189600Y-98848045D01*
X196174724Y-98912943D01*
X195808600Y-99669600D01*
X195808600Y-100029630D01*
X195788638Y-100104130D01*
X195787340Y-100106084D01*
X195783624Y-100112679D01*
X195777481Y-100120772D01*
X195722967Y-100258460D01*
X195712300Y-100346605D01*
X195712301Y-100770594D01*
X195722967Y-100858740D01*
X195726491Y-100867640D01*
X195726491Y-100867641D01*
X195769568Y-100976442D01*
X195778432Y-101053059D01*
X195762221Y-101101933D01*
X195568172Y-101462310D01*
X195453000Y-101676200D01*
X195453000Y-103392482D01*
X195433038Y-103466982D01*
X195409359Y-103497841D01*
X195191841Y-103715359D01*
X195125046Y-103753923D01*
X195086482Y-103759000D01*
X194219318Y-103759000D01*
X194144818Y-103739038D01*
X194113959Y-103715359D01*
X193921841Y-103523241D01*
X193883277Y-103456446D01*
X193878200Y-103417882D01*
X193878200Y-101879400D01*
X193870652Y-101870846D01*
X193870652Y-101870845D01*
X193510179Y-101462310D01*
X193497200Y-101447600D01*
X191541877Y-101447600D01*
X191467377Y-101427638D01*
X191420631Y-101385204D01*
X191238954Y-101130856D01*
X191211895Y-101058630D01*
X191211200Y-101044252D01*
X191211200Y-100019608D01*
X191231162Y-99945108D01*
X191265848Y-99904288D01*
X191448600Y-99754764D01*
X191518900Y-99723038D01*
X191544862Y-99721096D01*
X193452187Y-99745549D01*
X193452189Y-99745549D01*
X193471800Y-99745800D01*
X193624200Y-99491800D01*
X193600028Y-98162328D01*
X193618632Y-98087477D01*
X193648775Y-98049368D01*
X193835576Y-97879549D01*
X193904129Y-97844206D01*
X193935804Y-97840800D01*
X195899282Y-97840800D01*
X195973782Y-97860762D01*
G37*
G04 #@! TD.AperFunction*
G04 #@! TA.AperFunction,Conductor*
G36*
X180047982Y-37561162D02*
G01*
X180078841Y-37584841D01*
X180143959Y-37649959D01*
X180182523Y-37716754D01*
X180187600Y-37755318D01*
X180187600Y-41351200D01*
X180199669Y-41360252D01*
X180199670Y-41360253D01*
X180452095Y-41549571D01*
X180594000Y-41656000D01*
X184826025Y-41656000D01*
X184892660Y-41671730D01*
X185083635Y-41767218D01*
X185141342Y-41818391D01*
X185165732Y-41891561D01*
X185166000Y-41900488D01*
X185166000Y-45607482D01*
X185146038Y-45681982D01*
X185122359Y-45712841D01*
X185006441Y-45828759D01*
X184939646Y-45867323D01*
X184901082Y-45872400D01*
X182620312Y-45872400D01*
X182545812Y-45852438D01*
X182537662Y-45847375D01*
X182184350Y-45611833D01*
X182133435Y-45553899D01*
X182118000Y-45487858D01*
X182118000Y-44805600D01*
X181914800Y-44602400D01*
X176732067Y-44602400D01*
X176657567Y-44582438D01*
X176642667Y-44572600D01*
X176538800Y-44494700D01*
X176491177Y-44434030D01*
X176479200Y-44375500D01*
X176479200Y-43128067D01*
X176499162Y-43053567D01*
X176509000Y-43038667D01*
X176586900Y-42934800D01*
X176647570Y-42887177D01*
X176706100Y-42875200D01*
X179019200Y-42875200D01*
X179374800Y-42468800D01*
X179374800Y-39420800D01*
X179359291Y-39411107D01*
X179359289Y-39411105D01*
X179038430Y-39210569D01*
X178985834Y-39154156D01*
X178968400Y-39084217D01*
X178968400Y-37836470D01*
X178989634Y-37759810D01*
X179077396Y-37613540D01*
X179132843Y-37559927D01*
X179205162Y-37541200D01*
X179973482Y-37541200D01*
X180047982Y-37561162D01*
G37*
G04 #@! TD.AperFunction*
G04 #@! TA.AperFunction,Conductor*
G36*
X156830545Y-38729602D02*
G01*
X156857249Y-38752628D01*
X157144025Y-39080371D01*
X157173829Y-39144809D01*
X157175200Y-39163343D01*
X157175200Y-50330600D01*
X157155198Y-50398721D01*
X157124800Y-50431400D01*
X157005600Y-50520800D01*
X156939102Y-50545671D01*
X156930000Y-50546000D01*
X152463000Y-50546000D01*
X152394879Y-50525998D01*
X152362200Y-50495600D01*
X152120400Y-50173200D01*
X152095529Y-50106702D01*
X152095200Y-50097600D01*
X152095200Y-39229800D01*
X152115202Y-39161679D01*
X152145600Y-39129000D01*
X152671200Y-38734800D01*
X152737698Y-38709929D01*
X152746800Y-38709600D01*
X156762424Y-38709600D01*
X156830545Y-38729602D01*
G37*
G04 #@! TD.AperFunction*
G04 #@! TA.AperFunction,Conductor*
G36*
X165674731Y-38628002D02*
G01*
X165695705Y-38644905D01*
X166079095Y-39028295D01*
X166113121Y-39090607D01*
X166116000Y-39117390D01*
X166116000Y-44856400D01*
X168971399Y-47511420D01*
X169007666Y-47572454D01*
X169011600Y-47603694D01*
X169011600Y-59126573D01*
X168991598Y-59194694D01*
X168970741Y-59219454D01*
X168479826Y-59669460D01*
X168438130Y-59707681D01*
X168374399Y-59738968D01*
X168352989Y-59740800D01*
X166370000Y-59740800D01*
X166014400Y-60147200D01*
X166014400Y-65849451D01*
X165993238Y-65919343D01*
X165696428Y-66364558D01*
X165641999Y-66410143D01*
X165590966Y-66420664D01*
X164091569Y-66413241D01*
X160579824Y-66395857D01*
X160511804Y-66375518D01*
X160491354Y-66358954D01*
X160056905Y-65924505D01*
X160022879Y-65862193D01*
X160020000Y-65835410D01*
X160020000Y-60401200D01*
X160006369Y-60393627D01*
X159107422Y-59894212D01*
X159103804Y-59892122D01*
X158912773Y-59777504D01*
X158864651Y-59725305D01*
X158851600Y-59669460D01*
X158851600Y-57658000D01*
X158726293Y-57507631D01*
X158609198Y-57367117D01*
X158609197Y-57367116D01*
X158597600Y-57353200D01*
X152525865Y-57353200D01*
X152479070Y-57344188D01*
X152326805Y-57283282D01*
X152270985Y-57239411D01*
X152247600Y-57166294D01*
X152247600Y-56236990D01*
X152267602Y-56168869D01*
X152284505Y-56147895D01*
X152413895Y-56018505D01*
X152476207Y-55984479D01*
X152502990Y-55981600D01*
X158546800Y-55981600D01*
X158800800Y-55778400D01*
X158800800Y-54051200D01*
X158789973Y-54043982D01*
X158789972Y-54043981D01*
X158663923Y-53959948D01*
X158663921Y-53959947D01*
X158648400Y-53949600D01*
X152492800Y-53949600D01*
X152424679Y-53929598D01*
X152417200Y-53924400D01*
X152298000Y-53835000D01*
X152255505Y-53778126D01*
X152247600Y-53734200D01*
X152247600Y-52876198D01*
X152267602Y-52808077D01*
X152275211Y-52797486D01*
X152412970Y-52625288D01*
X152471143Y-52584590D01*
X152511359Y-52578000D01*
X158292800Y-52578000D01*
X158648400Y-52273200D01*
X158648400Y-46894520D01*
X158668402Y-46826399D01*
X158691110Y-46799975D01*
X160768408Y-44969974D01*
X160782000Y-44958000D01*
X160782000Y-39168190D01*
X160802002Y-39100069D01*
X160818905Y-39079095D01*
X161253095Y-38644905D01*
X161315407Y-38610879D01*
X161342190Y-38608000D01*
X165606610Y-38608000D01*
X165674731Y-38628002D01*
G37*
G04 #@! TD.AperFunction*
G04 #@! TA.AperFunction,Conductor*
G36*
X145854362Y-47416402D02*
G01*
X145884630Y-47443688D01*
X146022389Y-47615886D01*
X146049325Y-47681575D01*
X146050000Y-47694598D01*
X146050000Y-50241200D01*
X146060347Y-50256721D01*
X146060348Y-50256723D01*
X146349408Y-50690313D01*
X146354800Y-50698400D01*
X146608800Y-50901600D01*
X156930000Y-50901600D01*
X156998121Y-50921602D01*
X157005600Y-50926800D01*
X157124800Y-51016200D01*
X157167295Y-51073074D01*
X157175200Y-51117000D01*
X157175200Y-52068610D01*
X157155198Y-52136731D01*
X157138295Y-52157705D01*
X157059705Y-52236295D01*
X156997393Y-52270321D01*
X156970610Y-52273200D01*
X149707600Y-52273200D01*
X149692079Y-52283547D01*
X149692077Y-52283548D01*
X149509275Y-52405417D01*
X149402800Y-52476400D01*
X149402800Y-54659410D01*
X149382798Y-54727531D01*
X149365895Y-54748505D01*
X149135246Y-54979154D01*
X149072934Y-55013180D01*
X149045329Y-55016056D01*
X141377307Y-54965938D01*
X141309319Y-54945491D01*
X141289036Y-54929036D01*
X141057705Y-54697705D01*
X141023679Y-54635393D01*
X141020800Y-54608610D01*
X141020800Y-51858856D01*
X141040802Y-51790735D01*
X141046929Y-51782032D01*
X141490972Y-51204776D01*
X141548360Y-51162978D01*
X141590843Y-51155600D01*
X142697200Y-51155600D01*
X142933039Y-50890281D01*
X143091565Y-50711940D01*
X143091566Y-50711939D01*
X143103600Y-50698400D01*
X143103600Y-47746818D01*
X143123602Y-47678697D01*
X143132804Y-47666155D01*
X143319819Y-47441737D01*
X143378795Y-47402210D01*
X143416615Y-47396400D01*
X145786241Y-47396400D01*
X145854362Y-47416402D01*
G37*
G04 #@! TD.AperFunction*
G04 #@! TA.AperFunction,Conductor*
G36*
X178155600Y-37561162D02*
G01*
X178200300Y-37600800D01*
X178278200Y-37704667D01*
X178306930Y-37776245D01*
X178308000Y-37794067D01*
X178308000Y-39370000D01*
X178797794Y-39681687D01*
X178849930Y-39738526D01*
X178866800Y-39807393D01*
X178866800Y-42060934D01*
X178846838Y-42135434D01*
X178834149Y-42154014D01*
X178708336Y-42311280D01*
X178646209Y-42356984D01*
X178591987Y-42367200D01*
X175361600Y-42367200D01*
X175158400Y-42570400D01*
X175158400Y-44455688D01*
X175138438Y-44530188D01*
X175133389Y-44538317D01*
X174999433Y-44739251D01*
X174941498Y-44790165D01*
X174875458Y-44805600D01*
X173594518Y-44805600D01*
X173520018Y-44785638D01*
X173489159Y-44761959D01*
X173373241Y-44646041D01*
X173334677Y-44579246D01*
X173329600Y-44540682D01*
X173329600Y-40502345D01*
X173349562Y-40427845D01*
X173377917Y-40392509D01*
X173896476Y-39917164D01*
X173964883Y-39881538D01*
X173997159Y-39878000D01*
X176987200Y-39878000D01*
X176987200Y-37864988D01*
X177007162Y-37790488D01*
X177040812Y-37750523D01*
X177048160Y-37744400D01*
X177250559Y-37575734D01*
X177320569Y-37543377D01*
X177345945Y-37541200D01*
X178081100Y-37541200D01*
X178155600Y-37561162D01*
G37*
G04 #@! TD.AperFunction*
G04 #@! TA.AperFunction,Conductor*
G36*
X212142500Y-89857861D02*
G01*
X212197038Y-89912399D01*
X212217000Y-89986899D01*
X212217000Y-91892886D01*
X212197038Y-91967386D01*
X212137635Y-92024613D01*
X211018797Y-92616069D01*
X211012724Y-92619105D01*
X210820000Y-92710000D01*
X210609641Y-92920359D01*
X210542846Y-92958923D01*
X210504282Y-92964000D01*
X210093175Y-92964000D01*
X210026541Y-92948270D01*
X209977668Y-92923834D01*
X209919960Y-92872663D01*
X209895570Y-92799493D01*
X209896381Y-92772663D01*
X209902361Y-92723246D01*
X209902900Y-92718795D01*
X209902899Y-92294806D01*
X209892233Y-92206660D01*
X209888711Y-92197764D01*
X209886354Y-92188484D01*
X209889338Y-92187726D01*
X209882376Y-92127523D01*
X209910575Y-92059900D01*
X210566000Y-91186000D01*
X210566000Y-89986899D01*
X210585962Y-89912400D01*
X210640500Y-89857862D01*
X210715000Y-89837900D01*
X211139441Y-89837900D01*
X212068000Y-89837899D01*
X212142500Y-89857861D01*
G37*
G04 #@! TD.AperFunction*
G04 #@! TA.AperFunction,Conductor*
G36*
X178642187Y-45231962D02*
G01*
X178650337Y-45237025D01*
X178698850Y-45269367D01*
X178749765Y-45327301D01*
X178765200Y-45393342D01*
X178765200Y-46741686D01*
X178745238Y-46816186D01*
X178740176Y-46824336D01*
X178707833Y-46872851D01*
X178649898Y-46923766D01*
X178583857Y-46939201D01*
X176268095Y-46939201D01*
X173722072Y-46939200D01*
X173647572Y-46919238D01*
X173591823Y-46862561D01*
X173399151Y-46515752D01*
X173380400Y-46443391D01*
X173380400Y-45570745D01*
X173400362Y-45496245D01*
X173414931Y-45475363D01*
X173589724Y-45265611D01*
X173652752Y-45221159D01*
X173704188Y-45212000D01*
X178567687Y-45212000D01*
X178642187Y-45231962D01*
G37*
G04 #@! TD.AperFunction*
G04 #@! TA.AperFunction,Conductor*
G36*
X148292479Y-29556403D02*
G01*
X148773090Y-29852163D01*
X148826077Y-29908209D01*
X148844000Y-29979060D01*
X148844000Y-34181642D01*
X148843388Y-34195132D01*
X148818600Y-34467800D01*
X148818600Y-36931925D01*
X148798638Y-37006425D01*
X148757238Y-37052427D01*
X148578385Y-37182502D01*
X148506393Y-37210176D01*
X148490747Y-37211000D01*
X146324119Y-37211000D01*
X146249619Y-37191038D01*
X146208478Y-37155958D01*
X145956359Y-36845657D01*
X145924873Y-36775249D01*
X145923000Y-36751699D01*
X145923000Y-30113745D01*
X145942962Y-30039245D01*
X145971317Y-30003909D01*
X146089255Y-29895800D01*
X146440894Y-29573464D01*
X146509301Y-29537838D01*
X146541577Y-29534300D01*
X148214389Y-29534300D01*
X148292479Y-29556403D01*
G37*
G04 #@! TD.AperFunction*
G04 #@! TA.AperFunction,Conductor*
G36*
X157038731Y-54274402D02*
G01*
X157059705Y-54291305D01*
X157189095Y-54420695D01*
X157223121Y-54483007D01*
X157226000Y-54509790D01*
X157226000Y-55463841D01*
X157205998Y-55531962D01*
X157178712Y-55562230D01*
X157006514Y-55699989D01*
X156940825Y-55726925D01*
X156927802Y-55727600D01*
X152196800Y-55727600D01*
X151688800Y-56134000D01*
X151688800Y-62077600D01*
X153009600Y-63271400D01*
X157386344Y-63271400D01*
X157454465Y-63291402D01*
X157463168Y-63297529D01*
X157710224Y-63487572D01*
X157752022Y-63544960D01*
X157759400Y-63587443D01*
X157759400Y-65747851D01*
X157738238Y-65817743D01*
X157441454Y-66262919D01*
X157387025Y-66308504D01*
X157335920Y-66319025D01*
X152870800Y-66294356D01*
X152802792Y-66273978D01*
X152768967Y-66241594D01*
X152575870Y-65971258D01*
X152552400Y-65898022D01*
X152552400Y-65176400D01*
X152544394Y-65169995D01*
X152544393Y-65169994D01*
X152451655Y-65095804D01*
X152298400Y-64973200D01*
X141352672Y-64973200D01*
X141284551Y-64953198D01*
X141239974Y-64903549D01*
X141084902Y-64593404D01*
X141071600Y-64537055D01*
X141071600Y-61367790D01*
X141091602Y-61299669D01*
X141108505Y-61278695D01*
X141339495Y-61047705D01*
X141401807Y-61013679D01*
X141428590Y-61010800D01*
X150114000Y-61010800D01*
X150825200Y-59842400D01*
X150825200Y-54916190D01*
X150845202Y-54848069D01*
X150862105Y-54827095D01*
X151397895Y-54291305D01*
X151460207Y-54257279D01*
X151486990Y-54254400D01*
X156970610Y-54254400D01*
X157038731Y-54274402D01*
G37*
G04 #@! TD.AperFunction*
M02*
