G04 #@! TF.GenerationSoftware,KiCad,Pcbnew,(6.0.11)*
G04 #@! TF.CreationDate,2023-08-29T13:20:49-05:00*
G04 #@! TF.ProjectId,MB,4d422e6b-6963-4616-945f-706362585858,rev?*
G04 #@! TF.SameCoordinates,Original*
G04 #@! TF.FileFunction,Soldermask,Top*
G04 #@! TF.FilePolarity,Negative*
%FSLAX46Y46*%
G04 Gerber Fmt 4.6, Leading zero omitted, Abs format (unit mm)*
G04 Created by KiCad (PCBNEW (6.0.11)) date 2023-08-29 13:20:49*
%MOMM*%
%LPD*%
G01*
G04 APERTURE LIST*
G04 Aperture macros list*
%AMRoundRect*
0 Rectangle with rounded corners*
0 $1 Rounding radius*
0 $2 $3 $4 $5 $6 $7 $8 $9 X,Y pos of 4 corners*
0 Add a 4 corners polygon primitive as box body*
4,1,4,$2,$3,$4,$5,$6,$7,$8,$9,$2,$3,0*
0 Add four circle primitives for the rounded corners*
1,1,$1+$1,$2,$3*
1,1,$1+$1,$4,$5*
1,1,$1+$1,$6,$7*
1,1,$1+$1,$8,$9*
0 Add four rect primitives between the rounded corners*
20,1,$1+$1,$2,$3,$4,$5,0*
20,1,$1+$1,$4,$5,$6,$7,0*
20,1,$1+$1,$6,$7,$8,$9,0*
20,1,$1+$1,$8,$9,$2,$3,0*%
G04 Aperture macros list end*
%ADD10RoundRect,0.150000X-0.150000X0.825000X-0.150000X-0.825000X0.150000X-0.825000X0.150000X0.825000X0*%
%ADD11R,1.700000X1.700000*%
%ADD12O,1.700000X1.700000*%
%ADD13RoundRect,0.249999X1.550001X-0.790001X1.550001X0.790001X-1.550001X0.790001X-1.550001X-0.790001X0*%
%ADD14O,3.600000X2.080000*%
%ADD15RoundRect,0.200000X-0.200000X-0.275000X0.200000X-0.275000X0.200000X0.275000X-0.200000X0.275000X0*%
%ADD16R,2.500000X1.800000*%
%ADD17RoundRect,0.249999X0.790001X1.550001X-0.790001X1.550001X-0.790001X-1.550001X0.790001X-1.550001X0*%
%ADD18O,2.080000X3.600000*%
%ADD19R,1.508000X1.508000*%
%ADD20C,1.508000*%
%ADD21C,1.800000*%
%ADD22RoundRect,0.150000X0.875000X0.150000X-0.875000X0.150000X-0.875000X-0.150000X0.875000X-0.150000X0*%
%ADD23RoundRect,0.250001X-2.049999X-0.799999X2.049999X-0.799999X2.049999X0.799999X-2.049999X0.799999X0*%
%ADD24C,1.676400*%
%ADD25R,1.400000X1.200000*%
%ADD26R,1.220000X0.910000*%
%ADD27RoundRect,0.140000X-0.140000X-0.170000X0.140000X-0.170000X0.140000X0.170000X-0.140000X0.170000X0*%
%ADD28C,2.000000*%
%ADD29RoundRect,0.218750X-0.256250X0.218750X-0.256250X-0.218750X0.256250X-0.218750X0.256250X0.218750X0*%
%ADD30R,0.910000X1.220000*%
%ADD31RoundRect,0.250000X-1.950000X-1.000000X1.950000X-1.000000X1.950000X1.000000X-1.950000X1.000000X0*%
%ADD32R,4.600000X1.100000*%
%ADD33R,9.400000X10.800000*%
%ADD34RoundRect,0.200000X-0.275000X0.200000X-0.275000X-0.200000X0.275000X-0.200000X0.275000X0.200000X0*%
%ADD35R,5.399999X2.899999*%
%ADD36C,3.200000*%
%ADD37RoundRect,0.150000X0.587500X0.150000X-0.587500X0.150000X-0.587500X-0.150000X0.587500X-0.150000X0*%
%ADD38RoundRect,0.200000X0.275000X-0.200000X0.275000X0.200000X-0.275000X0.200000X-0.275000X-0.200000X0*%
%ADD39RoundRect,0.150000X0.150000X-0.587500X0.150000X0.587500X-0.150000X0.587500X-0.150000X-0.587500X0*%
%ADD40RoundRect,0.250000X0.475000X-0.250000X0.475000X0.250000X-0.475000X0.250000X-0.475000X-0.250000X0*%
%ADD41RoundRect,0.200000X0.200000X0.275000X-0.200000X0.275000X-0.200000X-0.275000X0.200000X-0.275000X0*%
%ADD42R,1.680000X1.680000*%
%ADD43C,1.680000*%
%ADD44R,2.000000X1.500000*%
%ADD45R,2.000000X3.800000*%
%ADD46RoundRect,0.218750X-0.218750X-0.256250X0.218750X-0.256250X0.218750X0.256250X-0.218750X0.256250X0*%
%ADD47R,1.200000X0.900000*%
%ADD48RoundRect,0.250000X0.312500X0.625000X-0.312500X0.625000X-0.312500X-0.625000X0.312500X-0.625000X0*%
%ADD49RoundRect,0.250000X0.250000X0.475000X-0.250000X0.475000X-0.250000X-0.475000X0.250000X-0.475000X0*%
%ADD50RoundRect,0.225000X-0.225000X-0.250000X0.225000X-0.250000X0.225000X0.250000X-0.225000X0.250000X0*%
%ADD51RoundRect,0.140000X0.140000X0.170000X-0.140000X0.170000X-0.140000X-0.170000X0.140000X-0.170000X0*%
G04 APERTURE END LIST*
D10*
X205257400Y-108951800D03*
X203987400Y-108951800D03*
X202717400Y-108951800D03*
X201447400Y-108951800D03*
X201447400Y-104001800D03*
X202717400Y-104001800D03*
X203987400Y-104001800D03*
X205257400Y-104001800D03*
D11*
X192252600Y-117729000D03*
D12*
X194792600Y-117729000D03*
X197332600Y-117729000D03*
X199872600Y-117729000D03*
X202412600Y-117729000D03*
X204952600Y-117729000D03*
X207492600Y-117729000D03*
D13*
X216370400Y-73736200D03*
D14*
X216370400Y-68656200D03*
D15*
X167678600Y-78384400D03*
X169328600Y-78384400D03*
D16*
X144570200Y-48539400D03*
X140570200Y-48539400D03*
D17*
X147548600Y-31851600D03*
D18*
X142468600Y-31851600D03*
D19*
X190512400Y-63500200D03*
D20*
X193052400Y-63500200D03*
D21*
X200672400Y-63500200D03*
X208292400Y-63500200D03*
D22*
X204243200Y-98399600D03*
X204243200Y-97129600D03*
X204243200Y-95859600D03*
X204243200Y-94589600D03*
X204243200Y-93319600D03*
X204243200Y-92049600D03*
X204243200Y-90779600D03*
X204243200Y-89509600D03*
X204243200Y-88239600D03*
X194943200Y-88239600D03*
X194943200Y-89509600D03*
X194943200Y-90779600D03*
X194943200Y-92049600D03*
X194943200Y-93319600D03*
X194943200Y-94589600D03*
X194943200Y-95859600D03*
X194943200Y-97129600D03*
X194943200Y-98399600D03*
D23*
X154731000Y-40030400D03*
X163531000Y-40030400D03*
D24*
X142262200Y-119964200D03*
X142262200Y-117424200D03*
X139722200Y-119964200D03*
X139722200Y-117424200D03*
X185442200Y-102184200D03*
X147342200Y-84404200D03*
X147342200Y-86944200D03*
X149882200Y-84404200D03*
X149882200Y-86944200D03*
X152422200Y-84404200D03*
X152422200Y-86944200D03*
X154962200Y-84404200D03*
X154962200Y-86944200D03*
X157502200Y-84404200D03*
X157502200Y-86944200D03*
X160042200Y-84404200D03*
X160042200Y-86944200D03*
X162582200Y-84404200D03*
X162582200Y-86944200D03*
X165122200Y-84404200D03*
X165122200Y-86944200D03*
X144802200Y-117424200D03*
X149882200Y-117424200D03*
X149882200Y-119964200D03*
X152422200Y-117424200D03*
X152422200Y-119964200D03*
X154962200Y-117424200D03*
X154962200Y-119964200D03*
X157502200Y-117424200D03*
X157502200Y-119964200D03*
X160042200Y-117424200D03*
X160042200Y-119964200D03*
X162582200Y-117424200D03*
X162582200Y-119964200D03*
X165122200Y-117424200D03*
X165122200Y-119964200D03*
X167662200Y-117424200D03*
X167662200Y-119964200D03*
X170202200Y-117424200D03*
X170202200Y-119964200D03*
X172742200Y-117424200D03*
X172742200Y-119964200D03*
X175282200Y-117424200D03*
X175282200Y-119964200D03*
X177822200Y-117424200D03*
X177822200Y-119964200D03*
X180362200Y-117424200D03*
X180362200Y-119964200D03*
X182902200Y-117424200D03*
X182902200Y-119964200D03*
X185442200Y-117424200D03*
X185442200Y-119964200D03*
X167662200Y-84404200D03*
X167662200Y-86944200D03*
X170202200Y-84404200D03*
X170202200Y-86944200D03*
X172742200Y-84404200D03*
X172742200Y-86944200D03*
X175282200Y-84404200D03*
X175282200Y-86944200D03*
X177822200Y-84404200D03*
X177822200Y-86944200D03*
X180362200Y-84404200D03*
X180362200Y-86944200D03*
X182902200Y-84404200D03*
X182902200Y-86944200D03*
X185442200Y-84404200D03*
X185442200Y-86944200D03*
X185442200Y-89484200D03*
X182902200Y-89484200D03*
X185442200Y-92024200D03*
X182902200Y-92024200D03*
X185442200Y-94564200D03*
X182902200Y-94564200D03*
X137182200Y-119964200D03*
X137182200Y-117424200D03*
X185442200Y-107264200D03*
X182902200Y-102184200D03*
X185442200Y-104724200D03*
X182902200Y-107264200D03*
X144802200Y-119964200D03*
X147342200Y-117424200D03*
X182902200Y-104724200D03*
X147342200Y-119964200D03*
X134642200Y-119964200D03*
X134642200Y-117424200D03*
D25*
X209212000Y-90537400D03*
X211412000Y-90537400D03*
X211412000Y-88837400D03*
X209212000Y-88837400D03*
D26*
X212013800Y-69027800D03*
X212013800Y-72297800D03*
D27*
X202872400Y-101828600D03*
X203832400Y-101828600D03*
D28*
X131318000Y-44170600D03*
X131216400Y-48260000D03*
D29*
X199948800Y-71729500D03*
X199948800Y-73304500D03*
D30*
X143297400Y-36169600D03*
X146567400Y-36169600D03*
D31*
X155032600Y-64897000D03*
X163432600Y-64897000D03*
D28*
X210159600Y-96621600D03*
D32*
X154742800Y-49908200D03*
X154742800Y-51608200D03*
X154742800Y-53308200D03*
D33*
X163892800Y-53308200D03*
D32*
X154742800Y-55008200D03*
X154742800Y-56708200D03*
D34*
X199948800Y-75578200D03*
X199948800Y-77228200D03*
D35*
X144043401Y-53368400D03*
X144043401Y-63268400D03*
D36*
X132842000Y-75692000D03*
D37*
X144803100Y-40777200D03*
X144803100Y-38877200D03*
X142928100Y-39827200D03*
D38*
X192049400Y-100443800D03*
X192049400Y-98793800D03*
D39*
X202605600Y-73937100D03*
X204505600Y-73937100D03*
X203555600Y-72062100D03*
D40*
X174244000Y-46085800D03*
X174244000Y-44185800D03*
D13*
X214821000Y-107238800D03*
D14*
X214821000Y-102158800D03*
D41*
X144106400Y-70713600D03*
X142456400Y-70713600D03*
D34*
X207645000Y-75349600D03*
X207645000Y-76999600D03*
D42*
X194305200Y-31343400D03*
D43*
X194305200Y-33883400D03*
X194305200Y-36423400D03*
X194305200Y-38963400D03*
X194305200Y-41503400D03*
X194305200Y-44043400D03*
D42*
X214625200Y-31343400D03*
D43*
X214625200Y-33883400D03*
X214625200Y-36423400D03*
X214625200Y-38963400D03*
X214625200Y-41503400D03*
X214625200Y-44043400D03*
D28*
X174117000Y-31927800D03*
D44*
X177672600Y-41464200D03*
D45*
X183972600Y-43764200D03*
D44*
X177672600Y-43764200D03*
X177672600Y-46064200D03*
D26*
X196291200Y-74888600D03*
X196291200Y-71618600D03*
D36*
X185369200Y-33477200D03*
D28*
X211353400Y-114401600D03*
D11*
X133700200Y-31851600D03*
D12*
X131160200Y-31851600D03*
D46*
X167741500Y-76047600D03*
X169316500Y-76047600D03*
D28*
X177596800Y-31927800D03*
D27*
X195432800Y-100558600D03*
X196392800Y-100558600D03*
D47*
X149402800Y-38532800D03*
X149402800Y-41832800D03*
D48*
X145632900Y-43764200D03*
X142707900Y-43764200D03*
D27*
X209222400Y-92506800D03*
X210182400Y-92506800D03*
D49*
X179562800Y-38455600D03*
X177662800Y-38455600D03*
D50*
X194881200Y-102641400D03*
X196431200Y-102641400D03*
D51*
X210182400Y-87147400D03*
X209222400Y-87147400D03*
D28*
X170484800Y-31927800D03*
D46*
X142468500Y-68275200D03*
X144043500Y-68275200D03*
D41*
X204253600Y-77114400D03*
X202603600Y-77114400D03*
D36*
X215036400Y-119354600D03*
D11*
X131648200Y-63017400D03*
D12*
X131648200Y-65557400D03*
M02*
