%TF.GenerationSoftware,KiCad,Pcbnew,(6.0.11)*%
%TF.CreationDate,2023-07-21T15:58:32-05:00*%
%TF.ProjectId,MB,4d422e6b-6963-4616-945f-706362585858,rev?*%
%TF.SameCoordinates,Original*%
%TF.FileFunction,Soldermask,Top*%
%TF.FilePolarity,Negative*%
%FSLAX46Y46*%
G04 Gerber Fmt 4.6, Leading zero omitted, Abs format (unit mm)*
G04 Created by KiCad (PCBNEW (6.0.11)) date 2023-07-21 15:58:32*
%MOMM*%
%LPD*%
G01*
G04 APERTURE LIST*
G04 Aperture macros list*
%AMRoundRect*
0 Rectangle with rounded corners*
0 $1 Rounding radius*
0 $2 $3 $4 $5 $6 $7 $8 $9 X,Y pos of 4 corners*
0 Add a 4 corners polygon primitive as box body*
4,1,4,$2,$3,$4,$5,$6,$7,$8,$9,$2,$3,0*
0 Add four circle primitives for the rounded corners*
1,1,$1+$1,$2,$3*
1,1,$1+$1,$4,$5*
1,1,$1+$1,$6,$7*
1,1,$1+$1,$8,$9*
0 Add four rect primitives between the rounded corners*
20,1,$1+$1,$2,$3,$4,$5,0*
20,1,$1+$1,$4,$5,$6,$7,0*
20,1,$1+$1,$6,$7,$8,$9,0*
20,1,$1+$1,$8,$9,$2,$3,0*%
G04 Aperture macros list end*
%ADD10RoundRect,0.200000X-0.275000X0.200000X-0.275000X-0.200000X0.275000X-0.200000X0.275000X0.200000X0*%
%ADD11RoundRect,0.200000X0.200000X0.275000X-0.200000X0.275000X-0.200000X-0.275000X0.200000X-0.275000X0*%
%ADD12R,1.220000X0.910000*%
%ADD13RoundRect,0.225000X-0.225000X-0.250000X0.225000X-0.250000X0.225000X0.250000X-0.225000X0.250000X0*%
%ADD14RoundRect,0.250000X-1.950000X-1.000000X1.950000X-1.000000X1.950000X1.000000X-1.950000X1.000000X0*%
%ADD15R,1.700000X1.700000*%
%ADD16O,1.700000X1.700000*%
%ADD17RoundRect,0.249999X1.550001X-0.790001X1.550001X0.790001X-1.550001X0.790001X-1.550001X-0.790001X0*%
%ADD18O,3.600000X2.080000*%
%ADD19RoundRect,0.200000X-0.200000X-0.275000X0.200000X-0.275000X0.200000X0.275000X-0.200000X0.275000X0*%
%ADD20R,1.680000X1.680000*%
%ADD21C,1.680000*%
%ADD22R,2.500000X1.800000*%
%ADD23RoundRect,0.249999X0.790001X1.550001X-0.790001X1.550001X-0.790001X-1.550001X0.790001X-1.550001X0*%
%ADD24O,2.080000X3.600000*%
%ADD25R,1.508000X1.508000*%
%ADD26C,1.508000*%
%ADD27C,1.800000*%
%ADD28RoundRect,0.150000X0.875000X0.150000X-0.875000X0.150000X-0.875000X-0.150000X0.875000X-0.150000X0*%
%ADD29RoundRect,0.250001X-2.049999X-0.799999X2.049999X-0.799999X2.049999X0.799999X-2.049999X0.799999X0*%
%ADD30C,1.676400*%
%ADD31RoundRect,0.250000X-0.475000X0.250000X-0.475000X-0.250000X0.475000X-0.250000X0.475000X0.250000X0*%
%ADD32R,1.400000X1.200000*%
%ADD33RoundRect,0.140000X-0.140000X-0.170000X0.140000X-0.170000X0.140000X0.170000X-0.140000X0.170000X0*%
%ADD34C,2.000000*%
%ADD35RoundRect,0.135000X-0.185000X0.135000X-0.185000X-0.135000X0.185000X-0.135000X0.185000X0.135000X0*%
%ADD36RoundRect,0.218750X-0.256250X0.218750X-0.256250X-0.218750X0.256250X-0.218750X0.256250X0.218750X0*%
%ADD37R,0.910000X1.220000*%
%ADD38R,4.600000X1.100000*%
%ADD39R,9.400000X10.800000*%
%ADD40R,5.399999X2.899999*%
%ADD41C,3.200000*%
%ADD42RoundRect,0.150000X0.587500X0.150000X-0.587500X0.150000X-0.587500X-0.150000X0.587500X-0.150000X0*%
%ADD43RoundRect,0.200000X0.275000X-0.200000X0.275000X0.200000X-0.275000X0.200000X-0.275000X-0.200000X0*%
%ADD44RoundRect,0.150000X0.150000X-0.587500X0.150000X0.587500X-0.150000X0.587500X-0.150000X-0.587500X0*%
%ADD45RoundRect,0.250000X0.475000X-0.250000X0.475000X0.250000X-0.475000X0.250000X-0.475000X-0.250000X0*%
%ADD46R,2.000000X1.500000*%
%ADD47R,2.000000X3.800000*%
%ADD48RoundRect,0.218750X-0.218750X-0.256250X0.218750X-0.256250X0.218750X0.256250X-0.218750X0.256250X0*%
%ADD49R,1.200000X0.900000*%
%ADD50RoundRect,0.250000X0.312500X0.625000X-0.312500X0.625000X-0.312500X-0.625000X0.312500X-0.625000X0*%
%ADD51RoundRect,0.250000X0.250000X0.475000X-0.250000X0.475000X-0.250000X-0.475000X0.250000X-0.475000X0*%
%ADD52R,0.600000X1.300000*%
%ADD53RoundRect,0.140000X0.140000X0.170000X-0.140000X0.170000X-0.140000X-0.170000X0.140000X-0.170000X0*%
G04 APERTURE END LIST*
D10*
X207645000Y-75349600D03*
X207645000Y-76999600D03*
D11*
X204253600Y-77114400D03*
X202603600Y-77114400D03*
D12*
X196291200Y-74888600D03*
X196291200Y-71618600D03*
D13*
X194881200Y-102641400D03*
X196431200Y-102641400D03*
D14*
X155032600Y-64897000D03*
X163432600Y-64897000D03*
D15*
X192252600Y-117729000D03*
D16*
X194792600Y-117729000D03*
X197332600Y-117729000D03*
X199872600Y-117729000D03*
X202412600Y-117729000D03*
X204952600Y-117729000D03*
X207492600Y-117729000D03*
D17*
X216370400Y-73736200D03*
D18*
X216370400Y-68656200D03*
D19*
X167678600Y-78384400D03*
X169328600Y-78384400D03*
D20*
X194559200Y-42214600D03*
D21*
X194559200Y-44754600D03*
X194559200Y-47294600D03*
X194559200Y-49834600D03*
X194559200Y-52374600D03*
X194559200Y-54914600D03*
D20*
X214879200Y-42214600D03*
D21*
X214879200Y-44754600D03*
X214879200Y-47294600D03*
X214879200Y-49834600D03*
X214879200Y-52374600D03*
X214879200Y-54914600D03*
D22*
X144570200Y-48539400D03*
X140570200Y-48539400D03*
D23*
X147548600Y-31851600D03*
D24*
X142468600Y-31851600D03*
D25*
X190512400Y-65710000D03*
D26*
X193052400Y-65710000D03*
D27*
X200672400Y-65710000D03*
X208292400Y-65710000D03*
D28*
X204243200Y-98399600D03*
X204243200Y-97129600D03*
X204243200Y-95859600D03*
X204243200Y-94589600D03*
X204243200Y-93319600D03*
X204243200Y-92049600D03*
X204243200Y-90779600D03*
X204243200Y-89509600D03*
X204243200Y-88239600D03*
X194943200Y-88239600D03*
X194943200Y-89509600D03*
X194943200Y-90779600D03*
X194943200Y-92049600D03*
X194943200Y-93319600D03*
X194943200Y-94589600D03*
X194943200Y-95859600D03*
X194943200Y-97129600D03*
X194943200Y-98399600D03*
D29*
X154731000Y-40030400D03*
X163531000Y-40030400D03*
D30*
X142262200Y-119964200D03*
X142262200Y-117424200D03*
X139722200Y-119964200D03*
X139722200Y-117424200D03*
X185442200Y-102184200D03*
X147342200Y-84404200D03*
X147342200Y-86944200D03*
X149882200Y-84404200D03*
X149882200Y-86944200D03*
X152422200Y-84404200D03*
X152422200Y-86944200D03*
X154962200Y-84404200D03*
X154962200Y-86944200D03*
X157502200Y-84404200D03*
X157502200Y-86944200D03*
X160042200Y-84404200D03*
X160042200Y-86944200D03*
X162582200Y-84404200D03*
X162582200Y-86944200D03*
X165122200Y-84404200D03*
X165122200Y-86944200D03*
X144802200Y-117424200D03*
X149882200Y-117424200D03*
X149882200Y-119964200D03*
X152422200Y-117424200D03*
X152422200Y-119964200D03*
X154962200Y-117424200D03*
X154962200Y-119964200D03*
X157502200Y-117424200D03*
X157502200Y-119964200D03*
X160042200Y-117424200D03*
X160042200Y-119964200D03*
X162582200Y-117424200D03*
X162582200Y-119964200D03*
X165122200Y-117424200D03*
X165122200Y-119964200D03*
X167662200Y-117424200D03*
X167662200Y-119964200D03*
X170202200Y-117424200D03*
X170202200Y-119964200D03*
X172742200Y-117424200D03*
X172742200Y-119964200D03*
X175282200Y-117424200D03*
X175282200Y-119964200D03*
X177822200Y-117424200D03*
X177822200Y-119964200D03*
X180362200Y-117424200D03*
X180362200Y-119964200D03*
X182902200Y-117424200D03*
X182902200Y-119964200D03*
X185442200Y-117424200D03*
X185442200Y-119964200D03*
X167662200Y-84404200D03*
X167662200Y-86944200D03*
X170202200Y-84404200D03*
X170202200Y-86944200D03*
X172742200Y-84404200D03*
X172742200Y-86944200D03*
X175282200Y-84404200D03*
X175282200Y-86944200D03*
X177822200Y-84404200D03*
X177822200Y-86944200D03*
X180362200Y-84404200D03*
X180362200Y-86944200D03*
X182902200Y-84404200D03*
X182902200Y-86944200D03*
X185442200Y-84404200D03*
X185442200Y-86944200D03*
X185442200Y-89484200D03*
X182902200Y-89484200D03*
X185442200Y-92024200D03*
X182902200Y-92024200D03*
X185442200Y-94564200D03*
X182902200Y-94564200D03*
X137182200Y-119964200D03*
X137182200Y-117424200D03*
X185442200Y-107264200D03*
X182902200Y-102184200D03*
X185442200Y-104724200D03*
X182902200Y-107264200D03*
X144802200Y-119964200D03*
X147342200Y-117424200D03*
X182902200Y-104724200D03*
X147342200Y-119964200D03*
X134642200Y-119964200D03*
X134642200Y-117424200D03*
D31*
X208102200Y-105323600D03*
X208102200Y-107223600D03*
D32*
X209212000Y-90537400D03*
X211412000Y-90537400D03*
X211412000Y-88837400D03*
X209212000Y-88837400D03*
D12*
X212013800Y-69027800D03*
X212013800Y-72297800D03*
D33*
X202262800Y-101498400D03*
X203222800Y-101498400D03*
D34*
X131318000Y-44170600D03*
X131216400Y-48260000D03*
D35*
X210159600Y-106347800D03*
X210159600Y-107367800D03*
D36*
X199948800Y-71729500D03*
X199948800Y-73304500D03*
D37*
X143297400Y-36169600D03*
X146567400Y-36169600D03*
D34*
X210159600Y-96621600D03*
D38*
X154742800Y-49908200D03*
X154742800Y-51608200D03*
X154742800Y-53308200D03*
D39*
X163892800Y-53308200D03*
D38*
X154742800Y-55008200D03*
X154742800Y-56708200D03*
D10*
X199948800Y-75578200D03*
X199948800Y-77228200D03*
D40*
X144043401Y-53368400D03*
X144043401Y-63268400D03*
D41*
X132842000Y-75692000D03*
D42*
X144803100Y-40777200D03*
X144803100Y-38877200D03*
X142928100Y-39827200D03*
D43*
X192049400Y-100443800D03*
X192049400Y-98793800D03*
D44*
X202605600Y-73937100D03*
X204505600Y-73937100D03*
X203555600Y-72062100D03*
D45*
X174244000Y-46085800D03*
X174244000Y-44185800D03*
D17*
X214821000Y-107238800D03*
D18*
X214821000Y-102158800D03*
D11*
X144106400Y-70713600D03*
X142456400Y-70713600D03*
D34*
X174117000Y-31927800D03*
D46*
X177672600Y-41464200D03*
D47*
X183972600Y-43764200D03*
D46*
X177672600Y-43764200D03*
X177672600Y-46064200D03*
D41*
X185369200Y-33477200D03*
D34*
X211353400Y-114401600D03*
D15*
X131876800Y-37134800D03*
D16*
X131876800Y-39674800D03*
D48*
X167741500Y-76047600D03*
X169316500Y-76047600D03*
D34*
X177596800Y-31927800D03*
D33*
X195432800Y-100558600D03*
X196392800Y-100558600D03*
D49*
X149402800Y-38532800D03*
X149402800Y-41832800D03*
D50*
X145632900Y-43764200D03*
X142707900Y-43764200D03*
D33*
X209222400Y-92506800D03*
X210182400Y-92506800D03*
D51*
X179562800Y-38455600D03*
X177662800Y-38455600D03*
D52*
X204698600Y-103598200D03*
X203428600Y-103598200D03*
X202158600Y-103598200D03*
X200888600Y-103598200D03*
X200888600Y-108898200D03*
X202158600Y-108898200D03*
X203428600Y-108898200D03*
X204698600Y-108898200D03*
D53*
X210182400Y-87147400D03*
X209222400Y-87147400D03*
D35*
X210159600Y-103858600D03*
X210159600Y-104878600D03*
D34*
X170484800Y-31927800D03*
D48*
X142468500Y-68275200D03*
X144043500Y-68275200D03*
D41*
X215036400Y-119354600D03*
D15*
X131648200Y-63017400D03*
D16*
X131648200Y-65557400D03*
M02*
