G04 #@! TF.GenerationSoftware,KiCad,Pcbnew,(6.0.11)*
G04 #@! TF.CreationDate,2023-08-29T13:20:49-05:00*
G04 #@! TF.ProjectId,MB,4d422e6b-6963-4616-945f-706362585858,rev?*
G04 #@! TF.SameCoordinates,Original*
G04 #@! TF.FileFunction,Legend,Top*
G04 #@! TF.FilePolarity,Positive*
%FSLAX46Y46*%
G04 Gerber Fmt 4.6, Leading zero omitted, Abs format (unit mm)*
G04 Created by KiCad (PCBNEW (6.0.11)) date 2023-08-29 13:20:49*
%MOMM*%
%LPD*%
G01*
G04 APERTURE LIST*
G04 Aperture macros list*
%AMRoundRect*
0 Rectangle with rounded corners*
0 $1 Rounding radius*
0 $2 $3 $4 $5 $6 $7 $8 $9 X,Y pos of 4 corners*
0 Add a 4 corners polygon primitive as box body*
4,1,4,$2,$3,$4,$5,$6,$7,$8,$9,$2,$3,0*
0 Add four circle primitives for the rounded corners*
1,1,$1+$1,$2,$3*
1,1,$1+$1,$4,$5*
1,1,$1+$1,$6,$7*
1,1,$1+$1,$8,$9*
0 Add four rect primitives between the rounded corners*
20,1,$1+$1,$2,$3,$4,$5,0*
20,1,$1+$1,$4,$5,$6,$7,0*
20,1,$1+$1,$6,$7,$8,$9,0*
20,1,$1+$1,$8,$9,$2,$3,0*%
G04 Aperture macros list end*
%ADD10C,0.250000*%
%ADD11C,0.300000*%
%ADD12C,0.120000*%
%ADD13C,0.127000*%
%ADD14C,0.200000*%
%ADD15C,0.150000*%
%ADD16C,0.100000*%
%ADD17RoundRect,0.150000X-0.150000X0.825000X-0.150000X-0.825000X0.150000X-0.825000X0.150000X0.825000X0*%
%ADD18R,1.700000X1.700000*%
%ADD19O,1.700000X1.700000*%
%ADD20RoundRect,0.249999X1.550001X-0.790001X1.550001X0.790001X-1.550001X0.790001X-1.550001X-0.790001X0*%
%ADD21O,3.600000X2.080000*%
%ADD22RoundRect,0.200000X-0.200000X-0.275000X0.200000X-0.275000X0.200000X0.275000X-0.200000X0.275000X0*%
%ADD23R,2.500000X1.800000*%
%ADD24RoundRect,0.249999X0.790001X1.550001X-0.790001X1.550001X-0.790001X-1.550001X0.790001X-1.550001X0*%
%ADD25O,2.080000X3.600000*%
%ADD26R,1.508000X1.508000*%
%ADD27C,1.508000*%
%ADD28C,1.800000*%
%ADD29RoundRect,0.150000X0.875000X0.150000X-0.875000X0.150000X-0.875000X-0.150000X0.875000X-0.150000X0*%
%ADD30RoundRect,0.250001X-2.049999X-0.799999X2.049999X-0.799999X2.049999X0.799999X-2.049999X0.799999X0*%
%ADD31C,1.676400*%
%ADD32R,1.400000X1.200000*%
%ADD33R,1.220000X0.910000*%
%ADD34RoundRect,0.140000X-0.140000X-0.170000X0.140000X-0.170000X0.140000X0.170000X-0.140000X0.170000X0*%
%ADD35C,2.000000*%
%ADD36RoundRect,0.218750X-0.256250X0.218750X-0.256250X-0.218750X0.256250X-0.218750X0.256250X0.218750X0*%
%ADD37R,0.910000X1.220000*%
%ADD38RoundRect,0.250000X-1.950000X-1.000000X1.950000X-1.000000X1.950000X1.000000X-1.950000X1.000000X0*%
%ADD39R,4.600000X1.100000*%
%ADD40R,9.400000X10.800000*%
%ADD41RoundRect,0.200000X-0.275000X0.200000X-0.275000X-0.200000X0.275000X-0.200000X0.275000X0.200000X0*%
%ADD42R,5.399999X2.899999*%
%ADD43C,3.200000*%
%ADD44RoundRect,0.150000X0.587500X0.150000X-0.587500X0.150000X-0.587500X-0.150000X0.587500X-0.150000X0*%
%ADD45RoundRect,0.200000X0.275000X-0.200000X0.275000X0.200000X-0.275000X0.200000X-0.275000X-0.200000X0*%
%ADD46RoundRect,0.150000X0.150000X-0.587500X0.150000X0.587500X-0.150000X0.587500X-0.150000X-0.587500X0*%
%ADD47RoundRect,0.250000X0.475000X-0.250000X0.475000X0.250000X-0.475000X0.250000X-0.475000X-0.250000X0*%
%ADD48RoundRect,0.200000X0.200000X0.275000X-0.200000X0.275000X-0.200000X-0.275000X0.200000X-0.275000X0*%
%ADD49R,1.680000X1.680000*%
%ADD50C,1.680000*%
%ADD51R,2.000000X1.500000*%
%ADD52R,2.000000X3.800000*%
%ADD53RoundRect,0.218750X-0.218750X-0.256250X0.218750X-0.256250X0.218750X0.256250X-0.218750X0.256250X0*%
%ADD54R,1.200000X0.900000*%
%ADD55RoundRect,0.250000X0.312500X0.625000X-0.312500X0.625000X-0.312500X-0.625000X0.312500X-0.625000X0*%
%ADD56RoundRect,0.250000X0.250000X0.475000X-0.250000X0.475000X-0.250000X-0.475000X0.250000X-0.475000X0*%
%ADD57RoundRect,0.225000X-0.225000X-0.250000X0.225000X-0.250000X0.225000X0.250000X-0.225000X0.250000X0*%
%ADD58RoundRect,0.140000X0.140000X0.170000X-0.140000X0.170000X-0.140000X-0.170000X0.140000X-0.170000X0*%
G04 APERTURE END LIST*
D10*
X196148485Y-120800761D02*
X196291342Y-120848380D01*
X196529438Y-120848380D01*
X196624676Y-120800761D01*
X196672295Y-120753142D01*
X196719914Y-120657904D01*
X196719914Y-120562666D01*
X196672295Y-120467428D01*
X196624676Y-120419809D01*
X196529438Y-120372190D01*
X196338961Y-120324571D01*
X196243723Y-120276952D01*
X196196104Y-120229333D01*
X196148485Y-120134095D01*
X196148485Y-120038857D01*
X196196104Y-119943619D01*
X196243723Y-119896000D01*
X196338961Y-119848380D01*
X196577057Y-119848380D01*
X196719914Y-119896000D01*
X197719914Y-120753142D02*
X197672295Y-120800761D01*
X197529438Y-120848380D01*
X197434200Y-120848380D01*
X197291342Y-120800761D01*
X197196104Y-120705523D01*
X197148485Y-120610285D01*
X197100866Y-120419809D01*
X197100866Y-120276952D01*
X197148485Y-120086476D01*
X197196104Y-119991238D01*
X197291342Y-119896000D01*
X197434200Y-119848380D01*
X197529438Y-119848380D01*
X197672295Y-119896000D01*
X197719914Y-119943619D01*
X198148485Y-120848380D02*
X198148485Y-119848380D01*
X198719914Y-120848380D02*
X198291342Y-120276952D01*
X198719914Y-119848380D02*
X198148485Y-120419809D01*
X198326571Y-115463580D02*
X198326571Y-114463580D01*
X198659904Y-115177866D01*
X198993238Y-114463580D01*
X198993238Y-115463580D01*
X199469428Y-115463580D02*
X199469428Y-114463580D01*
X199898000Y-115415961D02*
X200040857Y-115463580D01*
X200278952Y-115463580D01*
X200374190Y-115415961D01*
X200421809Y-115368342D01*
X200469428Y-115273104D01*
X200469428Y-115177866D01*
X200421809Y-115082628D01*
X200374190Y-115035009D01*
X200278952Y-114987390D01*
X200088476Y-114939771D01*
X199993238Y-114892152D01*
X199945619Y-114844533D01*
X199898000Y-114749295D01*
X199898000Y-114654057D01*
X199945619Y-114558819D01*
X199993238Y-114511200D01*
X200088476Y-114463580D01*
X200326571Y-114463580D01*
X200469428Y-114511200D01*
X201088476Y-114463580D02*
X201278952Y-114463580D01*
X201374190Y-114511200D01*
X201469428Y-114606438D01*
X201517047Y-114796914D01*
X201517047Y-115130247D01*
X201469428Y-115320723D01*
X201374190Y-115415961D01*
X201278952Y-115463580D01*
X201088476Y-115463580D01*
X200993238Y-115415961D01*
X200898000Y-115320723D01*
X200850380Y-115130247D01*
X200850380Y-114796914D01*
X200898000Y-114606438D01*
X200993238Y-114511200D01*
X201088476Y-114463580D01*
X131038695Y-59367800D02*
X130943457Y-59320180D01*
X130800600Y-59320180D01*
X130657742Y-59367800D01*
X130562504Y-59463038D01*
X130514885Y-59558276D01*
X130467266Y-59748752D01*
X130467266Y-59891609D01*
X130514885Y-60082085D01*
X130562504Y-60177323D01*
X130657742Y-60272561D01*
X130800600Y-60320180D01*
X130895838Y-60320180D01*
X131038695Y-60272561D01*
X131086314Y-60224942D01*
X131086314Y-59891609D01*
X130895838Y-59891609D01*
X131514885Y-60320180D02*
X131514885Y-59320180D01*
X132086314Y-60320180D01*
X132086314Y-59320180D01*
X132562504Y-60320180D02*
X132562504Y-59320180D01*
X132800600Y-59320180D01*
X132943457Y-59367800D01*
X133038695Y-59463038D01*
X133086314Y-59558276D01*
X133133933Y-59748752D01*
X133133933Y-59891609D01*
X133086314Y-60082085D01*
X133038695Y-60177323D01*
X132943457Y-60272561D01*
X132800600Y-60320180D01*
X132562504Y-60320180D01*
X152357200Y-32435704D02*
X152309580Y-32530942D01*
X152309580Y-32673800D01*
X152357200Y-32816657D01*
X152452438Y-32911895D01*
X152547676Y-32959514D01*
X152738152Y-33007133D01*
X152881009Y-33007133D01*
X153071485Y-32959514D01*
X153166723Y-32911895D01*
X153261961Y-32816657D01*
X153309580Y-32673800D01*
X153309580Y-32578561D01*
X153261961Y-32435704D01*
X153214342Y-32388085D01*
X152881009Y-32388085D01*
X152881009Y-32578561D01*
X153309580Y-31959514D02*
X152309580Y-31959514D01*
X153309580Y-31388085D01*
X152309580Y-31388085D01*
X153309580Y-30911895D02*
X152309580Y-30911895D01*
X152309580Y-30673800D01*
X152357200Y-30530942D01*
X152452438Y-30435704D01*
X152547676Y-30388085D01*
X152738152Y-30340466D01*
X152881009Y-30340466D01*
X153071485Y-30388085D01*
X153166723Y-30435704D01*
X153261961Y-30530942D01*
X153309580Y-30673800D01*
X153309580Y-30911895D01*
X191490695Y-119896000D02*
X191395457Y-119848380D01*
X191252600Y-119848380D01*
X191109742Y-119896000D01*
X191014504Y-119991238D01*
X190966885Y-120086476D01*
X190919266Y-120276952D01*
X190919266Y-120419809D01*
X190966885Y-120610285D01*
X191014504Y-120705523D01*
X191109742Y-120800761D01*
X191252600Y-120848380D01*
X191347838Y-120848380D01*
X191490695Y-120800761D01*
X191538314Y-120753142D01*
X191538314Y-120419809D01*
X191347838Y-120419809D01*
X191966885Y-120848380D02*
X191966885Y-119848380D01*
X192538314Y-120848380D01*
X192538314Y-119848380D01*
X193014504Y-120848380D02*
X193014504Y-119848380D01*
X193252600Y-119848380D01*
X193395457Y-119896000D01*
X193490695Y-119991238D01*
X193538314Y-120086476D01*
X193585933Y-120276952D01*
X193585933Y-120419809D01*
X193538314Y-120610285D01*
X193490695Y-120705523D01*
X193395457Y-120800761D01*
X193252600Y-120848380D01*
X193014504Y-120848380D01*
X211226495Y-73490200D02*
X211131257Y-73442580D01*
X210988400Y-73442580D01*
X210845542Y-73490200D01*
X210750304Y-73585438D01*
X210702685Y-73680676D01*
X210655066Y-73871152D01*
X210655066Y-74014009D01*
X210702685Y-74204485D01*
X210750304Y-74299723D01*
X210845542Y-74394961D01*
X210988400Y-74442580D01*
X211083638Y-74442580D01*
X211226495Y-74394961D01*
X211274114Y-74347342D01*
X211274114Y-74014009D01*
X211083638Y-74014009D01*
X211702685Y-74442580D02*
X211702685Y-73442580D01*
X212274114Y-74442580D01*
X212274114Y-73442580D01*
X212750304Y-74442580D02*
X212750304Y-73442580D01*
X212988400Y-73442580D01*
X213131257Y-73490200D01*
X213226495Y-73585438D01*
X213274114Y-73680676D01*
X213321733Y-73871152D01*
X213321733Y-74014009D01*
X213274114Y-74204485D01*
X213226495Y-74299723D01*
X213131257Y-74394961D01*
X212988400Y-74442580D01*
X212750304Y-74442580D01*
D11*
X213407800Y-113026771D02*
X213350657Y-113083914D01*
X213179228Y-113141057D01*
X213064943Y-113141057D01*
X212893514Y-113083914D01*
X212779228Y-112969628D01*
X212722085Y-112855342D01*
X212664943Y-112626771D01*
X212664943Y-112455342D01*
X212722085Y-112226771D01*
X212779228Y-112112485D01*
X212893514Y-111998200D01*
X213064943Y-111941057D01*
X213179228Y-111941057D01*
X213350657Y-111998200D01*
X213407800Y-112055342D01*
X213864943Y-112798200D02*
X214436371Y-112798200D01*
X213750657Y-113141057D02*
X214150657Y-111941057D01*
X214550657Y-113141057D01*
X214950657Y-113141057D02*
X214950657Y-111941057D01*
X215636371Y-113141057D01*
X215636371Y-111941057D01*
X216779228Y-113141057D02*
X216207800Y-113141057D01*
X216207800Y-111941057D01*
D10*
X134035895Y-47734600D02*
X133940657Y-47686980D01*
X133797800Y-47686980D01*
X133654942Y-47734600D01*
X133559704Y-47829838D01*
X133512085Y-47925076D01*
X133464466Y-48115552D01*
X133464466Y-48258409D01*
X133512085Y-48448885D01*
X133559704Y-48544123D01*
X133654942Y-48639361D01*
X133797800Y-48686980D01*
X133893038Y-48686980D01*
X134035895Y-48639361D01*
X134083514Y-48591742D01*
X134083514Y-48258409D01*
X133893038Y-48258409D01*
X134512085Y-48686980D02*
X134512085Y-47686980D01*
X135083514Y-48686980D01*
X135083514Y-47686980D01*
X135559704Y-48686980D02*
X135559704Y-47686980D01*
X135797800Y-47686980D01*
X135940657Y-47734600D01*
X136035895Y-47829838D01*
X136083514Y-47925076D01*
X136131133Y-48115552D01*
X136131133Y-48258409D01*
X136083514Y-48448885D01*
X136035895Y-48544123D01*
X135940657Y-48639361D01*
X135797800Y-48686980D01*
X135559704Y-48686980D01*
X202222123Y-119848380D02*
X201745933Y-119848380D01*
X201698314Y-120324571D01*
X201745933Y-120276952D01*
X201841171Y-120229333D01*
X202079266Y-120229333D01*
X202174504Y-120276952D01*
X202222123Y-120324571D01*
X202269742Y-120419809D01*
X202269742Y-120657904D01*
X202222123Y-120753142D01*
X202174504Y-120800761D01*
X202079266Y-120848380D01*
X201841171Y-120848380D01*
X201745933Y-120800761D01*
X201698314Y-120753142D01*
X202555457Y-119848380D02*
X202888790Y-120848380D01*
X203222123Y-119848380D01*
X176323809Y-34504380D02*
X176942857Y-34504380D01*
X176609523Y-34885333D01*
X176752380Y-34885333D01*
X176847619Y-34932952D01*
X176895238Y-34980571D01*
X176942857Y-35075809D01*
X176942857Y-35313904D01*
X176895238Y-35409142D01*
X176847619Y-35456761D01*
X176752380Y-35504380D01*
X176466666Y-35504380D01*
X176371428Y-35456761D01*
X176323809Y-35409142D01*
X177371428Y-35409142D02*
X177419047Y-35456761D01*
X177371428Y-35504380D01*
X177323809Y-35456761D01*
X177371428Y-35409142D01*
X177371428Y-35504380D01*
X177752380Y-34504380D02*
X178371428Y-34504380D01*
X178038095Y-34885333D01*
X178180952Y-34885333D01*
X178276190Y-34932952D01*
X178323809Y-34980571D01*
X178371428Y-35075809D01*
X178371428Y-35313904D01*
X178323809Y-35409142D01*
X178276190Y-35456761D01*
X178180952Y-35504380D01*
X177895238Y-35504380D01*
X177800000Y-35456761D01*
X177752380Y-35409142D01*
X178657142Y-34504380D02*
X178990476Y-35504380D01*
X179323809Y-34504380D01*
X170268923Y-34504380D02*
X169792733Y-34504380D01*
X169745114Y-34980571D01*
X169792733Y-34932952D01*
X169887971Y-34885333D01*
X170126066Y-34885333D01*
X170221304Y-34932952D01*
X170268923Y-34980571D01*
X170316542Y-35075809D01*
X170316542Y-35313904D01*
X170268923Y-35409142D01*
X170221304Y-35456761D01*
X170126066Y-35504380D01*
X169887971Y-35504380D01*
X169792733Y-35456761D01*
X169745114Y-35409142D01*
X170602257Y-34504380D02*
X170935590Y-35504380D01*
X171268923Y-34504380D01*
X131381523Y-67854580D02*
X130905333Y-67854580D01*
X130857714Y-68330771D01*
X130905333Y-68283152D01*
X131000571Y-68235533D01*
X131238666Y-68235533D01*
X131333904Y-68283152D01*
X131381523Y-68330771D01*
X131429142Y-68426009D01*
X131429142Y-68664104D01*
X131381523Y-68759342D01*
X131333904Y-68806961D01*
X131238666Y-68854580D01*
X131000571Y-68854580D01*
X130905333Y-68806961D01*
X130857714Y-68759342D01*
X131714857Y-67854580D02*
X132048190Y-68854580D01*
X132381523Y-67854580D01*
X129834000Y-34981961D02*
X129976857Y-35029580D01*
X130214952Y-35029580D01*
X130310190Y-34981961D01*
X130357809Y-34934342D01*
X130405428Y-34839104D01*
X130405428Y-34743866D01*
X130357809Y-34648628D01*
X130310190Y-34601009D01*
X130214952Y-34553390D01*
X130024476Y-34505771D01*
X129929238Y-34458152D01*
X129881619Y-34410533D01*
X129834000Y-34315295D01*
X129834000Y-34220057D01*
X129881619Y-34124819D01*
X129929238Y-34077200D01*
X130024476Y-34029580D01*
X130262571Y-34029580D01*
X130405428Y-34077200D01*
X130738761Y-34029580D02*
X130976857Y-35029580D01*
X131167333Y-34315295D01*
X131357809Y-35029580D01*
X131595904Y-34029580D01*
X131976857Y-35029580D02*
X131976857Y-34029580D01*
X132310190Y-34029580D02*
X132881619Y-34029580D01*
X132595904Y-35029580D02*
X132595904Y-34029580D01*
X133786380Y-34934342D02*
X133738761Y-34981961D01*
X133595904Y-35029580D01*
X133500666Y-35029580D01*
X133357809Y-34981961D01*
X133262571Y-34886723D01*
X133214952Y-34791485D01*
X133167333Y-34601009D01*
X133167333Y-34458152D01*
X133214952Y-34267676D01*
X133262571Y-34172438D01*
X133357809Y-34077200D01*
X133500666Y-34029580D01*
X133595904Y-34029580D01*
X133738761Y-34077200D01*
X133786380Y-34124819D01*
X134214952Y-35029580D02*
X134214952Y-34029580D01*
X134214952Y-34505771D02*
X134786380Y-34505771D01*
X134786380Y-35029580D02*
X134786380Y-34029580D01*
X129810190Y-35639580D02*
X130000666Y-35639580D01*
X130095904Y-35687200D01*
X130191142Y-35782438D01*
X130238761Y-35972914D01*
X130238761Y-36306247D01*
X130191142Y-36496723D01*
X130095904Y-36591961D01*
X130000666Y-36639580D01*
X129810190Y-36639580D01*
X129714952Y-36591961D01*
X129619714Y-36496723D01*
X129572095Y-36306247D01*
X129572095Y-35972914D01*
X129619714Y-35782438D01*
X129714952Y-35687200D01*
X129810190Y-35639580D01*
X130667333Y-36639580D02*
X130667333Y-35639580D01*
X131238761Y-36639580D01*
X131238761Y-35639580D01*
X132429238Y-35591961D02*
X131572095Y-36877676D01*
X132953047Y-35639580D02*
X133143523Y-35639580D01*
X133238761Y-35687200D01*
X133334000Y-35782438D01*
X133381619Y-35972914D01*
X133381619Y-36306247D01*
X133334000Y-36496723D01*
X133238761Y-36591961D01*
X133143523Y-36639580D01*
X132953047Y-36639580D01*
X132857809Y-36591961D01*
X132762571Y-36496723D01*
X132714952Y-36306247D01*
X132714952Y-35972914D01*
X132762571Y-35782438D01*
X132857809Y-35687200D01*
X132953047Y-35639580D01*
X134143523Y-36115771D02*
X133810190Y-36115771D01*
X133810190Y-36639580D02*
X133810190Y-35639580D01*
X134286380Y-35639580D01*
X135000666Y-36115771D02*
X134667333Y-36115771D01*
X134667333Y-36639580D02*
X134667333Y-35639580D01*
X135143523Y-35639580D01*
X167409952Y-72300971D02*
X167743285Y-72300971D01*
X167886142Y-72824780D02*
X167409952Y-72824780D01*
X167409952Y-71824780D01*
X167886142Y-71824780D01*
X168171857Y-71824780D02*
X168743285Y-71824780D01*
X168457571Y-72824780D02*
X168457571Y-71824780D01*
X169076619Y-72824780D02*
X169076619Y-71824780D01*
X169076619Y-72300971D02*
X169648047Y-72300971D01*
X169648047Y-72824780D02*
X169648047Y-71824780D01*
X166052809Y-74387161D02*
X166195666Y-74434780D01*
X166433761Y-74434780D01*
X166529000Y-74387161D01*
X166576619Y-74339542D01*
X166624238Y-74244304D01*
X166624238Y-74149066D01*
X166576619Y-74053828D01*
X166529000Y-74006209D01*
X166433761Y-73958590D01*
X166243285Y-73910971D01*
X166148047Y-73863352D01*
X166100428Y-73815733D01*
X166052809Y-73720495D01*
X166052809Y-73625257D01*
X166100428Y-73530019D01*
X166148047Y-73482400D01*
X166243285Y-73434780D01*
X166481380Y-73434780D01*
X166624238Y-73482400D01*
X166909952Y-73434780D02*
X167481380Y-73434780D01*
X167195666Y-74434780D02*
X167195666Y-73434780D01*
X167767095Y-74149066D02*
X168243285Y-74149066D01*
X167671857Y-74434780D02*
X168005190Y-73434780D01*
X168338523Y-74434780D01*
X168529000Y-73434780D02*
X169100428Y-73434780D01*
X168814714Y-74434780D02*
X168814714Y-73434780D01*
X169433761Y-73434780D02*
X169433761Y-74244304D01*
X169481380Y-74339542D01*
X169529000Y-74387161D01*
X169624238Y-74434780D01*
X169814714Y-74434780D01*
X169909952Y-74387161D01*
X169957571Y-74339542D01*
X170005190Y-74244304D01*
X170005190Y-73434780D01*
X170433761Y-74387161D02*
X170576619Y-74434780D01*
X170814714Y-74434780D01*
X170909952Y-74387161D01*
X170957571Y-74339542D01*
X171005190Y-74244304D01*
X171005190Y-74149066D01*
X170957571Y-74053828D01*
X170909952Y-74006209D01*
X170814714Y-73958590D01*
X170624238Y-73910971D01*
X170529000Y-73863352D01*
X170481380Y-73815733D01*
X170433761Y-73720495D01*
X170433761Y-73625257D01*
X170481380Y-73530019D01*
X170529000Y-73482400D01*
X170624238Y-73434780D01*
X170862333Y-73434780D01*
X171005190Y-73482400D01*
X132887295Y-81700666D02*
X133363485Y-81700666D01*
X132792057Y-81986380D02*
X133125390Y-80986380D01*
X133458723Y-81986380D01*
X133649200Y-80986380D02*
X134220628Y-80986380D01*
X133934914Y-81986380D02*
X133934914Y-80986380D01*
X134553961Y-81986380D02*
X134553961Y-80986380D01*
X134887295Y-81700666D01*
X135220628Y-80986380D01*
X135220628Y-81986380D01*
X135696819Y-81462571D02*
X136030152Y-81462571D01*
X136173009Y-81986380D02*
X135696819Y-81986380D01*
X135696819Y-80986380D01*
X136173009Y-80986380D01*
X137125390Y-81034000D02*
X137030152Y-80986380D01*
X136887295Y-80986380D01*
X136744438Y-81034000D01*
X136649200Y-81129238D01*
X136601580Y-81224476D01*
X136553961Y-81414952D01*
X136553961Y-81557809D01*
X136601580Y-81748285D01*
X136649200Y-81843523D01*
X136744438Y-81938761D01*
X136887295Y-81986380D01*
X136982533Y-81986380D01*
X137125390Y-81938761D01*
X137173009Y-81891142D01*
X137173009Y-81557809D01*
X136982533Y-81557809D01*
X137553961Y-81700666D02*
X138030152Y-81700666D01*
X137458723Y-81986380D02*
X137792057Y-80986380D01*
X138125390Y-81986380D01*
X139220628Y-81986380D02*
X139220628Y-80986380D01*
X139601580Y-80986380D01*
X139696819Y-81034000D01*
X139744438Y-81081619D01*
X139792057Y-81176857D01*
X139792057Y-81319714D01*
X139744438Y-81414952D01*
X139696819Y-81462571D01*
X139601580Y-81510190D01*
X139220628Y-81510190D01*
X140792057Y-81986380D02*
X140458723Y-81510190D01*
X140220628Y-81986380D02*
X140220628Y-80986380D01*
X140601580Y-80986380D01*
X140696819Y-81034000D01*
X140744438Y-81081619D01*
X140792057Y-81176857D01*
X140792057Y-81319714D01*
X140744438Y-81414952D01*
X140696819Y-81462571D01*
X140601580Y-81510190D01*
X140220628Y-81510190D01*
X141411104Y-80986380D02*
X141601580Y-80986380D01*
X141696819Y-81034000D01*
X141792057Y-81129238D01*
X141839676Y-81319714D01*
X141839676Y-81653047D01*
X141792057Y-81843523D01*
X141696819Y-81938761D01*
X141601580Y-81986380D01*
X141411104Y-81986380D01*
X141315866Y-81938761D01*
X141220628Y-81843523D01*
X141173009Y-81653047D01*
X141173009Y-81319714D01*
X141220628Y-81129238D01*
X141315866Y-81034000D01*
X141411104Y-80986380D01*
X142982533Y-81081619D02*
X143030152Y-81034000D01*
X143125390Y-80986380D01*
X143363485Y-80986380D01*
X143458723Y-81034000D01*
X143506342Y-81081619D01*
X143553961Y-81176857D01*
X143553961Y-81272095D01*
X143506342Y-81414952D01*
X142934914Y-81986380D01*
X143553961Y-81986380D01*
X144458723Y-80986380D02*
X143982533Y-80986380D01*
X143934914Y-81462571D01*
X143982533Y-81414952D01*
X144077771Y-81367333D01*
X144315866Y-81367333D01*
X144411104Y-81414952D01*
X144458723Y-81462571D01*
X144506342Y-81557809D01*
X144506342Y-81795904D01*
X144458723Y-81891142D01*
X144411104Y-81938761D01*
X144315866Y-81986380D01*
X144077771Y-81986380D01*
X143982533Y-81938761D01*
X143934914Y-81891142D01*
X145363485Y-80986380D02*
X145173009Y-80986380D01*
X145077771Y-81034000D01*
X145030152Y-81081619D01*
X144934914Y-81224476D01*
X144887295Y-81414952D01*
X144887295Y-81795904D01*
X144934914Y-81891142D01*
X144982533Y-81938761D01*
X145077771Y-81986380D01*
X145268247Y-81986380D01*
X145363485Y-81938761D01*
X145411104Y-81891142D01*
X145458723Y-81795904D01*
X145458723Y-81557809D01*
X145411104Y-81462571D01*
X145363485Y-81414952D01*
X145268247Y-81367333D01*
X145077771Y-81367333D01*
X144982533Y-81414952D01*
X144934914Y-81462571D01*
X144887295Y-81557809D01*
X146077771Y-80986380D02*
X146173009Y-80986380D01*
X146268247Y-81034000D01*
X146315866Y-81081619D01*
X146363485Y-81176857D01*
X146411104Y-81367333D01*
X146411104Y-81605428D01*
X146363485Y-81795904D01*
X146315866Y-81891142D01*
X146268247Y-81938761D01*
X146173009Y-81986380D01*
X146077771Y-81986380D01*
X145982533Y-81938761D01*
X145934914Y-81891142D01*
X145887295Y-81795904D01*
X145839676Y-81605428D01*
X145839676Y-81367333D01*
X145887295Y-81176857D01*
X145934914Y-81081619D01*
X145982533Y-81034000D01*
X146077771Y-80986380D01*
X191789371Y-50709580D02*
X192027466Y-51709580D01*
X192217942Y-50995295D01*
X192408419Y-51709580D01*
X192646514Y-50709580D01*
X193027466Y-51709580D02*
X193027466Y-50709580D01*
X193408419Y-50709580D02*
X194075085Y-50709580D01*
X193408419Y-51709580D01*
X194075085Y-51709580D01*
X194598895Y-51138152D02*
X194503657Y-51090533D01*
X194456038Y-51042914D01*
X194408419Y-50947676D01*
X194408419Y-50900057D01*
X194456038Y-50804819D01*
X194503657Y-50757200D01*
X194598895Y-50709580D01*
X194789371Y-50709580D01*
X194884609Y-50757200D01*
X194932228Y-50804819D01*
X194979847Y-50900057D01*
X194979847Y-50947676D01*
X194932228Y-51042914D01*
X194884609Y-51090533D01*
X194789371Y-51138152D01*
X194598895Y-51138152D01*
X194503657Y-51185771D01*
X194456038Y-51233390D01*
X194408419Y-51328628D01*
X194408419Y-51519104D01*
X194456038Y-51614342D01*
X194503657Y-51661961D01*
X194598895Y-51709580D01*
X194789371Y-51709580D01*
X194884609Y-51661961D01*
X194932228Y-51614342D01*
X194979847Y-51519104D01*
X194979847Y-51328628D01*
X194932228Y-51233390D01*
X194884609Y-51185771D01*
X194789371Y-51138152D01*
X195884609Y-50709580D02*
X195408419Y-50709580D01*
X195360800Y-51185771D01*
X195408419Y-51138152D01*
X195503657Y-51090533D01*
X195741752Y-51090533D01*
X195836990Y-51138152D01*
X195884609Y-51185771D01*
X195932228Y-51281009D01*
X195932228Y-51519104D01*
X195884609Y-51614342D01*
X195836990Y-51661961D01*
X195741752Y-51709580D01*
X195503657Y-51709580D01*
X195408419Y-51661961D01*
X195360800Y-51614342D01*
X196551276Y-50709580D02*
X196646514Y-50709580D01*
X196741752Y-50757200D01*
X196789371Y-50804819D01*
X196836990Y-50900057D01*
X196884609Y-51090533D01*
X196884609Y-51328628D01*
X196836990Y-51519104D01*
X196789371Y-51614342D01*
X196741752Y-51661961D01*
X196646514Y-51709580D01*
X196551276Y-51709580D01*
X196456038Y-51661961D01*
X196408419Y-51614342D01*
X196360800Y-51519104D01*
X196313180Y-51328628D01*
X196313180Y-51090533D01*
X196360800Y-50900057D01*
X196408419Y-50804819D01*
X196456038Y-50757200D01*
X196551276Y-50709580D01*
X210924923Y-67111619D02*
X210972542Y-67064000D01*
X211067780Y-67016380D01*
X211305876Y-67016380D01*
X211401114Y-67064000D01*
X211448733Y-67111619D01*
X211496352Y-67206857D01*
X211496352Y-67302095D01*
X211448733Y-67444952D01*
X210877304Y-68016380D01*
X211496352Y-68016380D01*
X212353495Y-67349714D02*
X212353495Y-68016380D01*
X212115400Y-66968761D02*
X211877304Y-67683047D01*
X212496352Y-67683047D01*
X212734447Y-67016380D02*
X213067780Y-68016380D01*
X213401114Y-67016380D01*
X173355095Y-34552000D02*
X173259857Y-34504380D01*
X173117000Y-34504380D01*
X172974142Y-34552000D01*
X172878904Y-34647238D01*
X172831285Y-34742476D01*
X172783666Y-34932952D01*
X172783666Y-35075809D01*
X172831285Y-35266285D01*
X172878904Y-35361523D01*
X172974142Y-35456761D01*
X173117000Y-35504380D01*
X173212238Y-35504380D01*
X173355095Y-35456761D01*
X173402714Y-35409142D01*
X173402714Y-35075809D01*
X173212238Y-35075809D01*
X173831285Y-35504380D02*
X173831285Y-34504380D01*
X174402714Y-35504380D01*
X174402714Y-34504380D01*
X174878904Y-35504380D02*
X174878904Y-34504380D01*
X175117000Y-34504380D01*
X175259857Y-34552000D01*
X175355095Y-34647238D01*
X175402714Y-34742476D01*
X175450333Y-34932952D01*
X175450333Y-35075809D01*
X175402714Y-35266285D01*
X175355095Y-35361523D01*
X175259857Y-35456761D01*
X175117000Y-35504380D01*
X174878904Y-35504380D01*
D11*
X213407800Y-97151771D02*
X213350657Y-97208914D01*
X213179228Y-97266057D01*
X213064942Y-97266057D01*
X212893514Y-97208914D01*
X212779228Y-97094628D01*
X212722085Y-96980342D01*
X212664942Y-96751771D01*
X212664942Y-96580342D01*
X212722085Y-96351771D01*
X212779228Y-96237485D01*
X212893514Y-96123200D01*
X213064942Y-96066057D01*
X213179228Y-96066057D01*
X213350657Y-96123200D01*
X213407800Y-96180342D01*
X213864942Y-96923200D02*
X214436371Y-96923200D01*
X213750657Y-97266057D02*
X214150657Y-96066057D01*
X214550657Y-97266057D01*
X214950657Y-97266057D02*
X214950657Y-96066057D01*
X215636371Y-97266057D01*
X215636371Y-96066057D01*
X216207800Y-97266057D02*
X216207800Y-96066057D01*
X216207800Y-96637485D02*
X216893514Y-96637485D01*
X216893514Y-97266057D02*
X216893514Y-96066057D01*
D10*
X133683523Y-43718219D02*
X133731142Y-43670600D01*
X133826380Y-43622980D01*
X134064476Y-43622980D01*
X134159714Y-43670600D01*
X134207333Y-43718219D01*
X134254952Y-43813457D01*
X134254952Y-43908695D01*
X134207333Y-44051552D01*
X133635904Y-44622980D01*
X134254952Y-44622980D01*
X135112095Y-43956314D02*
X135112095Y-44622980D01*
X134874000Y-43575361D02*
X134635904Y-44289647D01*
X135254952Y-44289647D01*
X135493047Y-43622980D02*
X135826380Y-44622980D01*
X136159714Y-43622980D01*
X140935390Y-72172580D02*
X141125866Y-72172580D01*
X141221104Y-72220200D01*
X141316342Y-72315438D01*
X141363961Y-72505914D01*
X141363961Y-72839247D01*
X141316342Y-73029723D01*
X141221104Y-73124961D01*
X141125866Y-73172580D01*
X140935390Y-73172580D01*
X140840152Y-73124961D01*
X140744914Y-73029723D01*
X140697295Y-72839247D01*
X140697295Y-72505914D01*
X140744914Y-72315438D01*
X140840152Y-72220200D01*
X140935390Y-72172580D01*
X141792533Y-73172580D02*
X141792533Y-72172580D01*
X142363961Y-73172580D01*
X142363961Y-72172580D01*
X143554438Y-72124961D02*
X142697295Y-73410676D01*
X144078247Y-72172580D02*
X144268723Y-72172580D01*
X144363961Y-72220200D01*
X144459200Y-72315438D01*
X144506819Y-72505914D01*
X144506819Y-72839247D01*
X144459200Y-73029723D01*
X144363961Y-73124961D01*
X144268723Y-73172580D01*
X144078247Y-73172580D01*
X143983009Y-73124961D01*
X143887771Y-73029723D01*
X143840152Y-72839247D01*
X143840152Y-72505914D01*
X143887771Y-72315438D01*
X143983009Y-72220200D01*
X144078247Y-72172580D01*
X145268723Y-72648771D02*
X144935390Y-72648771D01*
X144935390Y-73172580D02*
X144935390Y-72172580D01*
X145411580Y-72172580D01*
X146125866Y-72648771D02*
X145792533Y-72648771D01*
X145792533Y-73172580D02*
X145792533Y-72172580D01*
X146268723Y-72172580D01*
D11*
X212255371Y-79917057D02*
X212255371Y-78717057D01*
X212541085Y-78717057D01*
X212712514Y-78774200D01*
X212826800Y-78888485D01*
X212883942Y-79002771D01*
X212941085Y-79231342D01*
X212941085Y-79402771D01*
X212883942Y-79631342D01*
X212826800Y-79745628D01*
X212712514Y-79859914D01*
X212541085Y-79917057D01*
X212255371Y-79917057D01*
X213683942Y-78717057D02*
X213912514Y-78717057D01*
X214026800Y-78774200D01*
X214141085Y-78888485D01*
X214198228Y-79117057D01*
X214198228Y-79517057D01*
X214141085Y-79745628D01*
X214026800Y-79859914D01*
X213912514Y-79917057D01*
X213683942Y-79917057D01*
X213569657Y-79859914D01*
X213455371Y-79745628D01*
X213398228Y-79517057D01*
X213398228Y-79117057D01*
X213455371Y-78888485D01*
X213569657Y-78774200D01*
X213683942Y-78717057D01*
X214941085Y-78717057D02*
X215169657Y-78717057D01*
X215283942Y-78774200D01*
X215398228Y-78888485D01*
X215455371Y-79117057D01*
X215455371Y-79517057D01*
X215398228Y-79745628D01*
X215283942Y-79859914D01*
X215169657Y-79917057D01*
X214941085Y-79917057D01*
X214826800Y-79859914D01*
X214712514Y-79745628D01*
X214655371Y-79517057D01*
X214655371Y-79117057D01*
X214712514Y-78888485D01*
X214826800Y-78774200D01*
X214941085Y-78717057D01*
X216655371Y-79917057D02*
X216255371Y-79345628D01*
X215969657Y-79917057D02*
X215969657Y-78717057D01*
X216426800Y-78717057D01*
X216541085Y-78774200D01*
X216598228Y-78831342D01*
X216655371Y-78945628D01*
X216655371Y-79117057D01*
X216598228Y-79231342D01*
X216541085Y-79288485D01*
X216426800Y-79345628D01*
X215969657Y-79345628D01*
X211541085Y-80649057D02*
X211769657Y-80649057D01*
X211883942Y-80706200D01*
X211998228Y-80820485D01*
X212055371Y-81049057D01*
X212055371Y-81449057D01*
X211998228Y-81677628D01*
X211883942Y-81791914D01*
X211769657Y-81849057D01*
X211541085Y-81849057D01*
X211426800Y-81791914D01*
X211312514Y-81677628D01*
X211255371Y-81449057D01*
X211255371Y-81049057D01*
X211312514Y-80820485D01*
X211426800Y-80706200D01*
X211541085Y-80649057D01*
X212569657Y-80649057D02*
X212569657Y-81620485D01*
X212626800Y-81734771D01*
X212683942Y-81791914D01*
X212798228Y-81849057D01*
X213026800Y-81849057D01*
X213141085Y-81791914D01*
X213198228Y-81734771D01*
X213255371Y-81620485D01*
X213255371Y-80649057D01*
X213655371Y-80649057D02*
X214341085Y-80649057D01*
X213998228Y-81849057D02*
X213998228Y-80649057D01*
X214741085Y-81849057D02*
X214741085Y-80649057D01*
X215198228Y-80649057D01*
X215312514Y-80706200D01*
X215369657Y-80763342D01*
X215426800Y-80877628D01*
X215426800Y-81049057D01*
X215369657Y-81163342D01*
X215312514Y-81220485D01*
X215198228Y-81277628D01*
X214741085Y-81277628D01*
X215941085Y-80649057D02*
X215941085Y-81620485D01*
X215998228Y-81734771D01*
X216055371Y-81791914D01*
X216169657Y-81849057D01*
X216398228Y-81849057D01*
X216512514Y-81791914D01*
X216569657Y-81734771D01*
X216626800Y-81620485D01*
X216626800Y-80649057D01*
X217026800Y-80649057D02*
X217712514Y-80649057D01*
X217369657Y-81849057D02*
X217369657Y-80649057D01*
D10*
X204760533Y-115368342D02*
X204712914Y-115415961D01*
X204570057Y-115463580D01*
X204474819Y-115463580D01*
X204331961Y-115415961D01*
X204236723Y-115320723D01*
X204189104Y-115225485D01*
X204141485Y-115035009D01*
X204141485Y-114892152D01*
X204189104Y-114701676D01*
X204236723Y-114606438D01*
X204331961Y-114511200D01*
X204474819Y-114463580D01*
X204570057Y-114463580D01*
X204712914Y-114511200D01*
X204760533Y-114558819D01*
X205141485Y-115415961D02*
X205284342Y-115463580D01*
X205522438Y-115463580D01*
X205617676Y-115415961D01*
X205665295Y-115368342D01*
X205712914Y-115273104D01*
X205712914Y-115177866D01*
X205665295Y-115082628D01*
X205617676Y-115035009D01*
X205522438Y-114987390D01*
X205331961Y-114939771D01*
X205236723Y-114892152D01*
X205189104Y-114844533D01*
X205141485Y-114749295D01*
X205141485Y-114654057D01*
X205189104Y-114558819D01*
X205236723Y-114511200D01*
X205331961Y-114463580D01*
X205570057Y-114463580D01*
X205712914Y-114511200D01*
X193144971Y-115463580D02*
X193144971Y-114463580D01*
X193478304Y-115177866D01*
X193811638Y-114463580D01*
X193811638Y-115463580D01*
X194478304Y-114463580D02*
X194668780Y-114463580D01*
X194764019Y-114511200D01*
X194859257Y-114606438D01*
X194906876Y-114796914D01*
X194906876Y-115130247D01*
X194859257Y-115320723D01*
X194764019Y-115415961D01*
X194668780Y-115463580D01*
X194478304Y-115463580D01*
X194383066Y-115415961D01*
X194287828Y-115320723D01*
X194240209Y-115130247D01*
X194240209Y-114796914D01*
X194287828Y-114606438D01*
X194383066Y-114511200D01*
X194478304Y-114463580D01*
X195287828Y-115415961D02*
X195430685Y-115463580D01*
X195668780Y-115463580D01*
X195764019Y-115415961D01*
X195811638Y-115368342D01*
X195859257Y-115273104D01*
X195859257Y-115177866D01*
X195811638Y-115082628D01*
X195764019Y-115035009D01*
X195668780Y-114987390D01*
X195478304Y-114939771D01*
X195383066Y-114892152D01*
X195335447Y-114844533D01*
X195287828Y-114749295D01*
X195287828Y-114654057D01*
X195335447Y-114558819D01*
X195383066Y-114511200D01*
X195478304Y-114463580D01*
X195716400Y-114463580D01*
X195859257Y-114511200D01*
X196287828Y-115463580D02*
X196287828Y-114463580D01*
X206638638Y-120848380D02*
X206638638Y-119848380D01*
X207114828Y-120848380D02*
X207114828Y-119848380D01*
X207686257Y-120848380D01*
X207686257Y-119848380D01*
X208019590Y-119848380D02*
X208591019Y-119848380D01*
X208305304Y-120848380D02*
X208305304Y-119848380D01*
X137164819Y-32864276D02*
X137117200Y-32816657D01*
X137069580Y-32721419D01*
X137069580Y-32483323D01*
X137117200Y-32388085D01*
X137164819Y-32340466D01*
X137260057Y-32292847D01*
X137355295Y-32292847D01*
X137498152Y-32340466D01*
X138069580Y-32911895D01*
X138069580Y-32292847D01*
X137402914Y-31435704D02*
X138069580Y-31435704D01*
X137021961Y-31673800D02*
X137736247Y-31911895D01*
X137736247Y-31292847D01*
X137069580Y-31054752D02*
X138069580Y-30721419D01*
X137069580Y-30388085D01*
D12*
X200792400Y-106476800D02*
X200792400Y-104526800D01*
X205912400Y-106476800D02*
X205912400Y-103026800D01*
X200792400Y-106476800D02*
X200792400Y-108426800D01*
X205912400Y-106476800D02*
X205912400Y-108426800D01*
X192252600Y-119059000D02*
X190922600Y-119059000D01*
X193522600Y-119059000D02*
X208822600Y-119059000D01*
X193522600Y-116399000D02*
X208822600Y-116399000D01*
X208822600Y-119059000D02*
X208822600Y-116399000D01*
X193522600Y-119059000D02*
X193522600Y-116399000D01*
X190922600Y-119059000D02*
X190922600Y-117729000D01*
X214260400Y-65006200D02*
X214260400Y-77386200D01*
X214260400Y-65006200D02*
X218275400Y-64998600D01*
X214261300Y-77397600D02*
X218276300Y-77390000D01*
X168266342Y-78906900D02*
X168740858Y-78906900D01*
X168266342Y-77861900D02*
X168740858Y-77861900D01*
X145970200Y-50189400D02*
X140570200Y-50189400D01*
X145970200Y-50189400D02*
X145970200Y-46889400D01*
X145970200Y-46889400D02*
X140570200Y-46889400D01*
X138818600Y-33961600D02*
X151198600Y-33961600D01*
X138818600Y-33961600D02*
X138811000Y-29946600D01*
X151210000Y-33960700D02*
X151202400Y-29945700D01*
D13*
X189542400Y-67600200D02*
X209542400Y-67600200D01*
X189542400Y-64770200D02*
X189542400Y-67600200D01*
X209542400Y-64770200D02*
X209542400Y-67600200D01*
X206832400Y-62600200D02*
X202132400Y-62600200D01*
X199212400Y-62600200D02*
X194512400Y-62600200D01*
D14*
X188842400Y-63300200D02*
G75*
G03*
X188842400Y-63300200I-100000J0D01*
G01*
D12*
X199593200Y-99204600D02*
X195733200Y-99204600D01*
X195733200Y-87434600D02*
X195733200Y-87679600D01*
X203453200Y-87434600D02*
X203453200Y-87679600D01*
X195733200Y-99204600D02*
X195733200Y-98959600D01*
X199593200Y-87434600D02*
X195733200Y-87434600D01*
X199593200Y-87434600D02*
X203453200Y-87434600D01*
X199593200Y-99204600D02*
X203453200Y-99204600D01*
X203453200Y-98959600D02*
X205268200Y-98959600D01*
X203453200Y-99204600D02*
X203453200Y-98959600D01*
X153871000Y-44225963D02*
X154935437Y-45290400D01*
X153871000Y-35834837D02*
X153871000Y-38720400D01*
X154935437Y-45290400D02*
X164391000Y-45290400D01*
X164391000Y-45290400D02*
X164391000Y-41340400D01*
X153871000Y-44225963D02*
X153871000Y-41340400D01*
X154935437Y-34770400D02*
X164391000Y-34770400D01*
X164391000Y-34770400D02*
X164391000Y-38720400D01*
X153871000Y-35834837D02*
X154935437Y-34770400D01*
D13*
X186842200Y-121184200D02*
X186842200Y-83184200D01*
X132842200Y-83184200D02*
X186842200Y-83184200D01*
X132842200Y-121184200D02*
X132842200Y-83184200D01*
X132842200Y-121184200D02*
X186842200Y-121184200D01*
D12*
X208312000Y-91337400D02*
X212312000Y-91337400D01*
X208312000Y-88037400D02*
X208312000Y-91337400D01*
X212496400Y-69697600D02*
X211556600Y-69697600D01*
X203244564Y-101468600D02*
X203460236Y-101468600D01*
X203244564Y-102188600D02*
X203460236Y-102188600D01*
X132518000Y-44170600D02*
G75*
G03*
X132518000Y-44170600I-1200000J0D01*
G01*
X132416400Y-48260000D02*
G75*
G03*
X132416400Y-48260000I-1200000J0D01*
G01*
X200683800Y-73317000D02*
X200683800Y-71032000D01*
X200683800Y-71032000D02*
X199213800Y-71032000D01*
X199213800Y-71032000D02*
X199213800Y-73317000D01*
X143967200Y-35687000D02*
X143967200Y-36626800D01*
X152382600Y-62137000D02*
X153632600Y-62137000D01*
X153007600Y-61512000D02*
X153007600Y-62762000D01*
X164592600Y-70257000D02*
X164592600Y-66407000D01*
X153872600Y-60601437D02*
X154937037Y-59537000D01*
X153872600Y-69192563D02*
X153872600Y-66407000D01*
X153872600Y-69192563D02*
X154937037Y-70257000D01*
X153872600Y-60601437D02*
X153872600Y-63387000D01*
X154937037Y-59537000D02*
X164592600Y-59537000D01*
X154937037Y-70257000D02*
X164592600Y-70257000D01*
X164592600Y-59537000D02*
X164592600Y-63387000D01*
X211359600Y-96621600D02*
G75*
G03*
X211359600Y-96621600I-1200000J0D01*
G01*
X159067800Y-48108200D02*
X157567800Y-48108200D01*
X157567800Y-49058200D02*
X152442800Y-49058200D01*
X157567800Y-58508200D02*
X157567800Y-57558200D01*
X157567800Y-57558200D02*
X156467800Y-57558200D01*
X157567800Y-48108200D02*
X157567800Y-49058200D01*
X159067800Y-58508200D02*
X157567800Y-58508200D01*
X200471300Y-76165942D02*
X200471300Y-76640458D01*
X199426300Y-76165942D02*
X199426300Y-76640458D01*
D15*
X147143399Y-52068400D02*
X150293400Y-52068400D01*
X150293400Y-52068400D02*
X150293400Y-64568400D01*
X147143399Y-64568400D02*
X150293400Y-64568400D01*
X137793400Y-52068400D02*
X140943399Y-52068400D01*
X137793400Y-52068400D02*
X137793400Y-64568400D01*
X137793400Y-64568400D02*
X140943399Y-64568400D01*
D12*
X143865600Y-38267200D02*
X144515600Y-38267200D01*
X143865600Y-38267200D02*
X143215600Y-38267200D01*
X143865600Y-41387200D02*
X145540600Y-41387200D01*
X143865600Y-41387200D02*
X143215600Y-41387200D01*
X192571900Y-99856058D02*
X192571900Y-99381542D01*
X191526900Y-99856058D02*
X191526900Y-99381542D01*
X205115600Y-72999600D02*
X205115600Y-72349600D01*
X201995600Y-72999600D02*
X201995600Y-74674600D01*
X201995600Y-72999600D02*
X201995600Y-72349600D01*
X205115600Y-72999600D02*
X205115600Y-73649600D01*
X173509000Y-45397052D02*
X173509000Y-44874548D01*
X174979000Y-45397052D02*
X174979000Y-44874548D01*
X212711000Y-98508800D02*
X216726000Y-98501200D01*
X212711000Y-98508800D02*
X212711000Y-110888800D01*
X212711900Y-110900200D02*
X216726900Y-110892600D01*
X143518658Y-70191100D02*
X143044142Y-70191100D01*
X143518658Y-71236100D02*
X143044142Y-71236100D01*
X207122500Y-75937342D02*
X207122500Y-76411858D01*
X208167500Y-75937342D02*
X208167500Y-76411858D01*
D16*
X217165200Y-30093400D02*
X217165200Y-49943400D01*
D12*
X191765200Y-49943400D02*
X191765200Y-30093400D01*
D16*
X217165200Y-49943400D02*
X191765200Y-49943400D01*
D12*
X175317000Y-31927800D02*
G75*
G03*
X175317000Y-31927800I-1200000J0D01*
G01*
X182732600Y-47174200D02*
X182732600Y-45914200D01*
X182732600Y-40354200D02*
X182732600Y-41614200D01*
X176722600Y-40354200D02*
X182732600Y-40354200D01*
X178972600Y-47174200D02*
X182732600Y-47174200D01*
X195808600Y-74218800D02*
X196748400Y-74218800D01*
X212553400Y-114401600D02*
G75*
G03*
X212553400Y-114401600I-1200000J0D01*
G01*
X132430200Y-30521600D02*
X132430200Y-33181600D01*
X132430200Y-30521600D02*
X129830200Y-30521600D01*
X132430200Y-33181600D02*
X129830200Y-33181600D01*
X133700200Y-30521600D02*
X135030200Y-30521600D01*
X135030200Y-30521600D02*
X135030200Y-31851600D01*
X129830200Y-30521600D02*
X129830200Y-33181600D01*
X167044000Y-76782600D02*
X169329000Y-76782600D01*
X169329000Y-75312600D02*
X167044000Y-75312600D01*
X167044000Y-75312600D02*
X167044000Y-76782600D01*
X178796800Y-31927800D02*
G75*
G03*
X178796800Y-31927800I-1200000J0D01*
G01*
X195804964Y-100198600D02*
X196020636Y-100198600D01*
X195804964Y-100918600D02*
X196020636Y-100918600D01*
X148402800Y-37932800D02*
X148402800Y-41832800D01*
X150402800Y-37932800D02*
X148402800Y-37932800D01*
X150402800Y-37932800D02*
X150402800Y-41832800D01*
X144897464Y-44674200D02*
X143443336Y-44674200D01*
X144897464Y-42854200D02*
X143443336Y-42854200D01*
X209594564Y-92146800D02*
X209810236Y-92146800D01*
X209594564Y-92866800D02*
X209810236Y-92866800D01*
X178874052Y-37720600D02*
X178351548Y-37720600D01*
X178874052Y-39190600D02*
X178351548Y-39190600D01*
X195515620Y-103151400D02*
X195796780Y-103151400D01*
X195515620Y-102131400D02*
X195796780Y-102131400D01*
X209810236Y-86787400D02*
X209594564Y-86787400D01*
X209810236Y-87507400D02*
X209594564Y-87507400D01*
X171684800Y-31927800D02*
G75*
G03*
X171684800Y-31927800I-1200000J0D01*
G01*
X141771000Y-67540200D02*
X141771000Y-69010200D01*
X144056000Y-67540200D02*
X141771000Y-67540200D01*
X141771000Y-69010200D02*
X144056000Y-69010200D01*
X203665858Y-77636900D02*
X203191342Y-77636900D01*
X203665858Y-76591900D02*
X203191342Y-76591900D01*
X130318200Y-64287400D02*
X132978200Y-64287400D01*
X132978200Y-64287400D02*
X132978200Y-66887400D01*
X130318200Y-63017400D02*
X130318200Y-61687400D01*
X130318200Y-66887400D02*
X132978200Y-66887400D01*
X130318200Y-64287400D02*
X130318200Y-66887400D01*
X130318200Y-61687400D02*
X131648200Y-61687400D01*
%LPC*%
D17*
X205257400Y-108951800D03*
X203987400Y-108951800D03*
X202717400Y-108951800D03*
X201447400Y-108951800D03*
X201447400Y-104001800D03*
X202717400Y-104001800D03*
X203987400Y-104001800D03*
X205257400Y-104001800D03*
D18*
X192252600Y-117729000D03*
D19*
X194792600Y-117729000D03*
X197332600Y-117729000D03*
X199872600Y-117729000D03*
X202412600Y-117729000D03*
X204952600Y-117729000D03*
X207492600Y-117729000D03*
D20*
X216370400Y-73736200D03*
D21*
X216370400Y-68656200D03*
D22*
X167678600Y-78384400D03*
X169328600Y-78384400D03*
D23*
X144570200Y-48539400D03*
X140570200Y-48539400D03*
D24*
X147548600Y-31851600D03*
D25*
X142468600Y-31851600D03*
D26*
X190512400Y-63500200D03*
D27*
X193052400Y-63500200D03*
D28*
X200672400Y-63500200D03*
X208292400Y-63500200D03*
D29*
X204243200Y-98399600D03*
X204243200Y-97129600D03*
X204243200Y-95859600D03*
X204243200Y-94589600D03*
X204243200Y-93319600D03*
X204243200Y-92049600D03*
X204243200Y-90779600D03*
X204243200Y-89509600D03*
X204243200Y-88239600D03*
X194943200Y-88239600D03*
X194943200Y-89509600D03*
X194943200Y-90779600D03*
X194943200Y-92049600D03*
X194943200Y-93319600D03*
X194943200Y-94589600D03*
X194943200Y-95859600D03*
X194943200Y-97129600D03*
X194943200Y-98399600D03*
D30*
X154731000Y-40030400D03*
X163531000Y-40030400D03*
D31*
X142262200Y-119964200D03*
X142262200Y-117424200D03*
X139722200Y-119964200D03*
X139722200Y-117424200D03*
X185442200Y-102184200D03*
X147342200Y-84404200D03*
X147342200Y-86944200D03*
X149882200Y-84404200D03*
X149882200Y-86944200D03*
X152422200Y-84404200D03*
X152422200Y-86944200D03*
X154962200Y-84404200D03*
X154962200Y-86944200D03*
X157502200Y-84404200D03*
X157502200Y-86944200D03*
X160042200Y-84404200D03*
X160042200Y-86944200D03*
X162582200Y-84404200D03*
X162582200Y-86944200D03*
X165122200Y-84404200D03*
X165122200Y-86944200D03*
X144802200Y-117424200D03*
X149882200Y-117424200D03*
X149882200Y-119964200D03*
X152422200Y-117424200D03*
X152422200Y-119964200D03*
X154962200Y-117424200D03*
X154962200Y-119964200D03*
X157502200Y-117424200D03*
X157502200Y-119964200D03*
X160042200Y-117424200D03*
X160042200Y-119964200D03*
X162582200Y-117424200D03*
X162582200Y-119964200D03*
X165122200Y-117424200D03*
X165122200Y-119964200D03*
X167662200Y-117424200D03*
X167662200Y-119964200D03*
X170202200Y-117424200D03*
X170202200Y-119964200D03*
X172742200Y-117424200D03*
X172742200Y-119964200D03*
X175282200Y-117424200D03*
X175282200Y-119964200D03*
X177822200Y-117424200D03*
X177822200Y-119964200D03*
X180362200Y-117424200D03*
X180362200Y-119964200D03*
X182902200Y-117424200D03*
X182902200Y-119964200D03*
X185442200Y-117424200D03*
X185442200Y-119964200D03*
X167662200Y-84404200D03*
X167662200Y-86944200D03*
X170202200Y-84404200D03*
X170202200Y-86944200D03*
X172742200Y-84404200D03*
X172742200Y-86944200D03*
X175282200Y-84404200D03*
X175282200Y-86944200D03*
X177822200Y-84404200D03*
X177822200Y-86944200D03*
X180362200Y-84404200D03*
X180362200Y-86944200D03*
X182902200Y-84404200D03*
X182902200Y-86944200D03*
X185442200Y-84404200D03*
X185442200Y-86944200D03*
X185442200Y-89484200D03*
X182902200Y-89484200D03*
X185442200Y-92024200D03*
X182902200Y-92024200D03*
X185442200Y-94564200D03*
X182902200Y-94564200D03*
X137182200Y-119964200D03*
X137182200Y-117424200D03*
X185442200Y-107264200D03*
X182902200Y-102184200D03*
X185442200Y-104724200D03*
X182902200Y-107264200D03*
X144802200Y-119964200D03*
X147342200Y-117424200D03*
X182902200Y-104724200D03*
X147342200Y-119964200D03*
X134642200Y-119964200D03*
X134642200Y-117424200D03*
D32*
X209212000Y-90537400D03*
X211412000Y-90537400D03*
X211412000Y-88837400D03*
X209212000Y-88837400D03*
D33*
X212013800Y-69027800D03*
X212013800Y-72297800D03*
D34*
X202872400Y-101828600D03*
X203832400Y-101828600D03*
D35*
X131318000Y-44170600D03*
X131216400Y-48260000D03*
D36*
X199948800Y-71729500D03*
X199948800Y-73304500D03*
D37*
X143297400Y-36169600D03*
X146567400Y-36169600D03*
D38*
X155032600Y-64897000D03*
X163432600Y-64897000D03*
D35*
X210159600Y-96621600D03*
D39*
X154742800Y-49908200D03*
X154742800Y-51608200D03*
X154742800Y-53308200D03*
D40*
X163892800Y-53308200D03*
D39*
X154742800Y-55008200D03*
X154742800Y-56708200D03*
D41*
X199948800Y-75578200D03*
X199948800Y-77228200D03*
D42*
X144043401Y-53368400D03*
X144043401Y-63268400D03*
D43*
X132842000Y-75692000D03*
D44*
X144803100Y-40777200D03*
X144803100Y-38877200D03*
X142928100Y-39827200D03*
D45*
X192049400Y-100443800D03*
X192049400Y-98793800D03*
D46*
X202605600Y-73937100D03*
X204505600Y-73937100D03*
X203555600Y-72062100D03*
D47*
X174244000Y-46085800D03*
X174244000Y-44185800D03*
D20*
X214821000Y-107238800D03*
D21*
X214821000Y-102158800D03*
D48*
X144106400Y-70713600D03*
X142456400Y-70713600D03*
D41*
X207645000Y-75349600D03*
X207645000Y-76999600D03*
D49*
X194305200Y-31343400D03*
D50*
X194305200Y-33883400D03*
X194305200Y-36423400D03*
X194305200Y-38963400D03*
X194305200Y-41503400D03*
X194305200Y-44043400D03*
D49*
X214625200Y-31343400D03*
D50*
X214625200Y-33883400D03*
X214625200Y-36423400D03*
X214625200Y-38963400D03*
X214625200Y-41503400D03*
X214625200Y-44043400D03*
D35*
X174117000Y-31927800D03*
D51*
X177672600Y-41464200D03*
D52*
X183972600Y-43764200D03*
D51*
X177672600Y-43764200D03*
X177672600Y-46064200D03*
D33*
X196291200Y-74888600D03*
X196291200Y-71618600D03*
D43*
X185369200Y-33477200D03*
D35*
X211353400Y-114401600D03*
D18*
X133700200Y-31851600D03*
D19*
X131160200Y-31851600D03*
D53*
X167741500Y-76047600D03*
X169316500Y-76047600D03*
D35*
X177596800Y-31927800D03*
D34*
X195432800Y-100558600D03*
X196392800Y-100558600D03*
D54*
X149402800Y-38532800D03*
X149402800Y-41832800D03*
D55*
X145632900Y-43764200D03*
X142707900Y-43764200D03*
D34*
X209222400Y-92506800D03*
X210182400Y-92506800D03*
D56*
X179562800Y-38455600D03*
X177662800Y-38455600D03*
D57*
X194881200Y-102641400D03*
X196431200Y-102641400D03*
D58*
X210182400Y-87147400D03*
X209222400Y-87147400D03*
D35*
X170484800Y-31927800D03*
D53*
X142468500Y-68275200D03*
X144043500Y-68275200D03*
D48*
X204253600Y-77114400D03*
X202603600Y-77114400D03*
D43*
X215036400Y-119354600D03*
D18*
X131648200Y-63017400D03*
D19*
X131648200Y-65557400D03*
M02*
