G04 #@! TF.GenerationSoftware,KiCad,Pcbnew,(6.0.11)*
G04 #@! TF.CreationDate,2023-08-29T13:20:49-05:00*
G04 #@! TF.ProjectId,MB,4d422e6b-6963-4616-945f-706362585858,rev?*
G04 #@! TF.SameCoordinates,Original*
G04 #@! TF.FileFunction,Copper,L3,Inr*
G04 #@! TF.FilePolarity,Positive*
%FSLAX46Y46*%
G04 Gerber Fmt 4.6, Leading zero omitted, Abs format (unit mm)*
G04 Created by KiCad (PCBNEW (6.0.11)) date 2023-08-29 13:20:49*
%MOMM*%
%LPD*%
G01*
G04 APERTURE LIST*
G04 Aperture macros list*
%AMRoundRect*
0 Rectangle with rounded corners*
0 $1 Rounding radius*
0 $2 $3 $4 $5 $6 $7 $8 $9 X,Y pos of 4 corners*
0 Add a 4 corners polygon primitive as box body*
4,1,4,$2,$3,$4,$5,$6,$7,$8,$9,$2,$3,0*
0 Add four circle primitives for the rounded corners*
1,1,$1+$1,$2,$3*
1,1,$1+$1,$4,$5*
1,1,$1+$1,$6,$7*
1,1,$1+$1,$8,$9*
0 Add four rect primitives between the rounded corners*
20,1,$1+$1,$2,$3,$4,$5,0*
20,1,$1+$1,$4,$5,$6,$7,0*
20,1,$1+$1,$6,$7,$8,$9,0*
20,1,$1+$1,$8,$9,$2,$3,0*%
G04 Aperture macros list end*
G04 #@! TA.AperFunction,ComponentPad*
%ADD10R,1.700000X1.700000*%
G04 #@! TD*
G04 #@! TA.AperFunction,ComponentPad*
%ADD11O,1.700000X1.700000*%
G04 #@! TD*
G04 #@! TA.AperFunction,ComponentPad*
%ADD12RoundRect,0.249999X1.550001X-0.790001X1.550001X0.790001X-1.550001X0.790001X-1.550001X-0.790001X0*%
G04 #@! TD*
G04 #@! TA.AperFunction,ComponentPad*
%ADD13O,3.600000X2.080000*%
G04 #@! TD*
G04 #@! TA.AperFunction,ComponentPad*
%ADD14RoundRect,0.249999X0.790001X1.550001X-0.790001X1.550001X-0.790001X-1.550001X0.790001X-1.550001X0*%
G04 #@! TD*
G04 #@! TA.AperFunction,ComponentPad*
%ADD15O,2.080000X3.600000*%
G04 #@! TD*
G04 #@! TA.AperFunction,ComponentPad*
%ADD16R,1.508000X1.508000*%
G04 #@! TD*
G04 #@! TA.AperFunction,ComponentPad*
%ADD17C,1.508000*%
G04 #@! TD*
G04 #@! TA.AperFunction,ComponentPad*
%ADD18C,1.800000*%
G04 #@! TD*
G04 #@! TA.AperFunction,ComponentPad*
%ADD19C,1.676400*%
G04 #@! TD*
G04 #@! TA.AperFunction,ComponentPad*
%ADD20R,1.680000X1.680000*%
G04 #@! TD*
G04 #@! TA.AperFunction,ComponentPad*
%ADD21C,1.680000*%
G04 #@! TD*
G04 #@! TA.AperFunction,ViaPad*
%ADD22C,0.700000*%
G04 #@! TD*
G04 #@! TA.AperFunction,ViaPad*
%ADD23C,1.000000*%
G04 #@! TD*
G04 #@! TA.AperFunction,ViaPad*
%ADD24C,0.800000*%
G04 #@! TD*
G04 APERTURE END LIST*
D10*
X192252600Y-117729000D03*
D11*
X194792600Y-117729000D03*
X197332600Y-117729000D03*
X199872600Y-117729000D03*
X202412600Y-117729000D03*
X204952600Y-117729000D03*
X207492600Y-117729000D03*
D12*
X216370400Y-73736200D03*
D13*
X216370400Y-68656200D03*
D14*
X147548600Y-31851600D03*
D15*
X142468600Y-31851600D03*
D16*
X190512400Y-63500200D03*
D17*
X193052400Y-63500200D03*
D18*
X200672400Y-63500200D03*
X208292400Y-63500200D03*
D19*
X142262200Y-119964200D03*
X142262200Y-117424200D03*
X139722200Y-119964200D03*
X139722200Y-117424200D03*
X185442200Y-102184200D03*
X147342200Y-84404200D03*
X147342200Y-86944200D03*
X149882200Y-84404200D03*
X149882200Y-86944200D03*
X152422200Y-84404200D03*
X152422200Y-86944200D03*
X154962200Y-84404200D03*
X154962200Y-86944200D03*
X157502200Y-84404200D03*
X157502200Y-86944200D03*
X160042200Y-84404200D03*
X160042200Y-86944200D03*
X162582200Y-84404200D03*
X162582200Y-86944200D03*
X165122200Y-84404200D03*
X165122200Y-86944200D03*
X144802200Y-117424200D03*
X149882200Y-117424200D03*
X149882200Y-119964200D03*
X152422200Y-117424200D03*
X152422200Y-119964200D03*
X154962200Y-117424200D03*
X154962200Y-119964200D03*
X157502200Y-117424200D03*
X157502200Y-119964200D03*
X160042200Y-117424200D03*
X160042200Y-119964200D03*
X162582200Y-117424200D03*
X162582200Y-119964200D03*
X165122200Y-117424200D03*
X165122200Y-119964200D03*
X167662200Y-117424200D03*
X167662200Y-119964200D03*
X170202200Y-117424200D03*
X170202200Y-119964200D03*
X172742200Y-117424200D03*
X172742200Y-119964200D03*
X175282200Y-117424200D03*
X175282200Y-119964200D03*
X177822200Y-117424200D03*
X177822200Y-119964200D03*
X180362200Y-117424200D03*
X180362200Y-119964200D03*
X182902200Y-117424200D03*
X182902200Y-119964200D03*
X185442200Y-117424200D03*
X185442200Y-119964200D03*
X167662200Y-84404200D03*
X167662200Y-86944200D03*
X170202200Y-84404200D03*
X170202200Y-86944200D03*
X172742200Y-84404200D03*
X172742200Y-86944200D03*
X175282200Y-84404200D03*
X175282200Y-86944200D03*
X177822200Y-84404200D03*
X177822200Y-86944200D03*
X180362200Y-84404200D03*
X180362200Y-86944200D03*
X182902200Y-84404200D03*
X182902200Y-86944200D03*
X185442200Y-84404200D03*
X185442200Y-86944200D03*
X185442200Y-89484200D03*
X182902200Y-89484200D03*
X185442200Y-92024200D03*
X182902200Y-92024200D03*
X185442200Y-94564200D03*
X182902200Y-94564200D03*
X137182200Y-119964200D03*
X137182200Y-117424200D03*
X185442200Y-107264200D03*
X182902200Y-102184200D03*
X185442200Y-104724200D03*
X182902200Y-107264200D03*
X144802200Y-119964200D03*
X147342200Y-117424200D03*
X182902200Y-104724200D03*
X147342200Y-119964200D03*
X134642200Y-119964200D03*
X134642200Y-117424200D03*
D12*
X214821000Y-107238800D03*
D13*
X214821000Y-102158800D03*
D20*
X194305200Y-31343400D03*
D21*
X194305200Y-33883400D03*
X194305200Y-36423400D03*
X194305200Y-38963400D03*
X194305200Y-41503400D03*
X194305200Y-44043400D03*
D20*
X214625200Y-31343400D03*
D21*
X214625200Y-33883400D03*
X214625200Y-36423400D03*
X214625200Y-38963400D03*
X214625200Y-41503400D03*
X214625200Y-44043400D03*
D10*
X133700200Y-31851600D03*
D11*
X131160200Y-31851600D03*
D10*
X131648200Y-63017400D03*
D11*
X131648200Y-65557400D03*
D22*
X203987400Y-105638600D03*
D23*
X198704200Y-47650400D03*
X168732200Y-35712400D03*
X194386200Y-47650400D03*
D24*
X215900000Y-91440000D03*
X182880000Y-68580000D03*
X149860000Y-93980000D03*
X134620000Y-55880000D03*
X137160000Y-66040000D03*
X165100000Y-109220000D03*
X157480000Y-93980000D03*
X160020000Y-78740000D03*
D22*
X196596000Y-104038400D03*
D24*
X213360000Y-96520000D03*
X157480000Y-78740000D03*
X167640000Y-40640000D03*
D22*
X200660000Y-60960000D03*
X208280000Y-43180000D03*
D24*
X147320000Y-109220000D03*
X147320000Y-99060000D03*
X203200000Y-83820000D03*
X154940000Y-96520000D03*
X132080000Y-101600000D03*
X182880000Y-73660000D03*
X215900000Y-93980000D03*
D22*
X193040000Y-55880000D03*
D24*
X137160000Y-111760000D03*
X162560000Y-104140000D03*
D22*
X163068000Y-60909200D03*
D24*
X213360000Y-93980000D03*
X170180000Y-101600000D03*
X215900000Y-83820000D03*
X167640000Y-43180000D03*
X157480000Y-99060000D03*
X187960000Y-76200000D03*
X147320000Y-45720000D03*
X162560000Y-33020000D03*
X132080000Y-104140000D03*
X147320000Y-48260000D03*
D22*
X200660000Y-38100000D03*
D24*
X172720000Y-53340000D03*
X154940000Y-30480000D03*
X170180000Y-48260000D03*
D22*
X161036000Y-61010800D03*
D23*
X137134600Y-115112800D03*
D24*
X132080000Y-96520000D03*
X134620000Y-104140000D03*
X132080000Y-81280000D03*
X157480000Y-101600000D03*
X154940000Y-109220000D03*
D22*
X203200000Y-60960000D03*
D24*
X162560000Y-101600000D03*
X132080000Y-50800000D03*
X172720000Y-101600000D03*
X170180000Y-53340000D03*
D22*
X174599600Y-40436800D03*
D24*
X167640000Y-93980000D03*
D22*
X161899600Y-44094400D03*
D24*
X182880000Y-66040000D03*
X132080000Y-99060000D03*
D22*
X203200000Y-35560000D03*
D24*
X157480000Y-104140000D03*
X134620000Y-45720000D03*
D23*
X193979800Y-54305200D03*
D24*
X165100000Y-30480000D03*
X134620000Y-86360000D03*
X190500000Y-104140000D03*
D23*
X198755000Y-46075600D03*
D24*
X157480000Y-109220000D03*
X190500000Y-76200000D03*
D22*
X192252600Y-115443000D03*
X200660000Y-35560000D03*
D24*
X182880000Y-60960000D03*
X139700000Y-45720000D03*
X203200000Y-81280000D03*
D22*
X205740000Y-60960000D03*
D24*
X167640000Y-68580000D03*
D22*
X174091600Y-34493200D03*
D24*
X175260000Y-93980000D03*
X167640000Y-101600000D03*
D22*
X141274800Y-43738800D03*
D24*
X134620000Y-60960000D03*
X213360000Y-81280000D03*
X144780000Y-106680000D03*
X149860000Y-101600000D03*
X182880000Y-71120000D03*
D22*
X208280000Y-38100000D03*
D24*
X177800000Y-71120000D03*
X170180000Y-63500000D03*
X132080000Y-71120000D03*
D22*
X164592000Y-62433200D03*
X200660000Y-45720000D03*
D24*
X152400000Y-30480000D03*
X162560000Y-93980000D03*
D22*
X174498000Y-41656000D03*
D24*
X149860000Y-99060000D03*
X167944800Y-32207200D03*
D22*
X200660000Y-33020000D03*
D24*
X132080000Y-111760000D03*
X142240000Y-76200000D03*
X160020000Y-33020000D03*
D22*
X208280000Y-33020000D03*
X207619600Y-73558400D03*
X211201000Y-91948000D03*
X164592000Y-59588400D03*
X210820000Y-58420000D03*
D24*
X137160000Y-81280000D03*
X147320000Y-78740000D03*
X177800000Y-73660000D03*
X142240000Y-73660000D03*
D22*
X147320000Y-68580000D03*
D24*
X142240000Y-45720000D03*
X154940000Y-99060000D03*
X167640000Y-104140000D03*
X213360000Y-86360000D03*
X177800000Y-68580000D03*
X172720000Y-55880000D03*
X162560000Y-76200000D03*
X134620000Y-83820000D03*
X134620000Y-58420000D03*
X187960000Y-73660000D03*
X167640000Y-96520000D03*
D22*
X210820000Y-38100000D03*
D24*
X132080000Y-93980000D03*
X137160000Y-88900000D03*
D22*
X197612000Y-95605600D03*
D24*
X149860000Y-96520000D03*
D22*
X208229200Y-87376000D03*
X175869600Y-41808400D03*
D24*
X152400000Y-99060000D03*
X149860000Y-76200000D03*
X172720000Y-50800000D03*
X137160000Y-83820000D03*
X157480000Y-76200000D03*
X134620000Y-43180000D03*
X154940000Y-76200000D03*
D22*
X200660000Y-40640000D03*
D24*
X132080000Y-86360000D03*
X172720000Y-63500000D03*
D22*
X165201600Y-42468800D03*
D24*
X152400000Y-93980000D03*
X175260000Y-106680000D03*
X182880000Y-63500000D03*
D22*
X213360000Y-55880000D03*
D24*
X170180000Y-50800000D03*
X170180000Y-109220000D03*
X162560000Y-30480000D03*
X132080000Y-91440000D03*
X134620000Y-66040000D03*
X154940000Y-93980000D03*
D22*
X203200000Y-45720000D03*
D24*
X167640000Y-66040000D03*
X134620000Y-48260000D03*
X175260000Y-78740000D03*
D22*
X213360000Y-58420000D03*
X161899600Y-42468800D03*
D24*
X162560000Y-78740000D03*
D22*
X163474400Y-46075600D03*
D24*
X137160000Y-73660000D03*
D22*
X195580000Y-60960000D03*
D24*
X175260000Y-73660000D03*
X137160000Y-76200000D03*
X147320000Y-96520000D03*
X134620000Y-53340000D03*
X134620000Y-91440000D03*
X165100000Y-78740000D03*
X152400000Y-76200000D03*
X154940000Y-78740000D03*
X137160000Y-93980000D03*
X152400000Y-96520000D03*
X137160000Y-109220000D03*
X154940000Y-104140000D03*
X165100000Y-33020000D03*
D22*
X175920400Y-40640000D03*
D24*
X172720000Y-106680000D03*
X134620000Y-93980000D03*
D22*
X203200000Y-38100000D03*
X208280000Y-45720000D03*
X188595000Y-83058000D03*
X210820000Y-40640000D03*
D24*
X137160000Y-45720000D03*
X132080000Y-55880000D03*
D22*
X200660000Y-43180000D03*
D24*
X167640000Y-60960000D03*
D22*
X203200000Y-40640000D03*
D24*
X210820000Y-83820000D03*
X187960000Y-78740000D03*
X132080000Y-114300000D03*
D22*
X205740000Y-58420000D03*
D24*
X215900000Y-81280000D03*
X144780000Y-45720000D03*
X170180000Y-93980000D03*
X170180000Y-60960000D03*
X172720000Y-93980000D03*
D22*
X198120000Y-38100000D03*
D24*
X172720000Y-58420000D03*
D22*
X149860000Y-68580000D03*
D24*
X132080000Y-58420000D03*
X134620000Y-109220000D03*
X195580000Y-114300000D03*
D22*
X208280000Y-40640000D03*
X210820000Y-33020000D03*
D23*
X194335400Y-49098200D03*
D22*
X163068000Y-59588400D03*
D24*
X170180000Y-96520000D03*
D22*
X164592000Y-60909200D03*
X200660000Y-55880000D03*
D24*
X149860000Y-104140000D03*
X139700000Y-43180000D03*
X132080000Y-83820000D03*
D22*
X198120000Y-55880000D03*
D24*
X195580000Y-111760000D03*
D22*
X213360000Y-53340000D03*
D24*
X180340000Y-33020000D03*
X157480000Y-30480000D03*
X147320000Y-101600000D03*
X185420000Y-78740000D03*
D22*
X198120000Y-60960000D03*
D24*
X134620000Y-50800000D03*
X154940000Y-33020000D03*
X215900000Y-86360000D03*
X137160000Y-101600000D03*
D22*
X161036000Y-62534800D03*
D24*
X147320000Y-76200000D03*
X160020000Y-76200000D03*
X167640000Y-109220000D03*
X175260000Y-104140000D03*
X182880000Y-50800000D03*
X134620000Y-88900000D03*
X149860000Y-78740000D03*
X132080000Y-53340000D03*
X137160000Y-96520000D03*
D22*
X177698400Y-39827200D03*
D24*
X149860000Y-45720000D03*
D22*
X152400000Y-71120000D03*
D24*
X137160000Y-104140000D03*
D22*
X149860000Y-71120000D03*
D24*
X160020000Y-93980000D03*
X165100000Y-93980000D03*
X132080000Y-88900000D03*
D22*
X174193200Y-42824400D03*
D24*
X177800000Y-50800000D03*
D22*
X198120000Y-89382600D03*
X205740000Y-33020000D03*
D24*
X144780000Y-109220000D03*
X185420000Y-58420000D03*
X152400000Y-104140000D03*
X172720000Y-60960000D03*
D22*
X203200000Y-53340000D03*
D24*
X175260000Y-96520000D03*
X180340000Y-50800000D03*
D22*
X163474400Y-44094400D03*
X163474400Y-42468800D03*
D24*
X142240000Y-104140000D03*
X137160000Y-78740000D03*
X147320000Y-93980000D03*
X166116000Y-76047600D03*
X175260000Y-109220000D03*
X170180000Y-66040000D03*
X170180000Y-104140000D03*
X175260000Y-101600000D03*
D22*
X195580000Y-55880000D03*
X210820000Y-53340000D03*
D24*
X134620000Y-111760000D03*
D22*
X210820000Y-55880000D03*
D24*
X152400000Y-101600000D03*
X205740000Y-81280000D03*
X180340000Y-30480000D03*
X165100000Y-101600000D03*
X172720000Y-96520000D03*
X215900000Y-96520000D03*
X149860000Y-48260000D03*
X200660000Y-81280000D03*
X134620000Y-101600000D03*
X172720000Y-76200000D03*
D23*
X137718800Y-48514000D03*
D22*
X147777200Y-34950400D03*
D24*
X137160000Y-86360000D03*
X137160000Y-91440000D03*
X132080000Y-109220000D03*
D22*
X198120000Y-35560000D03*
D24*
X157480000Y-33020000D03*
D22*
X161899600Y-46126400D03*
D24*
X170180000Y-58420000D03*
X134620000Y-99060000D03*
X213360000Y-83820000D03*
X137160000Y-43180000D03*
D22*
X161112200Y-109245400D03*
D24*
X142240000Y-109220000D03*
X165100000Y-104140000D03*
X134620000Y-81280000D03*
D22*
X145440400Y-70713600D03*
X206770200Y-108951800D03*
X165201600Y-44094400D03*
X210388200Y-72313800D03*
X165201600Y-46075600D03*
D24*
X149860000Y-109220000D03*
X172720000Y-104140000D03*
X134620000Y-96520000D03*
X215900000Y-88900000D03*
X160020000Y-30480000D03*
X167640000Y-63500000D03*
D22*
X161188400Y-113512600D03*
D24*
X137160000Y-106680000D03*
X162560000Y-96520000D03*
X142240000Y-106680000D03*
X134620000Y-71120000D03*
D22*
X163068000Y-62433200D03*
D24*
X132080000Y-106680000D03*
X152400000Y-78740000D03*
X152400000Y-33020000D03*
X190500000Y-78740000D03*
X157480000Y-96520000D03*
X154940000Y-101600000D03*
X152400000Y-109220000D03*
X134620000Y-63500000D03*
X165100000Y-96520000D03*
X170180000Y-55880000D03*
X175260000Y-76200000D03*
D22*
X203200000Y-43180000D03*
D24*
X167640000Y-38100000D03*
X137160000Y-71120000D03*
D22*
X202311000Y-88265000D03*
X161036000Y-59588400D03*
X203200000Y-33020000D03*
D24*
X172720000Y-78740000D03*
X190500000Y-109220000D03*
X134620000Y-106680000D03*
X190500000Y-106680000D03*
X210820000Y-76200000D03*
X137160000Y-99060000D03*
X215900000Y-78740000D03*
X160020000Y-96520000D03*
D22*
X198120000Y-33020000D03*
D24*
X204089000Y-100101400D03*
D23*
X177723800Y-54584600D03*
X193954400Y-52806600D03*
X184632600Y-49377600D03*
D22*
X197002400Y-94564200D03*
X199466200Y-89789000D03*
X188544200Y-82042000D03*
X160070800Y-109347000D03*
X160070800Y-113461800D03*
G04 #@! TA.AperFunction,Conductor*
G36*
X141805904Y-29554262D02*
G01*
X141860442Y-29608800D01*
X141880404Y-29683300D01*
X141860442Y-29757800D01*
X141800204Y-29815465D01*
X141778289Y-29826873D01*
X141698361Y-29868481D01*
X141603949Y-29939368D01*
X141513830Y-30007030D01*
X141513826Y-30007033D01*
X141508936Y-30010705D01*
X141504709Y-30015128D01*
X141504707Y-30015130D01*
X141349511Y-30177533D01*
X141349507Y-30177538D01*
X141345284Y-30181957D01*
X141341838Y-30187009D01*
X141341837Y-30187010D01*
X141295394Y-30255094D01*
X141211800Y-30377638D01*
X141112067Y-30592493D01*
X141110434Y-30598381D01*
X141110433Y-30598384D01*
X141104084Y-30621279D01*
X141048766Y-30820752D01*
X141048116Y-30826835D01*
X141032807Y-30970082D01*
X141028100Y-31014123D01*
X141028100Y-32671650D01*
X141030683Y-32703063D01*
X141039912Y-32815320D01*
X141042572Y-32847677D01*
X141100278Y-33077415D01*
X141102716Y-33083022D01*
X141102717Y-33083025D01*
X141110613Y-33101185D01*
X141194731Y-33294642D01*
X141268876Y-33409253D01*
X141300091Y-33457503D01*
X141323395Y-33493526D01*
X141482814Y-33668726D01*
X141668707Y-33815535D01*
X141674060Y-33818490D01*
X141674063Y-33818492D01*
X141708580Y-33837546D01*
X141876082Y-33930012D01*
X142099369Y-34009082D01*
X142105384Y-34010153D01*
X142105386Y-34010154D01*
X142192540Y-34025678D01*
X142332572Y-34050622D01*
X142338685Y-34050697D01*
X142338688Y-34050697D01*
X142437692Y-34051906D01*
X142569429Y-34053516D01*
X142618209Y-34046052D01*
X142797540Y-34018610D01*
X142797542Y-34018609D01*
X142803577Y-34017686D01*
X143028729Y-33944095D01*
X143238839Y-33834719D01*
X143333251Y-33763832D01*
X143423370Y-33696170D01*
X143423374Y-33696167D01*
X143428264Y-33692495D01*
X143432493Y-33688070D01*
X143587689Y-33525667D01*
X143587693Y-33525662D01*
X143591916Y-33521243D01*
X143641806Y-33448107D01*
X146000600Y-33448107D01*
X146000998Y-33455804D01*
X146010727Y-33549555D01*
X146014147Y-33565394D01*
X146064767Y-33717123D01*
X146072060Y-33732693D01*
X146155965Y-33868281D01*
X146166638Y-33881747D01*
X146279482Y-33994394D01*
X146292979Y-34005053D01*
X146428703Y-34088715D01*
X146444295Y-34095985D01*
X146596117Y-34146343D01*
X146611932Y-34149733D01*
X146704448Y-34159212D01*
X146712043Y-34159600D01*
X147274984Y-34159600D01*
X147290455Y-34155455D01*
X147294600Y-34139984D01*
X147802600Y-34139984D01*
X147806745Y-34155455D01*
X147822216Y-34159600D01*
X148385107Y-34159600D01*
X148392804Y-34159202D01*
X148486555Y-34149473D01*
X148502394Y-34146053D01*
X148654123Y-34095433D01*
X148669693Y-34088140D01*
X148805281Y-34004235D01*
X148818747Y-33993562D01*
X148931394Y-33880718D01*
X148942053Y-33867221D01*
X149025715Y-33731497D01*
X149032985Y-33715905D01*
X149083343Y-33564083D01*
X149086733Y-33548268D01*
X149096212Y-33455752D01*
X149096600Y-33448157D01*
X149096600Y-33445697D01*
X183363837Y-33445697D01*
X183379405Y-33728570D01*
X183380433Y-33733738D01*
X183432281Y-33994394D01*
X183434674Y-34006426D01*
X183436422Y-34011404D01*
X183436423Y-34011407D01*
X183522487Y-34256481D01*
X183528542Y-34273724D01*
X183530964Y-34278387D01*
X183530966Y-34278391D01*
X183656710Y-34520459D01*
X183656714Y-34520466D01*
X183659136Y-34525128D01*
X183823851Y-34755624D01*
X183827481Y-34759430D01*
X183827485Y-34759434D01*
X183897382Y-34832705D01*
X184019399Y-34960612D01*
X184023537Y-34963874D01*
X184023539Y-34963876D01*
X184050778Y-34985349D01*
X184241880Y-35136001D01*
X184301435Y-35170593D01*
X184482296Y-35275646D01*
X184482301Y-35275649D01*
X184486854Y-35278293D01*
X184749432Y-35384648D01*
X184889515Y-35419445D01*
X185019255Y-35451673D01*
X185019259Y-35451674D01*
X185024377Y-35452945D01*
X185029618Y-35453482D01*
X185029624Y-35453483D01*
X185262203Y-35477312D01*
X185265990Y-35477700D01*
X185441370Y-35477700D01*
X185651793Y-35462801D01*
X185928747Y-35403175D01*
X186194537Y-35305120D01*
X186199167Y-35302622D01*
X186199171Y-35302620D01*
X186439229Y-35173092D01*
X186439232Y-35173090D01*
X186443860Y-35170593D01*
X186449555Y-35166387D01*
X186667505Y-35005406D01*
X186671740Y-35002278D01*
X186675489Y-34998587D01*
X186675493Y-34998584D01*
X186821925Y-34854433D01*
X186873630Y-34803534D01*
X187045504Y-34578326D01*
X187183930Y-34331147D01*
X187286148Y-34066930D01*
X187327186Y-33889881D01*
X192952618Y-33889881D01*
X192972041Y-34111896D01*
X192974290Y-34124650D01*
X193031973Y-34339923D01*
X193036404Y-34352097D01*
X193130591Y-34554080D01*
X193137070Y-34565303D01*
X193178128Y-34623941D01*
X193190399Y-34634237D01*
X193197874Y-34631516D01*
X193932119Y-33897271D01*
X193940127Y-33883400D01*
X194670273Y-33883400D01*
X194678281Y-33897271D01*
X195407149Y-34626139D01*
X195421020Y-34634147D01*
X195427911Y-34630169D01*
X195473330Y-34565303D01*
X195479809Y-34554080D01*
X195573996Y-34352097D01*
X195578427Y-34339923D01*
X195636110Y-34124650D01*
X195638359Y-34111896D01*
X195657782Y-33889881D01*
X195657782Y-33876919D01*
X195638359Y-33654904D01*
X195636110Y-33642150D01*
X195578427Y-33426877D01*
X195573996Y-33414703D01*
X195479809Y-33212720D01*
X195473330Y-33201497D01*
X195432272Y-33142859D01*
X195420001Y-33132563D01*
X195412526Y-33135284D01*
X194678281Y-33869529D01*
X194670273Y-33883400D01*
X193940127Y-33883400D01*
X193932119Y-33869529D01*
X193203251Y-33140661D01*
X193189380Y-33132653D01*
X193182489Y-33136631D01*
X193137070Y-33201497D01*
X193130591Y-33212720D01*
X193036404Y-33414703D01*
X193031973Y-33426877D01*
X192974290Y-33642150D01*
X192972041Y-33654904D01*
X192952618Y-33876919D01*
X192952618Y-33889881D01*
X187327186Y-33889881D01*
X187350118Y-33790947D01*
X187355164Y-33732693D01*
X187374108Y-33513960D01*
X187374108Y-33513956D01*
X187374563Y-33508703D01*
X187358995Y-33225830D01*
X187347631Y-33168701D01*
X187304756Y-32953150D01*
X187304754Y-32953144D01*
X187303726Y-32947974D01*
X187300906Y-32939942D01*
X187211602Y-32685642D01*
X187211602Y-32685641D01*
X187209858Y-32680676D01*
X187206755Y-32674702D01*
X187081690Y-32433941D01*
X187081686Y-32433934D01*
X187079264Y-32429272D01*
X186935047Y-32227460D01*
X192957201Y-32227460D01*
X192957636Y-32235491D01*
X192962940Y-32284323D01*
X192967227Y-32302353D01*
X193011301Y-32419920D01*
X193021396Y-32438359D01*
X193095928Y-32537807D01*
X193110793Y-32552672D01*
X193210241Y-32627204D01*
X193228680Y-32637299D01*
X193346244Y-32681372D01*
X193364279Y-32685661D01*
X193413112Y-32690966D01*
X193421138Y-32691400D01*
X193421935Y-32691400D01*
X193422137Y-32691454D01*
X193425165Y-32691618D01*
X193425130Y-32692256D01*
X193496435Y-32711362D01*
X193550973Y-32765900D01*
X193554523Y-32773513D01*
X194291329Y-33510319D01*
X194305200Y-33518327D01*
X194319071Y-33510319D01*
X195047939Y-32781451D01*
X195056918Y-32765899D01*
X195111456Y-32711361D01*
X195185956Y-32691399D01*
X195189260Y-32691399D01*
X195197291Y-32690964D01*
X195246123Y-32685660D01*
X195264153Y-32681373D01*
X195381720Y-32637299D01*
X195400159Y-32627204D01*
X195499607Y-32552672D01*
X195514472Y-32537807D01*
X195589004Y-32438359D01*
X195599099Y-32419920D01*
X195643172Y-32302356D01*
X195647461Y-32284321D01*
X195652766Y-32235488D01*
X195653200Y-32227462D01*
X195653200Y-32227460D01*
X213277201Y-32227460D01*
X213277636Y-32235491D01*
X213282940Y-32284323D01*
X213287227Y-32302353D01*
X213331301Y-32419920D01*
X213341396Y-32438359D01*
X213415928Y-32537807D01*
X213430793Y-32552672D01*
X213530241Y-32627204D01*
X213548680Y-32637299D01*
X213666244Y-32681372D01*
X213684279Y-32685661D01*
X213721777Y-32689734D01*
X213793686Y-32717625D01*
X213842015Y-32777733D01*
X213853816Y-32853953D01*
X213825925Y-32925862D01*
X213811047Y-32943221D01*
X213671292Y-33082976D01*
X213618532Y-33158325D01*
X213550524Y-33255449D01*
X213550522Y-33255453D01*
X213546791Y-33260781D01*
X213544044Y-33266671D01*
X213544041Y-33266677D01*
X213519172Y-33320010D01*
X213455058Y-33457503D01*
X213453375Y-33463784D01*
X213402165Y-33654904D01*
X213398879Y-33667167D01*
X213398313Y-33673638D01*
X213398312Y-33673643D01*
X213387601Y-33796075D01*
X213379961Y-33883400D01*
X213380528Y-33889881D01*
X213397924Y-34088715D01*
X213398879Y-34099633D01*
X213400560Y-34105907D01*
X213400561Y-34105912D01*
X213412303Y-34149733D01*
X213455058Y-34309297D01*
X213457806Y-34315190D01*
X213544041Y-34500123D01*
X213544044Y-34500129D01*
X213546791Y-34506019D01*
X213550522Y-34511347D01*
X213550524Y-34511351D01*
X213580444Y-34554080D01*
X213671292Y-34683824D01*
X213824776Y-34837308D01*
X213830108Y-34841042D01*
X213830111Y-34841044D01*
X213997248Y-34958076D01*
X213997252Y-34958079D01*
X214002580Y-34961809D01*
X214123855Y-35018360D01*
X214182938Y-35067937D01*
X214209318Y-35140413D01*
X214195925Y-35216370D01*
X214146348Y-35275453D01*
X214123855Y-35288440D01*
X214008477Y-35342241D01*
X214008471Y-35342244D01*
X214002581Y-35344991D01*
X213997253Y-35348722D01*
X213997249Y-35348724D01*
X213948767Y-35382672D01*
X213824776Y-35469492D01*
X213671292Y-35622976D01*
X213614113Y-35704636D01*
X213550524Y-35795449D01*
X213550522Y-35795453D01*
X213546791Y-35800781D01*
X213544044Y-35806671D01*
X213544041Y-35806677D01*
X213496752Y-35908089D01*
X213455058Y-35997503D01*
X213398879Y-36207167D01*
X213398313Y-36213638D01*
X213398312Y-36213643D01*
X213383803Y-36379481D01*
X213379961Y-36423400D01*
X213398879Y-36639633D01*
X213455058Y-36849297D01*
X213457806Y-36855190D01*
X213544041Y-37040123D01*
X213544044Y-37040129D01*
X213546791Y-37046019D01*
X213550522Y-37051347D01*
X213550524Y-37051351D01*
X213603919Y-37127605D01*
X213671292Y-37223824D01*
X213824776Y-37377308D01*
X213830108Y-37381042D01*
X213830111Y-37381044D01*
X213997248Y-37498076D01*
X213997252Y-37498079D01*
X214002580Y-37501809D01*
X214123855Y-37558360D01*
X214182938Y-37607937D01*
X214209318Y-37680413D01*
X214195925Y-37756370D01*
X214146348Y-37815453D01*
X214123855Y-37828440D01*
X214008477Y-37882241D01*
X214008471Y-37882244D01*
X214002581Y-37884991D01*
X213997253Y-37888722D01*
X213997249Y-37888724D01*
X213920995Y-37942119D01*
X213824776Y-38009492D01*
X213671292Y-38162976D01*
X213603919Y-38259195D01*
X213550524Y-38335449D01*
X213550522Y-38335453D01*
X213546791Y-38340781D01*
X213544044Y-38346671D01*
X213544041Y-38346677D01*
X213463768Y-38518824D01*
X213455058Y-38537503D01*
X213398879Y-38747167D01*
X213379961Y-38963400D01*
X213398879Y-39179633D01*
X213455058Y-39389297D01*
X213457806Y-39395190D01*
X213544041Y-39580123D01*
X213544044Y-39580129D01*
X213546791Y-39586019D01*
X213550522Y-39591347D01*
X213550524Y-39591351D01*
X213603919Y-39667605D01*
X213671292Y-39763824D01*
X213824776Y-39917308D01*
X213830108Y-39921042D01*
X213830111Y-39921044D01*
X213997248Y-40038076D01*
X213997252Y-40038079D01*
X214002580Y-40041809D01*
X214123855Y-40098360D01*
X214182938Y-40147937D01*
X214209318Y-40220413D01*
X214195925Y-40296370D01*
X214146348Y-40355453D01*
X214123855Y-40368440D01*
X214008477Y-40422241D01*
X214008471Y-40422244D01*
X214002581Y-40424991D01*
X213997253Y-40428722D01*
X213997249Y-40428724D01*
X213920995Y-40482119D01*
X213824776Y-40549492D01*
X213671292Y-40702976D01*
X213603919Y-40799195D01*
X213550524Y-40875449D01*
X213550522Y-40875453D01*
X213546791Y-40880781D01*
X213544044Y-40886671D01*
X213544041Y-40886677D01*
X213463768Y-41058824D01*
X213455058Y-41077503D01*
X213398879Y-41287167D01*
X213379961Y-41503400D01*
X213398879Y-41719633D01*
X213455058Y-41929297D01*
X213457806Y-41935190D01*
X213544041Y-42120123D01*
X213544044Y-42120129D01*
X213546791Y-42126019D01*
X213550522Y-42131347D01*
X213550524Y-42131351D01*
X213603919Y-42207605D01*
X213671292Y-42303824D01*
X213824776Y-42457308D01*
X213830108Y-42461042D01*
X213830111Y-42461044D01*
X213997248Y-42578076D01*
X213997252Y-42578079D01*
X214002580Y-42581809D01*
X214123855Y-42638360D01*
X214182938Y-42687937D01*
X214209318Y-42760413D01*
X214195925Y-42836370D01*
X214146348Y-42895453D01*
X214123855Y-42908440D01*
X214008477Y-42962241D01*
X214008471Y-42962244D01*
X214002581Y-42964991D01*
X213997253Y-42968722D01*
X213997249Y-42968724D01*
X213920995Y-43022119D01*
X213824776Y-43089492D01*
X213671292Y-43242976D01*
X213603919Y-43339195D01*
X213550524Y-43415449D01*
X213550522Y-43415453D01*
X213546791Y-43420781D01*
X213544044Y-43426671D01*
X213544041Y-43426677D01*
X213463768Y-43598824D01*
X213455058Y-43617503D01*
X213398879Y-43827167D01*
X213379961Y-44043400D01*
X213398879Y-44259633D01*
X213455058Y-44469297D01*
X213457806Y-44475190D01*
X213544041Y-44660123D01*
X213544044Y-44660129D01*
X213546791Y-44666019D01*
X213550522Y-44671347D01*
X213550524Y-44671351D01*
X213603919Y-44747605D01*
X213671292Y-44843824D01*
X213824776Y-44997308D01*
X213830108Y-45001042D01*
X213830111Y-45001044D01*
X213997248Y-45118076D01*
X213997252Y-45118079D01*
X214002580Y-45121809D01*
X214199303Y-45213542D01*
X214205584Y-45215225D01*
X214402688Y-45268039D01*
X214402693Y-45268040D01*
X214408967Y-45269721D01*
X214415438Y-45270287D01*
X214415443Y-45270288D01*
X214618719Y-45288072D01*
X214625200Y-45288639D01*
X214631681Y-45288072D01*
X214834957Y-45270288D01*
X214834962Y-45270287D01*
X214841433Y-45269721D01*
X214847707Y-45268040D01*
X214847712Y-45268039D01*
X215044816Y-45215225D01*
X215051097Y-45213542D01*
X215247820Y-45121809D01*
X215253148Y-45118079D01*
X215253152Y-45118076D01*
X215420289Y-45001044D01*
X215420292Y-45001042D01*
X215425624Y-44997308D01*
X215579108Y-44843824D01*
X215646481Y-44747605D01*
X215699876Y-44671351D01*
X215699878Y-44671347D01*
X215703609Y-44666019D01*
X215706356Y-44660129D01*
X215706359Y-44660123D01*
X215792594Y-44475190D01*
X215795342Y-44469297D01*
X215851521Y-44259633D01*
X215870439Y-44043400D01*
X215851521Y-43827167D01*
X215795342Y-43617503D01*
X215786632Y-43598824D01*
X215706359Y-43426677D01*
X215706356Y-43426671D01*
X215703609Y-43420781D01*
X215699878Y-43415453D01*
X215699876Y-43415449D01*
X215646481Y-43339195D01*
X215579108Y-43242976D01*
X215425624Y-43089492D01*
X215420290Y-43085757D01*
X215420289Y-43085756D01*
X215253152Y-42968724D01*
X215253148Y-42968721D01*
X215247820Y-42964991D01*
X215126544Y-42908440D01*
X215067462Y-42858863D01*
X215041082Y-42786387D01*
X215054475Y-42710430D01*
X215104052Y-42651347D01*
X215126545Y-42638360D01*
X215247820Y-42581809D01*
X215253148Y-42578079D01*
X215253152Y-42578076D01*
X215420289Y-42461044D01*
X215420292Y-42461042D01*
X215425624Y-42457308D01*
X215579108Y-42303824D01*
X215646481Y-42207605D01*
X215699876Y-42131351D01*
X215699878Y-42131347D01*
X215703609Y-42126019D01*
X215706356Y-42120129D01*
X215706359Y-42120123D01*
X215792594Y-41935190D01*
X215795342Y-41929297D01*
X215851521Y-41719633D01*
X215870439Y-41503400D01*
X215851521Y-41287167D01*
X215795342Y-41077503D01*
X215786632Y-41058824D01*
X215706359Y-40886677D01*
X215706356Y-40886671D01*
X215703609Y-40880781D01*
X215699878Y-40875453D01*
X215699876Y-40875449D01*
X215646481Y-40799195D01*
X215579108Y-40702976D01*
X215425624Y-40549492D01*
X215420290Y-40545757D01*
X215420289Y-40545756D01*
X215253152Y-40428724D01*
X215253148Y-40428721D01*
X215247820Y-40424991D01*
X215126544Y-40368440D01*
X215067462Y-40318863D01*
X215041082Y-40246387D01*
X215054475Y-40170430D01*
X215104052Y-40111347D01*
X215126545Y-40098360D01*
X215247820Y-40041809D01*
X215253148Y-40038079D01*
X215253152Y-40038076D01*
X215420289Y-39921044D01*
X215420292Y-39921042D01*
X215425624Y-39917308D01*
X215579108Y-39763824D01*
X215646481Y-39667605D01*
X215699876Y-39591351D01*
X215699878Y-39591347D01*
X215703609Y-39586019D01*
X215706356Y-39580129D01*
X215706359Y-39580123D01*
X215792594Y-39395190D01*
X215795342Y-39389297D01*
X215851521Y-39179633D01*
X215870439Y-38963400D01*
X215851521Y-38747167D01*
X215795342Y-38537503D01*
X215786632Y-38518824D01*
X215706359Y-38346677D01*
X215706356Y-38346671D01*
X215703609Y-38340781D01*
X215699878Y-38335453D01*
X215699876Y-38335449D01*
X215646481Y-38259195D01*
X215579108Y-38162976D01*
X215425624Y-38009492D01*
X215420290Y-38005757D01*
X215420289Y-38005756D01*
X215253152Y-37888724D01*
X215253148Y-37888721D01*
X215247820Y-37884991D01*
X215126544Y-37828440D01*
X215067462Y-37778863D01*
X215041082Y-37706387D01*
X215054475Y-37630430D01*
X215104052Y-37571347D01*
X215126545Y-37558360D01*
X215247820Y-37501809D01*
X215253148Y-37498079D01*
X215253152Y-37498076D01*
X215420289Y-37381044D01*
X215420292Y-37381042D01*
X215425624Y-37377308D01*
X215579108Y-37223824D01*
X215646481Y-37127605D01*
X215699876Y-37051351D01*
X215699878Y-37051347D01*
X215703609Y-37046019D01*
X215706356Y-37040129D01*
X215706359Y-37040123D01*
X215792594Y-36855190D01*
X215795342Y-36849297D01*
X215851521Y-36639633D01*
X215870439Y-36423400D01*
X215866597Y-36379481D01*
X215852088Y-36213643D01*
X215852087Y-36213638D01*
X215851521Y-36207167D01*
X215795342Y-35997503D01*
X215753648Y-35908089D01*
X215706359Y-35806677D01*
X215706356Y-35806671D01*
X215703609Y-35800781D01*
X215699878Y-35795453D01*
X215699876Y-35795449D01*
X215636287Y-35704636D01*
X215579108Y-35622976D01*
X215425624Y-35469492D01*
X215420290Y-35465757D01*
X215420289Y-35465756D01*
X215253152Y-35348724D01*
X215253148Y-35348721D01*
X215247820Y-35344991D01*
X215126544Y-35288440D01*
X215067462Y-35238863D01*
X215041082Y-35166387D01*
X215054475Y-35090430D01*
X215104052Y-35031347D01*
X215126545Y-35018360D01*
X215247820Y-34961809D01*
X215253148Y-34958079D01*
X215253152Y-34958076D01*
X215420289Y-34841044D01*
X215420292Y-34841042D01*
X215425624Y-34837308D01*
X215579108Y-34683824D01*
X215669956Y-34554080D01*
X215699876Y-34511351D01*
X215699878Y-34511347D01*
X215703609Y-34506019D01*
X215706356Y-34500129D01*
X215706359Y-34500123D01*
X215792594Y-34315190D01*
X215795342Y-34309297D01*
X215838097Y-34149733D01*
X215849839Y-34105912D01*
X215849840Y-34105907D01*
X215851521Y-34099633D01*
X215852477Y-34088715D01*
X215869872Y-33889881D01*
X215870439Y-33883400D01*
X215862799Y-33796075D01*
X215852088Y-33673643D01*
X215852087Y-33673638D01*
X215851521Y-33667167D01*
X215848236Y-33654904D01*
X215797025Y-33463784D01*
X215795342Y-33457503D01*
X215731228Y-33320010D01*
X215706359Y-33266677D01*
X215706356Y-33266671D01*
X215703609Y-33260781D01*
X215699878Y-33255453D01*
X215699876Y-33255449D01*
X215631868Y-33158325D01*
X215579108Y-33082976D01*
X215439353Y-32943221D01*
X215400789Y-32876426D01*
X215400789Y-32799298D01*
X215439353Y-32732503D01*
X215506148Y-32693939D01*
X215528624Y-32689733D01*
X215566123Y-32685660D01*
X215584153Y-32681373D01*
X215701720Y-32637299D01*
X215720159Y-32627204D01*
X215819607Y-32552672D01*
X215834472Y-32537807D01*
X215909004Y-32438359D01*
X215919099Y-32419920D01*
X215963172Y-32302356D01*
X215967461Y-32284321D01*
X215972766Y-32235488D01*
X215973200Y-32227462D01*
X215973200Y-31617016D01*
X215969055Y-31601545D01*
X215953584Y-31597400D01*
X213296817Y-31597400D01*
X213281346Y-31601545D01*
X213277201Y-31617016D01*
X213277201Y-32227460D01*
X195653200Y-32227460D01*
X195653200Y-31617016D01*
X195649055Y-31601545D01*
X195633584Y-31597400D01*
X192976817Y-31597400D01*
X192961346Y-31601545D01*
X192957201Y-31617016D01*
X192957201Y-32227460D01*
X186935047Y-32227460D01*
X186914549Y-32198776D01*
X186910919Y-32194970D01*
X186910915Y-32194966D01*
X186722640Y-31997603D01*
X186719001Y-31993788D01*
X186496520Y-31818399D01*
X186366639Y-31742958D01*
X186256104Y-31678754D01*
X186256099Y-31678751D01*
X186251546Y-31676107D01*
X185988968Y-31569752D01*
X185848885Y-31534955D01*
X185719145Y-31502727D01*
X185719141Y-31502726D01*
X185714023Y-31501455D01*
X185708782Y-31500918D01*
X185708776Y-31500917D01*
X185476197Y-31477088D01*
X185472410Y-31476700D01*
X185297030Y-31476700D01*
X185086607Y-31491599D01*
X184809653Y-31551225D01*
X184543863Y-31649280D01*
X184539233Y-31651778D01*
X184539229Y-31651780D01*
X184299171Y-31781308D01*
X184294540Y-31783807D01*
X184066660Y-31952122D01*
X184062911Y-31955813D01*
X184062907Y-31955816D01*
X184027650Y-31990524D01*
X183864770Y-32150866D01*
X183861580Y-32155046D01*
X183861579Y-32155047D01*
X183800188Y-32235488D01*
X183692896Y-32376074D01*
X183554470Y-32623253D01*
X183452252Y-32887470D01*
X183388282Y-33163453D01*
X183387828Y-33168694D01*
X183387827Y-33168701D01*
X183373804Y-33330617D01*
X183363837Y-33445697D01*
X149096600Y-33445697D01*
X149096600Y-32125216D01*
X149092455Y-32109745D01*
X149076984Y-32105600D01*
X147822216Y-32105600D01*
X147806745Y-32109745D01*
X147802600Y-32125216D01*
X147802600Y-34139984D01*
X147294600Y-34139984D01*
X147294600Y-32125216D01*
X147290455Y-32109745D01*
X147274984Y-32105600D01*
X146020216Y-32105600D01*
X146004745Y-32109745D01*
X146000600Y-32125216D01*
X146000600Y-33448107D01*
X143641806Y-33448107D01*
X143656288Y-33426877D01*
X143721952Y-33330617D01*
X143721953Y-33330615D01*
X143725400Y-33325562D01*
X143825133Y-33110707D01*
X143831131Y-33089081D01*
X143871580Y-32943221D01*
X143888434Y-32882448D01*
X143896712Y-32804991D01*
X143908678Y-32693030D01*
X143908678Y-32693021D01*
X143909100Y-32689077D01*
X143909100Y-31031550D01*
X143904528Y-30975935D01*
X143895129Y-30861612D01*
X143895128Y-30861607D01*
X143894628Y-30855523D01*
X143836922Y-30625785D01*
X143832648Y-30615954D01*
X143789695Y-30517171D01*
X143742469Y-30408558D01*
X143638242Y-30247448D01*
X143617126Y-30214807D01*
X143617124Y-30214804D01*
X143613805Y-30209674D01*
X143454386Y-30034474D01*
X143268493Y-29887665D01*
X143263140Y-29884710D01*
X143263137Y-29884708D01*
X143134585Y-29813744D01*
X143079010Y-29760264D01*
X143057621Y-29686161D01*
X143076150Y-29611291D01*
X143129630Y-29555716D01*
X143206594Y-29534300D01*
X146094211Y-29534300D01*
X146168711Y-29554262D01*
X146223249Y-29608800D01*
X146243211Y-29683300D01*
X146223249Y-29757800D01*
X146199662Y-29788567D01*
X146165806Y-29822482D01*
X146155147Y-29835979D01*
X146071485Y-29971703D01*
X146064215Y-29987295D01*
X146013857Y-30139117D01*
X146010467Y-30154932D01*
X146000988Y-30247448D01*
X146000600Y-30255044D01*
X146000600Y-31577984D01*
X146004745Y-31593455D01*
X146020216Y-31597600D01*
X149076984Y-31597600D01*
X149092455Y-31593455D01*
X149096600Y-31577984D01*
X149096600Y-31069784D01*
X192957200Y-31069784D01*
X192961345Y-31085255D01*
X192976816Y-31089400D01*
X194031584Y-31089400D01*
X194047055Y-31085255D01*
X194051200Y-31069784D01*
X194559200Y-31069784D01*
X194563345Y-31085255D01*
X194578816Y-31089400D01*
X195633583Y-31089400D01*
X195649054Y-31085255D01*
X195653199Y-31069784D01*
X213277200Y-31069784D01*
X213281345Y-31085255D01*
X213296816Y-31089400D01*
X214351584Y-31089400D01*
X214367055Y-31085255D01*
X214371200Y-31069784D01*
X214879200Y-31069784D01*
X214883345Y-31085255D01*
X214898816Y-31089400D01*
X215953583Y-31089400D01*
X215969054Y-31085255D01*
X215973199Y-31069784D01*
X215973199Y-30459340D01*
X215972764Y-30451309D01*
X215967460Y-30402477D01*
X215963173Y-30384447D01*
X215919099Y-30266880D01*
X215909004Y-30248441D01*
X215834472Y-30148993D01*
X215819607Y-30134128D01*
X215720159Y-30059596D01*
X215701720Y-30049501D01*
X215584156Y-30005428D01*
X215566121Y-30001139D01*
X215517288Y-29995834D01*
X215509262Y-29995400D01*
X214898816Y-29995400D01*
X214883345Y-29999545D01*
X214879200Y-30015016D01*
X214879200Y-31069784D01*
X214371200Y-31069784D01*
X214371200Y-30015017D01*
X214367055Y-29999546D01*
X214351584Y-29995401D01*
X213741140Y-29995401D01*
X213733109Y-29995836D01*
X213684277Y-30001140D01*
X213666247Y-30005427D01*
X213548680Y-30049501D01*
X213530241Y-30059596D01*
X213430793Y-30134128D01*
X213415928Y-30148993D01*
X213341396Y-30248441D01*
X213331301Y-30266880D01*
X213287228Y-30384444D01*
X213282939Y-30402479D01*
X213277634Y-30451312D01*
X213277200Y-30459338D01*
X213277200Y-31069784D01*
X195653199Y-31069784D01*
X195653199Y-30459340D01*
X195652764Y-30451309D01*
X195647460Y-30402477D01*
X195643173Y-30384447D01*
X195599099Y-30266880D01*
X195589004Y-30248441D01*
X195514472Y-30148993D01*
X195499607Y-30134128D01*
X195400159Y-30059596D01*
X195381720Y-30049501D01*
X195264156Y-30005428D01*
X195246121Y-30001139D01*
X195197288Y-29995834D01*
X195189262Y-29995400D01*
X194578816Y-29995400D01*
X194563345Y-29999545D01*
X194559200Y-30015016D01*
X194559200Y-31069784D01*
X194051200Y-31069784D01*
X194051200Y-30015017D01*
X194047055Y-29999546D01*
X194031584Y-29995401D01*
X193421140Y-29995401D01*
X193413109Y-29995836D01*
X193364277Y-30001140D01*
X193346247Y-30005427D01*
X193228680Y-30049501D01*
X193210241Y-30059596D01*
X193110793Y-30134128D01*
X193095928Y-30148993D01*
X193021396Y-30248441D01*
X193011301Y-30266880D01*
X192967228Y-30384444D01*
X192962939Y-30402479D01*
X192957634Y-30451312D01*
X192957200Y-30459338D01*
X192957200Y-31069784D01*
X149096600Y-31069784D01*
X149096600Y-30255094D01*
X149096202Y-30247396D01*
X149086473Y-30153645D01*
X149083053Y-30137806D01*
X149032433Y-29986077D01*
X149025140Y-29970507D01*
X148941235Y-29834919D01*
X148930562Y-29821453D01*
X148897803Y-29788751D01*
X148859181Y-29721990D01*
X148859113Y-29644862D01*
X148897619Y-29578033D01*
X148964380Y-29539411D01*
X149003070Y-29534300D01*
X218322300Y-29534300D01*
X218396800Y-29554262D01*
X218451338Y-29608800D01*
X218471300Y-29683300D01*
X218471300Y-67597897D01*
X218451338Y-67672397D01*
X218396800Y-67726935D01*
X218322300Y-67746897D01*
X218247800Y-67726935D01*
X218212507Y-67698150D01*
X218211295Y-67696536D01*
X218183960Y-67670414D01*
X218044467Y-67537111D01*
X218044462Y-67537107D01*
X218040043Y-67532884D01*
X218007955Y-67510995D01*
X217849417Y-67402848D01*
X217849415Y-67402847D01*
X217844362Y-67399400D01*
X217629507Y-67299667D01*
X217623619Y-67298034D01*
X217623616Y-67298033D01*
X217538916Y-67274544D01*
X217401248Y-67236366D01*
X217357214Y-67231660D01*
X217211830Y-67216122D01*
X217211821Y-67216122D01*
X217207877Y-67215700D01*
X215550350Y-67215700D01*
X215518937Y-67218283D01*
X215380412Y-67229671D01*
X215380407Y-67229672D01*
X215374323Y-67230172D01*
X215368401Y-67231660D01*
X215368398Y-67231660D01*
X215343154Y-67238001D01*
X215144585Y-67287878D01*
X215138978Y-67290316D01*
X215138975Y-67290317D01*
X215121230Y-67298033D01*
X214927358Y-67382331D01*
X214728474Y-67510995D01*
X214553274Y-67670414D01*
X214406465Y-67856307D01*
X214291988Y-68063682D01*
X214212918Y-68286969D01*
X214171378Y-68520172D01*
X214168484Y-68757029D01*
X214204314Y-68991177D01*
X214277905Y-69216329D01*
X214387281Y-69426439D01*
X214529505Y-69615864D01*
X214533928Y-69620091D01*
X214533930Y-69620093D01*
X214696333Y-69775289D01*
X214696338Y-69775293D01*
X214700757Y-69779516D01*
X214705809Y-69782962D01*
X214705810Y-69782963D01*
X214737714Y-69804726D01*
X214896438Y-69913000D01*
X215111293Y-70012733D01*
X215117181Y-70014366D01*
X215117184Y-70014367D01*
X215145008Y-70022083D01*
X215339552Y-70076034D01*
X215379102Y-70080261D01*
X215528970Y-70096278D01*
X215528979Y-70096278D01*
X215532923Y-70096700D01*
X217190450Y-70096700D01*
X217221863Y-70094117D01*
X217360388Y-70082729D01*
X217360393Y-70082728D01*
X217366477Y-70082228D01*
X217372399Y-70080740D01*
X217372402Y-70080740D01*
X217479336Y-70053880D01*
X217596215Y-70024522D01*
X217601822Y-70022084D01*
X217601825Y-70022083D01*
X217704829Y-69977295D01*
X217813442Y-69930069D01*
X218012326Y-69801405D01*
X218187526Y-69641986D01*
X218205368Y-69619394D01*
X218267207Y-69573300D01*
X218343809Y-69564302D01*
X218414647Y-69594809D01*
X218460741Y-69656648D01*
X218471300Y-69711741D01*
X218471300Y-72128436D01*
X218451338Y-72202936D01*
X218396800Y-72257474D01*
X218322300Y-72277436D01*
X218259582Y-72259657D01*
X218258143Y-72262744D01*
X218234705Y-72251815D01*
X218082883Y-72201457D01*
X218067068Y-72198067D01*
X217974552Y-72188588D01*
X217966956Y-72188200D01*
X216644016Y-72188200D01*
X216628545Y-72192345D01*
X216624400Y-72207816D01*
X216624400Y-75264584D01*
X216628545Y-75280055D01*
X216644016Y-75284200D01*
X217966907Y-75284200D01*
X217974604Y-75283802D01*
X218068355Y-75274073D01*
X218084194Y-75270653D01*
X218235926Y-75220032D01*
X218259095Y-75209179D01*
X218335027Y-75195654D01*
X218407550Y-75221907D01*
X218457230Y-75280904D01*
X218471300Y-75344109D01*
X218471300Y-122665900D01*
X218451338Y-122740400D01*
X218396800Y-122794938D01*
X218322300Y-122814900D01*
X192703871Y-122814900D01*
X192701804Y-122814886D01*
X186138844Y-122723734D01*
X129198431Y-121932895D01*
X129124215Y-121911900D01*
X129070440Y-121856610D01*
X129051500Y-121783909D01*
X129051500Y-119964200D01*
X133398768Y-119964200D01*
X133399335Y-119970681D01*
X133414688Y-120146158D01*
X133417659Y-120180120D01*
X133473756Y-120389479D01*
X133565356Y-120585916D01*
X133689676Y-120763463D01*
X133842937Y-120916724D01*
X134020484Y-121041044D01*
X134216921Y-121132644D01*
X134426280Y-121188741D01*
X134432751Y-121189307D01*
X134432756Y-121189308D01*
X134635719Y-121207065D01*
X134642200Y-121207632D01*
X134648681Y-121207065D01*
X134851644Y-121189308D01*
X134851649Y-121189307D01*
X134858120Y-121188741D01*
X135067479Y-121132644D01*
X135183102Y-121078728D01*
X136432746Y-121078728D01*
X136436724Y-121085619D01*
X136501197Y-121130764D01*
X136512425Y-121137246D01*
X136714121Y-121231298D01*
X136726295Y-121235729D01*
X136941263Y-121293330D01*
X136954018Y-121295579D01*
X137175719Y-121314975D01*
X137188681Y-121314975D01*
X137410382Y-121295579D01*
X137423137Y-121293330D01*
X137638105Y-121235729D01*
X137650279Y-121231298D01*
X137851975Y-121137246D01*
X137863203Y-121130764D01*
X137921448Y-121089980D01*
X137931743Y-121077710D01*
X137929021Y-121070232D01*
X137196071Y-120337281D01*
X137182200Y-120329273D01*
X137168329Y-120337281D01*
X136440754Y-121064857D01*
X136432746Y-121078728D01*
X135183102Y-121078728D01*
X135263916Y-121041044D01*
X135441463Y-120916724D01*
X135594724Y-120763463D01*
X135719044Y-120585916D01*
X135721793Y-120580020D01*
X135723728Y-120576669D01*
X135778265Y-120522130D01*
X135852765Y-120502167D01*
X135927265Y-120522128D01*
X135981804Y-120576665D01*
X135987807Y-120588197D01*
X136009153Y-120633975D01*
X136015636Y-120645203D01*
X136056420Y-120703448D01*
X136068690Y-120713743D01*
X136076168Y-120711021D01*
X136809119Y-119978071D01*
X136817127Y-119964200D01*
X137547273Y-119964200D01*
X137555281Y-119978071D01*
X138282857Y-120705646D01*
X138296728Y-120713654D01*
X138303619Y-120709676D01*
X138348764Y-120645203D01*
X138355247Y-120633975D01*
X138376593Y-120588197D01*
X138426170Y-120529113D01*
X138498647Y-120502734D01*
X138574603Y-120516127D01*
X138633687Y-120565704D01*
X138640672Y-120576669D01*
X138642607Y-120580020D01*
X138645356Y-120585916D01*
X138769676Y-120763463D01*
X138922937Y-120916724D01*
X139100484Y-121041044D01*
X139296921Y-121132644D01*
X139506280Y-121188741D01*
X139512751Y-121189307D01*
X139512756Y-121189308D01*
X139715719Y-121207065D01*
X139722200Y-121207632D01*
X139728681Y-121207065D01*
X139931644Y-121189308D01*
X139931649Y-121189307D01*
X139938120Y-121188741D01*
X140147479Y-121132644D01*
X140343916Y-121041044D01*
X140521463Y-120916724D01*
X140674724Y-120763463D01*
X140799044Y-120585916D01*
X140857160Y-120461286D01*
X140906737Y-120402202D01*
X140979214Y-120375823D01*
X141055170Y-120389216D01*
X141114254Y-120438793D01*
X141127240Y-120461286D01*
X141185356Y-120585916D01*
X141309676Y-120763463D01*
X141462937Y-120916724D01*
X141640484Y-121041044D01*
X141836921Y-121132644D01*
X142046280Y-121188741D01*
X142052751Y-121189307D01*
X142052756Y-121189308D01*
X142255719Y-121207065D01*
X142262200Y-121207632D01*
X142268681Y-121207065D01*
X142471644Y-121189308D01*
X142471649Y-121189307D01*
X142478120Y-121188741D01*
X142687479Y-121132644D01*
X142883916Y-121041044D01*
X143061463Y-120916724D01*
X143214724Y-120763463D01*
X143339044Y-120585916D01*
X143397160Y-120461286D01*
X143446737Y-120402202D01*
X143519214Y-120375823D01*
X143595170Y-120389216D01*
X143654254Y-120438793D01*
X143667240Y-120461286D01*
X143725356Y-120585916D01*
X143849676Y-120763463D01*
X144002937Y-120916724D01*
X144180484Y-121041044D01*
X144376921Y-121132644D01*
X144586280Y-121188741D01*
X144592751Y-121189307D01*
X144592756Y-121189308D01*
X144795719Y-121207065D01*
X144802200Y-121207632D01*
X144808681Y-121207065D01*
X145011644Y-121189308D01*
X145011649Y-121189307D01*
X145018120Y-121188741D01*
X145227479Y-121132644D01*
X145423916Y-121041044D01*
X145601463Y-120916724D01*
X145754724Y-120763463D01*
X145879044Y-120585916D01*
X145937160Y-120461286D01*
X145986737Y-120402202D01*
X146059214Y-120375823D01*
X146135170Y-120389216D01*
X146194254Y-120438793D01*
X146207240Y-120461286D01*
X146265356Y-120585916D01*
X146389676Y-120763463D01*
X146542937Y-120916724D01*
X146720484Y-121041044D01*
X146916921Y-121132644D01*
X147126280Y-121188741D01*
X147132751Y-121189307D01*
X147132756Y-121189308D01*
X147335719Y-121207065D01*
X147342200Y-121207632D01*
X147348681Y-121207065D01*
X147551644Y-121189308D01*
X147551649Y-121189307D01*
X147558120Y-121188741D01*
X147767479Y-121132644D01*
X147963916Y-121041044D01*
X148141463Y-120916724D01*
X148294724Y-120763463D01*
X148419044Y-120585916D01*
X148477160Y-120461286D01*
X148526737Y-120402202D01*
X148599214Y-120375823D01*
X148675170Y-120389216D01*
X148734254Y-120438793D01*
X148747240Y-120461286D01*
X148805356Y-120585916D01*
X148929676Y-120763463D01*
X149082937Y-120916724D01*
X149260484Y-121041044D01*
X149456921Y-121132644D01*
X149666280Y-121188741D01*
X149672751Y-121189307D01*
X149672756Y-121189308D01*
X149875719Y-121207065D01*
X149882200Y-121207632D01*
X149888681Y-121207065D01*
X150091644Y-121189308D01*
X150091649Y-121189307D01*
X150098120Y-121188741D01*
X150307479Y-121132644D01*
X150503916Y-121041044D01*
X150681463Y-120916724D01*
X150834724Y-120763463D01*
X150959044Y-120585916D01*
X151017160Y-120461286D01*
X151066737Y-120402202D01*
X151139214Y-120375823D01*
X151215170Y-120389216D01*
X151274254Y-120438793D01*
X151287240Y-120461286D01*
X151345356Y-120585916D01*
X151469676Y-120763463D01*
X151622937Y-120916724D01*
X151800484Y-121041044D01*
X151996921Y-121132644D01*
X152206280Y-121188741D01*
X152212751Y-121189307D01*
X152212756Y-121189308D01*
X152415719Y-121207065D01*
X152422200Y-121207632D01*
X152428681Y-121207065D01*
X152631644Y-121189308D01*
X152631649Y-121189307D01*
X152638120Y-121188741D01*
X152847479Y-121132644D01*
X153043916Y-121041044D01*
X153221463Y-120916724D01*
X153374724Y-120763463D01*
X153499044Y-120585916D01*
X153557160Y-120461286D01*
X153606737Y-120402202D01*
X153679214Y-120375823D01*
X153755170Y-120389216D01*
X153814254Y-120438793D01*
X153827240Y-120461286D01*
X153885356Y-120585916D01*
X154009676Y-120763463D01*
X154162937Y-120916724D01*
X154340484Y-121041044D01*
X154536921Y-121132644D01*
X154746280Y-121188741D01*
X154752751Y-121189307D01*
X154752756Y-121189308D01*
X154955719Y-121207065D01*
X154962200Y-121207632D01*
X154968681Y-121207065D01*
X155171644Y-121189308D01*
X155171649Y-121189307D01*
X155178120Y-121188741D01*
X155387479Y-121132644D01*
X155583916Y-121041044D01*
X155761463Y-120916724D01*
X155914724Y-120763463D01*
X156039044Y-120585916D01*
X156097160Y-120461286D01*
X156146737Y-120402202D01*
X156219214Y-120375823D01*
X156295170Y-120389216D01*
X156354254Y-120438793D01*
X156367240Y-120461286D01*
X156425356Y-120585916D01*
X156549676Y-120763463D01*
X156702937Y-120916724D01*
X156880484Y-121041044D01*
X157076921Y-121132644D01*
X157286280Y-121188741D01*
X157292751Y-121189307D01*
X157292756Y-121189308D01*
X157495719Y-121207065D01*
X157502200Y-121207632D01*
X157508681Y-121207065D01*
X157711644Y-121189308D01*
X157711649Y-121189307D01*
X157718120Y-121188741D01*
X157927479Y-121132644D01*
X158123916Y-121041044D01*
X158301463Y-120916724D01*
X158454724Y-120763463D01*
X158579044Y-120585916D01*
X158637160Y-120461286D01*
X158686737Y-120402202D01*
X158759214Y-120375823D01*
X158835170Y-120389216D01*
X158894254Y-120438793D01*
X158907240Y-120461286D01*
X158965356Y-120585916D01*
X159089676Y-120763463D01*
X159242937Y-120916724D01*
X159420484Y-121041044D01*
X159616921Y-121132644D01*
X159826280Y-121188741D01*
X159832751Y-121189307D01*
X159832756Y-121189308D01*
X160035719Y-121207065D01*
X160042200Y-121207632D01*
X160048681Y-121207065D01*
X160251644Y-121189308D01*
X160251649Y-121189307D01*
X160258120Y-121188741D01*
X160467479Y-121132644D01*
X160663916Y-121041044D01*
X160841463Y-120916724D01*
X160994724Y-120763463D01*
X161119044Y-120585916D01*
X161177160Y-120461286D01*
X161226737Y-120402202D01*
X161299214Y-120375823D01*
X161375170Y-120389216D01*
X161434254Y-120438793D01*
X161447240Y-120461286D01*
X161505356Y-120585916D01*
X161629676Y-120763463D01*
X161782937Y-120916724D01*
X161960484Y-121041044D01*
X162156921Y-121132644D01*
X162366280Y-121188741D01*
X162372751Y-121189307D01*
X162372756Y-121189308D01*
X162575719Y-121207065D01*
X162582200Y-121207632D01*
X162588681Y-121207065D01*
X162791644Y-121189308D01*
X162791649Y-121189307D01*
X162798120Y-121188741D01*
X163007479Y-121132644D01*
X163203916Y-121041044D01*
X163381463Y-120916724D01*
X163534724Y-120763463D01*
X163659044Y-120585916D01*
X163717160Y-120461286D01*
X163766737Y-120402202D01*
X163839214Y-120375823D01*
X163915170Y-120389216D01*
X163974254Y-120438793D01*
X163987240Y-120461286D01*
X164045356Y-120585916D01*
X164169676Y-120763463D01*
X164322937Y-120916724D01*
X164500484Y-121041044D01*
X164696921Y-121132644D01*
X164906280Y-121188741D01*
X164912751Y-121189307D01*
X164912756Y-121189308D01*
X165115719Y-121207065D01*
X165122200Y-121207632D01*
X165128681Y-121207065D01*
X165331644Y-121189308D01*
X165331649Y-121189307D01*
X165338120Y-121188741D01*
X165547479Y-121132644D01*
X165743916Y-121041044D01*
X165921463Y-120916724D01*
X166074724Y-120763463D01*
X166199044Y-120585916D01*
X166257160Y-120461286D01*
X166306737Y-120402202D01*
X166379214Y-120375823D01*
X166455170Y-120389216D01*
X166514254Y-120438793D01*
X166527240Y-120461286D01*
X166585356Y-120585916D01*
X166709676Y-120763463D01*
X166862937Y-120916724D01*
X167040484Y-121041044D01*
X167236921Y-121132644D01*
X167446280Y-121188741D01*
X167452751Y-121189307D01*
X167452756Y-121189308D01*
X167655719Y-121207065D01*
X167662200Y-121207632D01*
X167668681Y-121207065D01*
X167871644Y-121189308D01*
X167871649Y-121189307D01*
X167878120Y-121188741D01*
X168087479Y-121132644D01*
X168283916Y-121041044D01*
X168461463Y-120916724D01*
X168614724Y-120763463D01*
X168739044Y-120585916D01*
X168797160Y-120461286D01*
X168846737Y-120402202D01*
X168919214Y-120375823D01*
X168995170Y-120389216D01*
X169054254Y-120438793D01*
X169067240Y-120461286D01*
X169125356Y-120585916D01*
X169249676Y-120763463D01*
X169402937Y-120916724D01*
X169580484Y-121041044D01*
X169776921Y-121132644D01*
X169986280Y-121188741D01*
X169992751Y-121189307D01*
X169992756Y-121189308D01*
X170195719Y-121207065D01*
X170202200Y-121207632D01*
X170208681Y-121207065D01*
X170411644Y-121189308D01*
X170411649Y-121189307D01*
X170418120Y-121188741D01*
X170627479Y-121132644D01*
X170823916Y-121041044D01*
X171001463Y-120916724D01*
X171154724Y-120763463D01*
X171279044Y-120585916D01*
X171337160Y-120461286D01*
X171386737Y-120402202D01*
X171459214Y-120375823D01*
X171535170Y-120389216D01*
X171594254Y-120438793D01*
X171607240Y-120461286D01*
X171665356Y-120585916D01*
X171789676Y-120763463D01*
X171942937Y-120916724D01*
X172120484Y-121041044D01*
X172316921Y-121132644D01*
X172526280Y-121188741D01*
X172532751Y-121189307D01*
X172532756Y-121189308D01*
X172735719Y-121207065D01*
X172742200Y-121207632D01*
X172748681Y-121207065D01*
X172951644Y-121189308D01*
X172951649Y-121189307D01*
X172958120Y-121188741D01*
X173167479Y-121132644D01*
X173363916Y-121041044D01*
X173541463Y-120916724D01*
X173694724Y-120763463D01*
X173819044Y-120585916D01*
X173877160Y-120461286D01*
X173926737Y-120402202D01*
X173999214Y-120375823D01*
X174075170Y-120389216D01*
X174134254Y-120438793D01*
X174147240Y-120461286D01*
X174205356Y-120585916D01*
X174329676Y-120763463D01*
X174482937Y-120916724D01*
X174660484Y-121041044D01*
X174856921Y-121132644D01*
X175066280Y-121188741D01*
X175072751Y-121189307D01*
X175072756Y-121189308D01*
X175275719Y-121207065D01*
X175282200Y-121207632D01*
X175288681Y-121207065D01*
X175491644Y-121189308D01*
X175491649Y-121189307D01*
X175498120Y-121188741D01*
X175707479Y-121132644D01*
X175903916Y-121041044D01*
X176081463Y-120916724D01*
X176234724Y-120763463D01*
X176359044Y-120585916D01*
X176417160Y-120461286D01*
X176466737Y-120402202D01*
X176539214Y-120375823D01*
X176615170Y-120389216D01*
X176674254Y-120438793D01*
X176687240Y-120461286D01*
X176745356Y-120585916D01*
X176869676Y-120763463D01*
X177022937Y-120916724D01*
X177200484Y-121041044D01*
X177396921Y-121132644D01*
X177606280Y-121188741D01*
X177612751Y-121189307D01*
X177612756Y-121189308D01*
X177815719Y-121207065D01*
X177822200Y-121207632D01*
X177828681Y-121207065D01*
X178031644Y-121189308D01*
X178031649Y-121189307D01*
X178038120Y-121188741D01*
X178247479Y-121132644D01*
X178443916Y-121041044D01*
X178621463Y-120916724D01*
X178774724Y-120763463D01*
X178899044Y-120585916D01*
X178957160Y-120461286D01*
X179006737Y-120402202D01*
X179079214Y-120375823D01*
X179155170Y-120389216D01*
X179214254Y-120438793D01*
X179227240Y-120461286D01*
X179285356Y-120585916D01*
X179409676Y-120763463D01*
X179562937Y-120916724D01*
X179740484Y-121041044D01*
X179936921Y-121132644D01*
X180146280Y-121188741D01*
X180152751Y-121189307D01*
X180152756Y-121189308D01*
X180355719Y-121207065D01*
X180362200Y-121207632D01*
X180368681Y-121207065D01*
X180571644Y-121189308D01*
X180571649Y-121189307D01*
X180578120Y-121188741D01*
X180787479Y-121132644D01*
X180983916Y-121041044D01*
X181161463Y-120916724D01*
X181314724Y-120763463D01*
X181439044Y-120585916D01*
X181497160Y-120461286D01*
X181546737Y-120402202D01*
X181619214Y-120375823D01*
X181695170Y-120389216D01*
X181754254Y-120438793D01*
X181767240Y-120461286D01*
X181825356Y-120585916D01*
X181949676Y-120763463D01*
X182102937Y-120916724D01*
X182280484Y-121041044D01*
X182476921Y-121132644D01*
X182686280Y-121188741D01*
X182692751Y-121189307D01*
X182692756Y-121189308D01*
X182895719Y-121207065D01*
X182902200Y-121207632D01*
X182908681Y-121207065D01*
X183111644Y-121189308D01*
X183111649Y-121189307D01*
X183118120Y-121188741D01*
X183327479Y-121132644D01*
X183523916Y-121041044D01*
X183701463Y-120916724D01*
X183854724Y-120763463D01*
X183979044Y-120585916D01*
X184037160Y-120461286D01*
X184086737Y-120402202D01*
X184159214Y-120375823D01*
X184235170Y-120389216D01*
X184294254Y-120438793D01*
X184307240Y-120461286D01*
X184365356Y-120585916D01*
X184489676Y-120763463D01*
X184642937Y-120916724D01*
X184820484Y-121041044D01*
X185016921Y-121132644D01*
X185226280Y-121188741D01*
X185232751Y-121189307D01*
X185232756Y-121189308D01*
X185435719Y-121207065D01*
X185442200Y-121207632D01*
X185448681Y-121207065D01*
X185651644Y-121189308D01*
X185651649Y-121189307D01*
X185658120Y-121188741D01*
X185867479Y-121132644D01*
X186063916Y-121041044D01*
X186241463Y-120916724D01*
X186394724Y-120763463D01*
X186519044Y-120585916D01*
X186610644Y-120389479D01*
X186666741Y-120180120D01*
X186669713Y-120146158D01*
X186685065Y-119970681D01*
X186685632Y-119964200D01*
X186666741Y-119748280D01*
X186610644Y-119538921D01*
X186519044Y-119342484D01*
X186505469Y-119323097D01*
X213031037Y-119323097D01*
X213046605Y-119605970D01*
X213047633Y-119611138D01*
X213060033Y-119673475D01*
X213101874Y-119883826D01*
X213195742Y-120151124D01*
X213198164Y-120155787D01*
X213198166Y-120155791D01*
X213323910Y-120397859D01*
X213323914Y-120397866D01*
X213326336Y-120402528D01*
X213491051Y-120633024D01*
X213494681Y-120636830D01*
X213494685Y-120636834D01*
X213564173Y-120709676D01*
X213686599Y-120838012D01*
X213690737Y-120841274D01*
X213690739Y-120841276D01*
X213786445Y-120916724D01*
X213909080Y-121013401D01*
X213968635Y-121047993D01*
X214149496Y-121153046D01*
X214149501Y-121153049D01*
X214154054Y-121155693D01*
X214416632Y-121262048D01*
X214542565Y-121293330D01*
X214686455Y-121329073D01*
X214686459Y-121329074D01*
X214691577Y-121330345D01*
X214696818Y-121330882D01*
X214696824Y-121330883D01*
X214929403Y-121354712D01*
X214933190Y-121355100D01*
X215108570Y-121355100D01*
X215318993Y-121340201D01*
X215595947Y-121280575D01*
X215861737Y-121182520D01*
X215866367Y-121180022D01*
X215866371Y-121180020D01*
X216106429Y-121050492D01*
X216106432Y-121050490D01*
X216111060Y-121047993D01*
X216120469Y-121041044D01*
X216334705Y-120882806D01*
X216338940Y-120879678D01*
X216342689Y-120875987D01*
X216342693Y-120875984D01*
X216462405Y-120758137D01*
X216540830Y-120680934D01*
X216617849Y-120580016D01*
X216709507Y-120459915D01*
X216712704Y-120455726D01*
X216851130Y-120208547D01*
X216953348Y-119944330D01*
X217017318Y-119668347D01*
X217022721Y-119605970D01*
X217041308Y-119391360D01*
X217041308Y-119391356D01*
X217041763Y-119386103D01*
X217026195Y-119103230D01*
X217014831Y-119046101D01*
X216971956Y-118830550D01*
X216971954Y-118830544D01*
X216970926Y-118825374D01*
X216929422Y-118707186D01*
X216878802Y-118563042D01*
X216878802Y-118563041D01*
X216877058Y-118558076D01*
X216874634Y-118553409D01*
X216748890Y-118311341D01*
X216748886Y-118311334D01*
X216746464Y-118306672D01*
X216581749Y-118076176D01*
X216578119Y-118072370D01*
X216578115Y-118072366D01*
X216389840Y-117875003D01*
X216386201Y-117871188D01*
X216374803Y-117862202D01*
X216167864Y-117699066D01*
X216163720Y-117695799D01*
X216033839Y-117620358D01*
X215923304Y-117556154D01*
X215923299Y-117556151D01*
X215918746Y-117553507D01*
X215656168Y-117447152D01*
X215507929Y-117410329D01*
X215386345Y-117380127D01*
X215386341Y-117380126D01*
X215381223Y-117378855D01*
X215375982Y-117378318D01*
X215375976Y-117378317D01*
X215143397Y-117354488D01*
X215139610Y-117354100D01*
X214964230Y-117354100D01*
X214753807Y-117368999D01*
X214476853Y-117428625D01*
X214211063Y-117526680D01*
X214206433Y-117529178D01*
X214206429Y-117529180D01*
X214012823Y-117633644D01*
X213961740Y-117661207D01*
X213733860Y-117829522D01*
X213730111Y-117833213D01*
X213730107Y-117833216D01*
X213694850Y-117867924D01*
X213531970Y-118028266D01*
X213360096Y-118253474D01*
X213221670Y-118500653D01*
X213119452Y-118764870D01*
X213055482Y-119040853D01*
X213055028Y-119046094D01*
X213055027Y-119046101D01*
X213033520Y-119294425D01*
X213031037Y-119323097D01*
X186505469Y-119323097D01*
X186394724Y-119164937D01*
X186241463Y-119011676D01*
X186063916Y-118887356D01*
X185939286Y-118829240D01*
X185880202Y-118779663D01*
X185853823Y-118707186D01*
X185867216Y-118631230D01*
X185874071Y-118623060D01*
X190894601Y-118623060D01*
X190895036Y-118631091D01*
X190900340Y-118679923D01*
X190904627Y-118697953D01*
X190948701Y-118815520D01*
X190958796Y-118833959D01*
X191033328Y-118933407D01*
X191048193Y-118948272D01*
X191147641Y-119022804D01*
X191166080Y-119032899D01*
X191283644Y-119076972D01*
X191301679Y-119081261D01*
X191350512Y-119086566D01*
X191358538Y-119087000D01*
X191978984Y-119087000D01*
X191994455Y-119082855D01*
X191998600Y-119067384D01*
X191998600Y-119067383D01*
X192506600Y-119067383D01*
X192510745Y-119082854D01*
X192526216Y-119086999D01*
X193146660Y-119086999D01*
X193154691Y-119086564D01*
X193203523Y-119081260D01*
X193221553Y-119076973D01*
X193339120Y-119032899D01*
X193357559Y-119022804D01*
X193457007Y-118948272D01*
X193471872Y-118933407D01*
X193546404Y-118833959D01*
X193556499Y-118815520D01*
X193600572Y-118697956D01*
X193604861Y-118679920D01*
X193607548Y-118655181D01*
X193635438Y-118583272D01*
X193695546Y-118534942D01*
X193771766Y-118523141D01*
X193843675Y-118551031D01*
X193861036Y-118565911D01*
X193985723Y-118690598D01*
X194164961Y-118816102D01*
X194363270Y-118908575D01*
X194369551Y-118910258D01*
X194568344Y-118963525D01*
X194568349Y-118963526D01*
X194574623Y-118965207D01*
X194581094Y-118965773D01*
X194581099Y-118965774D01*
X194786119Y-118983710D01*
X194792600Y-118984277D01*
X194799081Y-118983710D01*
X195004101Y-118965774D01*
X195004106Y-118965773D01*
X195010577Y-118965207D01*
X195016851Y-118963526D01*
X195016856Y-118963525D01*
X195215649Y-118910258D01*
X195221930Y-118908575D01*
X195420239Y-118816102D01*
X195599477Y-118690598D01*
X195754198Y-118535877D01*
X195865638Y-118376724D01*
X195875969Y-118361970D01*
X195875971Y-118361966D01*
X195879702Y-118356638D01*
X195927561Y-118254005D01*
X195977137Y-118194923D01*
X196049614Y-118168544D01*
X196125571Y-118181937D01*
X196184654Y-118231514D01*
X196197638Y-118254003D01*
X196245498Y-118356638D01*
X196249229Y-118361966D01*
X196249231Y-118361970D01*
X196259562Y-118376724D01*
X196371002Y-118535877D01*
X196525723Y-118690598D01*
X196704961Y-118816102D01*
X196903270Y-118908575D01*
X196909551Y-118910258D01*
X197108344Y-118963525D01*
X197108349Y-118963526D01*
X197114623Y-118965207D01*
X197121094Y-118965773D01*
X197121099Y-118965774D01*
X197326119Y-118983710D01*
X197332600Y-118984277D01*
X197339081Y-118983710D01*
X197544101Y-118965774D01*
X197544106Y-118965773D01*
X197550577Y-118965207D01*
X197556851Y-118963526D01*
X197556856Y-118963525D01*
X197755649Y-118910258D01*
X197761930Y-118908575D01*
X197960239Y-118816102D01*
X198139477Y-118690598D01*
X198294198Y-118535877D01*
X198405638Y-118376724D01*
X198415969Y-118361970D01*
X198415971Y-118361966D01*
X198419702Y-118356638D01*
X198467561Y-118254005D01*
X198517137Y-118194923D01*
X198589614Y-118168544D01*
X198665571Y-118181937D01*
X198724654Y-118231514D01*
X198737638Y-118254003D01*
X198785498Y-118356638D01*
X198789229Y-118361966D01*
X198789231Y-118361970D01*
X198799562Y-118376724D01*
X198911002Y-118535877D01*
X199065723Y-118690598D01*
X199244961Y-118816102D01*
X199443270Y-118908575D01*
X199449551Y-118910258D01*
X199648344Y-118963525D01*
X199648349Y-118963526D01*
X199654623Y-118965207D01*
X199661094Y-118965773D01*
X199661099Y-118965774D01*
X199866119Y-118983710D01*
X199872600Y-118984277D01*
X199879081Y-118983710D01*
X200084101Y-118965774D01*
X200084106Y-118965773D01*
X200090577Y-118965207D01*
X200096851Y-118963526D01*
X200096856Y-118963525D01*
X200295649Y-118910258D01*
X200301930Y-118908575D01*
X200500239Y-118816102D01*
X200679477Y-118690598D01*
X200834198Y-118535877D01*
X200945638Y-118376724D01*
X200955969Y-118361970D01*
X200955971Y-118361966D01*
X200959702Y-118356638D01*
X201007561Y-118254005D01*
X201057137Y-118194923D01*
X201129614Y-118168544D01*
X201205571Y-118181937D01*
X201264654Y-118231514D01*
X201277638Y-118254003D01*
X201325498Y-118356638D01*
X201329229Y-118361966D01*
X201329231Y-118361970D01*
X201339562Y-118376724D01*
X201451002Y-118535877D01*
X201605723Y-118690598D01*
X201784961Y-118816102D01*
X201983270Y-118908575D01*
X201989551Y-118910258D01*
X202188344Y-118963525D01*
X202188349Y-118963526D01*
X202194623Y-118965207D01*
X202201094Y-118965773D01*
X202201099Y-118965774D01*
X202406119Y-118983710D01*
X202412600Y-118984277D01*
X202419081Y-118983710D01*
X202624101Y-118965774D01*
X202624106Y-118965773D01*
X202630577Y-118965207D01*
X202636851Y-118963526D01*
X202636856Y-118963525D01*
X202835649Y-118910258D01*
X202841930Y-118908575D01*
X203040239Y-118816102D01*
X203219477Y-118690598D01*
X203374198Y-118535877D01*
X203485638Y-118376724D01*
X203495969Y-118361970D01*
X203495971Y-118361966D01*
X203499702Y-118356638D01*
X203547561Y-118254005D01*
X203597137Y-118194923D01*
X203669614Y-118168544D01*
X203745571Y-118181937D01*
X203804654Y-118231514D01*
X203817638Y-118254003D01*
X203865498Y-118356638D01*
X203869229Y-118361966D01*
X203869231Y-118361970D01*
X203879562Y-118376724D01*
X203991002Y-118535877D01*
X204145723Y-118690598D01*
X204324961Y-118816102D01*
X204523270Y-118908575D01*
X204529551Y-118910258D01*
X204728344Y-118963525D01*
X204728349Y-118963526D01*
X204734623Y-118965207D01*
X204741094Y-118965773D01*
X204741099Y-118965774D01*
X204946119Y-118983710D01*
X204952600Y-118984277D01*
X204959081Y-118983710D01*
X205164101Y-118965774D01*
X205164106Y-118965773D01*
X205170577Y-118965207D01*
X205176851Y-118963526D01*
X205176856Y-118963525D01*
X205375649Y-118910258D01*
X205381930Y-118908575D01*
X205580239Y-118816102D01*
X205759477Y-118690598D01*
X205914198Y-118535877D01*
X206025638Y-118376724D01*
X206035969Y-118361970D01*
X206035971Y-118361966D01*
X206039702Y-118356638D01*
X206087561Y-118254005D01*
X206137137Y-118194923D01*
X206209614Y-118168544D01*
X206285571Y-118181937D01*
X206344654Y-118231514D01*
X206357638Y-118254003D01*
X206405498Y-118356638D01*
X206409229Y-118361966D01*
X206409231Y-118361970D01*
X206419562Y-118376724D01*
X206531002Y-118535877D01*
X206685723Y-118690598D01*
X206864961Y-118816102D01*
X207063270Y-118908575D01*
X207069551Y-118910258D01*
X207268344Y-118963525D01*
X207268349Y-118963526D01*
X207274623Y-118965207D01*
X207281094Y-118965773D01*
X207281099Y-118965774D01*
X207486119Y-118983710D01*
X207492600Y-118984277D01*
X207499081Y-118983710D01*
X207704101Y-118965774D01*
X207704106Y-118965773D01*
X207710577Y-118965207D01*
X207716851Y-118963526D01*
X207716856Y-118963525D01*
X207915649Y-118910258D01*
X207921930Y-118908575D01*
X208120239Y-118816102D01*
X208299477Y-118690598D01*
X208454198Y-118535877D01*
X208565638Y-118376724D01*
X208575969Y-118361970D01*
X208575971Y-118361966D01*
X208579702Y-118356638D01*
X208672175Y-118158330D01*
X208701685Y-118048197D01*
X208727125Y-117953256D01*
X208727126Y-117953251D01*
X208728807Y-117946977D01*
X208733023Y-117898793D01*
X208747310Y-117735481D01*
X208747877Y-117729000D01*
X208744972Y-117695799D01*
X208729374Y-117517499D01*
X208729373Y-117517494D01*
X208728807Y-117511023D01*
X208712223Y-117449128D01*
X208673858Y-117305951D01*
X208672175Y-117299670D01*
X208579702Y-117101362D01*
X208508157Y-116999184D01*
X208473442Y-116949607D01*
X208454198Y-116922123D01*
X208299477Y-116767402D01*
X208120239Y-116641898D01*
X207921930Y-116549425D01*
X207915649Y-116547742D01*
X207716856Y-116494475D01*
X207716851Y-116494474D01*
X207710577Y-116492793D01*
X207704106Y-116492227D01*
X207704101Y-116492226D01*
X207499081Y-116474290D01*
X207492600Y-116473723D01*
X207486119Y-116474290D01*
X207281099Y-116492226D01*
X207281094Y-116492227D01*
X207274623Y-116492793D01*
X207268349Y-116494474D01*
X207268344Y-116494475D01*
X207069551Y-116547742D01*
X207063270Y-116549425D01*
X206864962Y-116641898D01*
X206859634Y-116645629D01*
X206859630Y-116645631D01*
X206806613Y-116682754D01*
X206685723Y-116767402D01*
X206531002Y-116922123D01*
X206511758Y-116949607D01*
X206477044Y-116999184D01*
X206405498Y-117101362D01*
X206357640Y-117203994D01*
X206308063Y-117263077D01*
X206235586Y-117289456D01*
X206159629Y-117276063D01*
X206100546Y-117226486D01*
X206087560Y-117203994D01*
X206039702Y-117101362D01*
X205968157Y-116999184D01*
X205933442Y-116949607D01*
X205914198Y-116922123D01*
X205759477Y-116767402D01*
X205580239Y-116641898D01*
X205381930Y-116549425D01*
X205375649Y-116547742D01*
X205176856Y-116494475D01*
X205176851Y-116494474D01*
X205170577Y-116492793D01*
X205164106Y-116492227D01*
X205164101Y-116492226D01*
X204959081Y-116474290D01*
X204952600Y-116473723D01*
X204946119Y-116474290D01*
X204741099Y-116492226D01*
X204741094Y-116492227D01*
X204734623Y-116492793D01*
X204728349Y-116494474D01*
X204728344Y-116494475D01*
X204529551Y-116547742D01*
X204523270Y-116549425D01*
X204324962Y-116641898D01*
X204319634Y-116645629D01*
X204319630Y-116645631D01*
X204266613Y-116682754D01*
X204145723Y-116767402D01*
X203991002Y-116922123D01*
X203971758Y-116949607D01*
X203937044Y-116999184D01*
X203865498Y-117101362D01*
X203817640Y-117203994D01*
X203768063Y-117263077D01*
X203695586Y-117289456D01*
X203619629Y-117276063D01*
X203560546Y-117226486D01*
X203547560Y-117203994D01*
X203499702Y-117101362D01*
X203428157Y-116999184D01*
X203393442Y-116949607D01*
X203374198Y-116922123D01*
X203219477Y-116767402D01*
X203040239Y-116641898D01*
X202841930Y-116549425D01*
X202835649Y-116547742D01*
X202636856Y-116494475D01*
X202636851Y-116494474D01*
X202630577Y-116492793D01*
X202624106Y-116492227D01*
X202624101Y-116492226D01*
X202419081Y-116474290D01*
X202412600Y-116473723D01*
X202406119Y-116474290D01*
X202201099Y-116492226D01*
X202201094Y-116492227D01*
X202194623Y-116492793D01*
X202188349Y-116494474D01*
X202188344Y-116494475D01*
X201989551Y-116547742D01*
X201983270Y-116549425D01*
X201784962Y-116641898D01*
X201779634Y-116645629D01*
X201779630Y-116645631D01*
X201726613Y-116682754D01*
X201605723Y-116767402D01*
X201451002Y-116922123D01*
X201431758Y-116949607D01*
X201397044Y-116999184D01*
X201325498Y-117101362D01*
X201277640Y-117203994D01*
X201228063Y-117263077D01*
X201155586Y-117289456D01*
X201079629Y-117276063D01*
X201020546Y-117226486D01*
X201007560Y-117203994D01*
X200959702Y-117101362D01*
X200888157Y-116999184D01*
X200853442Y-116949607D01*
X200834198Y-116922123D01*
X200679477Y-116767402D01*
X200500239Y-116641898D01*
X200301930Y-116549425D01*
X200295649Y-116547742D01*
X200096856Y-116494475D01*
X200096851Y-116494474D01*
X200090577Y-116492793D01*
X200084106Y-116492227D01*
X200084101Y-116492226D01*
X199879081Y-116474290D01*
X199872600Y-116473723D01*
X199866119Y-116474290D01*
X199661099Y-116492226D01*
X199661094Y-116492227D01*
X199654623Y-116492793D01*
X199648349Y-116494474D01*
X199648344Y-116494475D01*
X199449551Y-116547742D01*
X199443270Y-116549425D01*
X199244962Y-116641898D01*
X199239634Y-116645629D01*
X199239630Y-116645631D01*
X199186613Y-116682754D01*
X199065723Y-116767402D01*
X198911002Y-116922123D01*
X198891758Y-116949607D01*
X198857044Y-116999184D01*
X198785498Y-117101362D01*
X198737640Y-117203994D01*
X198688063Y-117263077D01*
X198615586Y-117289456D01*
X198539629Y-117276063D01*
X198480546Y-117226486D01*
X198467560Y-117203994D01*
X198419702Y-117101362D01*
X198348157Y-116999184D01*
X198313442Y-116949607D01*
X198294198Y-116922123D01*
X198139477Y-116767402D01*
X197960239Y-116641898D01*
X197761930Y-116549425D01*
X197755649Y-116547742D01*
X197556856Y-116494475D01*
X197556851Y-116494474D01*
X197550577Y-116492793D01*
X197544106Y-116492227D01*
X197544101Y-116492226D01*
X197339081Y-116474290D01*
X197332600Y-116473723D01*
X197326119Y-116474290D01*
X197121099Y-116492226D01*
X197121094Y-116492227D01*
X197114623Y-116492793D01*
X197108349Y-116494474D01*
X197108344Y-116494475D01*
X196909551Y-116547742D01*
X196903270Y-116549425D01*
X196704962Y-116641898D01*
X196699634Y-116645629D01*
X196699630Y-116645631D01*
X196646613Y-116682754D01*
X196525723Y-116767402D01*
X196371002Y-116922123D01*
X196351758Y-116949607D01*
X196317044Y-116999184D01*
X196245498Y-117101362D01*
X196197640Y-117203994D01*
X196148063Y-117263077D01*
X196075586Y-117289456D01*
X195999629Y-117276063D01*
X195940546Y-117226486D01*
X195927560Y-117203994D01*
X195879702Y-117101362D01*
X195808157Y-116999184D01*
X195773442Y-116949607D01*
X195754198Y-116922123D01*
X195599477Y-116767402D01*
X195420239Y-116641898D01*
X195221930Y-116549425D01*
X195215649Y-116547742D01*
X195016856Y-116494475D01*
X195016851Y-116494474D01*
X195010577Y-116492793D01*
X195004106Y-116492227D01*
X195004101Y-116492226D01*
X194799081Y-116474290D01*
X194792600Y-116473723D01*
X194786119Y-116474290D01*
X194581099Y-116492226D01*
X194581094Y-116492227D01*
X194574623Y-116492793D01*
X194568349Y-116494474D01*
X194568344Y-116494475D01*
X194369551Y-116547742D01*
X194363270Y-116549425D01*
X194164962Y-116641898D01*
X194159634Y-116645629D01*
X194159630Y-116645631D01*
X194106613Y-116682754D01*
X193985723Y-116767402D01*
X193861036Y-116892089D01*
X193794241Y-116930653D01*
X193717113Y-116930653D01*
X193650318Y-116892089D01*
X193611754Y-116825294D01*
X193607548Y-116802820D01*
X193604860Y-116778077D01*
X193600573Y-116760047D01*
X193556499Y-116642480D01*
X193546404Y-116624041D01*
X193471872Y-116524593D01*
X193457007Y-116509728D01*
X193357559Y-116435196D01*
X193339120Y-116425101D01*
X193221556Y-116381028D01*
X193203521Y-116376739D01*
X193154688Y-116371434D01*
X193146662Y-116371000D01*
X192526216Y-116371000D01*
X192510745Y-116375145D01*
X192506600Y-116390616D01*
X192506600Y-119067383D01*
X191998600Y-119067383D01*
X191998600Y-118002616D01*
X191994455Y-117987145D01*
X191978984Y-117983000D01*
X190914217Y-117983000D01*
X190898746Y-117987145D01*
X190894601Y-118002616D01*
X190894601Y-118623060D01*
X185874071Y-118623060D01*
X185916793Y-118572146D01*
X185939286Y-118559160D01*
X186016529Y-118523141D01*
X186063916Y-118501044D01*
X186241463Y-118376724D01*
X186394724Y-118223463D01*
X186519044Y-118045916D01*
X186610644Y-117849479D01*
X186666741Y-117640120D01*
X186674088Y-117556154D01*
X186682904Y-117455384D01*
X190894600Y-117455384D01*
X190898745Y-117470855D01*
X190914216Y-117475000D01*
X191978984Y-117475000D01*
X191994455Y-117470855D01*
X191998600Y-117455384D01*
X191998600Y-116390617D01*
X191994455Y-116375146D01*
X191978984Y-116371001D01*
X191358540Y-116371001D01*
X191350509Y-116371436D01*
X191301677Y-116376740D01*
X191283647Y-116381027D01*
X191166080Y-116425101D01*
X191147641Y-116435196D01*
X191048193Y-116509728D01*
X191033328Y-116524593D01*
X190958796Y-116624041D01*
X190948701Y-116642480D01*
X190904628Y-116760044D01*
X190900339Y-116778079D01*
X190895034Y-116826912D01*
X190894600Y-116834938D01*
X190894600Y-117455384D01*
X186682904Y-117455384D01*
X186685065Y-117430681D01*
X186685632Y-117424200D01*
X186680900Y-117370109D01*
X186667308Y-117214756D01*
X186667307Y-117214751D01*
X186666741Y-117208280D01*
X186610644Y-116998921D01*
X186519044Y-116802484D01*
X186394724Y-116624937D01*
X186241463Y-116471676D01*
X186063916Y-116347356D01*
X185867479Y-116255756D01*
X185658120Y-116199659D01*
X185651649Y-116199093D01*
X185651644Y-116199092D01*
X185448681Y-116181335D01*
X185442200Y-116180768D01*
X185435719Y-116181335D01*
X185232756Y-116199092D01*
X185232751Y-116199093D01*
X185226280Y-116199659D01*
X185016921Y-116255756D01*
X184820484Y-116347356D01*
X184642937Y-116471676D01*
X184489676Y-116624937D01*
X184365356Y-116802484D01*
X184338868Y-116859287D01*
X184307240Y-116927114D01*
X184257663Y-116986198D01*
X184185186Y-117012577D01*
X184109230Y-116999184D01*
X184050146Y-116949607D01*
X184037160Y-116927114D01*
X184005532Y-116859287D01*
X183979044Y-116802484D01*
X183854724Y-116624937D01*
X183701463Y-116471676D01*
X183523916Y-116347356D01*
X183327479Y-116255756D01*
X183118120Y-116199659D01*
X183111649Y-116199093D01*
X183111644Y-116199092D01*
X182908681Y-116181335D01*
X182902200Y-116180768D01*
X182895719Y-116181335D01*
X182692756Y-116199092D01*
X182692751Y-116199093D01*
X182686280Y-116199659D01*
X182476921Y-116255756D01*
X182280484Y-116347356D01*
X182102937Y-116471676D01*
X181949676Y-116624937D01*
X181825356Y-116802484D01*
X181798868Y-116859287D01*
X181767240Y-116927114D01*
X181717663Y-116986198D01*
X181645186Y-117012577D01*
X181569230Y-116999184D01*
X181510146Y-116949607D01*
X181497160Y-116927114D01*
X181465532Y-116859287D01*
X181439044Y-116802484D01*
X181314724Y-116624937D01*
X181161463Y-116471676D01*
X180983916Y-116347356D01*
X180787479Y-116255756D01*
X180578120Y-116199659D01*
X180571649Y-116199093D01*
X180571644Y-116199092D01*
X180368681Y-116181335D01*
X180362200Y-116180768D01*
X180355719Y-116181335D01*
X180152756Y-116199092D01*
X180152751Y-116199093D01*
X180146280Y-116199659D01*
X179936921Y-116255756D01*
X179740484Y-116347356D01*
X179562937Y-116471676D01*
X179409676Y-116624937D01*
X179285356Y-116802484D01*
X179258868Y-116859287D01*
X179227240Y-116927114D01*
X179177663Y-116986198D01*
X179105186Y-117012577D01*
X179029230Y-116999184D01*
X178970146Y-116949607D01*
X178957160Y-116927114D01*
X178925532Y-116859287D01*
X178899044Y-116802484D01*
X178774724Y-116624937D01*
X178621463Y-116471676D01*
X178443916Y-116347356D01*
X178247479Y-116255756D01*
X178038120Y-116199659D01*
X178031649Y-116199093D01*
X178031644Y-116199092D01*
X177828681Y-116181335D01*
X177822200Y-116180768D01*
X177815719Y-116181335D01*
X177612756Y-116199092D01*
X177612751Y-116199093D01*
X177606280Y-116199659D01*
X177396921Y-116255756D01*
X177200484Y-116347356D01*
X177022937Y-116471676D01*
X176869676Y-116624937D01*
X176745356Y-116802484D01*
X176718868Y-116859287D01*
X176687240Y-116927114D01*
X176637663Y-116986198D01*
X176565186Y-117012577D01*
X176489230Y-116999184D01*
X176430146Y-116949607D01*
X176417160Y-116927114D01*
X176385532Y-116859287D01*
X176359044Y-116802484D01*
X176234724Y-116624937D01*
X176081463Y-116471676D01*
X175903916Y-116347356D01*
X175707479Y-116255756D01*
X175498120Y-116199659D01*
X175491649Y-116199093D01*
X175491644Y-116199092D01*
X175288681Y-116181335D01*
X175282200Y-116180768D01*
X175275719Y-116181335D01*
X175072756Y-116199092D01*
X175072751Y-116199093D01*
X175066280Y-116199659D01*
X174856921Y-116255756D01*
X174660484Y-116347356D01*
X174482937Y-116471676D01*
X174329676Y-116624937D01*
X174205356Y-116802484D01*
X174178868Y-116859287D01*
X174147240Y-116927114D01*
X174097663Y-116986198D01*
X174025186Y-117012577D01*
X173949230Y-116999184D01*
X173890146Y-116949607D01*
X173877160Y-116927114D01*
X173845532Y-116859287D01*
X173819044Y-116802484D01*
X173694724Y-116624937D01*
X173541463Y-116471676D01*
X173363916Y-116347356D01*
X173167479Y-116255756D01*
X172958120Y-116199659D01*
X172951649Y-116199093D01*
X172951644Y-116199092D01*
X172748681Y-116181335D01*
X172742200Y-116180768D01*
X172735719Y-116181335D01*
X172532756Y-116199092D01*
X172532751Y-116199093D01*
X172526280Y-116199659D01*
X172316921Y-116255756D01*
X172120484Y-116347356D01*
X171942937Y-116471676D01*
X171789676Y-116624937D01*
X171665356Y-116802484D01*
X171638868Y-116859287D01*
X171607240Y-116927114D01*
X171557663Y-116986198D01*
X171485186Y-117012577D01*
X171409230Y-116999184D01*
X171350146Y-116949607D01*
X171337160Y-116927114D01*
X171305532Y-116859287D01*
X171279044Y-116802484D01*
X171154724Y-116624937D01*
X171001463Y-116471676D01*
X170823916Y-116347356D01*
X170627479Y-116255756D01*
X170418120Y-116199659D01*
X170411649Y-116199093D01*
X170411644Y-116199092D01*
X170208681Y-116181335D01*
X170202200Y-116180768D01*
X170195719Y-116181335D01*
X169992756Y-116199092D01*
X169992751Y-116199093D01*
X169986280Y-116199659D01*
X169776921Y-116255756D01*
X169580484Y-116347356D01*
X169402937Y-116471676D01*
X169249676Y-116624937D01*
X169125356Y-116802484D01*
X169098868Y-116859287D01*
X169067240Y-116927114D01*
X169017663Y-116986198D01*
X168945186Y-117012577D01*
X168869230Y-116999184D01*
X168810146Y-116949607D01*
X168797160Y-116927114D01*
X168765532Y-116859287D01*
X168739044Y-116802484D01*
X168614724Y-116624937D01*
X168461463Y-116471676D01*
X168283916Y-116347356D01*
X168087479Y-116255756D01*
X167878120Y-116199659D01*
X167871649Y-116199093D01*
X167871644Y-116199092D01*
X167668681Y-116181335D01*
X167662200Y-116180768D01*
X167655719Y-116181335D01*
X167452756Y-116199092D01*
X167452751Y-116199093D01*
X167446280Y-116199659D01*
X167236921Y-116255756D01*
X167040484Y-116347356D01*
X166862937Y-116471676D01*
X166709676Y-116624937D01*
X166585356Y-116802484D01*
X166558868Y-116859287D01*
X166527240Y-116927114D01*
X166477663Y-116986198D01*
X166405186Y-117012577D01*
X166329230Y-116999184D01*
X166270146Y-116949607D01*
X166257160Y-116927114D01*
X166225532Y-116859287D01*
X166199044Y-116802484D01*
X166074724Y-116624937D01*
X165921463Y-116471676D01*
X165743916Y-116347356D01*
X165547479Y-116255756D01*
X165338120Y-116199659D01*
X165331649Y-116199093D01*
X165331644Y-116199092D01*
X165128681Y-116181335D01*
X165122200Y-116180768D01*
X165115719Y-116181335D01*
X164912756Y-116199092D01*
X164912751Y-116199093D01*
X164906280Y-116199659D01*
X164696921Y-116255756D01*
X164500484Y-116347356D01*
X164322937Y-116471676D01*
X164169676Y-116624937D01*
X164045356Y-116802484D01*
X164018868Y-116859287D01*
X163987240Y-116927114D01*
X163937663Y-116986198D01*
X163865186Y-117012577D01*
X163789230Y-116999184D01*
X163730146Y-116949607D01*
X163717160Y-116927114D01*
X163685532Y-116859287D01*
X163659044Y-116802484D01*
X163534724Y-116624937D01*
X163381463Y-116471676D01*
X163203916Y-116347356D01*
X163007479Y-116255756D01*
X162798120Y-116199659D01*
X162791649Y-116199093D01*
X162791644Y-116199092D01*
X162588681Y-116181335D01*
X162582200Y-116180768D01*
X162575719Y-116181335D01*
X162372756Y-116199092D01*
X162372751Y-116199093D01*
X162366280Y-116199659D01*
X162156921Y-116255756D01*
X161960484Y-116347356D01*
X161782937Y-116471676D01*
X161629676Y-116624937D01*
X161505356Y-116802484D01*
X161478868Y-116859287D01*
X161447240Y-116927114D01*
X161397663Y-116986198D01*
X161325186Y-117012577D01*
X161249230Y-116999184D01*
X161190146Y-116949607D01*
X161177160Y-116927114D01*
X161145532Y-116859287D01*
X161119044Y-116802484D01*
X160994724Y-116624937D01*
X160841463Y-116471676D01*
X160663916Y-116347356D01*
X160467479Y-116255756D01*
X160258120Y-116199659D01*
X160251649Y-116199093D01*
X160251644Y-116199092D01*
X160048681Y-116181335D01*
X160042200Y-116180768D01*
X160035719Y-116181335D01*
X159832756Y-116199092D01*
X159832751Y-116199093D01*
X159826280Y-116199659D01*
X159616921Y-116255756D01*
X159420484Y-116347356D01*
X159242937Y-116471676D01*
X159089676Y-116624937D01*
X158965356Y-116802484D01*
X158938868Y-116859287D01*
X158907240Y-116927114D01*
X158857663Y-116986198D01*
X158785186Y-117012577D01*
X158709230Y-116999184D01*
X158650146Y-116949607D01*
X158637160Y-116927114D01*
X158605532Y-116859287D01*
X158579044Y-116802484D01*
X158454724Y-116624937D01*
X158301463Y-116471676D01*
X158123916Y-116347356D01*
X157927479Y-116255756D01*
X157718120Y-116199659D01*
X157711649Y-116199093D01*
X157711644Y-116199092D01*
X157508681Y-116181335D01*
X157502200Y-116180768D01*
X157495719Y-116181335D01*
X157292756Y-116199092D01*
X157292751Y-116199093D01*
X157286280Y-116199659D01*
X157076921Y-116255756D01*
X156880484Y-116347356D01*
X156702937Y-116471676D01*
X156549676Y-116624937D01*
X156425356Y-116802484D01*
X156398868Y-116859287D01*
X156367240Y-116927114D01*
X156317663Y-116986198D01*
X156245186Y-117012577D01*
X156169230Y-116999184D01*
X156110146Y-116949607D01*
X156097160Y-116927114D01*
X156065532Y-116859287D01*
X156039044Y-116802484D01*
X155914724Y-116624937D01*
X155761463Y-116471676D01*
X155583916Y-116347356D01*
X155387479Y-116255756D01*
X155178120Y-116199659D01*
X155171649Y-116199093D01*
X155171644Y-116199092D01*
X154968681Y-116181335D01*
X154962200Y-116180768D01*
X154955719Y-116181335D01*
X154752756Y-116199092D01*
X154752751Y-116199093D01*
X154746280Y-116199659D01*
X154536921Y-116255756D01*
X154340484Y-116347356D01*
X154162937Y-116471676D01*
X154009676Y-116624937D01*
X153885356Y-116802484D01*
X153858868Y-116859287D01*
X153827240Y-116927114D01*
X153777663Y-116986198D01*
X153705186Y-117012577D01*
X153629230Y-116999184D01*
X153570146Y-116949607D01*
X153557160Y-116927114D01*
X153525532Y-116859287D01*
X153499044Y-116802484D01*
X153374724Y-116624937D01*
X153221463Y-116471676D01*
X153043916Y-116347356D01*
X152847479Y-116255756D01*
X152638120Y-116199659D01*
X152631649Y-116199093D01*
X152631644Y-116199092D01*
X152428681Y-116181335D01*
X152422200Y-116180768D01*
X152415719Y-116181335D01*
X152212756Y-116199092D01*
X152212751Y-116199093D01*
X152206280Y-116199659D01*
X151996921Y-116255756D01*
X151800484Y-116347356D01*
X151622937Y-116471676D01*
X151469676Y-116624937D01*
X151345356Y-116802484D01*
X151318868Y-116859287D01*
X151287240Y-116927114D01*
X151237663Y-116986198D01*
X151165186Y-117012577D01*
X151089230Y-116999184D01*
X151030146Y-116949607D01*
X151017160Y-116927114D01*
X150985532Y-116859287D01*
X150959044Y-116802484D01*
X150834724Y-116624937D01*
X150681463Y-116471676D01*
X150503916Y-116347356D01*
X150307479Y-116255756D01*
X150098120Y-116199659D01*
X150091649Y-116199093D01*
X150091644Y-116199092D01*
X149888681Y-116181335D01*
X149882200Y-116180768D01*
X149875719Y-116181335D01*
X149672756Y-116199092D01*
X149672751Y-116199093D01*
X149666280Y-116199659D01*
X149456921Y-116255756D01*
X149260484Y-116347356D01*
X149082937Y-116471676D01*
X148929676Y-116624937D01*
X148805356Y-116802484D01*
X148778868Y-116859287D01*
X148747240Y-116927114D01*
X148697663Y-116986198D01*
X148625186Y-117012577D01*
X148549230Y-116999184D01*
X148490146Y-116949607D01*
X148477160Y-116927114D01*
X148445532Y-116859287D01*
X148419044Y-116802484D01*
X148294724Y-116624937D01*
X148141463Y-116471676D01*
X147963916Y-116347356D01*
X147767479Y-116255756D01*
X147558120Y-116199659D01*
X147551649Y-116199093D01*
X147551644Y-116199092D01*
X147348681Y-116181335D01*
X147342200Y-116180768D01*
X147335719Y-116181335D01*
X147132756Y-116199092D01*
X147132751Y-116199093D01*
X147126280Y-116199659D01*
X146916921Y-116255756D01*
X146720484Y-116347356D01*
X146542937Y-116471676D01*
X146389676Y-116624937D01*
X146265356Y-116802484D01*
X146238868Y-116859287D01*
X146207240Y-116927114D01*
X146157663Y-116986198D01*
X146085186Y-117012577D01*
X146009230Y-116999184D01*
X145950146Y-116949607D01*
X145937160Y-116927114D01*
X145905532Y-116859287D01*
X145879044Y-116802484D01*
X145754724Y-116624937D01*
X145601463Y-116471676D01*
X145423916Y-116347356D01*
X145227479Y-116255756D01*
X145018120Y-116199659D01*
X145011649Y-116199093D01*
X145011644Y-116199092D01*
X144808681Y-116181335D01*
X144802200Y-116180768D01*
X144795719Y-116181335D01*
X144592756Y-116199092D01*
X144592751Y-116199093D01*
X144586280Y-116199659D01*
X144376921Y-116255756D01*
X144180484Y-116347356D01*
X144002937Y-116471676D01*
X143849676Y-116624937D01*
X143725356Y-116802484D01*
X143698868Y-116859287D01*
X143667240Y-116927114D01*
X143617663Y-116986198D01*
X143545186Y-117012577D01*
X143469230Y-116999184D01*
X143410146Y-116949607D01*
X143397160Y-116927114D01*
X143365532Y-116859287D01*
X143339044Y-116802484D01*
X143214724Y-116624937D01*
X143061463Y-116471676D01*
X142883916Y-116347356D01*
X142687479Y-116255756D01*
X142478120Y-116199659D01*
X142471649Y-116199093D01*
X142471644Y-116199092D01*
X142268681Y-116181335D01*
X142262200Y-116180768D01*
X142255719Y-116181335D01*
X142052756Y-116199092D01*
X142052751Y-116199093D01*
X142046280Y-116199659D01*
X141836921Y-116255756D01*
X141640484Y-116347356D01*
X141462937Y-116471676D01*
X141309676Y-116624937D01*
X141185356Y-116802484D01*
X141158868Y-116859287D01*
X141127240Y-116927114D01*
X141077663Y-116986198D01*
X141005186Y-117012577D01*
X140929230Y-116999184D01*
X140870146Y-116949607D01*
X140857160Y-116927114D01*
X140825532Y-116859287D01*
X140799044Y-116802484D01*
X140674724Y-116624937D01*
X140521463Y-116471676D01*
X140343916Y-116347356D01*
X140147479Y-116255756D01*
X139938120Y-116199659D01*
X139931649Y-116199093D01*
X139931644Y-116199092D01*
X139728681Y-116181335D01*
X139722200Y-116180768D01*
X139715719Y-116181335D01*
X139512756Y-116199092D01*
X139512751Y-116199093D01*
X139506280Y-116199659D01*
X139296921Y-116255756D01*
X139100484Y-116347356D01*
X138922937Y-116471676D01*
X138769676Y-116624937D01*
X138645356Y-116802484D01*
X138642607Y-116808380D01*
X138640672Y-116811731D01*
X138586135Y-116866270D01*
X138511635Y-116886233D01*
X138437135Y-116866272D01*
X138382596Y-116811735D01*
X138376593Y-116800203D01*
X138355247Y-116754425D01*
X138348764Y-116743197D01*
X138307980Y-116684952D01*
X138295710Y-116674657D01*
X138288232Y-116677379D01*
X137555281Y-117410329D01*
X137547273Y-117424200D01*
X137555281Y-117438071D01*
X138282857Y-118165646D01*
X138296728Y-118173654D01*
X138303619Y-118169676D01*
X138348764Y-118105203D01*
X138355247Y-118093975D01*
X138376593Y-118048197D01*
X138426170Y-117989113D01*
X138498647Y-117962734D01*
X138574603Y-117976127D01*
X138633687Y-118025704D01*
X138640672Y-118036669D01*
X138642607Y-118040020D01*
X138645356Y-118045916D01*
X138769676Y-118223463D01*
X138922937Y-118376724D01*
X139100484Y-118501044D01*
X139147871Y-118523141D01*
X139225114Y-118559160D01*
X139284198Y-118608737D01*
X139310577Y-118681214D01*
X139297184Y-118757170D01*
X139247607Y-118816254D01*
X139225114Y-118829240D01*
X139100484Y-118887356D01*
X138922937Y-119011676D01*
X138769676Y-119164937D01*
X138645356Y-119342484D01*
X138642607Y-119348380D01*
X138640672Y-119351731D01*
X138586135Y-119406270D01*
X138511635Y-119426233D01*
X138437135Y-119406272D01*
X138382596Y-119351735D01*
X138376593Y-119340203D01*
X138355247Y-119294425D01*
X138348764Y-119283197D01*
X138307980Y-119224952D01*
X138295710Y-119214657D01*
X138288232Y-119217379D01*
X137555281Y-119950329D01*
X137547273Y-119964200D01*
X136817127Y-119964200D01*
X136809119Y-119950329D01*
X136081543Y-119222754D01*
X136067672Y-119214746D01*
X136060781Y-119218724D01*
X136015636Y-119283197D01*
X136009153Y-119294425D01*
X135987807Y-119340203D01*
X135938230Y-119399287D01*
X135865753Y-119425666D01*
X135789797Y-119412273D01*
X135730713Y-119362696D01*
X135723728Y-119351731D01*
X135721793Y-119348380D01*
X135719044Y-119342484D01*
X135594724Y-119164937D01*
X135441463Y-119011676D01*
X135263916Y-118887356D01*
X135185286Y-118850690D01*
X136432657Y-118850690D01*
X136435379Y-118858168D01*
X137168329Y-119591119D01*
X137182200Y-119599127D01*
X137196071Y-119591119D01*
X137923646Y-118863543D01*
X137931654Y-118849672D01*
X137927676Y-118842781D01*
X137889790Y-118816253D01*
X137840213Y-118757170D01*
X137826820Y-118681213D01*
X137853200Y-118608737D01*
X137889790Y-118572147D01*
X137921448Y-118549980D01*
X137931743Y-118537710D01*
X137929021Y-118530232D01*
X137196071Y-117797281D01*
X137182200Y-117789273D01*
X137168329Y-117797281D01*
X136440754Y-118524857D01*
X136432746Y-118538728D01*
X136436724Y-118545619D01*
X136474610Y-118572147D01*
X136524187Y-118631230D01*
X136537580Y-118707187D01*
X136511200Y-118779663D01*
X136474610Y-118816253D01*
X136442952Y-118838420D01*
X136432657Y-118850690D01*
X135185286Y-118850690D01*
X135139286Y-118829240D01*
X135080202Y-118779663D01*
X135053823Y-118707186D01*
X135067216Y-118631230D01*
X135116793Y-118572146D01*
X135139286Y-118559160D01*
X135216529Y-118523141D01*
X135263916Y-118501044D01*
X135441463Y-118376724D01*
X135594724Y-118223463D01*
X135719044Y-118045916D01*
X135721793Y-118040020D01*
X135723728Y-118036669D01*
X135778265Y-117982130D01*
X135852765Y-117962167D01*
X135927265Y-117982128D01*
X135981804Y-118036665D01*
X135987807Y-118048197D01*
X136009153Y-118093975D01*
X136015636Y-118105203D01*
X136056420Y-118163448D01*
X136068690Y-118173743D01*
X136076168Y-118171021D01*
X136809119Y-117438071D01*
X136817127Y-117424200D01*
X136809119Y-117410329D01*
X136081543Y-116682754D01*
X136067672Y-116674746D01*
X136060781Y-116678724D01*
X136015636Y-116743197D01*
X136009153Y-116754425D01*
X135987807Y-116800203D01*
X135938230Y-116859287D01*
X135865753Y-116885666D01*
X135789797Y-116872273D01*
X135730713Y-116822696D01*
X135723728Y-116811731D01*
X135721793Y-116808380D01*
X135719044Y-116802484D01*
X135594724Y-116624937D01*
X135441463Y-116471676D01*
X135263916Y-116347356D01*
X135185285Y-116310690D01*
X136432657Y-116310690D01*
X136435379Y-116318168D01*
X137168329Y-117051119D01*
X137182200Y-117059127D01*
X137196071Y-117051119D01*
X137923646Y-116323543D01*
X137931654Y-116309672D01*
X137927676Y-116302781D01*
X137863203Y-116257636D01*
X137851975Y-116251154D01*
X137650279Y-116157102D01*
X137638105Y-116152671D01*
X137423137Y-116095070D01*
X137410382Y-116092821D01*
X137188681Y-116073425D01*
X137175719Y-116073425D01*
X136954018Y-116092821D01*
X136941263Y-116095070D01*
X136726295Y-116152671D01*
X136714121Y-116157102D01*
X136512425Y-116251154D01*
X136501197Y-116257636D01*
X136442952Y-116298420D01*
X136432657Y-116310690D01*
X135185285Y-116310690D01*
X135067479Y-116255756D01*
X134858120Y-116199659D01*
X134851649Y-116199093D01*
X134851644Y-116199092D01*
X134648681Y-116181335D01*
X134642200Y-116180768D01*
X134635719Y-116181335D01*
X134432756Y-116199092D01*
X134432751Y-116199093D01*
X134426280Y-116199659D01*
X134216921Y-116255756D01*
X134020484Y-116347356D01*
X133842937Y-116471676D01*
X133689676Y-116624937D01*
X133565356Y-116802484D01*
X133473756Y-116998921D01*
X133417659Y-117208280D01*
X133417093Y-117214751D01*
X133417092Y-117214756D01*
X133403500Y-117370109D01*
X133398768Y-117424200D01*
X133399335Y-117430681D01*
X133410313Y-117556154D01*
X133417659Y-117640120D01*
X133473756Y-117849479D01*
X133565356Y-118045916D01*
X133689676Y-118223463D01*
X133842937Y-118376724D01*
X134020484Y-118501044D01*
X134067871Y-118523141D01*
X134145114Y-118559160D01*
X134204198Y-118608737D01*
X134230577Y-118681214D01*
X134217184Y-118757170D01*
X134167607Y-118816254D01*
X134145114Y-118829240D01*
X134020484Y-118887356D01*
X133842937Y-119011676D01*
X133689676Y-119164937D01*
X133565356Y-119342484D01*
X133473756Y-119538921D01*
X133417659Y-119748280D01*
X133398768Y-119964200D01*
X129051500Y-119964200D01*
X129051500Y-113451255D01*
X159315625Y-113451255D01*
X159316437Y-113459537D01*
X159316437Y-113459541D01*
X159319181Y-113487525D01*
X159332055Y-113618825D01*
X159385202Y-113778591D01*
X159472424Y-113922612D01*
X159589386Y-114043729D01*
X159596355Y-114048290D01*
X159596357Y-114048291D01*
X159723303Y-114131363D01*
X159723306Y-114131364D01*
X159730275Y-114135925D01*
X159888089Y-114194615D01*
X159896343Y-114195716D01*
X159896346Y-114195717D01*
X160046728Y-114215782D01*
X160046732Y-114215782D01*
X160054983Y-114216883D01*
X160162853Y-114207066D01*
X160214370Y-114202378D01*
X160214372Y-114202378D01*
X160222664Y-114201623D01*
X160382797Y-114149593D01*
X160527423Y-114063378D01*
X160649354Y-113947265D01*
X160665734Y-113922612D01*
X160737920Y-113813963D01*
X160742531Y-113807023D01*
X160802321Y-113649623D01*
X160825755Y-113482888D01*
X160826049Y-113461800D01*
X160807281Y-113294476D01*
X160751908Y-113135468D01*
X160662684Y-112992679D01*
X160544042Y-112873206D01*
X160537012Y-112868745D01*
X160537010Y-112868743D01*
X160408912Y-112787450D01*
X160408910Y-112787449D01*
X160401879Y-112782987D01*
X160394033Y-112780193D01*
X160251104Y-112729298D01*
X160251101Y-112729297D01*
X160243262Y-112726506D01*
X160234999Y-112725521D01*
X160234996Y-112725520D01*
X160140485Y-112714250D01*
X160076073Y-112706569D01*
X160067795Y-112707439D01*
X160067793Y-112707439D01*
X159992347Y-112715369D01*
X159908621Y-112724169D01*
X159749231Y-112778430D01*
X159605822Y-112866656D01*
X159485524Y-112984461D01*
X159394315Y-113125990D01*
X159336727Y-113284209D01*
X159335684Y-113292468D01*
X159335683Y-113292471D01*
X159327798Y-113354894D01*
X159315625Y-113451255D01*
X129051500Y-113451255D01*
X129051500Y-109336455D01*
X159315625Y-109336455D01*
X159316437Y-109344737D01*
X159316437Y-109344741D01*
X159319181Y-109372725D01*
X159332055Y-109504025D01*
X159385202Y-109663791D01*
X159472424Y-109807812D01*
X159589386Y-109928929D01*
X159596355Y-109933490D01*
X159596357Y-109933491D01*
X159723303Y-110016563D01*
X159723306Y-110016564D01*
X159730275Y-110021125D01*
X159888089Y-110079815D01*
X159896343Y-110080916D01*
X159896346Y-110080917D01*
X160046728Y-110100982D01*
X160046732Y-110100982D01*
X160054983Y-110102083D01*
X160162853Y-110092266D01*
X160214370Y-110087578D01*
X160214372Y-110087578D01*
X160222664Y-110086823D01*
X160382797Y-110034793D01*
X160527423Y-109948578D01*
X160649354Y-109832465D01*
X160665734Y-109807812D01*
X160737920Y-109699163D01*
X160742531Y-109692223D01*
X160802321Y-109534823D01*
X160825755Y-109368088D01*
X160826049Y-109347000D01*
X160807281Y-109179676D01*
X160751908Y-109020668D01*
X160662684Y-108877879D01*
X160544042Y-108758406D01*
X160537012Y-108753945D01*
X160537010Y-108753943D01*
X160408912Y-108672650D01*
X160408910Y-108672649D01*
X160401879Y-108668187D01*
X160394033Y-108665393D01*
X160251104Y-108614498D01*
X160251101Y-108614497D01*
X160243262Y-108611706D01*
X160234999Y-108610721D01*
X160234996Y-108610720D01*
X160140485Y-108599450D01*
X160076073Y-108591769D01*
X160067795Y-108592639D01*
X160067793Y-108592639D01*
X159992347Y-108600569D01*
X159908621Y-108609369D01*
X159749231Y-108663630D01*
X159742135Y-108667996D01*
X159742134Y-108667996D01*
X159727507Y-108676995D01*
X159605822Y-108751856D01*
X159485524Y-108869661D01*
X159394315Y-109011190D01*
X159336727Y-109169409D01*
X159335684Y-109177668D01*
X159335683Y-109177671D01*
X159327798Y-109240094D01*
X159315625Y-109336455D01*
X129051500Y-109336455D01*
X129051500Y-107264200D01*
X181658768Y-107264200D01*
X181677659Y-107480120D01*
X181733756Y-107689479D01*
X181825356Y-107885916D01*
X181949676Y-108063463D01*
X182102937Y-108216724D01*
X182280484Y-108341044D01*
X182476921Y-108432644D01*
X182686280Y-108488741D01*
X182692751Y-108489307D01*
X182692756Y-108489308D01*
X182895719Y-108507065D01*
X182902200Y-108507632D01*
X182908681Y-108507065D01*
X183111644Y-108489308D01*
X183111649Y-108489307D01*
X183118120Y-108488741D01*
X183327479Y-108432644D01*
X183443102Y-108378728D01*
X184692746Y-108378728D01*
X184696724Y-108385619D01*
X184761197Y-108430764D01*
X184772425Y-108437246D01*
X184974121Y-108531298D01*
X184986295Y-108535729D01*
X185201263Y-108593330D01*
X185214018Y-108595579D01*
X185435719Y-108614975D01*
X185448681Y-108614975D01*
X185670382Y-108595579D01*
X185683137Y-108593330D01*
X185898105Y-108535729D01*
X185910279Y-108531298D01*
X186111975Y-108437246D01*
X186123203Y-108430764D01*
X186181448Y-108389980D01*
X186191743Y-108377710D01*
X186189021Y-108370232D01*
X185456071Y-107637281D01*
X185442200Y-107629273D01*
X185428329Y-107637281D01*
X184700754Y-108364857D01*
X184692746Y-108378728D01*
X183443102Y-108378728D01*
X183523916Y-108341044D01*
X183701463Y-108216724D01*
X183854724Y-108063463D01*
X183979044Y-107885916D01*
X183981793Y-107880020D01*
X183983728Y-107876669D01*
X184038265Y-107822130D01*
X184112765Y-107802167D01*
X184187265Y-107822128D01*
X184241804Y-107876665D01*
X184247807Y-107888197D01*
X184269153Y-107933975D01*
X184275636Y-107945203D01*
X184316420Y-108003448D01*
X184328690Y-108013743D01*
X184336168Y-108011021D01*
X185069119Y-107278071D01*
X185077127Y-107264200D01*
X185807273Y-107264200D01*
X185815281Y-107278071D01*
X186542857Y-108005646D01*
X186556728Y-108013654D01*
X186563619Y-108009676D01*
X186608764Y-107945203D01*
X186615246Y-107933975D01*
X186709298Y-107732279D01*
X186713729Y-107720105D01*
X186771330Y-107505137D01*
X186773579Y-107492382D01*
X186792975Y-107270681D01*
X186792975Y-107257719D01*
X186773579Y-107036018D01*
X186771330Y-107023263D01*
X186713729Y-106808295D01*
X186709298Y-106796121D01*
X186615246Y-106594425D01*
X186608764Y-106583197D01*
X186567980Y-106524952D01*
X186555710Y-106514657D01*
X186548232Y-106517379D01*
X185815281Y-107250329D01*
X185807273Y-107264200D01*
X185077127Y-107264200D01*
X185069119Y-107250329D01*
X184341543Y-106522754D01*
X184327672Y-106514746D01*
X184320781Y-106518724D01*
X184275636Y-106583197D01*
X184269153Y-106594425D01*
X184247807Y-106640203D01*
X184198230Y-106699287D01*
X184125753Y-106725666D01*
X184049797Y-106712273D01*
X183990713Y-106662696D01*
X183983728Y-106651731D01*
X183981793Y-106648380D01*
X183979044Y-106642484D01*
X183854724Y-106464937D01*
X183701463Y-106311676D01*
X183523916Y-106187356D01*
X183399286Y-106129240D01*
X183340202Y-106079663D01*
X183313823Y-106007186D01*
X183327216Y-105931230D01*
X183376793Y-105872146D01*
X183399286Y-105859160D01*
X183443368Y-105838604D01*
X183523916Y-105801044D01*
X183701463Y-105676724D01*
X183854724Y-105523463D01*
X183979044Y-105345916D01*
X184037160Y-105221286D01*
X184086737Y-105162202D01*
X184159214Y-105135823D01*
X184235170Y-105149216D01*
X184294254Y-105198793D01*
X184307240Y-105221286D01*
X184365356Y-105345916D01*
X184489676Y-105523463D01*
X184642937Y-105676724D01*
X184820484Y-105801044D01*
X184826380Y-105803793D01*
X184829731Y-105805728D01*
X184884270Y-105860265D01*
X184904233Y-105934765D01*
X184884272Y-106009265D01*
X184829735Y-106063804D01*
X184818203Y-106069807D01*
X184772425Y-106091153D01*
X184761197Y-106097636D01*
X184702952Y-106138420D01*
X184692657Y-106150690D01*
X184695379Y-106158168D01*
X185428329Y-106891119D01*
X185442200Y-106899127D01*
X185456071Y-106891119D01*
X185964084Y-106383105D01*
X212620500Y-106383105D01*
X212620501Y-108094494D01*
X212623402Y-108131370D01*
X212669256Y-108289199D01*
X212752919Y-108430665D01*
X212869135Y-108546881D01*
X213010601Y-108630544D01*
X213019599Y-108633158D01*
X213019601Y-108633159D01*
X213130551Y-108665393D01*
X213168430Y-108676398D01*
X213205305Y-108679300D01*
X214820169Y-108679300D01*
X216436694Y-108679299D01*
X216439604Y-108679070D01*
X216439606Y-108679070D01*
X216465982Y-108676995D01*
X216465983Y-108676995D01*
X216473570Y-108676398D01*
X216480876Y-108674275D01*
X216480878Y-108674275D01*
X216622399Y-108633159D01*
X216622401Y-108633158D01*
X216631399Y-108630544D01*
X216772865Y-108546881D01*
X216889081Y-108430665D01*
X216972744Y-108289199D01*
X217018598Y-108131370D01*
X217021500Y-108094495D01*
X217021499Y-106383106D01*
X217018598Y-106346230D01*
X216972744Y-106188401D01*
X216889081Y-106046935D01*
X216772865Y-105930719D01*
X216631399Y-105847056D01*
X216622401Y-105844442D01*
X216622399Y-105844441D01*
X216480881Y-105803326D01*
X216480880Y-105803326D01*
X216473570Y-105801202D01*
X216436695Y-105798300D01*
X214821831Y-105798300D01*
X213205306Y-105798301D01*
X213202396Y-105798530D01*
X213202394Y-105798530D01*
X213176018Y-105800605D01*
X213176017Y-105800605D01*
X213168430Y-105801202D01*
X213161124Y-105803325D01*
X213161122Y-105803325D01*
X213019601Y-105844441D01*
X213019599Y-105844442D01*
X213010601Y-105847056D01*
X212869135Y-105930719D01*
X212752919Y-106046935D01*
X212669256Y-106188401D01*
X212623402Y-106346230D01*
X212620500Y-106383105D01*
X185964084Y-106383105D01*
X186183646Y-106163543D01*
X186191654Y-106149672D01*
X186187676Y-106142781D01*
X186123203Y-106097636D01*
X186111975Y-106091153D01*
X186066197Y-106069807D01*
X186007113Y-106020230D01*
X185980734Y-105947753D01*
X185994127Y-105871797D01*
X186043704Y-105812713D01*
X186054669Y-105805728D01*
X186058020Y-105803793D01*
X186063916Y-105801044D01*
X186241463Y-105676724D01*
X186394724Y-105523463D01*
X186519044Y-105345916D01*
X186610644Y-105149479D01*
X186666741Y-104940120D01*
X186685632Y-104724200D01*
X186666741Y-104508280D01*
X186610644Y-104298921D01*
X186519044Y-104102484D01*
X186394724Y-103924937D01*
X186241463Y-103771676D01*
X186063916Y-103647356D01*
X185983368Y-103609796D01*
X185939286Y-103589240D01*
X185880202Y-103539663D01*
X185853823Y-103467186D01*
X185867216Y-103391230D01*
X185916793Y-103332146D01*
X185939286Y-103319160D01*
X186018727Y-103282116D01*
X186063916Y-103261044D01*
X186241463Y-103136724D01*
X186394724Y-102983463D01*
X186519044Y-102805916D01*
X186610644Y-102609479D01*
X186666741Y-102400120D01*
X186678505Y-102265667D01*
X186679033Y-102259629D01*
X212619084Y-102259629D01*
X212654914Y-102493777D01*
X212728505Y-102718929D01*
X212837881Y-102929039D01*
X212980105Y-103118464D01*
X212984528Y-103122691D01*
X212984530Y-103122693D01*
X213146933Y-103277889D01*
X213146938Y-103277893D01*
X213151357Y-103282116D01*
X213156409Y-103285562D01*
X213156410Y-103285563D01*
X213311313Y-103391230D01*
X213347038Y-103415600D01*
X213561893Y-103515333D01*
X213567781Y-103516966D01*
X213567784Y-103516967D01*
X213595608Y-103524683D01*
X213790152Y-103578634D01*
X213829702Y-103582861D01*
X213979570Y-103598878D01*
X213979579Y-103598878D01*
X213983523Y-103599300D01*
X215641050Y-103599300D01*
X215672463Y-103596717D01*
X215810988Y-103585329D01*
X215810993Y-103585328D01*
X215817077Y-103584828D01*
X215822999Y-103583340D01*
X215823002Y-103583340D01*
X215932818Y-103555756D01*
X216046815Y-103527122D01*
X216052422Y-103524684D01*
X216052425Y-103524683D01*
X216184658Y-103467186D01*
X216264042Y-103432669D01*
X216462926Y-103304005D01*
X216638126Y-103144586D01*
X216784935Y-102958693D01*
X216899412Y-102751318D01*
X216978482Y-102528031D01*
X216983550Y-102499583D01*
X217000148Y-102406400D01*
X217020022Y-102294828D01*
X217020379Y-102265667D01*
X217022841Y-102064081D01*
X217022916Y-102057971D01*
X216987086Y-101823823D01*
X216913495Y-101598671D01*
X216804119Y-101388561D01*
X216661895Y-101199136D01*
X216630258Y-101168903D01*
X216495067Y-101039711D01*
X216495062Y-101039707D01*
X216490643Y-101035484D01*
X216458555Y-101013595D01*
X216300017Y-100905448D01*
X216300015Y-100905447D01*
X216294962Y-100902000D01*
X216080107Y-100802267D01*
X216074219Y-100800634D01*
X216074216Y-100800633D01*
X215989516Y-100777144D01*
X215851848Y-100738966D01*
X215807814Y-100734260D01*
X215662430Y-100718722D01*
X215662421Y-100718722D01*
X215658477Y-100718300D01*
X214000950Y-100718300D01*
X213969537Y-100720883D01*
X213831012Y-100732271D01*
X213831007Y-100732272D01*
X213824923Y-100732772D01*
X213819001Y-100734260D01*
X213818998Y-100734260D01*
X213712064Y-100761120D01*
X213595185Y-100790478D01*
X213589578Y-100792916D01*
X213589575Y-100792917D01*
X213526286Y-100820436D01*
X213377958Y-100884931D01*
X213179074Y-101013595D01*
X213003874Y-101173014D01*
X212857065Y-101358907D01*
X212854110Y-101364260D01*
X212854108Y-101364263D01*
X212837697Y-101393992D01*
X212742588Y-101566282D01*
X212663518Y-101789569D01*
X212662447Y-101795584D01*
X212662446Y-101795586D01*
X212657416Y-101823823D01*
X212621978Y-102022772D01*
X212621903Y-102028885D01*
X212621903Y-102028888D01*
X212621548Y-102057971D01*
X212619084Y-102259629D01*
X186679033Y-102259629D01*
X186685065Y-102190681D01*
X186685632Y-102184200D01*
X186666741Y-101968280D01*
X186610644Y-101758921D01*
X186519044Y-101562484D01*
X186394724Y-101384937D01*
X186241463Y-101231676D01*
X186063916Y-101107356D01*
X185867479Y-101015756D01*
X185658120Y-100959659D01*
X185651649Y-100959093D01*
X185651644Y-100959092D01*
X185448681Y-100941335D01*
X185442200Y-100940768D01*
X185435719Y-100941335D01*
X185232756Y-100959092D01*
X185232751Y-100959093D01*
X185226280Y-100959659D01*
X185016921Y-101015756D01*
X184820484Y-101107356D01*
X184642937Y-101231676D01*
X184489676Y-101384937D01*
X184365356Y-101562484D01*
X184362605Y-101568384D01*
X184307240Y-101687114D01*
X184257663Y-101746198D01*
X184185186Y-101772577D01*
X184109230Y-101759184D01*
X184050146Y-101709607D01*
X184037160Y-101687114D01*
X183981795Y-101568384D01*
X183979044Y-101562484D01*
X183854724Y-101384937D01*
X183701463Y-101231676D01*
X183523916Y-101107356D01*
X183327479Y-101015756D01*
X183118120Y-100959659D01*
X183111649Y-100959093D01*
X183111644Y-100959092D01*
X182908681Y-100941335D01*
X182902200Y-100940768D01*
X182895719Y-100941335D01*
X182692756Y-100959092D01*
X182692751Y-100959093D01*
X182686280Y-100959659D01*
X182476921Y-101015756D01*
X182280484Y-101107356D01*
X182102937Y-101231676D01*
X181949676Y-101384937D01*
X181825356Y-101562484D01*
X181733756Y-101758921D01*
X181677659Y-101968280D01*
X181658768Y-102184200D01*
X181659335Y-102190681D01*
X181665896Y-102265667D01*
X181677659Y-102400120D01*
X181733756Y-102609479D01*
X181825356Y-102805916D01*
X181949676Y-102983463D01*
X182102937Y-103136724D01*
X182280484Y-103261044D01*
X182325673Y-103282116D01*
X182405114Y-103319160D01*
X182464198Y-103368737D01*
X182490577Y-103441214D01*
X182477184Y-103517170D01*
X182427607Y-103576254D01*
X182405114Y-103589240D01*
X182361032Y-103609796D01*
X182280484Y-103647356D01*
X182102937Y-103771676D01*
X181949676Y-103924937D01*
X181825356Y-104102484D01*
X181733756Y-104298921D01*
X181677659Y-104508280D01*
X181658768Y-104724200D01*
X181677659Y-104940120D01*
X181733756Y-105149479D01*
X181825356Y-105345916D01*
X181949676Y-105523463D01*
X182102937Y-105676724D01*
X182280484Y-105801044D01*
X182361032Y-105838604D01*
X182405114Y-105859160D01*
X182464198Y-105908737D01*
X182490577Y-105981214D01*
X182477184Y-106057170D01*
X182427607Y-106116254D01*
X182405114Y-106129240D01*
X182280484Y-106187356D01*
X182102937Y-106311676D01*
X181949676Y-106464937D01*
X181825356Y-106642484D01*
X181733756Y-106838921D01*
X181677659Y-107048280D01*
X181658768Y-107264200D01*
X129051500Y-107264200D01*
X129051500Y-100090153D01*
X203283514Y-100090153D01*
X203284326Y-100098435D01*
X203284326Y-100098439D01*
X203300226Y-100260599D01*
X203301039Y-100268886D01*
X203303667Y-100276785D01*
X203303667Y-100276787D01*
X203355097Y-100431393D01*
X203357726Y-100439296D01*
X203450759Y-100592912D01*
X203575514Y-100722099D01*
X203582483Y-100726659D01*
X203582485Y-100726661D01*
X203603788Y-100740601D01*
X203725789Y-100820436D01*
X203733599Y-100823341D01*
X203733600Y-100823341D01*
X203786028Y-100842839D01*
X203894116Y-100883036D01*
X203902371Y-100884137D01*
X203902373Y-100884138D01*
X204063875Y-100905687D01*
X204063879Y-100905687D01*
X204072130Y-100906788D01*
X204161556Y-100898650D01*
X204242688Y-100891267D01*
X204242691Y-100891266D01*
X204250981Y-100890512D01*
X204258903Y-100887938D01*
X204413855Y-100837591D01*
X204413858Y-100837590D01*
X204421782Y-100835015D01*
X204576044Y-100743057D01*
X204706099Y-100619207D01*
X204805483Y-100469622D01*
X204869257Y-100301736D01*
X204894251Y-100123893D01*
X204894565Y-100101400D01*
X204893304Y-100090153D01*
X204875475Y-99931214D01*
X204874546Y-99922928D01*
X204815485Y-99753327D01*
X204720316Y-99601025D01*
X204593770Y-99473593D01*
X204586740Y-99469132D01*
X204586738Y-99469130D01*
X204449169Y-99381826D01*
X204449167Y-99381825D01*
X204442136Y-99377363D01*
X204420948Y-99369818D01*
X204280800Y-99319914D01*
X204280801Y-99319914D01*
X204272951Y-99317119D01*
X204264680Y-99316133D01*
X204264677Y-99316132D01*
X204162368Y-99303933D01*
X204094624Y-99295855D01*
X204086346Y-99296725D01*
X204086344Y-99296725D01*
X204019547Y-99303746D01*
X203916017Y-99314627D01*
X203908139Y-99317309D01*
X203908134Y-99317310D01*
X203804754Y-99352504D01*
X203746007Y-99372503D01*
X203593045Y-99466606D01*
X203587096Y-99472432D01*
X203587093Y-99472434D01*
X203470682Y-99586432D01*
X203464732Y-99592259D01*
X203460221Y-99599258D01*
X203460219Y-99599261D01*
X203454530Y-99608089D01*
X203367446Y-99743217D01*
X203364596Y-99751046D01*
X203364596Y-99751047D01*
X203360903Y-99761195D01*
X203306022Y-99911978D01*
X203283514Y-100090153D01*
X129051500Y-100090153D01*
X129051500Y-86944200D01*
X146098768Y-86944200D01*
X146117659Y-87160120D01*
X146173756Y-87369479D01*
X146265356Y-87565916D01*
X146389676Y-87743463D01*
X146542937Y-87896724D01*
X146720484Y-88021044D01*
X146916921Y-88112644D01*
X147126280Y-88168741D01*
X147132751Y-88169307D01*
X147132756Y-88169308D01*
X147335719Y-88187065D01*
X147342200Y-88187632D01*
X147348681Y-88187065D01*
X147551644Y-88169308D01*
X147551649Y-88169307D01*
X147558120Y-88168741D01*
X147767479Y-88112644D01*
X147963916Y-88021044D01*
X148141463Y-87896724D01*
X148294724Y-87743463D01*
X148419044Y-87565916D01*
X148477160Y-87441286D01*
X148526737Y-87382202D01*
X148599214Y-87355823D01*
X148675170Y-87369216D01*
X148734254Y-87418793D01*
X148747240Y-87441286D01*
X148805356Y-87565916D01*
X148929676Y-87743463D01*
X149082937Y-87896724D01*
X149260484Y-88021044D01*
X149456921Y-88112644D01*
X149666280Y-88168741D01*
X149672751Y-88169307D01*
X149672756Y-88169308D01*
X149875719Y-88187065D01*
X149882200Y-88187632D01*
X149888681Y-88187065D01*
X150091644Y-88169308D01*
X150091649Y-88169307D01*
X150098120Y-88168741D01*
X150307479Y-88112644D01*
X150503916Y-88021044D01*
X150681463Y-87896724D01*
X150834724Y-87743463D01*
X150959044Y-87565916D01*
X151017160Y-87441286D01*
X151066737Y-87382202D01*
X151139214Y-87355823D01*
X151215170Y-87369216D01*
X151274254Y-87418793D01*
X151287240Y-87441286D01*
X151345356Y-87565916D01*
X151469676Y-87743463D01*
X151622937Y-87896724D01*
X151800484Y-88021044D01*
X151996921Y-88112644D01*
X152206280Y-88168741D01*
X152212751Y-88169307D01*
X152212756Y-88169308D01*
X152415719Y-88187065D01*
X152422200Y-88187632D01*
X152428681Y-88187065D01*
X152631644Y-88169308D01*
X152631649Y-88169307D01*
X152638120Y-88168741D01*
X152847479Y-88112644D01*
X153043916Y-88021044D01*
X153221463Y-87896724D01*
X153374724Y-87743463D01*
X153499044Y-87565916D01*
X153557160Y-87441286D01*
X153606737Y-87382202D01*
X153679214Y-87355823D01*
X153755170Y-87369216D01*
X153814254Y-87418793D01*
X153827240Y-87441286D01*
X153885356Y-87565916D01*
X154009676Y-87743463D01*
X154162937Y-87896724D01*
X154340484Y-88021044D01*
X154536921Y-88112644D01*
X154746280Y-88168741D01*
X154752751Y-88169307D01*
X154752756Y-88169308D01*
X154955719Y-88187065D01*
X154962200Y-88187632D01*
X154968681Y-88187065D01*
X155171644Y-88169308D01*
X155171649Y-88169307D01*
X155178120Y-88168741D01*
X155387479Y-88112644D01*
X155583916Y-88021044D01*
X155761463Y-87896724D01*
X155914724Y-87743463D01*
X156039044Y-87565916D01*
X156097160Y-87441286D01*
X156146737Y-87382202D01*
X156219214Y-87355823D01*
X156295170Y-87369216D01*
X156354254Y-87418793D01*
X156367240Y-87441286D01*
X156425356Y-87565916D01*
X156549676Y-87743463D01*
X156702937Y-87896724D01*
X156880484Y-88021044D01*
X157076921Y-88112644D01*
X157286280Y-88168741D01*
X157292751Y-88169307D01*
X157292756Y-88169308D01*
X157495719Y-88187065D01*
X157502200Y-88187632D01*
X157508681Y-88187065D01*
X157711644Y-88169308D01*
X157711649Y-88169307D01*
X157718120Y-88168741D01*
X157927479Y-88112644D01*
X158123916Y-88021044D01*
X158301463Y-87896724D01*
X158454724Y-87743463D01*
X158579044Y-87565916D01*
X158637160Y-87441286D01*
X158686737Y-87382202D01*
X158759214Y-87355823D01*
X158835170Y-87369216D01*
X158894254Y-87418793D01*
X158907240Y-87441286D01*
X158965356Y-87565916D01*
X159089676Y-87743463D01*
X159242937Y-87896724D01*
X159420484Y-88021044D01*
X159616921Y-88112644D01*
X159826280Y-88168741D01*
X159832751Y-88169307D01*
X159832756Y-88169308D01*
X160035719Y-88187065D01*
X160042200Y-88187632D01*
X160048681Y-88187065D01*
X160251644Y-88169308D01*
X160251649Y-88169307D01*
X160258120Y-88168741D01*
X160467479Y-88112644D01*
X160663916Y-88021044D01*
X160841463Y-87896724D01*
X160994724Y-87743463D01*
X161119044Y-87565916D01*
X161177160Y-87441286D01*
X161226737Y-87382202D01*
X161299214Y-87355823D01*
X161375170Y-87369216D01*
X161434254Y-87418793D01*
X161447240Y-87441286D01*
X161505356Y-87565916D01*
X161629676Y-87743463D01*
X161782937Y-87896724D01*
X161960484Y-88021044D01*
X162156921Y-88112644D01*
X162366280Y-88168741D01*
X162372751Y-88169307D01*
X162372756Y-88169308D01*
X162575719Y-88187065D01*
X162582200Y-88187632D01*
X162588681Y-88187065D01*
X162791644Y-88169308D01*
X162791649Y-88169307D01*
X162798120Y-88168741D01*
X163007479Y-88112644D01*
X163203916Y-88021044D01*
X163381463Y-87896724D01*
X163534724Y-87743463D01*
X163659044Y-87565916D01*
X163717160Y-87441286D01*
X163766737Y-87382202D01*
X163839214Y-87355823D01*
X163915170Y-87369216D01*
X163974254Y-87418793D01*
X163987240Y-87441286D01*
X164045356Y-87565916D01*
X164169676Y-87743463D01*
X164322937Y-87896724D01*
X164500484Y-88021044D01*
X164696921Y-88112644D01*
X164906280Y-88168741D01*
X164912751Y-88169307D01*
X164912756Y-88169308D01*
X165115719Y-88187065D01*
X165122200Y-88187632D01*
X165128681Y-88187065D01*
X165331644Y-88169308D01*
X165331649Y-88169307D01*
X165338120Y-88168741D01*
X165547479Y-88112644D01*
X165743916Y-88021044D01*
X165921463Y-87896724D01*
X166074724Y-87743463D01*
X166199044Y-87565916D01*
X166257160Y-87441286D01*
X166306737Y-87382202D01*
X166379214Y-87355823D01*
X166455170Y-87369216D01*
X166514254Y-87418793D01*
X166527240Y-87441286D01*
X166585356Y-87565916D01*
X166709676Y-87743463D01*
X166862937Y-87896724D01*
X167040484Y-88021044D01*
X167236921Y-88112644D01*
X167446280Y-88168741D01*
X167452751Y-88169307D01*
X167452756Y-88169308D01*
X167655719Y-88187065D01*
X167662200Y-88187632D01*
X167668681Y-88187065D01*
X167871644Y-88169308D01*
X167871649Y-88169307D01*
X167878120Y-88168741D01*
X168087479Y-88112644D01*
X168283916Y-88021044D01*
X168461463Y-87896724D01*
X168614724Y-87743463D01*
X168739044Y-87565916D01*
X168797160Y-87441286D01*
X168846737Y-87382202D01*
X168919214Y-87355823D01*
X168995170Y-87369216D01*
X169054254Y-87418793D01*
X169067240Y-87441286D01*
X169125356Y-87565916D01*
X169249676Y-87743463D01*
X169402937Y-87896724D01*
X169580484Y-88021044D01*
X169776921Y-88112644D01*
X169986280Y-88168741D01*
X169992751Y-88169307D01*
X169992756Y-88169308D01*
X170195719Y-88187065D01*
X170202200Y-88187632D01*
X170208681Y-88187065D01*
X170411644Y-88169308D01*
X170411649Y-88169307D01*
X170418120Y-88168741D01*
X170627479Y-88112644D01*
X170823916Y-88021044D01*
X171001463Y-87896724D01*
X171154724Y-87743463D01*
X171279044Y-87565916D01*
X171337160Y-87441286D01*
X171386737Y-87382202D01*
X171459214Y-87355823D01*
X171535170Y-87369216D01*
X171594254Y-87418793D01*
X171607240Y-87441286D01*
X171665356Y-87565916D01*
X171789676Y-87743463D01*
X171942937Y-87896724D01*
X172120484Y-88021044D01*
X172316921Y-88112644D01*
X172526280Y-88168741D01*
X172532751Y-88169307D01*
X172532756Y-88169308D01*
X172735719Y-88187065D01*
X172742200Y-88187632D01*
X172748681Y-88187065D01*
X172951644Y-88169308D01*
X172951649Y-88169307D01*
X172958120Y-88168741D01*
X173167479Y-88112644D01*
X173363916Y-88021044D01*
X173541463Y-87896724D01*
X173694724Y-87743463D01*
X173819044Y-87565916D01*
X173877160Y-87441286D01*
X173926737Y-87382202D01*
X173999214Y-87355823D01*
X174075170Y-87369216D01*
X174134254Y-87418793D01*
X174147240Y-87441286D01*
X174205356Y-87565916D01*
X174329676Y-87743463D01*
X174482937Y-87896724D01*
X174660484Y-88021044D01*
X174856921Y-88112644D01*
X175066280Y-88168741D01*
X175072751Y-88169307D01*
X175072756Y-88169308D01*
X175275719Y-88187065D01*
X175282200Y-88187632D01*
X175288681Y-88187065D01*
X175491644Y-88169308D01*
X175491649Y-88169307D01*
X175498120Y-88168741D01*
X175707479Y-88112644D01*
X175903916Y-88021044D01*
X176081463Y-87896724D01*
X176234724Y-87743463D01*
X176359044Y-87565916D01*
X176417160Y-87441286D01*
X176466737Y-87382202D01*
X176539214Y-87355823D01*
X176615170Y-87369216D01*
X176674254Y-87418793D01*
X176687240Y-87441286D01*
X176745356Y-87565916D01*
X176869676Y-87743463D01*
X177022937Y-87896724D01*
X177200484Y-88021044D01*
X177396921Y-88112644D01*
X177606280Y-88168741D01*
X177612751Y-88169307D01*
X177612756Y-88169308D01*
X177815719Y-88187065D01*
X177822200Y-88187632D01*
X177828681Y-88187065D01*
X178031644Y-88169308D01*
X178031649Y-88169307D01*
X178038120Y-88168741D01*
X178247479Y-88112644D01*
X178443916Y-88021044D01*
X178621463Y-87896724D01*
X178774724Y-87743463D01*
X178899044Y-87565916D01*
X178957160Y-87441286D01*
X179006737Y-87382202D01*
X179079214Y-87355823D01*
X179155170Y-87369216D01*
X179214254Y-87418793D01*
X179227240Y-87441286D01*
X179285356Y-87565916D01*
X179409676Y-87743463D01*
X179562937Y-87896724D01*
X179740484Y-88021044D01*
X179936921Y-88112644D01*
X180146280Y-88168741D01*
X180152751Y-88169307D01*
X180152756Y-88169308D01*
X180355719Y-88187065D01*
X180362200Y-88187632D01*
X180368681Y-88187065D01*
X180571644Y-88169308D01*
X180571649Y-88169307D01*
X180578120Y-88168741D01*
X180787479Y-88112644D01*
X180983916Y-88021044D01*
X181161463Y-87896724D01*
X181314724Y-87743463D01*
X181439044Y-87565916D01*
X181497160Y-87441286D01*
X181546737Y-87382202D01*
X181619214Y-87355823D01*
X181695170Y-87369216D01*
X181754254Y-87418793D01*
X181767240Y-87441286D01*
X181825356Y-87565916D01*
X181949676Y-87743463D01*
X182102937Y-87896724D01*
X182280484Y-88021044D01*
X182286384Y-88023795D01*
X182405114Y-88079160D01*
X182464198Y-88128737D01*
X182490577Y-88201214D01*
X182477184Y-88277170D01*
X182427607Y-88336254D01*
X182405114Y-88349240D01*
X182280484Y-88407356D01*
X182102937Y-88531676D01*
X181949676Y-88684937D01*
X181825356Y-88862484D01*
X181733756Y-89058921D01*
X181677659Y-89268280D01*
X181677093Y-89274751D01*
X181677092Y-89274756D01*
X181662094Y-89446189D01*
X181658768Y-89484200D01*
X181659335Y-89490681D01*
X181671521Y-89629960D01*
X181677659Y-89700120D01*
X181733756Y-89909479D01*
X181825356Y-90105916D01*
X181949676Y-90283463D01*
X182102937Y-90436724D01*
X182280484Y-90561044D01*
X182286384Y-90563795D01*
X182405114Y-90619160D01*
X182464198Y-90668737D01*
X182490577Y-90741214D01*
X182477184Y-90817170D01*
X182427607Y-90876254D01*
X182405114Y-90889240D01*
X182280484Y-90947356D01*
X182102937Y-91071676D01*
X181949676Y-91224937D01*
X181825356Y-91402484D01*
X181733756Y-91598921D01*
X181677659Y-91808280D01*
X181658768Y-92024200D01*
X181677659Y-92240120D01*
X181733756Y-92449479D01*
X181825356Y-92645916D01*
X181949676Y-92823463D01*
X182102937Y-92976724D01*
X182280484Y-93101044D01*
X182286384Y-93103795D01*
X182405114Y-93159160D01*
X182464198Y-93208737D01*
X182490577Y-93281214D01*
X182477184Y-93357170D01*
X182427607Y-93416254D01*
X182405114Y-93429240D01*
X182280484Y-93487356D01*
X182102937Y-93611676D01*
X181949676Y-93764937D01*
X181825356Y-93942484D01*
X181733756Y-94138921D01*
X181677659Y-94348280D01*
X181677093Y-94354751D01*
X181677092Y-94354756D01*
X181660413Y-94545394D01*
X181658768Y-94564200D01*
X181659335Y-94570681D01*
X181675201Y-94752023D01*
X181677659Y-94780120D01*
X181733756Y-94989479D01*
X181825356Y-95185916D01*
X181949676Y-95363463D01*
X182102937Y-95516724D01*
X182280484Y-95641044D01*
X182476921Y-95732644D01*
X182686280Y-95788741D01*
X182692751Y-95789307D01*
X182692756Y-95789308D01*
X182895719Y-95807065D01*
X182902200Y-95807632D01*
X182908681Y-95807065D01*
X183111644Y-95789308D01*
X183111649Y-95789307D01*
X183118120Y-95788741D01*
X183327479Y-95732644D01*
X183523916Y-95641044D01*
X183701463Y-95516724D01*
X183854724Y-95363463D01*
X183979044Y-95185916D01*
X184037160Y-95061286D01*
X184086737Y-95002202D01*
X184159214Y-94975823D01*
X184235170Y-94989216D01*
X184294254Y-95038793D01*
X184307240Y-95061286D01*
X184365356Y-95185916D01*
X184489676Y-95363463D01*
X184642937Y-95516724D01*
X184820484Y-95641044D01*
X185016921Y-95732644D01*
X185226280Y-95788741D01*
X185232751Y-95789307D01*
X185232756Y-95789308D01*
X185435719Y-95807065D01*
X185442200Y-95807632D01*
X185448681Y-95807065D01*
X185651644Y-95789308D01*
X185651649Y-95789307D01*
X185658120Y-95788741D01*
X185867479Y-95732644D01*
X186063916Y-95641044D01*
X186241463Y-95516724D01*
X186394724Y-95363463D01*
X186519044Y-95185916D01*
X186610644Y-94989479D01*
X186666741Y-94780120D01*
X186669200Y-94752023D01*
X186685065Y-94570681D01*
X186685632Y-94564200D01*
X186684710Y-94553655D01*
X196247225Y-94553655D01*
X196248037Y-94561937D01*
X196248037Y-94561941D01*
X196250781Y-94589925D01*
X196263655Y-94721225D01*
X196316802Y-94880991D01*
X196404024Y-95025012D01*
X196409812Y-95031005D01*
X196409813Y-95031007D01*
X196462505Y-95085570D01*
X196520986Y-95146129D01*
X196527955Y-95150690D01*
X196527957Y-95150691D01*
X196654903Y-95233763D01*
X196654906Y-95233764D01*
X196661875Y-95238325D01*
X196819689Y-95297015D01*
X196827943Y-95298116D01*
X196827946Y-95298117D01*
X196978328Y-95318182D01*
X196978332Y-95318182D01*
X196986583Y-95319283D01*
X197094453Y-95309466D01*
X197145970Y-95304778D01*
X197145972Y-95304778D01*
X197154264Y-95304023D01*
X197314397Y-95251993D01*
X197416299Y-95191247D01*
X197451872Y-95170041D01*
X197451873Y-95170040D01*
X197459023Y-95165778D01*
X197580954Y-95049665D01*
X197597334Y-95025012D01*
X197669520Y-94916363D01*
X197674131Y-94909423D01*
X197733921Y-94752023D01*
X197757355Y-94585288D01*
X197757649Y-94564200D01*
X197738881Y-94396876D01*
X197683508Y-94237868D01*
X197594284Y-94095079D01*
X197475642Y-93975606D01*
X197468612Y-93971145D01*
X197468610Y-93971143D01*
X197340512Y-93889850D01*
X197340510Y-93889849D01*
X197333479Y-93885387D01*
X197325633Y-93882593D01*
X197182704Y-93831698D01*
X197182701Y-93831697D01*
X197174862Y-93828906D01*
X197166599Y-93827921D01*
X197166596Y-93827920D01*
X197072085Y-93816650D01*
X197007673Y-93808969D01*
X196999395Y-93809839D01*
X196999393Y-93809839D01*
X196923947Y-93817769D01*
X196840221Y-93826569D01*
X196680831Y-93880830D01*
X196537422Y-93969056D01*
X196417124Y-94086861D01*
X196325915Y-94228390D01*
X196268327Y-94386609D01*
X196267284Y-94394868D01*
X196267283Y-94394871D01*
X196259398Y-94457294D01*
X196247225Y-94553655D01*
X186684710Y-94553655D01*
X186683987Y-94545394D01*
X186667308Y-94354756D01*
X186667307Y-94354751D01*
X186666741Y-94348280D01*
X186610644Y-94138921D01*
X186519044Y-93942484D01*
X186394724Y-93764937D01*
X186241463Y-93611676D01*
X186063916Y-93487356D01*
X185939286Y-93429240D01*
X185880202Y-93379663D01*
X185853823Y-93307186D01*
X185867216Y-93231230D01*
X185916793Y-93172146D01*
X185939286Y-93159160D01*
X186058016Y-93103795D01*
X186063916Y-93101044D01*
X186241463Y-92976724D01*
X186394724Y-92823463D01*
X186519044Y-92645916D01*
X186610644Y-92449479D01*
X186666741Y-92240120D01*
X186685632Y-92024200D01*
X186666741Y-91808280D01*
X186610644Y-91598921D01*
X186519044Y-91402484D01*
X186394724Y-91224937D01*
X186241463Y-91071676D01*
X186063916Y-90947356D01*
X185939286Y-90889240D01*
X185880202Y-90839663D01*
X185853823Y-90767186D01*
X185867216Y-90691230D01*
X185916793Y-90632146D01*
X185939286Y-90619160D01*
X186058016Y-90563795D01*
X186063916Y-90561044D01*
X186241463Y-90436724D01*
X186394724Y-90283463D01*
X186519044Y-90105916D01*
X186610644Y-89909479D01*
X186645751Y-89778455D01*
X198711025Y-89778455D01*
X198711837Y-89786737D01*
X198711837Y-89786741D01*
X198714581Y-89814725D01*
X198727455Y-89946025D01*
X198780602Y-90105791D01*
X198867824Y-90249812D01*
X198873612Y-90255805D01*
X198873613Y-90255807D01*
X198904761Y-90288061D01*
X198984786Y-90370929D01*
X198991755Y-90375490D01*
X198991757Y-90375491D01*
X199118703Y-90458563D01*
X199118706Y-90458564D01*
X199125675Y-90463125D01*
X199283489Y-90521815D01*
X199291743Y-90522916D01*
X199291746Y-90522917D01*
X199442128Y-90542982D01*
X199442132Y-90542982D01*
X199450383Y-90544083D01*
X199558253Y-90534266D01*
X199609770Y-90529578D01*
X199609772Y-90529578D01*
X199618064Y-90528823D01*
X199778197Y-90476793D01*
X199922823Y-90390578D01*
X200044754Y-90274465D01*
X200061134Y-90249812D01*
X200133320Y-90141163D01*
X200137931Y-90134223D01*
X200197721Y-89976823D01*
X200221155Y-89810088D01*
X200221449Y-89789000D01*
X200202681Y-89621676D01*
X200147308Y-89462668D01*
X200058084Y-89319879D01*
X199939442Y-89200406D01*
X199932412Y-89195945D01*
X199932410Y-89195943D01*
X199804312Y-89114650D01*
X199804310Y-89114649D01*
X199797279Y-89110187D01*
X199789433Y-89107393D01*
X199646504Y-89056498D01*
X199646501Y-89056497D01*
X199638662Y-89053706D01*
X199630399Y-89052721D01*
X199630396Y-89052720D01*
X199535885Y-89041450D01*
X199471473Y-89033769D01*
X199463195Y-89034639D01*
X199463193Y-89034639D01*
X199387747Y-89042569D01*
X199304021Y-89051369D01*
X199144631Y-89105630D01*
X199001222Y-89193856D01*
X198880924Y-89311661D01*
X198789715Y-89453190D01*
X198732127Y-89611409D01*
X198731084Y-89619668D01*
X198731083Y-89619671D01*
X198723198Y-89682094D01*
X198711025Y-89778455D01*
X186645751Y-89778455D01*
X186666741Y-89700120D01*
X186672880Y-89629960D01*
X186685065Y-89490681D01*
X186685632Y-89484200D01*
X186682306Y-89446189D01*
X186667308Y-89274756D01*
X186667307Y-89274751D01*
X186666741Y-89268280D01*
X186610644Y-89058921D01*
X186519044Y-88862484D01*
X186394724Y-88684937D01*
X186241463Y-88531676D01*
X186063916Y-88407356D01*
X185939286Y-88349240D01*
X185880202Y-88299663D01*
X185853823Y-88227186D01*
X185867216Y-88151230D01*
X185916793Y-88092146D01*
X185939286Y-88079160D01*
X186058016Y-88023795D01*
X186063916Y-88021044D01*
X186241463Y-87896724D01*
X186394724Y-87743463D01*
X186519044Y-87565916D01*
X186610644Y-87369479D01*
X186666741Y-87160120D01*
X186685632Y-86944200D01*
X186666741Y-86728280D01*
X186610644Y-86518921D01*
X186519044Y-86322484D01*
X186394724Y-86144937D01*
X186241463Y-85991676D01*
X186063916Y-85867356D01*
X185939286Y-85809240D01*
X185880202Y-85759663D01*
X185853823Y-85687186D01*
X185867216Y-85611230D01*
X185916793Y-85552146D01*
X185939286Y-85539160D01*
X186058016Y-85483795D01*
X186063916Y-85481044D01*
X186241463Y-85356724D01*
X186394724Y-85203463D01*
X186519044Y-85025916D01*
X186610644Y-84829479D01*
X186666741Y-84620120D01*
X186685632Y-84404200D01*
X186666741Y-84188280D01*
X186610644Y-83978921D01*
X186519044Y-83782484D01*
X186394724Y-83604937D01*
X186241463Y-83451676D01*
X186063916Y-83327356D01*
X185867479Y-83235756D01*
X185658120Y-83179659D01*
X185651649Y-83179093D01*
X185651644Y-83179092D01*
X185448681Y-83161335D01*
X185442200Y-83160768D01*
X185435719Y-83161335D01*
X185232756Y-83179092D01*
X185232751Y-83179093D01*
X185226280Y-83179659D01*
X185016921Y-83235756D01*
X184820484Y-83327356D01*
X184642937Y-83451676D01*
X184489676Y-83604937D01*
X184365356Y-83782484D01*
X184362605Y-83788384D01*
X184307240Y-83907114D01*
X184257663Y-83966198D01*
X184185186Y-83992577D01*
X184109230Y-83979184D01*
X184050146Y-83929607D01*
X184037160Y-83907114D01*
X183981795Y-83788384D01*
X183979044Y-83782484D01*
X183854724Y-83604937D01*
X183701463Y-83451676D01*
X183523916Y-83327356D01*
X183327479Y-83235756D01*
X183118120Y-83179659D01*
X183111649Y-83179093D01*
X183111644Y-83179092D01*
X182908681Y-83161335D01*
X182902200Y-83160768D01*
X182895719Y-83161335D01*
X182692756Y-83179092D01*
X182692751Y-83179093D01*
X182686280Y-83179659D01*
X182476921Y-83235756D01*
X182280484Y-83327356D01*
X182102937Y-83451676D01*
X181949676Y-83604937D01*
X181825356Y-83782484D01*
X181822605Y-83788384D01*
X181767240Y-83907114D01*
X181717663Y-83966198D01*
X181645186Y-83992577D01*
X181569230Y-83979184D01*
X181510146Y-83929607D01*
X181497160Y-83907114D01*
X181441795Y-83788384D01*
X181439044Y-83782484D01*
X181314724Y-83604937D01*
X181161463Y-83451676D01*
X180983916Y-83327356D01*
X180787479Y-83235756D01*
X180578120Y-83179659D01*
X180571649Y-83179093D01*
X180571644Y-83179092D01*
X180368681Y-83161335D01*
X180362200Y-83160768D01*
X180355719Y-83161335D01*
X180152756Y-83179092D01*
X180152751Y-83179093D01*
X180146280Y-83179659D01*
X179936921Y-83235756D01*
X179740484Y-83327356D01*
X179562937Y-83451676D01*
X179409676Y-83604937D01*
X179285356Y-83782484D01*
X179282605Y-83788384D01*
X179227240Y-83907114D01*
X179177663Y-83966198D01*
X179105186Y-83992577D01*
X179029230Y-83979184D01*
X178970146Y-83929607D01*
X178957160Y-83907114D01*
X178901795Y-83788384D01*
X178899044Y-83782484D01*
X178774724Y-83604937D01*
X178621463Y-83451676D01*
X178443916Y-83327356D01*
X178247479Y-83235756D01*
X178038120Y-83179659D01*
X178031649Y-83179093D01*
X178031644Y-83179092D01*
X177828681Y-83161335D01*
X177822200Y-83160768D01*
X177815719Y-83161335D01*
X177612756Y-83179092D01*
X177612751Y-83179093D01*
X177606280Y-83179659D01*
X177396921Y-83235756D01*
X177200484Y-83327356D01*
X177022937Y-83451676D01*
X176869676Y-83604937D01*
X176745356Y-83782484D01*
X176742605Y-83788384D01*
X176687240Y-83907114D01*
X176637663Y-83966198D01*
X176565186Y-83992577D01*
X176489230Y-83979184D01*
X176430146Y-83929607D01*
X176417160Y-83907114D01*
X176361795Y-83788384D01*
X176359044Y-83782484D01*
X176234724Y-83604937D01*
X176081463Y-83451676D01*
X175903916Y-83327356D01*
X175707479Y-83235756D01*
X175498120Y-83179659D01*
X175491649Y-83179093D01*
X175491644Y-83179092D01*
X175288681Y-83161335D01*
X175282200Y-83160768D01*
X175275719Y-83161335D01*
X175072756Y-83179092D01*
X175072751Y-83179093D01*
X175066280Y-83179659D01*
X174856921Y-83235756D01*
X174660484Y-83327356D01*
X174482937Y-83451676D01*
X174329676Y-83604937D01*
X174205356Y-83782484D01*
X174202605Y-83788384D01*
X174147240Y-83907114D01*
X174097663Y-83966198D01*
X174025186Y-83992577D01*
X173949230Y-83979184D01*
X173890146Y-83929607D01*
X173877160Y-83907114D01*
X173821795Y-83788384D01*
X173819044Y-83782484D01*
X173694724Y-83604937D01*
X173541463Y-83451676D01*
X173363916Y-83327356D01*
X173167479Y-83235756D01*
X172958120Y-83179659D01*
X172951649Y-83179093D01*
X172951644Y-83179092D01*
X172748681Y-83161335D01*
X172742200Y-83160768D01*
X172735719Y-83161335D01*
X172532756Y-83179092D01*
X172532751Y-83179093D01*
X172526280Y-83179659D01*
X172316921Y-83235756D01*
X172120484Y-83327356D01*
X171942937Y-83451676D01*
X171789676Y-83604937D01*
X171665356Y-83782484D01*
X171662605Y-83788384D01*
X171607240Y-83907114D01*
X171557663Y-83966198D01*
X171485186Y-83992577D01*
X171409230Y-83979184D01*
X171350146Y-83929607D01*
X171337160Y-83907114D01*
X171281795Y-83788384D01*
X171279044Y-83782484D01*
X171154724Y-83604937D01*
X171001463Y-83451676D01*
X170823916Y-83327356D01*
X170627479Y-83235756D01*
X170418120Y-83179659D01*
X170411649Y-83179093D01*
X170411644Y-83179092D01*
X170208681Y-83161335D01*
X170202200Y-83160768D01*
X170195719Y-83161335D01*
X169992756Y-83179092D01*
X169992751Y-83179093D01*
X169986280Y-83179659D01*
X169776921Y-83235756D01*
X169580484Y-83327356D01*
X169402937Y-83451676D01*
X169249676Y-83604937D01*
X169125356Y-83782484D01*
X169122605Y-83788384D01*
X169067240Y-83907114D01*
X169017663Y-83966198D01*
X168945186Y-83992577D01*
X168869230Y-83979184D01*
X168810146Y-83929607D01*
X168797160Y-83907114D01*
X168741795Y-83788384D01*
X168739044Y-83782484D01*
X168614724Y-83604937D01*
X168461463Y-83451676D01*
X168283916Y-83327356D01*
X168087479Y-83235756D01*
X167878120Y-83179659D01*
X167871649Y-83179093D01*
X167871644Y-83179092D01*
X167668681Y-83161335D01*
X167662200Y-83160768D01*
X167655719Y-83161335D01*
X167452756Y-83179092D01*
X167452751Y-83179093D01*
X167446280Y-83179659D01*
X167236921Y-83235756D01*
X167040484Y-83327356D01*
X166862937Y-83451676D01*
X166709676Y-83604937D01*
X166585356Y-83782484D01*
X166582605Y-83788384D01*
X166527240Y-83907114D01*
X166477663Y-83966198D01*
X166405186Y-83992577D01*
X166329230Y-83979184D01*
X166270146Y-83929607D01*
X166257160Y-83907114D01*
X166201795Y-83788384D01*
X166199044Y-83782484D01*
X166074724Y-83604937D01*
X165921463Y-83451676D01*
X165743916Y-83327356D01*
X165547479Y-83235756D01*
X165338120Y-83179659D01*
X165331649Y-83179093D01*
X165331644Y-83179092D01*
X165128681Y-83161335D01*
X165122200Y-83160768D01*
X165115719Y-83161335D01*
X164912756Y-83179092D01*
X164912751Y-83179093D01*
X164906280Y-83179659D01*
X164696921Y-83235756D01*
X164500484Y-83327356D01*
X164322937Y-83451676D01*
X164169676Y-83604937D01*
X164045356Y-83782484D01*
X164042605Y-83788384D01*
X163987240Y-83907114D01*
X163937663Y-83966198D01*
X163865186Y-83992577D01*
X163789230Y-83979184D01*
X163730146Y-83929607D01*
X163717160Y-83907114D01*
X163661795Y-83788384D01*
X163659044Y-83782484D01*
X163534724Y-83604937D01*
X163381463Y-83451676D01*
X163203916Y-83327356D01*
X163007479Y-83235756D01*
X162798120Y-83179659D01*
X162791649Y-83179093D01*
X162791644Y-83179092D01*
X162588681Y-83161335D01*
X162582200Y-83160768D01*
X162575719Y-83161335D01*
X162372756Y-83179092D01*
X162372751Y-83179093D01*
X162366280Y-83179659D01*
X162156921Y-83235756D01*
X161960484Y-83327356D01*
X161782937Y-83451676D01*
X161629676Y-83604937D01*
X161505356Y-83782484D01*
X161502605Y-83788384D01*
X161447240Y-83907114D01*
X161397663Y-83966198D01*
X161325186Y-83992577D01*
X161249230Y-83979184D01*
X161190146Y-83929607D01*
X161177160Y-83907114D01*
X161121795Y-83788384D01*
X161119044Y-83782484D01*
X160994724Y-83604937D01*
X160841463Y-83451676D01*
X160663916Y-83327356D01*
X160467479Y-83235756D01*
X160258120Y-83179659D01*
X160251649Y-83179093D01*
X160251644Y-83179092D01*
X160048681Y-83161335D01*
X160042200Y-83160768D01*
X160035719Y-83161335D01*
X159832756Y-83179092D01*
X159832751Y-83179093D01*
X159826280Y-83179659D01*
X159616921Y-83235756D01*
X159420484Y-83327356D01*
X159242937Y-83451676D01*
X159089676Y-83604937D01*
X158965356Y-83782484D01*
X158962605Y-83788384D01*
X158907240Y-83907114D01*
X158857663Y-83966198D01*
X158785186Y-83992577D01*
X158709230Y-83979184D01*
X158650146Y-83929607D01*
X158637160Y-83907114D01*
X158581795Y-83788384D01*
X158579044Y-83782484D01*
X158454724Y-83604937D01*
X158301463Y-83451676D01*
X158123916Y-83327356D01*
X157927479Y-83235756D01*
X157718120Y-83179659D01*
X157711649Y-83179093D01*
X157711644Y-83179092D01*
X157508681Y-83161335D01*
X157502200Y-83160768D01*
X157495719Y-83161335D01*
X157292756Y-83179092D01*
X157292751Y-83179093D01*
X157286280Y-83179659D01*
X157076921Y-83235756D01*
X156880484Y-83327356D01*
X156702937Y-83451676D01*
X156549676Y-83604937D01*
X156425356Y-83782484D01*
X156422605Y-83788384D01*
X156367240Y-83907114D01*
X156317663Y-83966198D01*
X156245186Y-83992577D01*
X156169230Y-83979184D01*
X156110146Y-83929607D01*
X156097160Y-83907114D01*
X156041795Y-83788384D01*
X156039044Y-83782484D01*
X155914724Y-83604937D01*
X155761463Y-83451676D01*
X155583916Y-83327356D01*
X155387479Y-83235756D01*
X155178120Y-83179659D01*
X155171649Y-83179093D01*
X155171644Y-83179092D01*
X154968681Y-83161335D01*
X154962200Y-83160768D01*
X154955719Y-83161335D01*
X154752756Y-83179092D01*
X154752751Y-83179093D01*
X154746280Y-83179659D01*
X154536921Y-83235756D01*
X154340484Y-83327356D01*
X154162937Y-83451676D01*
X154009676Y-83604937D01*
X153885356Y-83782484D01*
X153882605Y-83788384D01*
X153827240Y-83907114D01*
X153777663Y-83966198D01*
X153705186Y-83992577D01*
X153629230Y-83979184D01*
X153570146Y-83929607D01*
X153557160Y-83907114D01*
X153501795Y-83788384D01*
X153499044Y-83782484D01*
X153374724Y-83604937D01*
X153221463Y-83451676D01*
X153043916Y-83327356D01*
X152847479Y-83235756D01*
X152638120Y-83179659D01*
X152631649Y-83179093D01*
X152631644Y-83179092D01*
X152428681Y-83161335D01*
X152422200Y-83160768D01*
X152415719Y-83161335D01*
X152212756Y-83179092D01*
X152212751Y-83179093D01*
X152206280Y-83179659D01*
X151996921Y-83235756D01*
X151800484Y-83327356D01*
X151622937Y-83451676D01*
X151469676Y-83604937D01*
X151345356Y-83782484D01*
X151342605Y-83788384D01*
X151287240Y-83907114D01*
X151237663Y-83966198D01*
X151165186Y-83992577D01*
X151089230Y-83979184D01*
X151030146Y-83929607D01*
X151017160Y-83907114D01*
X150961795Y-83788384D01*
X150959044Y-83782484D01*
X150834724Y-83604937D01*
X150681463Y-83451676D01*
X150503916Y-83327356D01*
X150307479Y-83235756D01*
X150098120Y-83179659D01*
X150091649Y-83179093D01*
X150091644Y-83179092D01*
X149888681Y-83161335D01*
X149882200Y-83160768D01*
X149875719Y-83161335D01*
X149672756Y-83179092D01*
X149672751Y-83179093D01*
X149666280Y-83179659D01*
X149456921Y-83235756D01*
X149260484Y-83327356D01*
X149082937Y-83451676D01*
X148929676Y-83604937D01*
X148805356Y-83782484D01*
X148802605Y-83788384D01*
X148747240Y-83907114D01*
X148697663Y-83966198D01*
X148625186Y-83992577D01*
X148549230Y-83979184D01*
X148490146Y-83929607D01*
X148477160Y-83907114D01*
X148421795Y-83788384D01*
X148419044Y-83782484D01*
X148294724Y-83604937D01*
X148141463Y-83451676D01*
X147963916Y-83327356D01*
X147767479Y-83235756D01*
X147558120Y-83179659D01*
X147551649Y-83179093D01*
X147551644Y-83179092D01*
X147348681Y-83161335D01*
X147342200Y-83160768D01*
X147335719Y-83161335D01*
X147132756Y-83179092D01*
X147132751Y-83179093D01*
X147126280Y-83179659D01*
X146916921Y-83235756D01*
X146720484Y-83327356D01*
X146542937Y-83451676D01*
X146389676Y-83604937D01*
X146265356Y-83782484D01*
X146173756Y-83978921D01*
X146117659Y-84188280D01*
X146098768Y-84404200D01*
X146117659Y-84620120D01*
X146173756Y-84829479D01*
X146265356Y-85025916D01*
X146389676Y-85203463D01*
X146542937Y-85356724D01*
X146720484Y-85481044D01*
X146726384Y-85483795D01*
X146845114Y-85539160D01*
X146904198Y-85588737D01*
X146930577Y-85661214D01*
X146917184Y-85737170D01*
X146867607Y-85796254D01*
X146845114Y-85809240D01*
X146720484Y-85867356D01*
X146542937Y-85991676D01*
X146389676Y-86144937D01*
X146265356Y-86322484D01*
X146173756Y-86518921D01*
X146117659Y-86728280D01*
X146098768Y-86944200D01*
X129051500Y-86944200D01*
X129051500Y-82031455D01*
X187789025Y-82031455D01*
X187789837Y-82039737D01*
X187789837Y-82039741D01*
X187792581Y-82067725D01*
X187805455Y-82199025D01*
X187858602Y-82358791D01*
X187945824Y-82502812D01*
X188062786Y-82623929D01*
X188069755Y-82628490D01*
X188069757Y-82628491D01*
X188196703Y-82711563D01*
X188196706Y-82711564D01*
X188203675Y-82716125D01*
X188361489Y-82774815D01*
X188369743Y-82775916D01*
X188369746Y-82775917D01*
X188520128Y-82795982D01*
X188520132Y-82795982D01*
X188528383Y-82797083D01*
X188636253Y-82787266D01*
X188687770Y-82782578D01*
X188687772Y-82782578D01*
X188696064Y-82781823D01*
X188856197Y-82729793D01*
X189000823Y-82643578D01*
X189122754Y-82527465D01*
X189139134Y-82502812D01*
X189211320Y-82394163D01*
X189215931Y-82387223D01*
X189275721Y-82229823D01*
X189299155Y-82063088D01*
X189299449Y-82042000D01*
X189280681Y-81874676D01*
X189225308Y-81715668D01*
X189136084Y-81572879D01*
X189017442Y-81453406D01*
X189010412Y-81448945D01*
X189010410Y-81448943D01*
X188882312Y-81367650D01*
X188882310Y-81367649D01*
X188875279Y-81363187D01*
X188867433Y-81360393D01*
X188724504Y-81309498D01*
X188724501Y-81309497D01*
X188716662Y-81306706D01*
X188708399Y-81305721D01*
X188708396Y-81305720D01*
X188613885Y-81294450D01*
X188549473Y-81286769D01*
X188541195Y-81287639D01*
X188541193Y-81287639D01*
X188465747Y-81295569D01*
X188382021Y-81304369D01*
X188222631Y-81358630D01*
X188079222Y-81446856D01*
X187958924Y-81564661D01*
X187867715Y-81706190D01*
X187810127Y-81864409D01*
X187809084Y-81872668D01*
X187809083Y-81872671D01*
X187801198Y-81935094D01*
X187789025Y-82031455D01*
X129051500Y-82031455D01*
X129051500Y-75660497D01*
X130836637Y-75660497D01*
X130852205Y-75943370D01*
X130853233Y-75948538D01*
X130865633Y-76010875D01*
X130907474Y-76221226D01*
X131001342Y-76488524D01*
X131003764Y-76493187D01*
X131003766Y-76493191D01*
X131129510Y-76735259D01*
X131129514Y-76735266D01*
X131131936Y-76739928D01*
X131296651Y-76970424D01*
X131300281Y-76974230D01*
X131300285Y-76974234D01*
X131419701Y-77099414D01*
X131492199Y-77175412D01*
X131714680Y-77350801D01*
X131774235Y-77385393D01*
X131955096Y-77490446D01*
X131955101Y-77490449D01*
X131959654Y-77493093D01*
X132222232Y-77599448D01*
X132362315Y-77634245D01*
X132492055Y-77666473D01*
X132492059Y-77666474D01*
X132497177Y-77667745D01*
X132502418Y-77668282D01*
X132502424Y-77668283D01*
X132735003Y-77692112D01*
X132738790Y-77692500D01*
X132914170Y-77692500D01*
X133124593Y-77677601D01*
X133401547Y-77617975D01*
X133667337Y-77519920D01*
X133671967Y-77517422D01*
X133671971Y-77517420D01*
X133912029Y-77387892D01*
X133912032Y-77387890D01*
X133916660Y-77385393D01*
X134144540Y-77217078D01*
X134148289Y-77213387D01*
X134148293Y-77213384D01*
X134244045Y-77119123D01*
X134346430Y-77018334D01*
X134518304Y-76793126D01*
X134656730Y-76545947D01*
X134758948Y-76281730D01*
X134822918Y-76005747D01*
X134828321Y-75943370D01*
X134846908Y-75728760D01*
X134846908Y-75728756D01*
X134847363Y-75723503D01*
X134831795Y-75440630D01*
X134820431Y-75383501D01*
X134777556Y-75167950D01*
X134777554Y-75167944D01*
X134776526Y-75162774D01*
X134682658Y-74895476D01*
X134654736Y-74841723D01*
X134554490Y-74648741D01*
X134554486Y-74648734D01*
X134552064Y-74644072D01*
X134501066Y-74572707D01*
X214062400Y-74572707D01*
X214062798Y-74580404D01*
X214072527Y-74674155D01*
X214075947Y-74689994D01*
X214126567Y-74841723D01*
X214133860Y-74857293D01*
X214217765Y-74992881D01*
X214228438Y-75006347D01*
X214341282Y-75118994D01*
X214354779Y-75129653D01*
X214490503Y-75213315D01*
X214506095Y-75220585D01*
X214657917Y-75270943D01*
X214673732Y-75274333D01*
X214766248Y-75283812D01*
X214773843Y-75284200D01*
X216096784Y-75284200D01*
X216112255Y-75280055D01*
X216116400Y-75264584D01*
X216116400Y-74009816D01*
X216112255Y-73994345D01*
X216096784Y-73990200D01*
X214082016Y-73990200D01*
X214066545Y-73994345D01*
X214062400Y-74009816D01*
X214062400Y-74572707D01*
X134501066Y-74572707D01*
X134387349Y-74413576D01*
X134383719Y-74409770D01*
X134383715Y-74409766D01*
X134195440Y-74212403D01*
X134191801Y-74208588D01*
X133969320Y-74033199D01*
X133839439Y-73957758D01*
X133728904Y-73893554D01*
X133728899Y-73893551D01*
X133724346Y-73890907D01*
X133461768Y-73784552D01*
X133321685Y-73749755D01*
X133191945Y-73717527D01*
X133191941Y-73717526D01*
X133186823Y-73716255D01*
X133181582Y-73715718D01*
X133181576Y-73715717D01*
X132948997Y-73691888D01*
X132945210Y-73691500D01*
X132769830Y-73691500D01*
X132559407Y-73706399D01*
X132282453Y-73766025D01*
X132016663Y-73864080D01*
X132012033Y-73866578D01*
X132012029Y-73866580D01*
X131771971Y-73996108D01*
X131767340Y-73998607D01*
X131539460Y-74166922D01*
X131535711Y-74170613D01*
X131535707Y-74170616D01*
X131500450Y-74205324D01*
X131337570Y-74365666D01*
X131165696Y-74590874D01*
X131027270Y-74838053D01*
X130925052Y-75102270D01*
X130861082Y-75378253D01*
X130860628Y-75383494D01*
X130860627Y-75383501D01*
X130855224Y-75445890D01*
X130836637Y-75660497D01*
X129051500Y-75660497D01*
X129051500Y-73462584D01*
X214062400Y-73462584D01*
X214066545Y-73478055D01*
X214082016Y-73482200D01*
X216096784Y-73482200D01*
X216112255Y-73478055D01*
X216116400Y-73462584D01*
X216116400Y-72207816D01*
X216112255Y-72192345D01*
X216096784Y-72188200D01*
X214773894Y-72188200D01*
X214766196Y-72188598D01*
X214672445Y-72198327D01*
X214656606Y-72201747D01*
X214504877Y-72252367D01*
X214489307Y-72259660D01*
X214353719Y-72343565D01*
X214340253Y-72354238D01*
X214227606Y-72467082D01*
X214216947Y-72480579D01*
X214133285Y-72616303D01*
X214126015Y-72631895D01*
X214075657Y-72783717D01*
X214072267Y-72799532D01*
X214062788Y-72892048D01*
X214062400Y-72899644D01*
X214062400Y-73462584D01*
X129051500Y-73462584D01*
X129051500Y-63911460D01*
X130290201Y-63911460D01*
X130290636Y-63919491D01*
X130295940Y-63968323D01*
X130300227Y-63986353D01*
X130344301Y-64103920D01*
X130354396Y-64122359D01*
X130428928Y-64221807D01*
X130443793Y-64236672D01*
X130543241Y-64311204D01*
X130561680Y-64321299D01*
X130679244Y-64365372D01*
X130697280Y-64369661D01*
X130722019Y-64372348D01*
X130793928Y-64400238D01*
X130842258Y-64460346D01*
X130854059Y-64536566D01*
X130826169Y-64608475D01*
X130811289Y-64625836D01*
X130686602Y-64750523D01*
X130561098Y-64929762D01*
X130468625Y-65128070D01*
X130411993Y-65339423D01*
X130392923Y-65557400D01*
X130411993Y-65775377D01*
X130468625Y-65986730D01*
X130561098Y-66185038D01*
X130686602Y-66364277D01*
X130841323Y-66518998D01*
X131020561Y-66644502D01*
X131218870Y-66736975D01*
X131225151Y-66738658D01*
X131423944Y-66791925D01*
X131423949Y-66791926D01*
X131430223Y-66793607D01*
X131436694Y-66794173D01*
X131436699Y-66794174D01*
X131641719Y-66812110D01*
X131648200Y-66812677D01*
X131654681Y-66812110D01*
X131859701Y-66794174D01*
X131859706Y-66794173D01*
X131866177Y-66793607D01*
X131872451Y-66791926D01*
X131872456Y-66791925D01*
X132071249Y-66738658D01*
X132077530Y-66736975D01*
X132275839Y-66644502D01*
X132455077Y-66518998D01*
X132609798Y-66364277D01*
X132735302Y-66185038D01*
X132827775Y-65986730D01*
X132884407Y-65775377D01*
X132903477Y-65557400D01*
X132884407Y-65339423D01*
X132827775Y-65128070D01*
X132735302Y-64929762D01*
X132609798Y-64750523D01*
X132485111Y-64625836D01*
X132446547Y-64559041D01*
X132446547Y-64481913D01*
X132485111Y-64415118D01*
X132551906Y-64376554D01*
X132574380Y-64372348D01*
X132599123Y-64369660D01*
X132617153Y-64365373D01*
X132734720Y-64321299D01*
X132753159Y-64311204D01*
X132852607Y-64236672D01*
X132867472Y-64221807D01*
X132942004Y-64122359D01*
X132952099Y-64103920D01*
X132996172Y-63986356D01*
X133000461Y-63968321D01*
X133005766Y-63919488D01*
X133006200Y-63911462D01*
X133006200Y-63291016D01*
X133002055Y-63275545D01*
X132986584Y-63271400D01*
X130309817Y-63271400D01*
X130294346Y-63275545D01*
X130290201Y-63291016D01*
X130290201Y-63911460D01*
X129051500Y-63911460D01*
X129051500Y-62743784D01*
X130290200Y-62743784D01*
X130294345Y-62759255D01*
X130309816Y-62763400D01*
X131374584Y-62763400D01*
X131390055Y-62759255D01*
X131394200Y-62743784D01*
X131902200Y-62743784D01*
X131906345Y-62759255D01*
X131921816Y-62763400D01*
X132986583Y-62763400D01*
X133002054Y-62759255D01*
X133006199Y-62743784D01*
X133006199Y-62714681D01*
X189357900Y-62714681D01*
X189357901Y-64285718D01*
X189358817Y-64291499D01*
X189358817Y-64291501D01*
X189370516Y-64365372D01*
X189372754Y-64379504D01*
X189430350Y-64492542D01*
X189520058Y-64582250D01*
X189530503Y-64587572D01*
X189615280Y-64630768D01*
X189633096Y-64639846D01*
X189644682Y-64641681D01*
X189721101Y-64653785D01*
X189721107Y-64653785D01*
X189726881Y-64654700D01*
X190512265Y-64654700D01*
X191297918Y-64654699D01*
X191322473Y-64650810D01*
X191380120Y-64641681D01*
X191380123Y-64641680D01*
X191391704Y-64639846D01*
X191504742Y-64582250D01*
X191594450Y-64492542D01*
X191652046Y-64379504D01*
X191657680Y-64343935D01*
X191665985Y-64291499D01*
X191665985Y-64291493D01*
X191666900Y-64285719D01*
X191666900Y-63926327D01*
X191686862Y-63851827D01*
X191741400Y-63797289D01*
X191815900Y-63777327D01*
X191890400Y-63797289D01*
X191944938Y-63851827D01*
X191956354Y-63876591D01*
X191957775Y-63880604D01*
X191959458Y-63887231D01*
X191962319Y-63893436D01*
X191962320Y-63893440D01*
X192005154Y-63986353D01*
X192048290Y-64079923D01*
X192052226Y-64085493D01*
X192052227Y-64085494D01*
X192098491Y-64150956D01*
X192170750Y-64253200D01*
X192322737Y-64401259D01*
X192499160Y-64519141D01*
X192505428Y-64521834D01*
X192505430Y-64521835D01*
X192572114Y-64550485D01*
X192694111Y-64602899D01*
X192901062Y-64649727D01*
X192944300Y-64651426D01*
X193106252Y-64657789D01*
X193106255Y-64657789D01*
X193113081Y-64658057D01*
X193323067Y-64627610D01*
X193523989Y-64559407D01*
X193628584Y-64500831D01*
X193703156Y-64459069D01*
X193703161Y-64459065D01*
X193709117Y-64455730D01*
X193872252Y-64320052D01*
X193932486Y-64247628D01*
X194003558Y-64162174D01*
X194003559Y-64162173D01*
X194007930Y-64156917D01*
X194011265Y-64150961D01*
X194011269Y-64150956D01*
X194058354Y-64066879D01*
X194111607Y-63971789D01*
X194179810Y-63770867D01*
X194210257Y-63560881D01*
X194211846Y-63500200D01*
X199366932Y-63500200D01*
X199386765Y-63726892D01*
X199388446Y-63733166D01*
X199388447Y-63733171D01*
X199429727Y-63887231D01*
X199445661Y-63946696D01*
X199448409Y-63952589D01*
X199539083Y-64147040D01*
X199539086Y-64147045D01*
X199541832Y-64152934D01*
X199672353Y-64339339D01*
X199833261Y-64500247D01*
X200019666Y-64630768D01*
X200025555Y-64633514D01*
X200025560Y-64633517D01*
X200209994Y-64719520D01*
X200225904Y-64726939D01*
X200232185Y-64728622D01*
X200439429Y-64784153D01*
X200439434Y-64784154D01*
X200445708Y-64785835D01*
X200452179Y-64786401D01*
X200452184Y-64786402D01*
X200665919Y-64805101D01*
X200672400Y-64805668D01*
X200678881Y-64805101D01*
X200892616Y-64786402D01*
X200892621Y-64786401D01*
X200899092Y-64785835D01*
X200905366Y-64784154D01*
X200905371Y-64784153D01*
X201112615Y-64728622D01*
X201118896Y-64726939D01*
X201134806Y-64719520D01*
X201319240Y-64633517D01*
X201319245Y-64633514D01*
X201325134Y-64630768D01*
X201511539Y-64500247D01*
X201672447Y-64339339D01*
X201802968Y-64152934D01*
X201805714Y-64147045D01*
X201805717Y-64147040D01*
X201896391Y-63952589D01*
X201899139Y-63946696D01*
X201915073Y-63887231D01*
X201956353Y-63733171D01*
X201956354Y-63733166D01*
X201958035Y-63726892D01*
X201977868Y-63500200D01*
X206986932Y-63500200D01*
X207006765Y-63726892D01*
X207008446Y-63733166D01*
X207008447Y-63733171D01*
X207049727Y-63887231D01*
X207065661Y-63946696D01*
X207068409Y-63952589D01*
X207159083Y-64147040D01*
X207159086Y-64147045D01*
X207161832Y-64152934D01*
X207292353Y-64339339D01*
X207453261Y-64500247D01*
X207639666Y-64630768D01*
X207645555Y-64633514D01*
X207645560Y-64633517D01*
X207829994Y-64719520D01*
X207845904Y-64726939D01*
X207852185Y-64728622D01*
X208059429Y-64784153D01*
X208059434Y-64784154D01*
X208065708Y-64785835D01*
X208072179Y-64786401D01*
X208072184Y-64786402D01*
X208285919Y-64805101D01*
X208292400Y-64805668D01*
X208298881Y-64805101D01*
X208512616Y-64786402D01*
X208512621Y-64786401D01*
X208519092Y-64785835D01*
X208525366Y-64784154D01*
X208525371Y-64784153D01*
X208732615Y-64728622D01*
X208738896Y-64726939D01*
X208754806Y-64719520D01*
X208939240Y-64633517D01*
X208939245Y-64633514D01*
X208945134Y-64630768D01*
X209131539Y-64500247D01*
X209292447Y-64339339D01*
X209422968Y-64152934D01*
X209425714Y-64147045D01*
X209425717Y-64147040D01*
X209516391Y-63952589D01*
X209519139Y-63946696D01*
X209535073Y-63887231D01*
X209576353Y-63733171D01*
X209576354Y-63733166D01*
X209578035Y-63726892D01*
X209597868Y-63500200D01*
X209595213Y-63469849D01*
X209578602Y-63279984D01*
X209578601Y-63279979D01*
X209578035Y-63273508D01*
X209566038Y-63228732D01*
X209520822Y-63059985D01*
X209519139Y-63053704D01*
X209511720Y-63037794D01*
X209425717Y-62853360D01*
X209425714Y-62853355D01*
X209422968Y-62847466D01*
X209292447Y-62661061D01*
X209131539Y-62500153D01*
X208945134Y-62369632D01*
X208939245Y-62366886D01*
X208939240Y-62366883D01*
X208744789Y-62276209D01*
X208738896Y-62273461D01*
X208732615Y-62271778D01*
X208525371Y-62216247D01*
X208525366Y-62216246D01*
X208519092Y-62214565D01*
X208512621Y-62213999D01*
X208512616Y-62213998D01*
X208298881Y-62195299D01*
X208292400Y-62194732D01*
X208285919Y-62195299D01*
X208072184Y-62213998D01*
X208072179Y-62213999D01*
X208065708Y-62214565D01*
X208059434Y-62216246D01*
X208059429Y-62216247D01*
X207852185Y-62271778D01*
X207845904Y-62273461D01*
X207840011Y-62276209D01*
X207645560Y-62366883D01*
X207645555Y-62366886D01*
X207639666Y-62369632D01*
X207453261Y-62500153D01*
X207292353Y-62661061D01*
X207161832Y-62847466D01*
X207159086Y-62853355D01*
X207159083Y-62853360D01*
X207073080Y-63037794D01*
X207065661Y-63053704D01*
X207063978Y-63059985D01*
X207018763Y-63228732D01*
X207006765Y-63273508D01*
X207006199Y-63279979D01*
X207006198Y-63279984D01*
X206989587Y-63469849D01*
X206986932Y-63500200D01*
X201977868Y-63500200D01*
X201975213Y-63469849D01*
X201958602Y-63279984D01*
X201958601Y-63279979D01*
X201958035Y-63273508D01*
X201946038Y-63228732D01*
X201900822Y-63059985D01*
X201899139Y-63053704D01*
X201891720Y-63037794D01*
X201805717Y-62853360D01*
X201805714Y-62853355D01*
X201802968Y-62847466D01*
X201672447Y-62661061D01*
X201511539Y-62500153D01*
X201325134Y-62369632D01*
X201319245Y-62366886D01*
X201319240Y-62366883D01*
X201124789Y-62276209D01*
X201118896Y-62273461D01*
X201112615Y-62271778D01*
X200905371Y-62216247D01*
X200905366Y-62216246D01*
X200899092Y-62214565D01*
X200892621Y-62213999D01*
X200892616Y-62213998D01*
X200678881Y-62195299D01*
X200672400Y-62194732D01*
X200665919Y-62195299D01*
X200452184Y-62213998D01*
X200452179Y-62213999D01*
X200445708Y-62214565D01*
X200439434Y-62216246D01*
X200439429Y-62216247D01*
X200232185Y-62271778D01*
X200225904Y-62273461D01*
X200220011Y-62276209D01*
X200025560Y-62366883D01*
X200025555Y-62366886D01*
X200019666Y-62369632D01*
X199833261Y-62500153D01*
X199672353Y-62661061D01*
X199541832Y-62847466D01*
X199539086Y-62853355D01*
X199539083Y-62853360D01*
X199453080Y-63037794D01*
X199445661Y-63053704D01*
X199443978Y-63059985D01*
X199398763Y-63228732D01*
X199386765Y-63273508D01*
X199386199Y-63279979D01*
X199386198Y-63279984D01*
X199369587Y-63469849D01*
X199366932Y-63500200D01*
X194211846Y-63500200D01*
X194211445Y-63495834D01*
X194193056Y-63295707D01*
X194193055Y-63295704D01*
X194192431Y-63288908D01*
X194175460Y-63228732D01*
X194136691Y-63091268D01*
X194136690Y-63091264D01*
X194134836Y-63084692D01*
X194040990Y-62894391D01*
X194036909Y-62888926D01*
X194036906Y-62888921D01*
X193918124Y-62729853D01*
X193918122Y-62729851D01*
X193914036Y-62724379D01*
X193758226Y-62580350D01*
X193578777Y-62467126D01*
X193572437Y-62464597D01*
X193572432Y-62464594D01*
X193388044Y-62391031D01*
X193381700Y-62388500D01*
X193286843Y-62369632D01*
X193180298Y-62348439D01*
X193180295Y-62348439D01*
X193173595Y-62347106D01*
X193066215Y-62345700D01*
X192968265Y-62344417D01*
X192968260Y-62344417D01*
X192961431Y-62344328D01*
X192954698Y-62345485D01*
X192954697Y-62345485D01*
X192759044Y-62379104D01*
X192759040Y-62379105D01*
X192752313Y-62380261D01*
X192553246Y-62453701D01*
X192370895Y-62562188D01*
X192211368Y-62702090D01*
X192207141Y-62707452D01*
X192084239Y-62863351D01*
X192084236Y-62863355D01*
X192080007Y-62868720D01*
X192076825Y-62874768D01*
X192076823Y-62874771D01*
X191985783Y-63047811D01*
X191981212Y-63056499D01*
X191979187Y-63063021D01*
X191958197Y-63130619D01*
X191917040Y-63195848D01*
X191848783Y-63231760D01*
X191771714Y-63228732D01*
X191706485Y-63187575D01*
X191670573Y-63119318D01*
X191666899Y-63086434D01*
X191666899Y-62714682D01*
X191663010Y-62690127D01*
X191653881Y-62632480D01*
X191653880Y-62632476D01*
X191652046Y-62620896D01*
X191594450Y-62507858D01*
X191504742Y-62418150D01*
X191416843Y-62373363D01*
X191402151Y-62365877D01*
X191391704Y-62360554D01*
X191368571Y-62356890D01*
X191303699Y-62346615D01*
X191303693Y-62346615D01*
X191297919Y-62345700D01*
X190512535Y-62345700D01*
X189726882Y-62345701D01*
X189709594Y-62348439D01*
X189644680Y-62358719D01*
X189644677Y-62358720D01*
X189633096Y-62360554D01*
X189520058Y-62418150D01*
X189430350Y-62507858D01*
X189372754Y-62620896D01*
X189370920Y-62632476D01*
X189358816Y-62708899D01*
X189357900Y-62714681D01*
X133006199Y-62714681D01*
X133006199Y-62123340D01*
X133005764Y-62115309D01*
X133000460Y-62066477D01*
X132996173Y-62048447D01*
X132952099Y-61930880D01*
X132942004Y-61912441D01*
X132867472Y-61812993D01*
X132852607Y-61798128D01*
X132753159Y-61723596D01*
X132734720Y-61713501D01*
X132617156Y-61669428D01*
X132599121Y-61665139D01*
X132550288Y-61659834D01*
X132542262Y-61659400D01*
X131921816Y-61659400D01*
X131906345Y-61663545D01*
X131902200Y-61679016D01*
X131902200Y-62743784D01*
X131394200Y-62743784D01*
X131394200Y-61679017D01*
X131390055Y-61663546D01*
X131374584Y-61659401D01*
X130754140Y-61659401D01*
X130746109Y-61659836D01*
X130697277Y-61665140D01*
X130679247Y-61669427D01*
X130561680Y-61713501D01*
X130543241Y-61723596D01*
X130443793Y-61798128D01*
X130428928Y-61812993D01*
X130354396Y-61912441D01*
X130344301Y-61930880D01*
X130300228Y-62048444D01*
X130295939Y-62066479D01*
X130290634Y-62115312D01*
X130290200Y-62123338D01*
X130290200Y-62743784D01*
X129051500Y-62743784D01*
X129051500Y-54584600D01*
X176818340Y-54584600D01*
X176838126Y-54772856D01*
X176896621Y-54952884D01*
X176991267Y-55116816D01*
X176996489Y-55122616D01*
X176996493Y-55122621D01*
X177062203Y-55195598D01*
X177117929Y-55257488D01*
X177271070Y-55368751D01*
X177443997Y-55445744D01*
X177451633Y-55447367D01*
X177451636Y-55447368D01*
X177621513Y-55483476D01*
X177621514Y-55483476D01*
X177629154Y-55485100D01*
X177818446Y-55485100D01*
X177826086Y-55483476D01*
X177826087Y-55483476D01*
X177995964Y-55447368D01*
X177995967Y-55447367D01*
X178003603Y-55445744D01*
X178176530Y-55368751D01*
X178329671Y-55257488D01*
X178385397Y-55195598D01*
X178451107Y-55122621D01*
X178451111Y-55122616D01*
X178456333Y-55116816D01*
X178550979Y-54952884D01*
X178609474Y-54772856D01*
X178629260Y-54584600D01*
X178609474Y-54396344D01*
X178550979Y-54216316D01*
X178456333Y-54052384D01*
X178451111Y-54046584D01*
X178451107Y-54046579D01*
X178385397Y-53973602D01*
X178329671Y-53911712D01*
X178176530Y-53800449D01*
X178003603Y-53723456D01*
X177995967Y-53721833D01*
X177995964Y-53721832D01*
X177826087Y-53685724D01*
X177826086Y-53685724D01*
X177818446Y-53684100D01*
X177629154Y-53684100D01*
X177621514Y-53685724D01*
X177621513Y-53685724D01*
X177451636Y-53721832D01*
X177451633Y-53721833D01*
X177443997Y-53723456D01*
X177271070Y-53800449D01*
X177117929Y-53911712D01*
X177062203Y-53973602D01*
X176996493Y-54046579D01*
X176996489Y-54046584D01*
X176991267Y-54052384D01*
X176896621Y-54216316D01*
X176838126Y-54396344D01*
X176818340Y-54584600D01*
X129051500Y-54584600D01*
X129051500Y-52806600D01*
X193048940Y-52806600D01*
X193068726Y-52994856D01*
X193127221Y-53174884D01*
X193221867Y-53338816D01*
X193227089Y-53344616D01*
X193227093Y-53344621D01*
X193292803Y-53417598D01*
X193348529Y-53479488D01*
X193501670Y-53590751D01*
X193674597Y-53667744D01*
X193682233Y-53669367D01*
X193682236Y-53669368D01*
X193852113Y-53705476D01*
X193852114Y-53705476D01*
X193859754Y-53707100D01*
X194049046Y-53707100D01*
X194056686Y-53705476D01*
X194056687Y-53705476D01*
X194226564Y-53669368D01*
X194226567Y-53669367D01*
X194234203Y-53667744D01*
X194407130Y-53590751D01*
X194560271Y-53479488D01*
X194615997Y-53417598D01*
X194681707Y-53344621D01*
X194681711Y-53344616D01*
X194686933Y-53338816D01*
X194781579Y-53174884D01*
X194840074Y-52994856D01*
X194859860Y-52806600D01*
X194840074Y-52618344D01*
X194781579Y-52438316D01*
X194686933Y-52274384D01*
X194681711Y-52268584D01*
X194681707Y-52268579D01*
X194615997Y-52195602D01*
X194560271Y-52133712D01*
X194407130Y-52022449D01*
X194234203Y-51945456D01*
X194226567Y-51943833D01*
X194226564Y-51943832D01*
X194056687Y-51907724D01*
X194056686Y-51907724D01*
X194049046Y-51906100D01*
X193859754Y-51906100D01*
X193852114Y-51907724D01*
X193852113Y-51907724D01*
X193682236Y-51943832D01*
X193682233Y-51943833D01*
X193674597Y-51945456D01*
X193501670Y-52022449D01*
X193348529Y-52133712D01*
X193292803Y-52195602D01*
X193227093Y-52268579D01*
X193227089Y-52268584D01*
X193221867Y-52274384D01*
X193127221Y-52438316D01*
X193068726Y-52618344D01*
X193048940Y-52806600D01*
X129051500Y-52806600D01*
X129051500Y-49377600D01*
X183727140Y-49377600D01*
X183746926Y-49565856D01*
X183805421Y-49745884D01*
X183900067Y-49909816D01*
X183905289Y-49915616D01*
X183905293Y-49915621D01*
X183971003Y-49988598D01*
X184026729Y-50050488D01*
X184179870Y-50161751D01*
X184352797Y-50238744D01*
X184360433Y-50240367D01*
X184360436Y-50240368D01*
X184530313Y-50276476D01*
X184530314Y-50276476D01*
X184537954Y-50278100D01*
X184727246Y-50278100D01*
X184734886Y-50276476D01*
X184734887Y-50276476D01*
X184904764Y-50240368D01*
X184904767Y-50240367D01*
X184912403Y-50238744D01*
X185085330Y-50161751D01*
X185238471Y-50050488D01*
X185294197Y-49988598D01*
X185359907Y-49915621D01*
X185359911Y-49915616D01*
X185365133Y-49909816D01*
X185459779Y-49745884D01*
X185518274Y-49565856D01*
X185538060Y-49377600D01*
X185518274Y-49189344D01*
X185459779Y-49009316D01*
X185365133Y-48845384D01*
X185359911Y-48839584D01*
X185359907Y-48839579D01*
X185294197Y-48766602D01*
X185238471Y-48704712D01*
X185085330Y-48593449D01*
X184912403Y-48516456D01*
X184904767Y-48514833D01*
X184904764Y-48514832D01*
X184734887Y-48478724D01*
X184734886Y-48478724D01*
X184727246Y-48477100D01*
X184537954Y-48477100D01*
X184530314Y-48478724D01*
X184530313Y-48478724D01*
X184360436Y-48514832D01*
X184360433Y-48514833D01*
X184352797Y-48516456D01*
X184179870Y-48593449D01*
X184026729Y-48704712D01*
X183971003Y-48766602D01*
X183905293Y-48839579D01*
X183905289Y-48839584D01*
X183900067Y-48845384D01*
X183805421Y-49009316D01*
X183746926Y-49189344D01*
X183727140Y-49377600D01*
X129051500Y-49377600D01*
X129051500Y-47650400D01*
X193480740Y-47650400D01*
X193500526Y-47838656D01*
X193559021Y-48018684D01*
X193653667Y-48182616D01*
X193658889Y-48188416D01*
X193658893Y-48188421D01*
X193724603Y-48261398D01*
X193780329Y-48323288D01*
X193933470Y-48434551D01*
X194106397Y-48511544D01*
X194114033Y-48513167D01*
X194114036Y-48513168D01*
X194283913Y-48549276D01*
X194283914Y-48549276D01*
X194291554Y-48550900D01*
X194480846Y-48550900D01*
X194488486Y-48549276D01*
X194488487Y-48549276D01*
X194658364Y-48513168D01*
X194658367Y-48513167D01*
X194666003Y-48511544D01*
X194838930Y-48434551D01*
X194992071Y-48323288D01*
X195047797Y-48261398D01*
X195113507Y-48188421D01*
X195113511Y-48188416D01*
X195118733Y-48182616D01*
X195213379Y-48018684D01*
X195271874Y-47838656D01*
X195291660Y-47650400D01*
X197798740Y-47650400D01*
X197818526Y-47838656D01*
X197877021Y-48018684D01*
X197971667Y-48182616D01*
X197976889Y-48188416D01*
X197976893Y-48188421D01*
X198042603Y-48261398D01*
X198098329Y-48323288D01*
X198251470Y-48434551D01*
X198424397Y-48511544D01*
X198432033Y-48513167D01*
X198432036Y-48513168D01*
X198601913Y-48549276D01*
X198601914Y-48549276D01*
X198609554Y-48550900D01*
X198798846Y-48550900D01*
X198806486Y-48549276D01*
X198806487Y-48549276D01*
X198976364Y-48513168D01*
X198976367Y-48513167D01*
X198984003Y-48511544D01*
X199156930Y-48434551D01*
X199310071Y-48323288D01*
X199365797Y-48261398D01*
X199431507Y-48188421D01*
X199431511Y-48188416D01*
X199436733Y-48182616D01*
X199531379Y-48018684D01*
X199589874Y-47838656D01*
X199609660Y-47650400D01*
X199589874Y-47462144D01*
X199531379Y-47282116D01*
X199436733Y-47118184D01*
X199431511Y-47112384D01*
X199431507Y-47112379D01*
X199365797Y-47039402D01*
X199310071Y-46977512D01*
X199156930Y-46866249D01*
X198984003Y-46789256D01*
X198976367Y-46787633D01*
X198976364Y-46787632D01*
X198806487Y-46751524D01*
X198806486Y-46751524D01*
X198798846Y-46749900D01*
X198609554Y-46749900D01*
X198601914Y-46751524D01*
X198601913Y-46751524D01*
X198432036Y-46787632D01*
X198432033Y-46787633D01*
X198424397Y-46789256D01*
X198251470Y-46866249D01*
X198098329Y-46977512D01*
X198042603Y-47039402D01*
X197976893Y-47112379D01*
X197976889Y-47112384D01*
X197971667Y-47118184D01*
X197877021Y-47282116D01*
X197818526Y-47462144D01*
X197798740Y-47650400D01*
X195291660Y-47650400D01*
X195271874Y-47462144D01*
X195213379Y-47282116D01*
X195118733Y-47118184D01*
X195113511Y-47112384D01*
X195113507Y-47112379D01*
X195047797Y-47039402D01*
X194992071Y-46977512D01*
X194838930Y-46866249D01*
X194666003Y-46789256D01*
X194658367Y-46787633D01*
X194658364Y-46787632D01*
X194488487Y-46751524D01*
X194488486Y-46751524D01*
X194480846Y-46749900D01*
X194291554Y-46749900D01*
X194283914Y-46751524D01*
X194283913Y-46751524D01*
X194114036Y-46787632D01*
X194114033Y-46787633D01*
X194106397Y-46789256D01*
X193933470Y-46866249D01*
X193780329Y-46977512D01*
X193724603Y-47039402D01*
X193658893Y-47112379D01*
X193658889Y-47112384D01*
X193653667Y-47118184D01*
X193559021Y-47282116D01*
X193500526Y-47462144D01*
X193480740Y-47650400D01*
X129051500Y-47650400D01*
X129051500Y-44043400D01*
X193059961Y-44043400D01*
X193078879Y-44259633D01*
X193135058Y-44469297D01*
X193137806Y-44475190D01*
X193224041Y-44660123D01*
X193224044Y-44660129D01*
X193226791Y-44666019D01*
X193230522Y-44671347D01*
X193230524Y-44671351D01*
X193283919Y-44747605D01*
X193351292Y-44843824D01*
X193504776Y-44997308D01*
X193510108Y-45001042D01*
X193510111Y-45001044D01*
X193677248Y-45118076D01*
X193677252Y-45118079D01*
X193682580Y-45121809D01*
X193879303Y-45213542D01*
X193885584Y-45215225D01*
X194082688Y-45268039D01*
X194082693Y-45268040D01*
X194088967Y-45269721D01*
X194095438Y-45270287D01*
X194095443Y-45270288D01*
X194298719Y-45288072D01*
X194305200Y-45288639D01*
X194311681Y-45288072D01*
X194514957Y-45270288D01*
X194514962Y-45270287D01*
X194521433Y-45269721D01*
X194527707Y-45268040D01*
X194527712Y-45268039D01*
X194724816Y-45215225D01*
X194731097Y-45213542D01*
X194927820Y-45121809D01*
X194933148Y-45118079D01*
X194933152Y-45118076D01*
X195100289Y-45001044D01*
X195100292Y-45001042D01*
X195105624Y-44997308D01*
X195259108Y-44843824D01*
X195326481Y-44747605D01*
X195379876Y-44671351D01*
X195379878Y-44671347D01*
X195383609Y-44666019D01*
X195386356Y-44660129D01*
X195386359Y-44660123D01*
X195472594Y-44475190D01*
X195475342Y-44469297D01*
X195531521Y-44259633D01*
X195550439Y-44043400D01*
X195531521Y-43827167D01*
X195475342Y-43617503D01*
X195466632Y-43598824D01*
X195386359Y-43426677D01*
X195386356Y-43426671D01*
X195383609Y-43420781D01*
X195379878Y-43415453D01*
X195379876Y-43415449D01*
X195326481Y-43339195D01*
X195259108Y-43242976D01*
X195105624Y-43089492D01*
X195100290Y-43085757D01*
X195100289Y-43085756D01*
X194933152Y-42968724D01*
X194933148Y-42968721D01*
X194927820Y-42964991D01*
X194806544Y-42908440D01*
X194747462Y-42858863D01*
X194721082Y-42786387D01*
X194734475Y-42710430D01*
X194784052Y-42651347D01*
X194806545Y-42638360D01*
X194927820Y-42581809D01*
X194933148Y-42578079D01*
X194933152Y-42578076D01*
X195100289Y-42461044D01*
X195100292Y-42461042D01*
X195105624Y-42457308D01*
X195259108Y-42303824D01*
X195326481Y-42207605D01*
X195379876Y-42131351D01*
X195379878Y-42131347D01*
X195383609Y-42126019D01*
X195386356Y-42120129D01*
X195386359Y-42120123D01*
X195472594Y-41935190D01*
X195475342Y-41929297D01*
X195531521Y-41719633D01*
X195550439Y-41503400D01*
X195531521Y-41287167D01*
X195475342Y-41077503D01*
X195466632Y-41058824D01*
X195386359Y-40886677D01*
X195386356Y-40886671D01*
X195383609Y-40880781D01*
X195379878Y-40875453D01*
X195379876Y-40875449D01*
X195326481Y-40799195D01*
X195259108Y-40702976D01*
X195105624Y-40549492D01*
X195100290Y-40545757D01*
X195100289Y-40545756D01*
X194933152Y-40428724D01*
X194933148Y-40428721D01*
X194927820Y-40424991D01*
X194806544Y-40368440D01*
X194747462Y-40318863D01*
X194721082Y-40246387D01*
X194734475Y-40170430D01*
X194784052Y-40111347D01*
X194806545Y-40098360D01*
X194927820Y-40041809D01*
X194933148Y-40038079D01*
X194933152Y-40038076D01*
X195100289Y-39921044D01*
X195100292Y-39921042D01*
X195105624Y-39917308D01*
X195259108Y-39763824D01*
X195326481Y-39667605D01*
X195379876Y-39591351D01*
X195379878Y-39591347D01*
X195383609Y-39586019D01*
X195386356Y-39580129D01*
X195386359Y-39580123D01*
X195472594Y-39395190D01*
X195475342Y-39389297D01*
X195531521Y-39179633D01*
X195550439Y-38963400D01*
X195531521Y-38747167D01*
X195475342Y-38537503D01*
X195466632Y-38518824D01*
X195386359Y-38346677D01*
X195386356Y-38346671D01*
X195383609Y-38340781D01*
X195379878Y-38335453D01*
X195379876Y-38335449D01*
X195326481Y-38259195D01*
X195259108Y-38162976D01*
X195105624Y-38009492D01*
X195100290Y-38005757D01*
X195100289Y-38005756D01*
X194933152Y-37888724D01*
X194933148Y-37888721D01*
X194927820Y-37884991D01*
X194806544Y-37828440D01*
X194747462Y-37778863D01*
X194721082Y-37706387D01*
X194734475Y-37630430D01*
X194784052Y-37571347D01*
X194806545Y-37558360D01*
X194927820Y-37501809D01*
X194933148Y-37498079D01*
X194933152Y-37498076D01*
X195100289Y-37381044D01*
X195100292Y-37381042D01*
X195105624Y-37377308D01*
X195259108Y-37223824D01*
X195326481Y-37127605D01*
X195379876Y-37051351D01*
X195379878Y-37051347D01*
X195383609Y-37046019D01*
X195386356Y-37040129D01*
X195386359Y-37040123D01*
X195472594Y-36855190D01*
X195475342Y-36849297D01*
X195531521Y-36639633D01*
X195550439Y-36423400D01*
X195546597Y-36379481D01*
X195532088Y-36213643D01*
X195532087Y-36213638D01*
X195531521Y-36207167D01*
X195475342Y-35997503D01*
X195433648Y-35908089D01*
X195386359Y-35806677D01*
X195386356Y-35806671D01*
X195383609Y-35800781D01*
X195379878Y-35795453D01*
X195379876Y-35795449D01*
X195316287Y-35704636D01*
X195259108Y-35622976D01*
X195105624Y-35469492D01*
X195100290Y-35465757D01*
X195100289Y-35465756D01*
X194933152Y-35348724D01*
X194933148Y-35348721D01*
X194927820Y-35344991D01*
X194921923Y-35342241D01*
X194921566Y-35342035D01*
X194867030Y-35287496D01*
X194847069Y-35212996D01*
X194867033Y-35138496D01*
X194921572Y-35083960D01*
X194933099Y-35077959D01*
X194975875Y-35058012D01*
X194987107Y-35051528D01*
X195045742Y-35010471D01*
X195056037Y-34998202D01*
X195053317Y-34990727D01*
X194319071Y-34256481D01*
X194305200Y-34248473D01*
X194291329Y-34256481D01*
X193562461Y-34985349D01*
X193554453Y-34999220D01*
X193558431Y-35006111D01*
X193623293Y-35051528D01*
X193634529Y-35058014D01*
X193677301Y-35077959D01*
X193736385Y-35127535D01*
X193762765Y-35200012D01*
X193749372Y-35275968D01*
X193699796Y-35335052D01*
X193688835Y-35342035D01*
X193688477Y-35342241D01*
X193682581Y-35344991D01*
X193677253Y-35348722D01*
X193677249Y-35348724D01*
X193628767Y-35382672D01*
X193504776Y-35469492D01*
X193351292Y-35622976D01*
X193294113Y-35704636D01*
X193230524Y-35795449D01*
X193230522Y-35795453D01*
X193226791Y-35800781D01*
X193224044Y-35806671D01*
X193224041Y-35806677D01*
X193176752Y-35908089D01*
X193135058Y-35997503D01*
X193078879Y-36207167D01*
X193078313Y-36213638D01*
X193078312Y-36213643D01*
X193063803Y-36379481D01*
X193059961Y-36423400D01*
X193078879Y-36639633D01*
X193135058Y-36849297D01*
X193137806Y-36855190D01*
X193224041Y-37040123D01*
X193224044Y-37040129D01*
X193226791Y-37046019D01*
X193230522Y-37051347D01*
X193230524Y-37051351D01*
X193283919Y-37127605D01*
X193351292Y-37223824D01*
X193504776Y-37377308D01*
X193510108Y-37381042D01*
X193510111Y-37381044D01*
X193677248Y-37498076D01*
X193677252Y-37498079D01*
X193682580Y-37501809D01*
X193803855Y-37558360D01*
X193862938Y-37607937D01*
X193889318Y-37680413D01*
X193875925Y-37756370D01*
X193826348Y-37815453D01*
X193803855Y-37828440D01*
X193688477Y-37882241D01*
X193688471Y-37882244D01*
X193682581Y-37884991D01*
X193677253Y-37888722D01*
X193677249Y-37888724D01*
X193600995Y-37942119D01*
X193504776Y-38009492D01*
X193351292Y-38162976D01*
X193283919Y-38259195D01*
X193230524Y-38335449D01*
X193230522Y-38335453D01*
X193226791Y-38340781D01*
X193224044Y-38346671D01*
X193224041Y-38346677D01*
X193143768Y-38518824D01*
X193135058Y-38537503D01*
X193078879Y-38747167D01*
X193059961Y-38963400D01*
X193078879Y-39179633D01*
X193135058Y-39389297D01*
X193137806Y-39395190D01*
X193224041Y-39580123D01*
X193224044Y-39580129D01*
X193226791Y-39586019D01*
X193230522Y-39591347D01*
X193230524Y-39591351D01*
X193283919Y-39667605D01*
X193351292Y-39763824D01*
X193504776Y-39917308D01*
X193510108Y-39921042D01*
X193510111Y-39921044D01*
X193677248Y-40038076D01*
X193677252Y-40038079D01*
X193682580Y-40041809D01*
X193803855Y-40098360D01*
X193862938Y-40147937D01*
X193889318Y-40220413D01*
X193875925Y-40296370D01*
X193826348Y-40355453D01*
X193803855Y-40368440D01*
X193688477Y-40422241D01*
X193688471Y-40422244D01*
X193682581Y-40424991D01*
X193677253Y-40428722D01*
X193677249Y-40428724D01*
X193600995Y-40482119D01*
X193504776Y-40549492D01*
X193351292Y-40702976D01*
X193283919Y-40799195D01*
X193230524Y-40875449D01*
X193230522Y-40875453D01*
X193226791Y-40880781D01*
X193224044Y-40886671D01*
X193224041Y-40886677D01*
X193143768Y-41058824D01*
X193135058Y-41077503D01*
X193078879Y-41287167D01*
X193059961Y-41503400D01*
X193078879Y-41719633D01*
X193135058Y-41929297D01*
X193137806Y-41935190D01*
X193224041Y-42120123D01*
X193224044Y-42120129D01*
X193226791Y-42126019D01*
X193230522Y-42131347D01*
X193230524Y-42131351D01*
X193283919Y-42207605D01*
X193351292Y-42303824D01*
X193504776Y-42457308D01*
X193510108Y-42461042D01*
X193510111Y-42461044D01*
X193677248Y-42578076D01*
X193677252Y-42578079D01*
X193682580Y-42581809D01*
X193803855Y-42638360D01*
X193862938Y-42687937D01*
X193889318Y-42760413D01*
X193875925Y-42836370D01*
X193826348Y-42895453D01*
X193803855Y-42908440D01*
X193688477Y-42962241D01*
X193688471Y-42962244D01*
X193682581Y-42964991D01*
X193677253Y-42968722D01*
X193677249Y-42968724D01*
X193600995Y-43022119D01*
X193504776Y-43089492D01*
X193351292Y-43242976D01*
X193283919Y-43339195D01*
X193230524Y-43415449D01*
X193230522Y-43415453D01*
X193226791Y-43420781D01*
X193224044Y-43426671D01*
X193224041Y-43426677D01*
X193143768Y-43598824D01*
X193135058Y-43617503D01*
X193078879Y-43827167D01*
X193059961Y-44043400D01*
X129051500Y-44043400D01*
X129051500Y-35712400D01*
X167826740Y-35712400D01*
X167827556Y-35720164D01*
X167836649Y-35806677D01*
X167846526Y-35900656D01*
X167905021Y-36080684D01*
X167999667Y-36244616D01*
X168004889Y-36250416D01*
X168004893Y-36250421D01*
X168070603Y-36323398D01*
X168126329Y-36385288D01*
X168132647Y-36389879D01*
X168132649Y-36389880D01*
X168178786Y-36423400D01*
X168279470Y-36496551D01*
X168452397Y-36573544D01*
X168460033Y-36575167D01*
X168460036Y-36575168D01*
X168629913Y-36611276D01*
X168629914Y-36611276D01*
X168637554Y-36612900D01*
X168826846Y-36612900D01*
X168834486Y-36611276D01*
X168834487Y-36611276D01*
X169004364Y-36575168D01*
X169004367Y-36575167D01*
X169012003Y-36573544D01*
X169184930Y-36496551D01*
X169285614Y-36423400D01*
X169331751Y-36389880D01*
X169331753Y-36389879D01*
X169338071Y-36385288D01*
X169393797Y-36323398D01*
X169459507Y-36250421D01*
X169459511Y-36250416D01*
X169464733Y-36244616D01*
X169559379Y-36080684D01*
X169617874Y-35900656D01*
X169627752Y-35806677D01*
X169636844Y-35720164D01*
X169637660Y-35712400D01*
X169628822Y-35628311D01*
X169618691Y-35531914D01*
X169618690Y-35531911D01*
X169617874Y-35524144D01*
X169598903Y-35465756D01*
X169592654Y-35446526D01*
X169559379Y-35344116D01*
X169476181Y-35200012D01*
X169468638Y-35186947D01*
X169468636Y-35186944D01*
X169464733Y-35180184D01*
X169459511Y-35174384D01*
X169459507Y-35174379D01*
X169354730Y-35058014D01*
X169338071Y-35039512D01*
X169298100Y-35010471D01*
X169233967Y-34963876D01*
X169184930Y-34928249D01*
X169012003Y-34851256D01*
X169004367Y-34849633D01*
X169004364Y-34849632D01*
X168834487Y-34813524D01*
X168834486Y-34813524D01*
X168826846Y-34811900D01*
X168637554Y-34811900D01*
X168629914Y-34813524D01*
X168629913Y-34813524D01*
X168460036Y-34849632D01*
X168460033Y-34849633D01*
X168452397Y-34851256D01*
X168279470Y-34928249D01*
X168230433Y-34963876D01*
X168166301Y-35010471D01*
X168126329Y-35039512D01*
X168109670Y-35058014D01*
X168004893Y-35174379D01*
X168004889Y-35174384D01*
X167999667Y-35180184D01*
X167995764Y-35186944D01*
X167995762Y-35186947D01*
X167988219Y-35200012D01*
X167905021Y-35344116D01*
X167871746Y-35446526D01*
X167865498Y-35465756D01*
X167846526Y-35524144D01*
X167845710Y-35531911D01*
X167845709Y-35531914D01*
X167835578Y-35628311D01*
X167826740Y-35712400D01*
X129051500Y-35712400D01*
X129051500Y-31851600D01*
X129904923Y-31851600D01*
X129905490Y-31858081D01*
X129917363Y-31993788D01*
X129923993Y-32069577D01*
X129925674Y-32075851D01*
X129925675Y-32075856D01*
X129957591Y-32194966D01*
X129980625Y-32280930D01*
X130073098Y-32479238D01*
X130198602Y-32658477D01*
X130353323Y-32813198D01*
X130532561Y-32938702D01*
X130730870Y-33031175D01*
X130737151Y-33032858D01*
X130935944Y-33086125D01*
X130935949Y-33086126D01*
X130942223Y-33087807D01*
X130948694Y-33088373D01*
X130948699Y-33088374D01*
X131153719Y-33106310D01*
X131160200Y-33106877D01*
X131166681Y-33106310D01*
X131371701Y-33088374D01*
X131371706Y-33088373D01*
X131378177Y-33087807D01*
X131384451Y-33086126D01*
X131384456Y-33086125D01*
X131583249Y-33032858D01*
X131589530Y-33031175D01*
X131787839Y-32938702D01*
X131967077Y-32813198D01*
X132121798Y-32658477D01*
X132178647Y-32577288D01*
X132237731Y-32527711D01*
X132313687Y-32514318D01*
X132386164Y-32540697D01*
X132435741Y-32599781D01*
X132449701Y-32662751D01*
X132449701Y-32733118D01*
X132450617Y-32738899D01*
X132450617Y-32738901D01*
X132461084Y-32804991D01*
X132464554Y-32826904D01*
X132522150Y-32939942D01*
X132611858Y-33029650D01*
X132724896Y-33087246D01*
X132736482Y-33089081D01*
X132812901Y-33101185D01*
X132812907Y-33101185D01*
X132818681Y-33102100D01*
X133700049Y-33102100D01*
X134581718Y-33102099D01*
X134606273Y-33098210D01*
X134663920Y-33089081D01*
X134663923Y-33089080D01*
X134675504Y-33087246D01*
X134788542Y-33029650D01*
X134878250Y-32939942D01*
X134935846Y-32826904D01*
X134945508Y-32765899D01*
X134949785Y-32738899D01*
X134949785Y-32738893D01*
X134950700Y-32733119D01*
X134950699Y-30970082D01*
X134935846Y-30876296D01*
X134878250Y-30763258D01*
X134788542Y-30673550D01*
X134675504Y-30615954D01*
X134652371Y-30612290D01*
X134587499Y-30602015D01*
X134587493Y-30602015D01*
X134581719Y-30601100D01*
X133700351Y-30601100D01*
X132818682Y-30601101D01*
X132794127Y-30604990D01*
X132736480Y-30614119D01*
X132736477Y-30614120D01*
X132724896Y-30615954D01*
X132611858Y-30673550D01*
X132522150Y-30763258D01*
X132464554Y-30876296D01*
X132462720Y-30887876D01*
X132450616Y-30964299D01*
X132449700Y-30970081D01*
X132449700Y-31040448D01*
X132429738Y-31114948D01*
X132375200Y-31169486D01*
X132300700Y-31189448D01*
X132226200Y-31169486D01*
X132178646Y-31125910D01*
X132125531Y-31050054D01*
X132125527Y-31050049D01*
X132121798Y-31044723D01*
X131967077Y-30890002D01*
X131787839Y-30764498D01*
X131589530Y-30672025D01*
X131583249Y-30670342D01*
X131384456Y-30617075D01*
X131384451Y-30617074D01*
X131378177Y-30615393D01*
X131371706Y-30614827D01*
X131371701Y-30614826D01*
X131166681Y-30596890D01*
X131160200Y-30596323D01*
X131153719Y-30596890D01*
X130948699Y-30614826D01*
X130948694Y-30614827D01*
X130942223Y-30615393D01*
X130935949Y-30617074D01*
X130935944Y-30617075D01*
X130737151Y-30670342D01*
X130730870Y-30672025D01*
X130532562Y-30764498D01*
X130527234Y-30768229D01*
X130527230Y-30768231D01*
X130443535Y-30826835D01*
X130353323Y-30890002D01*
X130198602Y-31044723D01*
X130073098Y-31223962D01*
X129980625Y-31422270D01*
X129978942Y-31428551D01*
X129928443Y-31617016D01*
X129923993Y-31633623D01*
X129923427Y-31640094D01*
X129923426Y-31640099D01*
X129907828Y-31818399D01*
X129904923Y-31851600D01*
X129051500Y-31851600D01*
X129051500Y-29683300D01*
X129071462Y-29608800D01*
X129126000Y-29554262D01*
X129200500Y-29534300D01*
X141731404Y-29534300D01*
X141805904Y-29554262D01*
G37*
G04 #@! TD.AperFunction*
M02*
