M48
; DRILL file {KiCad (6.0.11)} date Tue Aug 29 13:21:01 2023
; FORMAT={-:-/ absolute / metric / decimal}
; #@! TF.CreationDate,2023-08-29T13:21:01-05:00
; #@! TF.GenerationSoftware,Kicad,Pcbnew,(6.0.11)
; #@! TF.FileFunction,Plated,1,4,PTH
FMAT,2
METRIC
; #@! TA.AperFunction,Plated,PTH,ViaDrill
T1C0.300
; #@! TA.AperFunction,Plated,PTH,ViaDrill
T2C0.400
; #@! TA.AperFunction,Plated,PTH,ViaDrill
T3C0.500
; #@! TA.AperFunction,Plated,PTH,ComponentDrill
T4C0.800
; #@! TA.AperFunction,Plated,PTH,ComponentDrill
T5C1.000
; #@! TA.AperFunction,Plated,PTH,ComponentDrill
T6C1.120
; #@! TA.AperFunction,Plated,PTH,ComponentDrill
T7C1.200
; #@! TA.AperFunction,Plated,PTH,ComponentDrill
T8C1.400
%
G90
G05
T1
X141.275Y-43.739
X145.44Y-70.714
X147.32Y-68.58
X147.777Y-34.95
X149.86Y-68.58
X149.86Y-71.12
X152.4Y-71.12
X160.071Y-109.347
X160.071Y-113.462
X161.036Y-59.588
X161.036Y-61.011
X161.036Y-62.535
X161.112Y-109.245
X161.188Y-113.513
X161.9Y-42.469
X161.9Y-44.094
X161.9Y-46.126
X163.068Y-59.588
X163.068Y-60.909
X163.068Y-62.433
X163.474Y-42.469
X163.474Y-44.094
X163.474Y-46.076
X164.592Y-59.588
X164.592Y-60.909
X164.592Y-62.433
X165.202Y-42.469
X165.202Y-44.094
X165.202Y-46.076
X174.092Y-34.493
X174.193Y-42.824
X174.498Y-41.656
X174.6Y-40.437
X175.87Y-41.808
X175.92Y-40.64
X177.698Y-39.827
X188.544Y-82.042
X188.595Y-83.058
X192.253Y-115.443
X193.04Y-55.88
X195.58Y-55.88
X195.58Y-60.96
X196.596Y-104.038
X197.002Y-94.564
X197.612Y-95.606
X198.12Y-33.02
X198.12Y-35.56
X198.12Y-38.1
X198.12Y-55.88
X198.12Y-60.96
X198.12Y-89.383
X199.466Y-89.789
X200.66Y-33.02
X200.66Y-35.56
X200.66Y-38.1
X200.66Y-40.64
X200.66Y-43.18
X200.66Y-45.72
X200.66Y-55.88
X200.66Y-60.96
X202.311Y-88.265
X203.2Y-33.02
X203.2Y-35.56
X203.2Y-38.1
X203.2Y-40.64
X203.2Y-43.18
X203.2Y-45.72
X203.2Y-53.34
X203.2Y-60.96
X203.987Y-105.639
X205.74Y-33.02
X205.74Y-58.42
X205.74Y-60.96
X206.77Y-108.952
X207.62Y-73.558
X208.229Y-87.376
X208.28Y-33.02
X208.28Y-38.1
X208.28Y-40.64
X208.28Y-43.18
X208.28Y-45.72
X210.388Y-72.314
X210.82Y-33.02
X210.82Y-38.1
X210.82Y-40.64
X210.82Y-53.34
X210.82Y-55.88
X210.82Y-58.42
X211.201Y-91.948
X213.36Y-53.34
X213.36Y-55.88
X213.36Y-58.42
T2
X132.08Y-50.8
X132.08Y-53.34
X132.08Y-55.88
X132.08Y-58.42
X132.08Y-71.12
X132.08Y-81.28
X132.08Y-83.82
X132.08Y-86.36
X132.08Y-88.9
X132.08Y-91.44
X132.08Y-93.98
X132.08Y-96.52
X132.08Y-99.06
X132.08Y-101.6
X132.08Y-104.14
X132.08Y-106.68
X132.08Y-109.22
X132.08Y-111.76
X132.08Y-114.3
X134.62Y-43.18
X134.62Y-45.72
X134.62Y-48.26
X134.62Y-50.8
X134.62Y-53.34
X134.62Y-55.88
X134.62Y-58.42
X134.62Y-60.96
X134.62Y-63.5
X134.62Y-66.04
X134.62Y-71.12
X134.62Y-81.28
X134.62Y-83.82
X134.62Y-86.36
X134.62Y-88.9
X134.62Y-91.44
X134.62Y-93.98
X134.62Y-96.52
X134.62Y-99.06
X134.62Y-101.6
X134.62Y-104.14
X134.62Y-106.68
X134.62Y-109.22
X134.62Y-111.76
X137.16Y-43.18
X137.16Y-45.72
X137.16Y-66.04
X137.16Y-71.12
X137.16Y-73.66
X137.16Y-76.2
X137.16Y-78.74
X137.16Y-81.28
X137.16Y-83.82
X137.16Y-86.36
X137.16Y-88.9
X137.16Y-91.44
X137.16Y-93.98
X137.16Y-96.52
X137.16Y-99.06
X137.16Y-101.6
X137.16Y-104.14
X137.16Y-106.68
X137.16Y-109.22
X137.16Y-111.76
X139.7Y-43.18
X139.7Y-45.72
X142.24Y-45.72
X142.24Y-73.66
X142.24Y-76.2
X142.24Y-104.14
X142.24Y-106.68
X142.24Y-109.22
X144.78Y-45.72
X144.78Y-106.68
X144.78Y-109.22
X147.32Y-45.72
X147.32Y-48.26
X147.32Y-76.2
X147.32Y-78.74
X147.32Y-93.98
X147.32Y-96.52
X147.32Y-99.06
X147.32Y-101.6
X147.32Y-109.22
X149.86Y-45.72
X149.86Y-48.26
X149.86Y-76.2
X149.86Y-78.74
X149.86Y-93.98
X149.86Y-96.52
X149.86Y-99.06
X149.86Y-101.6
X149.86Y-104.14
X149.86Y-109.22
X152.4Y-30.48
X152.4Y-33.02
X152.4Y-76.2
X152.4Y-78.74
X152.4Y-93.98
X152.4Y-96.52
X152.4Y-99.06
X152.4Y-101.6
X152.4Y-104.14
X152.4Y-109.22
X154.94Y-30.48
X154.94Y-33.02
X154.94Y-76.2
X154.94Y-78.74
X154.94Y-93.98
X154.94Y-96.52
X154.94Y-99.06
X154.94Y-101.6
X154.94Y-104.14
X154.94Y-109.22
X157.48Y-30.48
X157.48Y-33.02
X157.48Y-76.2
X157.48Y-78.74
X157.48Y-93.98
X157.48Y-96.52
X157.48Y-99.06
X157.48Y-101.6
X157.48Y-104.14
X157.48Y-109.22
X160.02Y-30.48
X160.02Y-33.02
X160.02Y-76.2
X160.02Y-78.74
X160.02Y-93.98
X160.02Y-96.52
X162.56Y-30.48
X162.56Y-33.02
X162.56Y-76.2
X162.56Y-78.74
X162.56Y-93.98
X162.56Y-96.52
X162.56Y-101.6
X162.56Y-104.14
X165.1Y-30.48
X165.1Y-33.02
X165.1Y-78.74
X165.1Y-93.98
X165.1Y-96.52
X165.1Y-101.6
X165.1Y-104.14
X165.1Y-109.22
X166.116Y-76.048
X167.64Y-38.1
X167.64Y-40.64
X167.64Y-43.18
X167.64Y-60.96
X167.64Y-63.5
X167.64Y-66.04
X167.64Y-68.58
X167.64Y-93.98
X167.64Y-96.52
X167.64Y-101.6
X167.64Y-104.14
X167.64Y-109.22
X167.945Y-32.207
X170.18Y-48.26
X170.18Y-50.8
X170.18Y-53.34
X170.18Y-55.88
X170.18Y-58.42
X170.18Y-60.96
X170.18Y-63.5
X170.18Y-66.04
X170.18Y-93.98
X170.18Y-96.52
X170.18Y-101.6
X170.18Y-104.14
X170.18Y-109.22
X172.72Y-50.8
X172.72Y-53.34
X172.72Y-55.88
X172.72Y-58.42
X172.72Y-60.96
X172.72Y-63.5
X172.72Y-76.2
X172.72Y-78.74
X172.72Y-93.98
X172.72Y-96.52
X172.72Y-101.6
X172.72Y-104.14
X172.72Y-106.68
X175.26Y-73.66
X175.26Y-76.2
X175.26Y-78.74
X175.26Y-93.98
X175.26Y-96.52
X175.26Y-101.6
X175.26Y-104.14
X175.26Y-106.68
X175.26Y-109.22
X177.8Y-50.8
X177.8Y-68.58
X177.8Y-71.12
X177.8Y-73.66
X180.34Y-30.48
X180.34Y-33.02
X180.34Y-50.8
X182.88Y-50.8
X182.88Y-60.96
X182.88Y-63.5
X182.88Y-66.04
X182.88Y-68.58
X182.88Y-71.12
X182.88Y-73.66
X185.42Y-58.42
X185.42Y-78.74
X187.96Y-73.66
X187.96Y-76.2
X187.96Y-78.74
X190.5Y-76.2
X190.5Y-78.74
X190.5Y-104.14
X190.5Y-106.68
X190.5Y-109.22
X195.58Y-111.76
X195.58Y-114.3
X200.66Y-81.28
X203.2Y-81.28
X203.2Y-83.82
X204.089Y-100.101
X205.74Y-81.28
X210.82Y-76.2
X210.82Y-83.82
X213.36Y-81.28
X213.36Y-83.82
X213.36Y-86.36
X213.36Y-93.98
X213.36Y-96.52
X215.9Y-78.74
X215.9Y-81.28
X215.9Y-83.82
X215.9Y-86.36
X215.9Y-88.9
X215.9Y-91.44
X215.9Y-93.98
X215.9Y-96.52
T3
X137.135Y-115.113
X137.719Y-48.514
X168.732Y-35.712
X177.724Y-54.585
X184.633Y-49.378
X193.954Y-52.807
X193.98Y-54.305
X194.335Y-49.098
X194.386Y-47.65
X198.704Y-47.65
X198.755Y-46.076
T4
X134.642Y-117.424
X134.642Y-119.964
X137.182Y-117.424
X137.182Y-119.964
X139.722Y-117.424
X139.722Y-119.964
X142.262Y-117.424
X142.262Y-119.964
X144.802Y-117.424
X144.802Y-119.964
X147.342Y-84.404
X147.342Y-86.944
X147.342Y-117.424
X147.342Y-119.964
X149.882Y-84.404
X149.882Y-86.944
X149.882Y-117.424
X149.882Y-119.964
X152.422Y-84.404
X152.422Y-86.944
X152.422Y-117.424
X152.422Y-119.964
X154.962Y-84.404
X154.962Y-86.944
X154.962Y-117.424
X154.962Y-119.964
X157.502Y-84.404
X157.502Y-86.944
X157.502Y-117.424
X157.502Y-119.964
X160.042Y-84.404
X160.042Y-86.944
X160.042Y-117.424
X160.042Y-119.964
X162.582Y-84.404
X162.582Y-86.944
X162.582Y-117.424
X162.582Y-119.964
X165.122Y-84.404
X165.122Y-86.944
X165.122Y-117.424
X165.122Y-119.964
X167.662Y-84.404
X167.662Y-86.944
X167.662Y-117.424
X167.662Y-119.964
X170.202Y-84.404
X170.202Y-86.944
X170.202Y-117.424
X170.202Y-119.964
X172.742Y-84.404
X172.742Y-86.944
X172.742Y-117.424
X172.742Y-119.964
X175.282Y-84.404
X175.282Y-86.944
X175.282Y-117.424
X175.282Y-119.964
X177.822Y-84.404
X177.822Y-86.944
X177.822Y-117.424
X177.822Y-119.964
X180.362Y-84.404
X180.362Y-86.944
X180.362Y-117.424
X180.362Y-119.964
X182.902Y-84.404
X182.902Y-86.944
X182.902Y-89.484
X182.902Y-92.024
X182.902Y-94.564
X182.902Y-102.184
X182.902Y-104.724
X182.902Y-107.264
X182.902Y-117.424
X182.902Y-119.964
X185.442Y-84.404
X185.442Y-86.944
X185.442Y-89.484
X185.442Y-92.024
X185.442Y-94.564
X185.442Y-102.184
X185.442Y-104.724
X185.442Y-107.264
X185.442Y-117.424
X185.442Y-119.964
T5
X131.16Y-31.852
X131.648Y-63.017
X131.648Y-65.557
X133.7Y-31.852
X190.512Y-63.5
X192.253Y-117.729
X193.052Y-63.5
X194.793Y-117.729
X197.333Y-117.729
X199.873Y-117.729
X202.413Y-117.729
X204.953Y-117.729
X207.493Y-117.729
T6
X194.305Y-31.343
X194.305Y-33.883
X194.305Y-36.423
X194.305Y-38.963
X194.305Y-41.503
X194.305Y-44.043
X214.625Y-31.343
X214.625Y-33.883
X214.625Y-36.423
X214.625Y-38.963
X214.625Y-41.503
X214.625Y-44.043
T7
X200.672Y-63.5
X208.292Y-63.5
T8
X142.469Y-31.852
X147.549Y-31.852
X214.821Y-102.159
X214.821Y-107.239
X216.37Y-68.656
X216.37Y-73.736
T0
M30
