%TF.GenerationSoftware,KiCad,Pcbnew,(6.0.11)*%
%TF.CreationDate,2023-08-29T13:21:02-05:00*%
%TF.ProjectId,MB,4d422e6b-6963-4616-945f-706362585858,rev?*%
%TF.SameCoordinates,Original*%
%TF.FileFunction,Drillmap*%
%TF.FilePolarity,Positive*%
%FSLAX45Y45*%
G04 Gerber Fmt 4.5, Leading zero omitted, Abs format (unit mm)*
G04 Created by KiCad (PCBNEW (6.0.11)) date 2023-08-29 13:21:02*
%MOMM*%
%LPD*%
G01*
G04 APERTURE LIST*
%ADD10C,0.100000*%
%ADD11C,0.200000*%
%ADD12C,0.030000*%
%ADD13C,0.040000*%
%ADD14C,0.050000*%
%ADD15C,0.080000*%
%ADD16C,0.112000*%
%ADD17C,0.120000*%
%ADD18C,0.140000*%
G04 APERTURE END LIST*
D10*
X12865100Y-2913380D02*
X21887180Y-2913380D01*
X21887180Y-2913380D02*
X21887180Y-12321540D01*
X21887180Y-12321540D02*
X12865100Y-12321540D01*
X12865100Y-12321540D02*
X12865100Y-2913380D01*
D11*
D12*
X14112480Y-4358880D02*
X14142480Y-4388880D01*
X14142480Y-4358880D02*
X14112480Y-4388880D01*
X14529040Y-7056360D02*
X14559040Y-7086360D01*
X14559040Y-7056360D02*
X14529040Y-7086360D01*
X14717000Y-6843000D02*
X14747000Y-6873000D01*
X14747000Y-6843000D02*
X14717000Y-6873000D01*
X14762720Y-3480040D02*
X14792720Y-3510040D01*
X14792720Y-3480040D02*
X14762720Y-3510040D01*
X14971000Y-6843000D02*
X15001000Y-6873000D01*
X15001000Y-6843000D02*
X14971000Y-6873000D01*
X14971000Y-7097000D02*
X15001000Y-7127000D01*
X15001000Y-7097000D02*
X14971000Y-7127000D01*
X15225000Y-7097000D02*
X15255000Y-7127000D01*
X15255000Y-7097000D02*
X15225000Y-7127000D01*
X15992080Y-10919700D02*
X16022080Y-10949700D01*
X16022080Y-10919700D02*
X15992080Y-10949700D01*
X15992080Y-11331180D02*
X16022080Y-11361180D01*
X16022080Y-11331180D02*
X15992080Y-11361180D01*
X16088600Y-5943840D02*
X16118600Y-5973840D01*
X16118600Y-5943840D02*
X16088600Y-5973840D01*
X16088600Y-6086080D02*
X16118600Y-6116080D01*
X16118600Y-6086080D02*
X16088600Y-6116080D01*
X16088600Y-6238480D02*
X16118600Y-6268480D01*
X16118600Y-6238480D02*
X16088600Y-6268480D01*
X16096220Y-10909540D02*
X16126220Y-10939540D01*
X16126220Y-10909540D02*
X16096220Y-10939540D01*
X16103840Y-11336260D02*
X16133840Y-11366260D01*
X16133840Y-11336260D02*
X16103840Y-11366260D01*
X16174960Y-4231880D02*
X16204960Y-4261880D01*
X16204960Y-4231880D02*
X16174960Y-4261880D01*
X16174960Y-4394440D02*
X16204960Y-4424440D01*
X16204960Y-4394440D02*
X16174960Y-4424440D01*
X16174960Y-4597640D02*
X16204960Y-4627640D01*
X16204960Y-4597640D02*
X16174960Y-4627640D01*
X16291800Y-5943840D02*
X16321800Y-5973840D01*
X16321800Y-5943840D02*
X16291800Y-5973840D01*
X16291800Y-6075920D02*
X16321800Y-6105920D01*
X16321800Y-6075920D02*
X16291800Y-6105920D01*
X16291800Y-6228320D02*
X16321800Y-6258320D01*
X16321800Y-6228320D02*
X16291800Y-6258320D01*
X16332440Y-4231880D02*
X16362440Y-4261880D01*
X16362440Y-4231880D02*
X16332440Y-4261880D01*
X16332440Y-4394440D02*
X16362440Y-4424440D01*
X16362440Y-4394440D02*
X16332440Y-4424440D01*
X16332440Y-4592560D02*
X16362440Y-4622560D01*
X16362440Y-4592560D02*
X16332440Y-4622560D01*
X16444200Y-5943840D02*
X16474200Y-5973840D01*
X16474200Y-5943840D02*
X16444200Y-5973840D01*
X16444200Y-6075920D02*
X16474200Y-6105920D01*
X16474200Y-6075920D02*
X16444200Y-6105920D01*
X16444200Y-6228320D02*
X16474200Y-6258320D01*
X16474200Y-6228320D02*
X16444200Y-6258320D01*
X16505160Y-4231880D02*
X16535160Y-4261880D01*
X16535160Y-4231880D02*
X16505160Y-4261880D01*
X16505160Y-4394440D02*
X16535160Y-4424440D01*
X16535160Y-4394440D02*
X16505160Y-4424440D01*
X16505160Y-4592560D02*
X16535160Y-4622560D01*
X16535160Y-4592560D02*
X16505160Y-4622560D01*
X17394160Y-3434320D02*
X17424160Y-3464320D01*
X17424160Y-3434320D02*
X17394160Y-3464320D01*
X17404320Y-4267440D02*
X17434320Y-4297440D01*
X17434320Y-4267440D02*
X17404320Y-4297440D01*
X17434800Y-4150600D02*
X17464800Y-4180600D01*
X17464800Y-4150600D02*
X17434800Y-4180600D01*
X17444960Y-4028680D02*
X17474960Y-4058680D01*
X17474960Y-4028680D02*
X17444960Y-4058680D01*
X17571960Y-4165840D02*
X17601960Y-4195840D01*
X17601960Y-4165840D02*
X17571960Y-4195840D01*
X17577040Y-4049000D02*
X17607040Y-4079000D01*
X17607040Y-4049000D02*
X17577040Y-4079000D01*
X17754840Y-3967720D02*
X17784840Y-3997720D01*
X17784840Y-3967720D02*
X17754840Y-3997720D01*
X18839420Y-8189200D02*
X18869420Y-8219200D01*
X18869420Y-8189200D02*
X18839420Y-8219200D01*
X18844500Y-8290800D02*
X18874500Y-8320800D01*
X18874500Y-8290800D02*
X18844500Y-8320800D01*
X19210260Y-11529300D02*
X19240260Y-11559300D01*
X19240260Y-11529300D02*
X19210260Y-11559300D01*
X19289000Y-5573000D02*
X19319000Y-5603000D01*
X19319000Y-5573000D02*
X19289000Y-5603000D01*
X19543000Y-5573000D02*
X19573000Y-5603000D01*
X19573000Y-5573000D02*
X19543000Y-5603000D01*
X19543000Y-6081000D02*
X19573000Y-6111000D01*
X19573000Y-6081000D02*
X19543000Y-6111000D01*
X19644600Y-10388840D02*
X19674600Y-10418840D01*
X19674600Y-10388840D02*
X19644600Y-10418840D01*
X19685240Y-9441420D02*
X19715240Y-9471420D01*
X19715240Y-9441420D02*
X19685240Y-9471420D01*
X19746200Y-9545560D02*
X19776200Y-9575560D01*
X19776200Y-9545560D02*
X19746200Y-9575560D01*
X19797000Y-3287000D02*
X19827000Y-3317000D01*
X19827000Y-3287000D02*
X19797000Y-3317000D01*
X19797000Y-3541000D02*
X19827000Y-3571000D01*
X19827000Y-3541000D02*
X19797000Y-3571000D01*
X19797000Y-3795000D02*
X19827000Y-3825000D01*
X19827000Y-3795000D02*
X19797000Y-3825000D01*
X19797000Y-5573000D02*
X19827000Y-5603000D01*
X19827000Y-5573000D02*
X19797000Y-5603000D01*
X19797000Y-6081000D02*
X19827000Y-6111000D01*
X19827000Y-6081000D02*
X19797000Y-6111000D01*
X19797000Y-8923260D02*
X19827000Y-8953260D01*
X19827000Y-8923260D02*
X19797000Y-8953260D01*
X19931620Y-8963900D02*
X19961620Y-8993900D01*
X19961620Y-8963900D02*
X19931620Y-8993900D01*
X20051000Y-3287000D02*
X20081000Y-3317000D01*
X20081000Y-3287000D02*
X20051000Y-3317000D01*
X20051000Y-3541000D02*
X20081000Y-3571000D01*
X20081000Y-3541000D02*
X20051000Y-3571000D01*
X20051000Y-3795000D02*
X20081000Y-3825000D01*
X20081000Y-3795000D02*
X20051000Y-3825000D01*
X20051000Y-4049000D02*
X20081000Y-4079000D01*
X20081000Y-4049000D02*
X20051000Y-4079000D01*
X20051000Y-4303000D02*
X20081000Y-4333000D01*
X20081000Y-4303000D02*
X20051000Y-4333000D01*
X20051000Y-4557000D02*
X20081000Y-4587000D01*
X20081000Y-4557000D02*
X20051000Y-4587000D01*
X20051000Y-5573000D02*
X20081000Y-5603000D01*
X20081000Y-5573000D02*
X20051000Y-5603000D01*
X20051000Y-6081000D02*
X20081000Y-6111000D01*
X20081000Y-6081000D02*
X20051000Y-6111000D01*
X20216100Y-8811500D02*
X20246100Y-8841500D01*
X20246100Y-8811500D02*
X20216100Y-8841500D01*
X20305000Y-3287000D02*
X20335000Y-3317000D01*
X20335000Y-3287000D02*
X20305000Y-3317000D01*
X20305000Y-3541000D02*
X20335000Y-3571000D01*
X20335000Y-3541000D02*
X20305000Y-3571000D01*
X20305000Y-3795000D02*
X20335000Y-3825000D01*
X20335000Y-3795000D02*
X20305000Y-3825000D01*
X20305000Y-4049000D02*
X20335000Y-4079000D01*
X20335000Y-4049000D02*
X20305000Y-4079000D01*
X20305000Y-4303000D02*
X20335000Y-4333000D01*
X20335000Y-4303000D02*
X20305000Y-4333000D01*
X20305000Y-4557000D02*
X20335000Y-4587000D01*
X20335000Y-4557000D02*
X20305000Y-4587000D01*
X20305000Y-5319000D02*
X20335000Y-5349000D01*
X20335000Y-5319000D02*
X20305000Y-5349000D01*
X20305000Y-6081000D02*
X20335000Y-6111000D01*
X20335000Y-6081000D02*
X20305000Y-6111000D01*
X20383740Y-10548860D02*
X20413740Y-10578860D01*
X20413740Y-10548860D02*
X20383740Y-10578860D01*
X20559000Y-3287000D02*
X20589000Y-3317000D01*
X20589000Y-3287000D02*
X20559000Y-3317000D01*
X20559000Y-5827000D02*
X20589000Y-5857000D01*
X20589000Y-5827000D02*
X20559000Y-5857000D01*
X20559000Y-6081000D02*
X20589000Y-6111000D01*
X20589000Y-6081000D02*
X20559000Y-6111000D01*
X20662020Y-10880180D02*
X20692020Y-10910180D01*
X20692020Y-10880180D02*
X20662020Y-10910180D01*
X20746960Y-7340840D02*
X20776960Y-7370840D01*
X20776960Y-7340840D02*
X20746960Y-7370840D01*
X20807920Y-8722600D02*
X20837920Y-8752600D01*
X20837920Y-8722600D02*
X20807920Y-8752600D01*
X20813000Y-3287000D02*
X20843000Y-3317000D01*
X20843000Y-3287000D02*
X20813000Y-3317000D01*
X20813000Y-3795000D02*
X20843000Y-3825000D01*
X20843000Y-3795000D02*
X20813000Y-3825000D01*
X20813000Y-4049000D02*
X20843000Y-4079000D01*
X20843000Y-4049000D02*
X20813000Y-4079000D01*
X20813000Y-4303000D02*
X20843000Y-4333000D01*
X20843000Y-4303000D02*
X20813000Y-4333000D01*
X20813000Y-4557000D02*
X20843000Y-4587000D01*
X20843000Y-4557000D02*
X20813000Y-4587000D01*
X21023820Y-7216380D02*
X21053820Y-7246380D01*
X21053820Y-7216380D02*
X21023820Y-7246380D01*
X21067000Y-3287000D02*
X21097000Y-3317000D01*
X21097000Y-3287000D02*
X21067000Y-3317000D01*
X21067000Y-3795000D02*
X21097000Y-3825000D01*
X21097000Y-3795000D02*
X21067000Y-3825000D01*
X21067000Y-4049000D02*
X21097000Y-4079000D01*
X21097000Y-4049000D02*
X21067000Y-4079000D01*
X21067000Y-5319000D02*
X21097000Y-5349000D01*
X21097000Y-5319000D02*
X21067000Y-5349000D01*
X21067000Y-5573000D02*
X21097000Y-5603000D01*
X21097000Y-5573000D02*
X21067000Y-5603000D01*
X21067000Y-5827000D02*
X21097000Y-5857000D01*
X21097000Y-5827000D02*
X21067000Y-5857000D01*
X21105100Y-9179800D02*
X21135100Y-9209800D01*
X21135100Y-9179800D02*
X21105100Y-9209800D01*
X21321000Y-5319000D02*
X21351000Y-5349000D01*
X21351000Y-5319000D02*
X21321000Y-5349000D01*
X21321000Y-5573000D02*
X21351000Y-5603000D01*
X21351000Y-5573000D02*
X21321000Y-5603000D01*
X21321000Y-5827000D02*
X21351000Y-5857000D01*
X21351000Y-5827000D02*
X21321000Y-5857000D01*
D13*
X13228000Y-5080000D02*
G75*
G03*
X13228000Y-5080000I-20000J0D01*
G01*
X13228000Y-5334000D02*
G75*
G03*
X13228000Y-5334000I-20000J0D01*
G01*
X13228000Y-5588000D02*
G75*
G03*
X13228000Y-5588000I-20000J0D01*
G01*
X13228000Y-5842000D02*
G75*
G03*
X13228000Y-5842000I-20000J0D01*
G01*
X13228000Y-7112000D02*
G75*
G03*
X13228000Y-7112000I-20000J0D01*
G01*
X13228000Y-8128000D02*
G75*
G03*
X13228000Y-8128000I-20000J0D01*
G01*
X13228000Y-8382000D02*
G75*
G03*
X13228000Y-8382000I-20000J0D01*
G01*
X13228000Y-8636000D02*
G75*
G03*
X13228000Y-8636000I-20000J0D01*
G01*
X13228000Y-8890000D02*
G75*
G03*
X13228000Y-8890000I-20000J0D01*
G01*
X13228000Y-9144000D02*
G75*
G03*
X13228000Y-9144000I-20000J0D01*
G01*
X13228000Y-9398000D02*
G75*
G03*
X13228000Y-9398000I-20000J0D01*
G01*
X13228000Y-9652000D02*
G75*
G03*
X13228000Y-9652000I-20000J0D01*
G01*
X13228000Y-9906000D02*
G75*
G03*
X13228000Y-9906000I-20000J0D01*
G01*
X13228000Y-10160000D02*
G75*
G03*
X13228000Y-10160000I-20000J0D01*
G01*
X13228000Y-10414000D02*
G75*
G03*
X13228000Y-10414000I-20000J0D01*
G01*
X13228000Y-10668000D02*
G75*
G03*
X13228000Y-10668000I-20000J0D01*
G01*
X13228000Y-10922000D02*
G75*
G03*
X13228000Y-10922000I-20000J0D01*
G01*
X13228000Y-11176000D02*
G75*
G03*
X13228000Y-11176000I-20000J0D01*
G01*
X13228000Y-11430000D02*
G75*
G03*
X13228000Y-11430000I-20000J0D01*
G01*
X13482000Y-4318000D02*
G75*
G03*
X13482000Y-4318000I-20000J0D01*
G01*
X13482000Y-4572000D02*
G75*
G03*
X13482000Y-4572000I-20000J0D01*
G01*
X13482000Y-4826000D02*
G75*
G03*
X13482000Y-4826000I-20000J0D01*
G01*
X13482000Y-5080000D02*
G75*
G03*
X13482000Y-5080000I-20000J0D01*
G01*
X13482000Y-5334000D02*
G75*
G03*
X13482000Y-5334000I-20000J0D01*
G01*
X13482000Y-5588000D02*
G75*
G03*
X13482000Y-5588000I-20000J0D01*
G01*
X13482000Y-5842000D02*
G75*
G03*
X13482000Y-5842000I-20000J0D01*
G01*
X13482000Y-6096000D02*
G75*
G03*
X13482000Y-6096000I-20000J0D01*
G01*
X13482000Y-6350000D02*
G75*
G03*
X13482000Y-6350000I-20000J0D01*
G01*
X13482000Y-6604000D02*
G75*
G03*
X13482000Y-6604000I-20000J0D01*
G01*
X13482000Y-7112000D02*
G75*
G03*
X13482000Y-7112000I-20000J0D01*
G01*
X13482000Y-8128000D02*
G75*
G03*
X13482000Y-8128000I-20000J0D01*
G01*
X13482000Y-8382000D02*
G75*
G03*
X13482000Y-8382000I-20000J0D01*
G01*
X13482000Y-8636000D02*
G75*
G03*
X13482000Y-8636000I-20000J0D01*
G01*
X13482000Y-8890000D02*
G75*
G03*
X13482000Y-8890000I-20000J0D01*
G01*
X13482000Y-9144000D02*
G75*
G03*
X13482000Y-9144000I-20000J0D01*
G01*
X13482000Y-9398000D02*
G75*
G03*
X13482000Y-9398000I-20000J0D01*
G01*
X13482000Y-9652000D02*
G75*
G03*
X13482000Y-9652000I-20000J0D01*
G01*
X13482000Y-9906000D02*
G75*
G03*
X13482000Y-9906000I-20000J0D01*
G01*
X13482000Y-10160000D02*
G75*
G03*
X13482000Y-10160000I-20000J0D01*
G01*
X13482000Y-10414000D02*
G75*
G03*
X13482000Y-10414000I-20000J0D01*
G01*
X13482000Y-10668000D02*
G75*
G03*
X13482000Y-10668000I-20000J0D01*
G01*
X13482000Y-10922000D02*
G75*
G03*
X13482000Y-10922000I-20000J0D01*
G01*
X13482000Y-11176000D02*
G75*
G03*
X13482000Y-11176000I-20000J0D01*
G01*
X13736000Y-4318000D02*
G75*
G03*
X13736000Y-4318000I-20000J0D01*
G01*
X13736000Y-4572000D02*
G75*
G03*
X13736000Y-4572000I-20000J0D01*
G01*
X13736000Y-6604000D02*
G75*
G03*
X13736000Y-6604000I-20000J0D01*
G01*
X13736000Y-7112000D02*
G75*
G03*
X13736000Y-7112000I-20000J0D01*
G01*
X13736000Y-7366000D02*
G75*
G03*
X13736000Y-7366000I-20000J0D01*
G01*
X13736000Y-7620000D02*
G75*
G03*
X13736000Y-7620000I-20000J0D01*
G01*
X13736000Y-7874000D02*
G75*
G03*
X13736000Y-7874000I-20000J0D01*
G01*
X13736000Y-8128000D02*
G75*
G03*
X13736000Y-8128000I-20000J0D01*
G01*
X13736000Y-8382000D02*
G75*
G03*
X13736000Y-8382000I-20000J0D01*
G01*
X13736000Y-8636000D02*
G75*
G03*
X13736000Y-8636000I-20000J0D01*
G01*
X13736000Y-8890000D02*
G75*
G03*
X13736000Y-8890000I-20000J0D01*
G01*
X13736000Y-9144000D02*
G75*
G03*
X13736000Y-9144000I-20000J0D01*
G01*
X13736000Y-9398000D02*
G75*
G03*
X13736000Y-9398000I-20000J0D01*
G01*
X13736000Y-9652000D02*
G75*
G03*
X13736000Y-9652000I-20000J0D01*
G01*
X13736000Y-9906000D02*
G75*
G03*
X13736000Y-9906000I-20000J0D01*
G01*
X13736000Y-10160000D02*
G75*
G03*
X13736000Y-10160000I-20000J0D01*
G01*
X13736000Y-10414000D02*
G75*
G03*
X13736000Y-10414000I-20000J0D01*
G01*
X13736000Y-10668000D02*
G75*
G03*
X13736000Y-10668000I-20000J0D01*
G01*
X13736000Y-10922000D02*
G75*
G03*
X13736000Y-10922000I-20000J0D01*
G01*
X13736000Y-11176000D02*
G75*
G03*
X13736000Y-11176000I-20000J0D01*
G01*
X13990000Y-4318000D02*
G75*
G03*
X13990000Y-4318000I-20000J0D01*
G01*
X13990000Y-4572000D02*
G75*
G03*
X13990000Y-4572000I-20000J0D01*
G01*
X14244000Y-4572000D02*
G75*
G03*
X14244000Y-4572000I-20000J0D01*
G01*
X14244000Y-7366000D02*
G75*
G03*
X14244000Y-7366000I-20000J0D01*
G01*
X14244000Y-7620000D02*
G75*
G03*
X14244000Y-7620000I-20000J0D01*
G01*
X14244000Y-10414000D02*
G75*
G03*
X14244000Y-10414000I-20000J0D01*
G01*
X14244000Y-10668000D02*
G75*
G03*
X14244000Y-10668000I-20000J0D01*
G01*
X14244000Y-10922000D02*
G75*
G03*
X14244000Y-10922000I-20000J0D01*
G01*
X14498000Y-4572000D02*
G75*
G03*
X14498000Y-4572000I-20000J0D01*
G01*
X14498000Y-10668000D02*
G75*
G03*
X14498000Y-10668000I-20000J0D01*
G01*
X14498000Y-10922000D02*
G75*
G03*
X14498000Y-10922000I-20000J0D01*
G01*
X14752000Y-4572000D02*
G75*
G03*
X14752000Y-4572000I-20000J0D01*
G01*
X14752000Y-4826000D02*
G75*
G03*
X14752000Y-4826000I-20000J0D01*
G01*
X14752000Y-7620000D02*
G75*
G03*
X14752000Y-7620000I-20000J0D01*
G01*
X14752000Y-7874000D02*
G75*
G03*
X14752000Y-7874000I-20000J0D01*
G01*
X14752000Y-9398000D02*
G75*
G03*
X14752000Y-9398000I-20000J0D01*
G01*
X14752000Y-9652000D02*
G75*
G03*
X14752000Y-9652000I-20000J0D01*
G01*
X14752000Y-9906000D02*
G75*
G03*
X14752000Y-9906000I-20000J0D01*
G01*
X14752000Y-10160000D02*
G75*
G03*
X14752000Y-10160000I-20000J0D01*
G01*
X14752000Y-10922000D02*
G75*
G03*
X14752000Y-10922000I-20000J0D01*
G01*
X15006000Y-4572000D02*
G75*
G03*
X15006000Y-4572000I-20000J0D01*
G01*
X15006000Y-4826000D02*
G75*
G03*
X15006000Y-4826000I-20000J0D01*
G01*
X15006000Y-7620000D02*
G75*
G03*
X15006000Y-7620000I-20000J0D01*
G01*
X15006000Y-7874000D02*
G75*
G03*
X15006000Y-7874000I-20000J0D01*
G01*
X15006000Y-9398000D02*
G75*
G03*
X15006000Y-9398000I-20000J0D01*
G01*
X15006000Y-9652000D02*
G75*
G03*
X15006000Y-9652000I-20000J0D01*
G01*
X15006000Y-9906000D02*
G75*
G03*
X15006000Y-9906000I-20000J0D01*
G01*
X15006000Y-10160000D02*
G75*
G03*
X15006000Y-10160000I-20000J0D01*
G01*
X15006000Y-10414000D02*
G75*
G03*
X15006000Y-10414000I-20000J0D01*
G01*
X15006000Y-10922000D02*
G75*
G03*
X15006000Y-10922000I-20000J0D01*
G01*
X15260000Y-3048000D02*
G75*
G03*
X15260000Y-3048000I-20000J0D01*
G01*
X15260000Y-3302000D02*
G75*
G03*
X15260000Y-3302000I-20000J0D01*
G01*
X15260000Y-7620000D02*
G75*
G03*
X15260000Y-7620000I-20000J0D01*
G01*
X15260000Y-7874000D02*
G75*
G03*
X15260000Y-7874000I-20000J0D01*
G01*
X15260000Y-9398000D02*
G75*
G03*
X15260000Y-9398000I-20000J0D01*
G01*
X15260000Y-9652000D02*
G75*
G03*
X15260000Y-9652000I-20000J0D01*
G01*
X15260000Y-9906000D02*
G75*
G03*
X15260000Y-9906000I-20000J0D01*
G01*
X15260000Y-10160000D02*
G75*
G03*
X15260000Y-10160000I-20000J0D01*
G01*
X15260000Y-10414000D02*
G75*
G03*
X15260000Y-10414000I-20000J0D01*
G01*
X15260000Y-10922000D02*
G75*
G03*
X15260000Y-10922000I-20000J0D01*
G01*
X15514000Y-3048000D02*
G75*
G03*
X15514000Y-3048000I-20000J0D01*
G01*
X15514000Y-3302000D02*
G75*
G03*
X15514000Y-3302000I-20000J0D01*
G01*
X15514000Y-7620000D02*
G75*
G03*
X15514000Y-7620000I-20000J0D01*
G01*
X15514000Y-7874000D02*
G75*
G03*
X15514000Y-7874000I-20000J0D01*
G01*
X15514000Y-9398000D02*
G75*
G03*
X15514000Y-9398000I-20000J0D01*
G01*
X15514000Y-9652000D02*
G75*
G03*
X15514000Y-9652000I-20000J0D01*
G01*
X15514000Y-9906000D02*
G75*
G03*
X15514000Y-9906000I-20000J0D01*
G01*
X15514000Y-10160000D02*
G75*
G03*
X15514000Y-10160000I-20000J0D01*
G01*
X15514000Y-10414000D02*
G75*
G03*
X15514000Y-10414000I-20000J0D01*
G01*
X15514000Y-10922000D02*
G75*
G03*
X15514000Y-10922000I-20000J0D01*
G01*
X15768000Y-3048000D02*
G75*
G03*
X15768000Y-3048000I-20000J0D01*
G01*
X15768000Y-3302000D02*
G75*
G03*
X15768000Y-3302000I-20000J0D01*
G01*
X15768000Y-7620000D02*
G75*
G03*
X15768000Y-7620000I-20000J0D01*
G01*
X15768000Y-7874000D02*
G75*
G03*
X15768000Y-7874000I-20000J0D01*
G01*
X15768000Y-9398000D02*
G75*
G03*
X15768000Y-9398000I-20000J0D01*
G01*
X15768000Y-9652000D02*
G75*
G03*
X15768000Y-9652000I-20000J0D01*
G01*
X15768000Y-9906000D02*
G75*
G03*
X15768000Y-9906000I-20000J0D01*
G01*
X15768000Y-10160000D02*
G75*
G03*
X15768000Y-10160000I-20000J0D01*
G01*
X15768000Y-10414000D02*
G75*
G03*
X15768000Y-10414000I-20000J0D01*
G01*
X15768000Y-10922000D02*
G75*
G03*
X15768000Y-10922000I-20000J0D01*
G01*
X16022000Y-3048000D02*
G75*
G03*
X16022000Y-3048000I-20000J0D01*
G01*
X16022000Y-3302000D02*
G75*
G03*
X16022000Y-3302000I-20000J0D01*
G01*
X16022000Y-7620000D02*
G75*
G03*
X16022000Y-7620000I-20000J0D01*
G01*
X16022000Y-7874000D02*
G75*
G03*
X16022000Y-7874000I-20000J0D01*
G01*
X16022000Y-9398000D02*
G75*
G03*
X16022000Y-9398000I-20000J0D01*
G01*
X16022000Y-9652000D02*
G75*
G03*
X16022000Y-9652000I-20000J0D01*
G01*
X16276000Y-3048000D02*
G75*
G03*
X16276000Y-3048000I-20000J0D01*
G01*
X16276000Y-3302000D02*
G75*
G03*
X16276000Y-3302000I-20000J0D01*
G01*
X16276000Y-7620000D02*
G75*
G03*
X16276000Y-7620000I-20000J0D01*
G01*
X16276000Y-7874000D02*
G75*
G03*
X16276000Y-7874000I-20000J0D01*
G01*
X16276000Y-9398000D02*
G75*
G03*
X16276000Y-9398000I-20000J0D01*
G01*
X16276000Y-9652000D02*
G75*
G03*
X16276000Y-9652000I-20000J0D01*
G01*
X16276000Y-10160000D02*
G75*
G03*
X16276000Y-10160000I-20000J0D01*
G01*
X16276000Y-10414000D02*
G75*
G03*
X16276000Y-10414000I-20000J0D01*
G01*
X16530000Y-3048000D02*
G75*
G03*
X16530000Y-3048000I-20000J0D01*
G01*
X16530000Y-3302000D02*
G75*
G03*
X16530000Y-3302000I-20000J0D01*
G01*
X16530000Y-7874000D02*
G75*
G03*
X16530000Y-7874000I-20000J0D01*
G01*
X16530000Y-9398000D02*
G75*
G03*
X16530000Y-9398000I-20000J0D01*
G01*
X16530000Y-9652000D02*
G75*
G03*
X16530000Y-9652000I-20000J0D01*
G01*
X16530000Y-10160000D02*
G75*
G03*
X16530000Y-10160000I-20000J0D01*
G01*
X16530000Y-10414000D02*
G75*
G03*
X16530000Y-10414000I-20000J0D01*
G01*
X16530000Y-10922000D02*
G75*
G03*
X16530000Y-10922000I-20000J0D01*
G01*
X16631600Y-7604760D02*
G75*
G03*
X16631600Y-7604760I-20000J0D01*
G01*
X16784000Y-3810000D02*
G75*
G03*
X16784000Y-3810000I-20000J0D01*
G01*
X16784000Y-4064000D02*
G75*
G03*
X16784000Y-4064000I-20000J0D01*
G01*
X16784000Y-4318000D02*
G75*
G03*
X16784000Y-4318000I-20000J0D01*
G01*
X16784000Y-6096000D02*
G75*
G03*
X16784000Y-6096000I-20000J0D01*
G01*
X16784000Y-6350000D02*
G75*
G03*
X16784000Y-6350000I-20000J0D01*
G01*
X16784000Y-6604000D02*
G75*
G03*
X16784000Y-6604000I-20000J0D01*
G01*
X16784000Y-6858000D02*
G75*
G03*
X16784000Y-6858000I-20000J0D01*
G01*
X16784000Y-9398000D02*
G75*
G03*
X16784000Y-9398000I-20000J0D01*
G01*
X16784000Y-9652000D02*
G75*
G03*
X16784000Y-9652000I-20000J0D01*
G01*
X16784000Y-10160000D02*
G75*
G03*
X16784000Y-10160000I-20000J0D01*
G01*
X16784000Y-10414000D02*
G75*
G03*
X16784000Y-10414000I-20000J0D01*
G01*
X16784000Y-10922000D02*
G75*
G03*
X16784000Y-10922000I-20000J0D01*
G01*
X16814480Y-3220720D02*
G75*
G03*
X16814480Y-3220720I-20000J0D01*
G01*
X17038000Y-4826000D02*
G75*
G03*
X17038000Y-4826000I-20000J0D01*
G01*
X17038000Y-5080000D02*
G75*
G03*
X17038000Y-5080000I-20000J0D01*
G01*
X17038000Y-5334000D02*
G75*
G03*
X17038000Y-5334000I-20000J0D01*
G01*
X17038000Y-5588000D02*
G75*
G03*
X17038000Y-5588000I-20000J0D01*
G01*
X17038000Y-5842000D02*
G75*
G03*
X17038000Y-5842000I-20000J0D01*
G01*
X17038000Y-6096000D02*
G75*
G03*
X17038000Y-6096000I-20000J0D01*
G01*
X17038000Y-6350000D02*
G75*
G03*
X17038000Y-6350000I-20000J0D01*
G01*
X17038000Y-6604000D02*
G75*
G03*
X17038000Y-6604000I-20000J0D01*
G01*
X17038000Y-9398000D02*
G75*
G03*
X17038000Y-9398000I-20000J0D01*
G01*
X17038000Y-9652000D02*
G75*
G03*
X17038000Y-9652000I-20000J0D01*
G01*
X17038000Y-10160000D02*
G75*
G03*
X17038000Y-10160000I-20000J0D01*
G01*
X17038000Y-10414000D02*
G75*
G03*
X17038000Y-10414000I-20000J0D01*
G01*
X17038000Y-10922000D02*
G75*
G03*
X17038000Y-10922000I-20000J0D01*
G01*
X17292000Y-5080000D02*
G75*
G03*
X17292000Y-5080000I-20000J0D01*
G01*
X17292000Y-5334000D02*
G75*
G03*
X17292000Y-5334000I-20000J0D01*
G01*
X17292000Y-5588000D02*
G75*
G03*
X17292000Y-5588000I-20000J0D01*
G01*
X17292000Y-5842000D02*
G75*
G03*
X17292000Y-5842000I-20000J0D01*
G01*
X17292000Y-6096000D02*
G75*
G03*
X17292000Y-6096000I-20000J0D01*
G01*
X17292000Y-6350000D02*
G75*
G03*
X17292000Y-6350000I-20000J0D01*
G01*
X17292000Y-7620000D02*
G75*
G03*
X17292000Y-7620000I-20000J0D01*
G01*
X17292000Y-7874000D02*
G75*
G03*
X17292000Y-7874000I-20000J0D01*
G01*
X17292000Y-9398000D02*
G75*
G03*
X17292000Y-9398000I-20000J0D01*
G01*
X17292000Y-9652000D02*
G75*
G03*
X17292000Y-9652000I-20000J0D01*
G01*
X17292000Y-10160000D02*
G75*
G03*
X17292000Y-10160000I-20000J0D01*
G01*
X17292000Y-10414000D02*
G75*
G03*
X17292000Y-10414000I-20000J0D01*
G01*
X17292000Y-10668000D02*
G75*
G03*
X17292000Y-10668000I-20000J0D01*
G01*
X17546000Y-7366000D02*
G75*
G03*
X17546000Y-7366000I-20000J0D01*
G01*
X17546000Y-7620000D02*
G75*
G03*
X17546000Y-7620000I-20000J0D01*
G01*
X17546000Y-7874000D02*
G75*
G03*
X17546000Y-7874000I-20000J0D01*
G01*
X17546000Y-9398000D02*
G75*
G03*
X17546000Y-9398000I-20000J0D01*
G01*
X17546000Y-9652000D02*
G75*
G03*
X17546000Y-9652000I-20000J0D01*
G01*
X17546000Y-10160000D02*
G75*
G03*
X17546000Y-10160000I-20000J0D01*
G01*
X17546000Y-10414000D02*
G75*
G03*
X17546000Y-10414000I-20000J0D01*
G01*
X17546000Y-10668000D02*
G75*
G03*
X17546000Y-10668000I-20000J0D01*
G01*
X17546000Y-10922000D02*
G75*
G03*
X17546000Y-10922000I-20000J0D01*
G01*
X17800000Y-5080000D02*
G75*
G03*
X17800000Y-5080000I-20000J0D01*
G01*
X17800000Y-6858000D02*
G75*
G03*
X17800000Y-6858000I-20000J0D01*
G01*
X17800000Y-7112000D02*
G75*
G03*
X17800000Y-7112000I-20000J0D01*
G01*
X17800000Y-7366000D02*
G75*
G03*
X17800000Y-7366000I-20000J0D01*
G01*
X18054000Y-3048000D02*
G75*
G03*
X18054000Y-3048000I-20000J0D01*
G01*
X18054000Y-3302000D02*
G75*
G03*
X18054000Y-3302000I-20000J0D01*
G01*
X18054000Y-5080000D02*
G75*
G03*
X18054000Y-5080000I-20000J0D01*
G01*
X18308000Y-5080000D02*
G75*
G03*
X18308000Y-5080000I-20000J0D01*
G01*
X18308000Y-6096000D02*
G75*
G03*
X18308000Y-6096000I-20000J0D01*
G01*
X18308000Y-6350000D02*
G75*
G03*
X18308000Y-6350000I-20000J0D01*
G01*
X18308000Y-6604000D02*
G75*
G03*
X18308000Y-6604000I-20000J0D01*
G01*
X18308000Y-6858000D02*
G75*
G03*
X18308000Y-6858000I-20000J0D01*
G01*
X18308000Y-7112000D02*
G75*
G03*
X18308000Y-7112000I-20000J0D01*
G01*
X18308000Y-7366000D02*
G75*
G03*
X18308000Y-7366000I-20000J0D01*
G01*
X18562000Y-5842000D02*
G75*
G03*
X18562000Y-5842000I-20000J0D01*
G01*
X18562000Y-7874000D02*
G75*
G03*
X18562000Y-7874000I-20000J0D01*
G01*
X18816000Y-7366000D02*
G75*
G03*
X18816000Y-7366000I-20000J0D01*
G01*
X18816000Y-7620000D02*
G75*
G03*
X18816000Y-7620000I-20000J0D01*
G01*
X18816000Y-7874000D02*
G75*
G03*
X18816000Y-7874000I-20000J0D01*
G01*
X19070000Y-7620000D02*
G75*
G03*
X19070000Y-7620000I-20000J0D01*
G01*
X19070000Y-7874000D02*
G75*
G03*
X19070000Y-7874000I-20000J0D01*
G01*
X19070000Y-10414000D02*
G75*
G03*
X19070000Y-10414000I-20000J0D01*
G01*
X19070000Y-10668000D02*
G75*
G03*
X19070000Y-10668000I-20000J0D01*
G01*
X19070000Y-10922000D02*
G75*
G03*
X19070000Y-10922000I-20000J0D01*
G01*
X19578000Y-11176000D02*
G75*
G03*
X19578000Y-11176000I-20000J0D01*
G01*
X19578000Y-11430000D02*
G75*
G03*
X19578000Y-11430000I-20000J0D01*
G01*
X20086000Y-8128000D02*
G75*
G03*
X20086000Y-8128000I-20000J0D01*
G01*
X20340000Y-8128000D02*
G75*
G03*
X20340000Y-8128000I-20000J0D01*
G01*
X20340000Y-8382000D02*
G75*
G03*
X20340000Y-8382000I-20000J0D01*
G01*
X20428900Y-10010140D02*
G75*
G03*
X20428900Y-10010140I-20000J0D01*
G01*
X20594000Y-8128000D02*
G75*
G03*
X20594000Y-8128000I-20000J0D01*
G01*
X21102000Y-7620000D02*
G75*
G03*
X21102000Y-7620000I-20000J0D01*
G01*
X21102000Y-8382000D02*
G75*
G03*
X21102000Y-8382000I-20000J0D01*
G01*
X21356000Y-8128000D02*
G75*
G03*
X21356000Y-8128000I-20000J0D01*
G01*
X21356000Y-8382000D02*
G75*
G03*
X21356000Y-8382000I-20000J0D01*
G01*
X21356000Y-8636000D02*
G75*
G03*
X21356000Y-8636000I-20000J0D01*
G01*
X21356000Y-9398000D02*
G75*
G03*
X21356000Y-9398000I-20000J0D01*
G01*
X21356000Y-9652000D02*
G75*
G03*
X21356000Y-9652000I-20000J0D01*
G01*
X21610000Y-7874000D02*
G75*
G03*
X21610000Y-7874000I-20000J0D01*
G01*
X21610000Y-8128000D02*
G75*
G03*
X21610000Y-8128000I-20000J0D01*
G01*
X21610000Y-8382000D02*
G75*
G03*
X21610000Y-8382000I-20000J0D01*
G01*
X21610000Y-8636000D02*
G75*
G03*
X21610000Y-8636000I-20000J0D01*
G01*
X21610000Y-8890000D02*
G75*
G03*
X21610000Y-8890000I-20000J0D01*
G01*
X21610000Y-9144000D02*
G75*
G03*
X21610000Y-9144000I-20000J0D01*
G01*
X21610000Y-9398000D02*
G75*
G03*
X21610000Y-9398000I-20000J0D01*
G01*
X21610000Y-9652000D02*
G75*
G03*
X21610000Y-9652000I-20000J0D01*
G01*
D14*
X13713460Y-11486280D02*
X13713460Y-11536280D01*
X13688460Y-11511280D02*
X13738460Y-11511280D01*
X13771880Y-4826400D02*
X13771880Y-4876400D01*
X13746880Y-4851400D02*
X13796880Y-4851400D01*
X16873220Y-3546240D02*
X16873220Y-3596240D01*
X16848220Y-3571240D02*
X16898220Y-3571240D01*
X17772380Y-5433460D02*
X17772380Y-5483460D01*
X17747380Y-5458460D02*
X17797380Y-5458460D01*
X18463260Y-4912760D02*
X18463260Y-4962760D01*
X18438260Y-4937760D02*
X18488260Y-4937760D01*
X19395440Y-5255660D02*
X19395440Y-5305660D01*
X19370440Y-5280660D02*
X19420440Y-5280660D01*
X19397980Y-5405520D02*
X19397980Y-5455520D01*
X19372980Y-5430520D02*
X19422980Y-5430520D01*
X19433540Y-4884820D02*
X19433540Y-4934820D01*
X19408540Y-4909820D02*
X19458540Y-4909820D01*
X19438620Y-4740040D02*
X19438620Y-4790040D01*
X19413620Y-4765040D02*
X19463620Y-4765040D01*
X19870420Y-4740040D02*
X19870420Y-4790040D01*
X19845420Y-4765040D02*
X19895420Y-4765040D01*
X19875500Y-4582560D02*
X19875500Y-4632560D01*
X19850500Y-4607560D02*
X19900500Y-4607560D01*
D15*
X13492504Y-11770704D02*
X13492504Y-11714135D01*
X13435935Y-11714135D01*
X13435935Y-11770704D01*
X13492504Y-11770704D01*
X13492504Y-12024704D02*
X13492504Y-11968135D01*
X13435935Y-11968135D01*
X13435935Y-12024704D01*
X13492504Y-12024704D01*
X13746504Y-11770704D02*
X13746504Y-11714135D01*
X13689935Y-11714135D01*
X13689935Y-11770704D01*
X13746504Y-11770704D01*
X13746504Y-12024704D02*
X13746504Y-11968135D01*
X13689935Y-11968135D01*
X13689935Y-12024704D01*
X13746504Y-12024704D01*
X14000504Y-11770704D02*
X14000504Y-11714135D01*
X13943935Y-11714135D01*
X13943935Y-11770704D01*
X14000504Y-11770704D01*
X14000504Y-12024704D02*
X14000504Y-11968135D01*
X13943935Y-11968135D01*
X13943935Y-12024704D01*
X14000504Y-12024704D01*
X14254504Y-11770704D02*
X14254504Y-11714135D01*
X14197935Y-11714135D01*
X14197935Y-11770704D01*
X14254504Y-11770704D01*
X14254504Y-12024704D02*
X14254504Y-11968135D01*
X14197935Y-11968135D01*
X14197935Y-12024704D01*
X14254504Y-12024704D01*
X14508504Y-11770704D02*
X14508504Y-11714135D01*
X14451935Y-11714135D01*
X14451935Y-11770704D01*
X14508504Y-11770704D01*
X14508504Y-12024704D02*
X14508504Y-11968135D01*
X14451935Y-11968135D01*
X14451935Y-12024704D01*
X14508504Y-12024704D01*
X14762504Y-8468705D02*
X14762504Y-8412136D01*
X14705935Y-8412136D01*
X14705935Y-8468705D01*
X14762504Y-8468705D01*
X14762504Y-8722705D02*
X14762504Y-8666136D01*
X14705935Y-8666136D01*
X14705935Y-8722705D01*
X14762504Y-8722705D01*
X14762504Y-11770704D02*
X14762504Y-11714135D01*
X14705935Y-11714135D01*
X14705935Y-11770704D01*
X14762504Y-11770704D01*
X14762504Y-12024704D02*
X14762504Y-11968135D01*
X14705935Y-11968135D01*
X14705935Y-12024704D01*
X14762504Y-12024704D01*
X15016504Y-8468705D02*
X15016504Y-8412136D01*
X14959935Y-8412136D01*
X14959935Y-8468705D01*
X15016504Y-8468705D01*
X15016504Y-8722705D02*
X15016504Y-8666136D01*
X14959935Y-8666136D01*
X14959935Y-8722705D01*
X15016504Y-8722705D01*
X15016504Y-11770704D02*
X15016504Y-11714135D01*
X14959935Y-11714135D01*
X14959935Y-11770704D01*
X15016504Y-11770704D01*
X15016504Y-12024704D02*
X15016504Y-11968135D01*
X14959935Y-11968135D01*
X14959935Y-12024704D01*
X15016504Y-12024704D01*
X15270504Y-8468705D02*
X15270504Y-8412136D01*
X15213935Y-8412136D01*
X15213935Y-8468705D01*
X15270504Y-8468705D01*
X15270504Y-8722705D02*
X15270504Y-8666136D01*
X15213935Y-8666136D01*
X15213935Y-8722705D01*
X15270504Y-8722705D01*
X15270504Y-11770704D02*
X15270504Y-11714135D01*
X15213935Y-11714135D01*
X15213935Y-11770704D01*
X15270504Y-11770704D01*
X15270504Y-12024704D02*
X15270504Y-11968135D01*
X15213935Y-11968135D01*
X15213935Y-12024704D01*
X15270504Y-12024704D01*
X15524504Y-8468705D02*
X15524504Y-8412136D01*
X15467935Y-8412136D01*
X15467935Y-8468705D01*
X15524504Y-8468705D01*
X15524504Y-8722705D02*
X15524504Y-8666136D01*
X15467935Y-8666136D01*
X15467935Y-8722705D01*
X15524504Y-8722705D01*
X15524504Y-11770704D02*
X15524504Y-11714135D01*
X15467935Y-11714135D01*
X15467935Y-11770704D01*
X15524504Y-11770704D01*
X15524504Y-12024704D02*
X15524504Y-11968135D01*
X15467935Y-11968135D01*
X15467935Y-12024704D01*
X15524504Y-12024704D01*
X15778504Y-8468705D02*
X15778504Y-8412136D01*
X15721935Y-8412136D01*
X15721935Y-8468705D01*
X15778504Y-8468705D01*
X15778504Y-8722705D02*
X15778504Y-8666136D01*
X15721935Y-8666136D01*
X15721935Y-8722705D01*
X15778504Y-8722705D01*
X15778504Y-11770704D02*
X15778504Y-11714135D01*
X15721935Y-11714135D01*
X15721935Y-11770704D01*
X15778504Y-11770704D01*
X15778504Y-12024704D02*
X15778504Y-11968135D01*
X15721935Y-11968135D01*
X15721935Y-12024704D01*
X15778504Y-12024704D01*
X16032504Y-8468705D02*
X16032504Y-8412136D01*
X15975935Y-8412136D01*
X15975935Y-8468705D01*
X16032504Y-8468705D01*
X16032504Y-8722705D02*
X16032504Y-8666136D01*
X15975935Y-8666136D01*
X15975935Y-8722705D01*
X16032504Y-8722705D01*
X16032504Y-11770704D02*
X16032504Y-11714135D01*
X15975935Y-11714135D01*
X15975935Y-11770704D01*
X16032504Y-11770704D01*
X16032504Y-12024704D02*
X16032504Y-11968135D01*
X15975935Y-11968135D01*
X15975935Y-12024704D01*
X16032504Y-12024704D01*
X16286504Y-8468705D02*
X16286504Y-8412136D01*
X16229935Y-8412136D01*
X16229935Y-8468705D01*
X16286504Y-8468705D01*
X16286504Y-8722705D02*
X16286504Y-8666136D01*
X16229935Y-8666136D01*
X16229935Y-8722705D01*
X16286504Y-8722705D01*
X16286504Y-11770704D02*
X16286504Y-11714135D01*
X16229935Y-11714135D01*
X16229935Y-11770704D01*
X16286504Y-11770704D01*
X16286504Y-12024704D02*
X16286504Y-11968135D01*
X16229935Y-11968135D01*
X16229935Y-12024704D01*
X16286504Y-12024704D01*
X16540504Y-8468705D02*
X16540504Y-8412136D01*
X16483935Y-8412136D01*
X16483935Y-8468705D01*
X16540504Y-8468705D01*
X16540504Y-8722705D02*
X16540504Y-8666136D01*
X16483935Y-8666136D01*
X16483935Y-8722705D01*
X16540504Y-8722705D01*
X16540504Y-11770704D02*
X16540504Y-11714135D01*
X16483935Y-11714135D01*
X16483935Y-11770704D01*
X16540504Y-11770704D01*
X16540504Y-12024704D02*
X16540504Y-11968135D01*
X16483935Y-11968135D01*
X16483935Y-12024704D01*
X16540504Y-12024704D01*
X16794505Y-8468705D02*
X16794505Y-8412136D01*
X16737935Y-8412136D01*
X16737935Y-8468705D01*
X16794505Y-8468705D01*
X16794505Y-8722705D02*
X16794505Y-8666136D01*
X16737935Y-8666136D01*
X16737935Y-8722705D01*
X16794505Y-8722705D01*
X16794505Y-11770704D02*
X16794505Y-11714135D01*
X16737935Y-11714135D01*
X16737935Y-11770704D01*
X16794505Y-11770704D01*
X16794505Y-12024704D02*
X16794505Y-11968135D01*
X16737935Y-11968135D01*
X16737935Y-12024704D01*
X16794505Y-12024704D01*
X17048505Y-8468705D02*
X17048505Y-8412136D01*
X16991936Y-8412136D01*
X16991936Y-8468705D01*
X17048505Y-8468705D01*
X17048505Y-8722705D02*
X17048505Y-8666136D01*
X16991936Y-8666136D01*
X16991936Y-8722705D01*
X17048505Y-8722705D01*
X17048505Y-11770704D02*
X17048505Y-11714135D01*
X16991936Y-11714135D01*
X16991936Y-11770704D01*
X17048505Y-11770704D01*
X17048505Y-12024704D02*
X17048505Y-11968135D01*
X16991936Y-11968135D01*
X16991936Y-12024704D01*
X17048505Y-12024704D01*
X17302505Y-8468705D02*
X17302505Y-8412136D01*
X17245936Y-8412136D01*
X17245936Y-8468705D01*
X17302505Y-8468705D01*
X17302505Y-8722705D02*
X17302505Y-8666136D01*
X17245936Y-8666136D01*
X17245936Y-8722705D01*
X17302505Y-8722705D01*
X17302505Y-11770704D02*
X17302505Y-11714135D01*
X17245936Y-11714135D01*
X17245936Y-11770704D01*
X17302505Y-11770704D01*
X17302505Y-12024704D02*
X17302505Y-11968135D01*
X17245936Y-11968135D01*
X17245936Y-12024704D01*
X17302505Y-12024704D01*
X17556505Y-8468705D02*
X17556505Y-8412136D01*
X17499936Y-8412136D01*
X17499936Y-8468705D01*
X17556505Y-8468705D01*
X17556505Y-8722705D02*
X17556505Y-8666136D01*
X17499936Y-8666136D01*
X17499936Y-8722705D01*
X17556505Y-8722705D01*
X17556505Y-11770704D02*
X17556505Y-11714135D01*
X17499936Y-11714135D01*
X17499936Y-11770704D01*
X17556505Y-11770704D01*
X17556505Y-12024704D02*
X17556505Y-11968135D01*
X17499936Y-11968135D01*
X17499936Y-12024704D01*
X17556505Y-12024704D01*
X17810505Y-8468705D02*
X17810505Y-8412136D01*
X17753936Y-8412136D01*
X17753936Y-8468705D01*
X17810505Y-8468705D01*
X17810505Y-8722705D02*
X17810505Y-8666136D01*
X17753936Y-8666136D01*
X17753936Y-8722705D01*
X17810505Y-8722705D01*
X17810505Y-11770704D02*
X17810505Y-11714135D01*
X17753936Y-11714135D01*
X17753936Y-11770704D01*
X17810505Y-11770704D01*
X17810505Y-12024704D02*
X17810505Y-11968135D01*
X17753936Y-11968135D01*
X17753936Y-12024704D01*
X17810505Y-12024704D01*
X18064505Y-8468705D02*
X18064505Y-8412136D01*
X18007936Y-8412136D01*
X18007936Y-8468705D01*
X18064505Y-8468705D01*
X18064505Y-8722705D02*
X18064505Y-8666136D01*
X18007936Y-8666136D01*
X18007936Y-8722705D01*
X18064505Y-8722705D01*
X18064505Y-11770704D02*
X18064505Y-11714135D01*
X18007936Y-11714135D01*
X18007936Y-11770704D01*
X18064505Y-11770704D01*
X18064505Y-12024704D02*
X18064505Y-11968135D01*
X18007936Y-11968135D01*
X18007936Y-12024704D01*
X18064505Y-12024704D01*
X18318505Y-8468705D02*
X18318505Y-8412136D01*
X18261936Y-8412136D01*
X18261936Y-8468705D01*
X18318505Y-8468705D01*
X18318505Y-8722705D02*
X18318505Y-8666136D01*
X18261936Y-8666136D01*
X18261936Y-8722705D01*
X18318505Y-8722705D01*
X18318505Y-8976705D02*
X18318505Y-8920136D01*
X18261936Y-8920136D01*
X18261936Y-8976705D01*
X18318505Y-8976705D01*
X18318505Y-9230705D02*
X18318505Y-9174136D01*
X18261936Y-9174136D01*
X18261936Y-9230705D01*
X18318505Y-9230705D01*
X18318505Y-9484705D02*
X18318505Y-9428136D01*
X18261936Y-9428136D01*
X18261936Y-9484705D01*
X18318505Y-9484705D01*
X18318505Y-10246705D02*
X18318505Y-10190136D01*
X18261936Y-10190136D01*
X18261936Y-10246705D01*
X18318505Y-10246705D01*
X18318505Y-10500705D02*
X18318505Y-10444136D01*
X18261936Y-10444136D01*
X18261936Y-10500705D01*
X18318505Y-10500705D01*
X18318505Y-10754705D02*
X18318505Y-10698136D01*
X18261936Y-10698136D01*
X18261936Y-10754705D01*
X18318505Y-10754705D01*
X18318505Y-11770704D02*
X18318505Y-11714135D01*
X18261936Y-11714135D01*
X18261936Y-11770704D01*
X18318505Y-11770704D01*
X18318505Y-12024704D02*
X18318505Y-11968135D01*
X18261936Y-11968135D01*
X18261936Y-12024704D01*
X18318505Y-12024704D01*
X18572505Y-8468705D02*
X18572505Y-8412136D01*
X18515936Y-8412136D01*
X18515936Y-8468705D01*
X18572505Y-8468705D01*
X18572505Y-8722705D02*
X18572505Y-8666136D01*
X18515936Y-8666136D01*
X18515936Y-8722705D01*
X18572505Y-8722705D01*
X18572505Y-8976705D02*
X18572505Y-8920136D01*
X18515936Y-8920136D01*
X18515936Y-8976705D01*
X18572505Y-8976705D01*
X18572505Y-9230705D02*
X18572505Y-9174136D01*
X18515936Y-9174136D01*
X18515936Y-9230705D01*
X18572505Y-9230705D01*
X18572505Y-9484705D02*
X18572505Y-9428136D01*
X18515936Y-9428136D01*
X18515936Y-9484705D01*
X18572505Y-9484705D01*
X18572505Y-10246705D02*
X18572505Y-10190136D01*
X18515936Y-10190136D01*
X18515936Y-10246705D01*
X18572505Y-10246705D01*
X18572505Y-10500705D02*
X18572505Y-10444136D01*
X18515936Y-10444136D01*
X18515936Y-10500705D01*
X18572505Y-10500705D01*
X18572505Y-10754705D02*
X18572505Y-10698136D01*
X18515936Y-10698136D01*
X18515936Y-10754705D01*
X18572505Y-10754705D01*
X18572505Y-11770704D02*
X18572505Y-11714135D01*
X18515936Y-11714135D01*
X18515936Y-11770704D01*
X18572505Y-11770704D01*
X18572505Y-12024704D02*
X18572505Y-11968135D01*
X18515936Y-11968135D01*
X18515936Y-12024704D01*
X18572505Y-12024704D01*
D10*
X13116020Y-3235160D02*
X13166020Y-3185160D01*
X13116020Y-3135160D01*
X13066020Y-3185160D01*
X13116020Y-3235160D01*
X13164820Y-6351740D02*
X13214820Y-6301740D01*
X13164820Y-6251740D01*
X13114820Y-6301740D01*
X13164820Y-6351740D01*
X13164820Y-6605740D02*
X13214820Y-6555740D01*
X13164820Y-6505740D01*
X13114820Y-6555740D01*
X13164820Y-6605740D01*
X13370020Y-3235160D02*
X13420020Y-3185160D01*
X13370020Y-3135160D01*
X13320020Y-3185160D01*
X13370020Y-3235160D01*
X19051240Y-6400020D02*
X19101240Y-6350020D01*
X19051240Y-6300020D01*
X19001240Y-6350020D01*
X19051240Y-6400020D01*
X19225260Y-11822900D02*
X19275260Y-11772900D01*
X19225260Y-11722900D01*
X19175260Y-11772900D01*
X19225260Y-11822900D01*
X19305240Y-6400020D02*
X19355240Y-6350020D01*
X19305240Y-6300020D01*
X19255240Y-6350020D01*
X19305240Y-6400020D01*
X19479260Y-11822900D02*
X19529260Y-11772900D01*
X19479260Y-11722900D01*
X19429260Y-11772900D01*
X19479260Y-11822900D01*
X19733260Y-11822900D02*
X19783260Y-11772900D01*
X19733260Y-11722900D01*
X19683260Y-11772900D01*
X19733260Y-11822900D01*
X19987260Y-11822900D02*
X20037260Y-11772900D01*
X19987260Y-11722900D01*
X19937260Y-11772900D01*
X19987260Y-11822900D01*
X20241260Y-11822900D02*
X20291260Y-11772900D01*
X20241260Y-11722900D01*
X20191260Y-11772900D01*
X20241260Y-11822900D01*
X20495260Y-11822900D02*
X20545260Y-11772900D01*
X20495260Y-11722900D01*
X20445260Y-11772900D01*
X20495260Y-11822900D01*
X20749260Y-11822900D02*
X20799260Y-11772900D01*
X20749260Y-11722900D01*
X20699260Y-11772900D01*
X20749260Y-11822900D01*
D16*
X19374520Y-3078340D02*
X19486520Y-3190340D01*
X19486520Y-3078340D02*
X19374520Y-3190340D01*
X19486520Y-3134340D02*
G75*
G03*
X19486520Y-3134340I-56000J0D01*
G01*
X19374520Y-3332340D02*
X19486520Y-3444340D01*
X19486520Y-3332340D02*
X19374520Y-3444340D01*
X19486520Y-3388340D02*
G75*
G03*
X19486520Y-3388340I-56000J0D01*
G01*
X19374520Y-3586340D02*
X19486520Y-3698340D01*
X19486520Y-3586340D02*
X19374520Y-3698340D01*
X19486520Y-3642340D02*
G75*
G03*
X19486520Y-3642340I-56000J0D01*
G01*
X19374520Y-3840340D02*
X19486520Y-3952340D01*
X19486520Y-3840340D02*
X19374520Y-3952340D01*
X19486520Y-3896340D02*
G75*
G03*
X19486520Y-3896340I-56000J0D01*
G01*
X19374520Y-4094340D02*
X19486520Y-4206340D01*
X19486520Y-4094340D02*
X19374520Y-4206340D01*
X19486520Y-4150340D02*
G75*
G03*
X19486520Y-4150340I-56000J0D01*
G01*
X19374520Y-4348340D02*
X19486520Y-4460340D01*
X19486520Y-4348340D02*
X19374520Y-4460340D01*
X19486520Y-4404340D02*
G75*
G03*
X19486520Y-4404340I-56000J0D01*
G01*
X21406520Y-3078340D02*
X21518520Y-3190340D01*
X21518520Y-3078340D02*
X21406520Y-3190340D01*
X21518520Y-3134340D02*
G75*
G03*
X21518520Y-3134340I-56000J0D01*
G01*
X21406520Y-3332340D02*
X21518520Y-3444340D01*
X21518520Y-3332340D02*
X21406520Y-3444340D01*
X21518520Y-3388340D02*
G75*
G03*
X21518520Y-3388340I-56000J0D01*
G01*
X21406520Y-3586340D02*
X21518520Y-3698340D01*
X21518520Y-3586340D02*
X21406520Y-3698340D01*
X21518520Y-3642340D02*
G75*
G03*
X21518520Y-3642340I-56000J0D01*
G01*
X21406520Y-3840340D02*
X21518520Y-3952340D01*
X21518520Y-3840340D02*
X21406520Y-3952340D01*
X21518520Y-3896340D02*
G75*
G03*
X21518520Y-3896340I-56000J0D01*
G01*
X21406520Y-4094340D02*
X21518520Y-4206340D01*
X21518520Y-4094340D02*
X21406520Y-4206340D01*
X21518520Y-4150340D02*
G75*
G03*
X21518520Y-4150340I-56000J0D01*
G01*
X21406520Y-4348340D02*
X21518520Y-4460340D01*
X21518520Y-4348340D02*
X21406520Y-4460340D01*
X21518520Y-4404340D02*
G75*
G03*
X21518520Y-4404340I-56000J0D01*
G01*
D17*
X20007240Y-6290020D02*
X20127240Y-6410020D01*
X20127240Y-6290020D02*
X20007240Y-6410020D01*
X20067240Y-6290020D02*
X20067240Y-6410020D01*
X20007240Y-6350020D02*
X20127240Y-6350020D01*
X20769240Y-6290020D02*
X20889240Y-6410020D01*
X20889240Y-6290020D02*
X20769240Y-6410020D01*
X20829240Y-6290020D02*
X20829240Y-6410020D01*
X20769240Y-6350020D02*
X20889240Y-6350020D01*
D18*
X14176860Y-3115160D02*
X14316860Y-3255160D01*
X14316860Y-3115160D02*
X14176860Y-3255160D01*
X14296358Y-3234658D02*
X14296358Y-3135662D01*
X14197362Y-3135662D01*
X14197362Y-3234658D01*
X14296358Y-3234658D01*
X14684860Y-3115160D02*
X14824860Y-3255160D01*
X14824860Y-3115160D02*
X14684860Y-3255160D01*
X14804358Y-3234658D02*
X14804358Y-3135662D01*
X14705362Y-3135662D01*
X14705362Y-3234658D01*
X14804358Y-3234658D01*
X21412100Y-10145880D02*
X21552100Y-10285880D01*
X21552100Y-10145880D02*
X21412100Y-10285880D01*
X21531598Y-10265378D02*
X21531598Y-10166382D01*
X21432602Y-10166382D01*
X21432602Y-10265378D01*
X21531598Y-10265378D01*
X21412100Y-10653880D02*
X21552100Y-10793880D01*
X21552100Y-10653880D02*
X21412100Y-10793880D01*
X21531598Y-10773378D02*
X21531598Y-10674382D01*
X21432602Y-10674382D01*
X21432602Y-10773378D01*
X21531598Y-10773378D01*
X21567040Y-6795620D02*
X21707040Y-6935620D01*
X21707040Y-6795620D02*
X21567040Y-6935620D01*
X21686538Y-6915118D02*
X21686538Y-6816122D01*
X21587542Y-6816122D01*
X21587542Y-6915118D01*
X21686538Y-6915118D01*
X21567040Y-7303620D02*
X21707040Y-7443620D01*
X21707040Y-7303620D02*
X21567040Y-7443620D01*
X21686538Y-7423118D02*
X21686538Y-7324122D01*
X21587542Y-7324122D01*
X21587542Y-7423118D01*
X21686538Y-7423118D01*
D11*
X13117719Y-12637016D02*
X13117719Y-12437016D01*
X13165338Y-12437016D01*
X13193909Y-12446540D01*
X13212957Y-12465588D01*
X13222481Y-12484635D01*
X13232005Y-12522730D01*
X13232005Y-12551302D01*
X13222481Y-12589397D01*
X13212957Y-12608445D01*
X13193909Y-12627492D01*
X13165338Y-12637016D01*
X13117719Y-12637016D01*
X13317719Y-12637016D02*
X13317719Y-12503683D01*
X13317719Y-12541778D02*
X13327243Y-12522730D01*
X13336767Y-12513207D01*
X13355814Y-12503683D01*
X13374862Y-12503683D01*
X13441528Y-12637016D02*
X13441528Y-12503683D01*
X13441528Y-12437016D02*
X13432005Y-12446540D01*
X13441528Y-12456064D01*
X13451052Y-12446540D01*
X13441528Y-12437016D01*
X13441528Y-12456064D01*
X13565338Y-12637016D02*
X13546290Y-12627492D01*
X13536767Y-12608445D01*
X13536767Y-12437016D01*
X13670100Y-12637016D02*
X13651052Y-12627492D01*
X13641528Y-12608445D01*
X13641528Y-12437016D01*
X13898671Y-12637016D02*
X13898671Y-12437016D01*
X13965338Y-12579873D01*
X14032005Y-12437016D01*
X14032005Y-12637016D01*
X14212957Y-12637016D02*
X14212957Y-12532254D01*
X14203433Y-12513207D01*
X14184386Y-12503683D01*
X14146290Y-12503683D01*
X14127243Y-12513207D01*
X14212957Y-12627492D02*
X14193909Y-12637016D01*
X14146290Y-12637016D01*
X14127243Y-12627492D01*
X14117719Y-12608445D01*
X14117719Y-12589397D01*
X14127243Y-12570349D01*
X14146290Y-12560826D01*
X14193909Y-12560826D01*
X14212957Y-12551302D01*
X14308195Y-12503683D02*
X14308195Y-12703683D01*
X14308195Y-12513207D02*
X14327243Y-12503683D01*
X14365338Y-12503683D01*
X14384386Y-12513207D01*
X14393909Y-12522730D01*
X14403433Y-12541778D01*
X14403433Y-12598921D01*
X14393909Y-12617968D01*
X14384386Y-12627492D01*
X14365338Y-12637016D01*
X14327243Y-12637016D01*
X14308195Y-12627492D01*
X14489148Y-12617968D02*
X14498671Y-12627492D01*
X14489148Y-12637016D01*
X14479624Y-12627492D01*
X14489148Y-12617968D01*
X14489148Y-12637016D01*
X14489148Y-12513207D02*
X14498671Y-12522730D01*
X14489148Y-12532254D01*
X14479624Y-12522730D01*
X14489148Y-12513207D01*
X14489148Y-12532254D01*
D12*
X12830100Y-12951540D02*
X12860100Y-12981540D01*
X12860100Y-12951540D02*
X12830100Y-12981540D01*
D11*
X13155814Y-12857016D02*
X13174862Y-12857016D01*
X13193909Y-12866540D01*
X13203433Y-12876064D01*
X13212957Y-12895111D01*
X13222481Y-12933207D01*
X13222481Y-12980826D01*
X13212957Y-13018921D01*
X13203433Y-13037968D01*
X13193909Y-13047492D01*
X13174862Y-13057016D01*
X13155814Y-13057016D01*
X13136767Y-13047492D01*
X13127243Y-13037968D01*
X13117719Y-13018921D01*
X13108195Y-12980826D01*
X13108195Y-12933207D01*
X13117719Y-12895111D01*
X13127243Y-12876064D01*
X13136767Y-12866540D01*
X13155814Y-12857016D01*
X13308195Y-13037968D02*
X13317719Y-13047492D01*
X13308195Y-13057016D01*
X13298671Y-13047492D01*
X13308195Y-13037968D01*
X13308195Y-13057016D01*
X13384386Y-12857016D02*
X13508195Y-12857016D01*
X13441528Y-12933207D01*
X13470100Y-12933207D01*
X13489148Y-12942730D01*
X13498671Y-12952254D01*
X13508195Y-12971302D01*
X13508195Y-13018921D01*
X13498671Y-13037968D01*
X13489148Y-13047492D01*
X13470100Y-13057016D01*
X13412957Y-13057016D01*
X13393909Y-13047492D01*
X13384386Y-13037968D01*
X13632005Y-12857016D02*
X13651052Y-12857016D01*
X13670100Y-12866540D01*
X13679624Y-12876064D01*
X13689148Y-12895111D01*
X13698671Y-12933207D01*
X13698671Y-12980826D01*
X13689148Y-13018921D01*
X13679624Y-13037968D01*
X13670100Y-13047492D01*
X13651052Y-13057016D01*
X13632005Y-13057016D01*
X13612957Y-13047492D01*
X13603433Y-13037968D01*
X13593909Y-13018921D01*
X13584386Y-12980826D01*
X13584386Y-12933207D01*
X13593909Y-12895111D01*
X13603433Y-12876064D01*
X13612957Y-12866540D01*
X13632005Y-12857016D01*
X13822481Y-12857016D02*
X13841528Y-12857016D01*
X13860576Y-12866540D01*
X13870100Y-12876064D01*
X13879624Y-12895111D01*
X13889148Y-12933207D01*
X13889148Y-12980826D01*
X13879624Y-13018921D01*
X13870100Y-13037968D01*
X13860576Y-13047492D01*
X13841528Y-13057016D01*
X13822481Y-13057016D01*
X13803433Y-13047492D01*
X13793909Y-13037968D01*
X13784386Y-13018921D01*
X13774862Y-12980826D01*
X13774862Y-12933207D01*
X13784386Y-12895111D01*
X13793909Y-12876064D01*
X13803433Y-12866540D01*
X13822481Y-12857016D01*
X13974862Y-13057016D02*
X13974862Y-12923683D01*
X13974862Y-12942730D02*
X13984386Y-12933207D01*
X14003433Y-12923683D01*
X14032005Y-12923683D01*
X14051052Y-12933207D01*
X14060576Y-12952254D01*
X14060576Y-13057016D01*
X14060576Y-12952254D02*
X14070100Y-12933207D01*
X14089148Y-12923683D01*
X14117719Y-12923683D01*
X14136767Y-12933207D01*
X14146290Y-12952254D01*
X14146290Y-13057016D01*
X14241528Y-13057016D02*
X14241528Y-12923683D01*
X14241528Y-12942730D02*
X14251052Y-12933207D01*
X14270100Y-12923683D01*
X14298671Y-12923683D01*
X14317719Y-12933207D01*
X14327243Y-12952254D01*
X14327243Y-13057016D01*
X14327243Y-12952254D02*
X14336767Y-12933207D01*
X14355814Y-12923683D01*
X14384386Y-12923683D01*
X14403433Y-12933207D01*
X14412957Y-12952254D01*
X14412957Y-13057016D01*
X14803433Y-12847492D02*
X14632005Y-13104635D01*
X15060576Y-12857016D02*
X15079624Y-12857016D01*
X15098671Y-12866540D01*
X15108195Y-12876064D01*
X15117719Y-12895111D01*
X15127243Y-12933207D01*
X15127243Y-12980826D01*
X15117719Y-13018921D01*
X15108195Y-13037968D01*
X15098671Y-13047492D01*
X15079624Y-13057016D01*
X15060576Y-13057016D01*
X15041528Y-13047492D01*
X15032005Y-13037968D01*
X15022481Y-13018921D01*
X15012957Y-12980826D01*
X15012957Y-12933207D01*
X15022481Y-12895111D01*
X15032005Y-12876064D01*
X15041528Y-12866540D01*
X15060576Y-12857016D01*
X15212957Y-13037968D02*
X15222481Y-13047492D01*
X15212957Y-13057016D01*
X15203433Y-13047492D01*
X15212957Y-13037968D01*
X15212957Y-13057016D01*
X15346290Y-12857016D02*
X15365338Y-12857016D01*
X15384386Y-12866540D01*
X15393909Y-12876064D01*
X15403433Y-12895111D01*
X15412957Y-12933207D01*
X15412957Y-12980826D01*
X15403433Y-13018921D01*
X15393909Y-13037968D01*
X15384386Y-13047492D01*
X15365338Y-13057016D01*
X15346290Y-13057016D01*
X15327243Y-13047492D01*
X15317719Y-13037968D01*
X15308195Y-13018921D01*
X15298671Y-12980826D01*
X15298671Y-12933207D01*
X15308195Y-12895111D01*
X15317719Y-12876064D01*
X15327243Y-12866540D01*
X15346290Y-12857016D01*
X15603433Y-13057016D02*
X15489148Y-13057016D01*
X15546290Y-13057016D02*
X15546290Y-12857016D01*
X15527243Y-12885588D01*
X15508195Y-12904635D01*
X15489148Y-12914159D01*
X15793909Y-13057016D02*
X15679624Y-13057016D01*
X15736767Y-13057016D02*
X15736767Y-12857016D01*
X15717719Y-12885588D01*
X15698671Y-12904635D01*
X15679624Y-12914159D01*
X15908195Y-12942730D02*
X15889148Y-12933207D01*
X15879624Y-12923683D01*
X15870100Y-12904635D01*
X15870100Y-12895111D01*
X15879624Y-12876064D01*
X15889148Y-12866540D01*
X15908195Y-12857016D01*
X15946290Y-12857016D01*
X15965338Y-12866540D01*
X15974862Y-12876064D01*
X15984386Y-12895111D01*
X15984386Y-12904635D01*
X15974862Y-12923683D01*
X15965338Y-12933207D01*
X15946290Y-12942730D01*
X15908195Y-12942730D01*
X15889148Y-12952254D01*
X15879624Y-12961778D01*
X15870100Y-12980826D01*
X15870100Y-13018921D01*
X15879624Y-13037968D01*
X15889148Y-13047492D01*
X15908195Y-13057016D01*
X15946290Y-13057016D01*
X15965338Y-13047492D01*
X15974862Y-13037968D01*
X15984386Y-13018921D01*
X15984386Y-12980826D01*
X15974862Y-12961778D01*
X15965338Y-12952254D01*
X15946290Y-12942730D01*
X16060576Y-12857016D02*
X16060576Y-12895111D01*
X16136767Y-12857016D02*
X16136767Y-12895111D01*
X16432005Y-13133207D02*
X16422481Y-13123683D01*
X16403433Y-13095111D01*
X16393909Y-13076064D01*
X16384386Y-13047492D01*
X16374862Y-12999873D01*
X16374862Y-12961778D01*
X16384386Y-12914159D01*
X16393909Y-12885588D01*
X16403433Y-12866540D01*
X16422481Y-12837968D01*
X16432005Y-12828445D01*
X16517719Y-13057016D02*
X16555814Y-13057016D01*
X16574862Y-13047492D01*
X16584386Y-13037968D01*
X16603433Y-13009397D01*
X16612957Y-12971302D01*
X16612957Y-12895111D01*
X16603433Y-12876064D01*
X16593909Y-12866540D01*
X16574862Y-12857016D01*
X16536767Y-12857016D01*
X16517719Y-12866540D01*
X16508195Y-12876064D01*
X16498671Y-12895111D01*
X16498671Y-12942730D01*
X16508195Y-12961778D01*
X16517719Y-12971302D01*
X16536767Y-12980826D01*
X16574862Y-12980826D01*
X16593909Y-12971302D01*
X16603433Y-12961778D01*
X16612957Y-12942730D01*
X16689148Y-12876064D02*
X16698671Y-12866540D01*
X16717719Y-12857016D01*
X16765338Y-12857016D01*
X16784386Y-12866540D01*
X16793910Y-12876064D01*
X16803433Y-12895111D01*
X16803433Y-12914159D01*
X16793910Y-12942730D01*
X16679624Y-13057016D01*
X16803433Y-13057016D01*
X17041529Y-13057016D02*
X17041529Y-12857016D01*
X17127243Y-13057016D02*
X17127243Y-12952254D01*
X17117719Y-12933207D01*
X17098671Y-12923683D01*
X17070100Y-12923683D01*
X17051052Y-12933207D01*
X17041529Y-12942730D01*
X17251052Y-13057016D02*
X17232005Y-13047492D01*
X17222481Y-13037968D01*
X17212957Y-13018921D01*
X17212957Y-12961778D01*
X17222481Y-12942730D01*
X17232005Y-12933207D01*
X17251052Y-12923683D01*
X17279624Y-12923683D01*
X17298671Y-12933207D01*
X17308195Y-12942730D01*
X17317719Y-12961778D01*
X17317719Y-13018921D01*
X17308195Y-13037968D01*
X17298671Y-13047492D01*
X17279624Y-13057016D01*
X17251052Y-13057016D01*
X17432005Y-13057016D02*
X17412957Y-13047492D01*
X17403433Y-13028445D01*
X17403433Y-12857016D01*
X17584386Y-13047492D02*
X17565338Y-13057016D01*
X17527243Y-13057016D01*
X17508195Y-13047492D01*
X17498671Y-13028445D01*
X17498671Y-12952254D01*
X17508195Y-12933207D01*
X17527243Y-12923683D01*
X17565338Y-12923683D01*
X17584386Y-12933207D01*
X17593910Y-12952254D01*
X17593910Y-12971302D01*
X17498671Y-12990349D01*
X17670100Y-13047492D02*
X17689148Y-13057016D01*
X17727243Y-13057016D01*
X17746290Y-13047492D01*
X17755814Y-13028445D01*
X17755814Y-13018921D01*
X17746290Y-12999873D01*
X17727243Y-12990349D01*
X17698671Y-12990349D01*
X17679624Y-12980826D01*
X17670100Y-12961778D01*
X17670100Y-12952254D01*
X17679624Y-12933207D01*
X17698671Y-12923683D01*
X17727243Y-12923683D01*
X17746290Y-12933207D01*
X17822481Y-13133207D02*
X17832005Y-13123683D01*
X17851052Y-13095111D01*
X17860576Y-13076064D01*
X17870100Y-13047492D01*
X17879624Y-12999873D01*
X17879624Y-12961778D01*
X17870100Y-12914159D01*
X17860576Y-12885588D01*
X17851052Y-12866540D01*
X17832005Y-12837968D01*
X17822481Y-12828445D01*
D13*
X12860100Y-13230540D02*
G75*
G03*
X12860100Y-13230540I-20000J0D01*
G01*
D11*
X13155814Y-13121016D02*
X13174862Y-13121016D01*
X13193909Y-13130540D01*
X13203433Y-13140064D01*
X13212957Y-13159111D01*
X13222481Y-13197207D01*
X13222481Y-13244826D01*
X13212957Y-13282921D01*
X13203433Y-13301968D01*
X13193909Y-13311492D01*
X13174862Y-13321016D01*
X13155814Y-13321016D01*
X13136767Y-13311492D01*
X13127243Y-13301968D01*
X13117719Y-13282921D01*
X13108195Y-13244826D01*
X13108195Y-13197207D01*
X13117719Y-13159111D01*
X13127243Y-13140064D01*
X13136767Y-13130540D01*
X13155814Y-13121016D01*
X13308195Y-13301968D02*
X13317719Y-13311492D01*
X13308195Y-13321016D01*
X13298671Y-13311492D01*
X13308195Y-13301968D01*
X13308195Y-13321016D01*
X13489148Y-13187683D02*
X13489148Y-13321016D01*
X13441528Y-13111492D02*
X13393909Y-13254349D01*
X13517719Y-13254349D01*
X13632005Y-13121016D02*
X13651052Y-13121016D01*
X13670100Y-13130540D01*
X13679624Y-13140064D01*
X13689148Y-13159111D01*
X13698671Y-13197207D01*
X13698671Y-13244826D01*
X13689148Y-13282921D01*
X13679624Y-13301968D01*
X13670100Y-13311492D01*
X13651052Y-13321016D01*
X13632005Y-13321016D01*
X13612957Y-13311492D01*
X13603433Y-13301968D01*
X13593909Y-13282921D01*
X13584386Y-13244826D01*
X13584386Y-13197207D01*
X13593909Y-13159111D01*
X13603433Y-13140064D01*
X13612957Y-13130540D01*
X13632005Y-13121016D01*
X13822481Y-13121016D02*
X13841528Y-13121016D01*
X13860576Y-13130540D01*
X13870100Y-13140064D01*
X13879624Y-13159111D01*
X13889148Y-13197207D01*
X13889148Y-13244826D01*
X13879624Y-13282921D01*
X13870100Y-13301968D01*
X13860576Y-13311492D01*
X13841528Y-13321016D01*
X13822481Y-13321016D01*
X13803433Y-13311492D01*
X13793909Y-13301968D01*
X13784386Y-13282921D01*
X13774862Y-13244826D01*
X13774862Y-13197207D01*
X13784386Y-13159111D01*
X13793909Y-13140064D01*
X13803433Y-13130540D01*
X13822481Y-13121016D01*
X13974862Y-13321016D02*
X13974862Y-13187683D01*
X13974862Y-13206730D02*
X13984386Y-13197207D01*
X14003433Y-13187683D01*
X14032005Y-13187683D01*
X14051052Y-13197207D01*
X14060576Y-13216254D01*
X14060576Y-13321016D01*
X14060576Y-13216254D02*
X14070100Y-13197207D01*
X14089148Y-13187683D01*
X14117719Y-13187683D01*
X14136767Y-13197207D01*
X14146290Y-13216254D01*
X14146290Y-13321016D01*
X14241528Y-13321016D02*
X14241528Y-13187683D01*
X14241528Y-13206730D02*
X14251052Y-13197207D01*
X14270100Y-13187683D01*
X14298671Y-13187683D01*
X14317719Y-13197207D01*
X14327243Y-13216254D01*
X14327243Y-13321016D01*
X14327243Y-13216254D02*
X14336767Y-13197207D01*
X14355814Y-13187683D01*
X14384386Y-13187683D01*
X14403433Y-13197207D01*
X14412957Y-13216254D01*
X14412957Y-13321016D01*
X14803433Y-13111492D02*
X14632005Y-13368635D01*
X15060576Y-13121016D02*
X15079624Y-13121016D01*
X15098671Y-13130540D01*
X15108195Y-13140064D01*
X15117719Y-13159111D01*
X15127243Y-13197207D01*
X15127243Y-13244826D01*
X15117719Y-13282921D01*
X15108195Y-13301968D01*
X15098671Y-13311492D01*
X15079624Y-13321016D01*
X15060576Y-13321016D01*
X15041528Y-13311492D01*
X15032005Y-13301968D01*
X15022481Y-13282921D01*
X15012957Y-13244826D01*
X15012957Y-13197207D01*
X15022481Y-13159111D01*
X15032005Y-13140064D01*
X15041528Y-13130540D01*
X15060576Y-13121016D01*
X15212957Y-13301968D02*
X15222481Y-13311492D01*
X15212957Y-13321016D01*
X15203433Y-13311492D01*
X15212957Y-13301968D01*
X15212957Y-13321016D01*
X15346290Y-13121016D02*
X15365338Y-13121016D01*
X15384386Y-13130540D01*
X15393909Y-13140064D01*
X15403433Y-13159111D01*
X15412957Y-13197207D01*
X15412957Y-13244826D01*
X15403433Y-13282921D01*
X15393909Y-13301968D01*
X15384386Y-13311492D01*
X15365338Y-13321016D01*
X15346290Y-13321016D01*
X15327243Y-13311492D01*
X15317719Y-13301968D01*
X15308195Y-13282921D01*
X15298671Y-13244826D01*
X15298671Y-13197207D01*
X15308195Y-13159111D01*
X15317719Y-13140064D01*
X15327243Y-13130540D01*
X15346290Y-13121016D01*
X15603433Y-13321016D02*
X15489148Y-13321016D01*
X15546290Y-13321016D02*
X15546290Y-13121016D01*
X15527243Y-13149588D01*
X15508195Y-13168635D01*
X15489148Y-13178159D01*
X15784386Y-13121016D02*
X15689148Y-13121016D01*
X15679624Y-13216254D01*
X15689148Y-13206730D01*
X15708195Y-13197207D01*
X15755814Y-13197207D01*
X15774862Y-13206730D01*
X15784386Y-13216254D01*
X15793909Y-13235302D01*
X15793909Y-13282921D01*
X15784386Y-13301968D01*
X15774862Y-13311492D01*
X15755814Y-13321016D01*
X15708195Y-13321016D01*
X15689148Y-13311492D01*
X15679624Y-13301968D01*
X15860576Y-13121016D02*
X15993909Y-13121016D01*
X15908195Y-13321016D01*
X16060576Y-13121016D02*
X16060576Y-13159111D01*
X16136767Y-13121016D02*
X16136767Y-13159111D01*
X16432005Y-13397207D02*
X16422481Y-13387683D01*
X16403433Y-13359111D01*
X16393909Y-13340064D01*
X16384386Y-13311492D01*
X16374862Y-13263873D01*
X16374862Y-13225778D01*
X16384386Y-13178159D01*
X16393909Y-13149588D01*
X16403433Y-13130540D01*
X16422481Y-13101968D01*
X16432005Y-13092445D01*
X16498671Y-13140064D02*
X16508195Y-13130540D01*
X16527243Y-13121016D01*
X16574862Y-13121016D01*
X16593909Y-13130540D01*
X16603433Y-13140064D01*
X16612957Y-13159111D01*
X16612957Y-13178159D01*
X16603433Y-13206730D01*
X16489148Y-13321016D01*
X16612957Y-13321016D01*
X16784386Y-13187683D02*
X16784386Y-13321016D01*
X16736767Y-13111492D02*
X16689148Y-13254349D01*
X16812957Y-13254349D01*
X16927243Y-13121016D02*
X16946290Y-13121016D01*
X16965338Y-13130540D01*
X16974862Y-13140064D01*
X16984386Y-13159111D01*
X16993910Y-13197207D01*
X16993910Y-13244826D01*
X16984386Y-13282921D01*
X16974862Y-13301968D01*
X16965338Y-13311492D01*
X16946290Y-13321016D01*
X16927243Y-13321016D01*
X16908195Y-13311492D01*
X16898671Y-13301968D01*
X16889148Y-13282921D01*
X16879624Y-13244826D01*
X16879624Y-13197207D01*
X16889148Y-13159111D01*
X16898671Y-13140064D01*
X16908195Y-13130540D01*
X16927243Y-13121016D01*
X17232005Y-13321016D02*
X17232005Y-13121016D01*
X17317719Y-13321016D02*
X17317719Y-13216254D01*
X17308195Y-13197207D01*
X17289148Y-13187683D01*
X17260576Y-13187683D01*
X17241529Y-13197207D01*
X17232005Y-13206730D01*
X17441529Y-13321016D02*
X17422481Y-13311492D01*
X17412957Y-13301968D01*
X17403433Y-13282921D01*
X17403433Y-13225778D01*
X17412957Y-13206730D01*
X17422481Y-13197207D01*
X17441529Y-13187683D01*
X17470100Y-13187683D01*
X17489148Y-13197207D01*
X17498671Y-13206730D01*
X17508195Y-13225778D01*
X17508195Y-13282921D01*
X17498671Y-13301968D01*
X17489148Y-13311492D01*
X17470100Y-13321016D01*
X17441529Y-13321016D01*
X17622481Y-13321016D02*
X17603433Y-13311492D01*
X17593910Y-13292445D01*
X17593910Y-13121016D01*
X17774862Y-13311492D02*
X17755814Y-13321016D01*
X17717719Y-13321016D01*
X17698671Y-13311492D01*
X17689148Y-13292445D01*
X17689148Y-13216254D01*
X17698671Y-13197207D01*
X17717719Y-13187683D01*
X17755814Y-13187683D01*
X17774862Y-13197207D01*
X17784386Y-13216254D01*
X17784386Y-13235302D01*
X17689148Y-13254349D01*
X17860576Y-13311492D02*
X17879624Y-13321016D01*
X17917719Y-13321016D01*
X17936767Y-13311492D01*
X17946290Y-13292445D01*
X17946290Y-13282921D01*
X17936767Y-13263873D01*
X17917719Y-13254349D01*
X17889148Y-13254349D01*
X17870100Y-13244826D01*
X17860576Y-13225778D01*
X17860576Y-13216254D01*
X17870100Y-13197207D01*
X17889148Y-13187683D01*
X17917719Y-13187683D01*
X17936767Y-13197207D01*
X18012957Y-13397207D02*
X18022481Y-13387683D01*
X18041529Y-13359111D01*
X18051052Y-13340064D01*
X18060576Y-13311492D01*
X18070100Y-13263873D01*
X18070100Y-13225778D01*
X18060576Y-13178159D01*
X18051052Y-13149588D01*
X18041529Y-13130540D01*
X18022481Y-13101968D01*
X18012957Y-13092445D01*
D14*
X12835100Y-13469540D02*
X12835100Y-13519540D01*
X12810100Y-13494540D02*
X12860100Y-13494540D01*
D11*
X13155814Y-13385016D02*
X13174862Y-13385016D01*
X13193909Y-13394540D01*
X13203433Y-13404064D01*
X13212957Y-13423111D01*
X13222481Y-13461207D01*
X13222481Y-13508826D01*
X13212957Y-13546921D01*
X13203433Y-13565968D01*
X13193909Y-13575492D01*
X13174862Y-13585016D01*
X13155814Y-13585016D01*
X13136767Y-13575492D01*
X13127243Y-13565968D01*
X13117719Y-13546921D01*
X13108195Y-13508826D01*
X13108195Y-13461207D01*
X13117719Y-13423111D01*
X13127243Y-13404064D01*
X13136767Y-13394540D01*
X13155814Y-13385016D01*
X13308195Y-13565968D02*
X13317719Y-13575492D01*
X13308195Y-13585016D01*
X13298671Y-13575492D01*
X13308195Y-13565968D01*
X13308195Y-13585016D01*
X13498671Y-13385016D02*
X13403433Y-13385016D01*
X13393909Y-13480254D01*
X13403433Y-13470730D01*
X13422481Y-13461207D01*
X13470100Y-13461207D01*
X13489148Y-13470730D01*
X13498671Y-13480254D01*
X13508195Y-13499302D01*
X13508195Y-13546921D01*
X13498671Y-13565968D01*
X13489148Y-13575492D01*
X13470100Y-13585016D01*
X13422481Y-13585016D01*
X13403433Y-13575492D01*
X13393909Y-13565968D01*
X13632005Y-13385016D02*
X13651052Y-13385016D01*
X13670100Y-13394540D01*
X13679624Y-13404064D01*
X13689148Y-13423111D01*
X13698671Y-13461207D01*
X13698671Y-13508826D01*
X13689148Y-13546921D01*
X13679624Y-13565968D01*
X13670100Y-13575492D01*
X13651052Y-13585016D01*
X13632005Y-13585016D01*
X13612957Y-13575492D01*
X13603433Y-13565968D01*
X13593909Y-13546921D01*
X13584386Y-13508826D01*
X13584386Y-13461207D01*
X13593909Y-13423111D01*
X13603433Y-13404064D01*
X13612957Y-13394540D01*
X13632005Y-13385016D01*
X13822481Y-13385016D02*
X13841528Y-13385016D01*
X13860576Y-13394540D01*
X13870100Y-13404064D01*
X13879624Y-13423111D01*
X13889148Y-13461207D01*
X13889148Y-13508826D01*
X13879624Y-13546921D01*
X13870100Y-13565968D01*
X13860576Y-13575492D01*
X13841528Y-13585016D01*
X13822481Y-13585016D01*
X13803433Y-13575492D01*
X13793909Y-13565968D01*
X13784386Y-13546921D01*
X13774862Y-13508826D01*
X13774862Y-13461207D01*
X13784386Y-13423111D01*
X13793909Y-13404064D01*
X13803433Y-13394540D01*
X13822481Y-13385016D01*
X13974862Y-13585016D02*
X13974862Y-13451683D01*
X13974862Y-13470730D02*
X13984386Y-13461207D01*
X14003433Y-13451683D01*
X14032005Y-13451683D01*
X14051052Y-13461207D01*
X14060576Y-13480254D01*
X14060576Y-13585016D01*
X14060576Y-13480254D02*
X14070100Y-13461207D01*
X14089148Y-13451683D01*
X14117719Y-13451683D01*
X14136767Y-13461207D01*
X14146290Y-13480254D01*
X14146290Y-13585016D01*
X14241528Y-13585016D02*
X14241528Y-13451683D01*
X14241528Y-13470730D02*
X14251052Y-13461207D01*
X14270100Y-13451683D01*
X14298671Y-13451683D01*
X14317719Y-13461207D01*
X14327243Y-13480254D01*
X14327243Y-13585016D01*
X14327243Y-13480254D02*
X14336767Y-13461207D01*
X14355814Y-13451683D01*
X14384386Y-13451683D01*
X14403433Y-13461207D01*
X14412957Y-13480254D01*
X14412957Y-13585016D01*
X14803433Y-13375492D02*
X14632005Y-13632635D01*
X15060576Y-13385016D02*
X15079624Y-13385016D01*
X15098671Y-13394540D01*
X15108195Y-13404064D01*
X15117719Y-13423111D01*
X15127243Y-13461207D01*
X15127243Y-13508826D01*
X15117719Y-13546921D01*
X15108195Y-13565968D01*
X15098671Y-13575492D01*
X15079624Y-13585016D01*
X15060576Y-13585016D01*
X15041528Y-13575492D01*
X15032005Y-13565968D01*
X15022481Y-13546921D01*
X15012957Y-13508826D01*
X15012957Y-13461207D01*
X15022481Y-13423111D01*
X15032005Y-13404064D01*
X15041528Y-13394540D01*
X15060576Y-13385016D01*
X15212957Y-13565968D02*
X15222481Y-13575492D01*
X15212957Y-13585016D01*
X15203433Y-13575492D01*
X15212957Y-13565968D01*
X15212957Y-13585016D01*
X15346290Y-13385016D02*
X15365338Y-13385016D01*
X15384386Y-13394540D01*
X15393909Y-13404064D01*
X15403433Y-13423111D01*
X15412957Y-13461207D01*
X15412957Y-13508826D01*
X15403433Y-13546921D01*
X15393909Y-13565968D01*
X15384386Y-13575492D01*
X15365338Y-13585016D01*
X15346290Y-13585016D01*
X15327243Y-13575492D01*
X15317719Y-13565968D01*
X15308195Y-13546921D01*
X15298671Y-13508826D01*
X15298671Y-13461207D01*
X15308195Y-13423111D01*
X15317719Y-13404064D01*
X15327243Y-13394540D01*
X15346290Y-13385016D01*
X15603433Y-13585016D02*
X15489148Y-13585016D01*
X15546290Y-13585016D02*
X15546290Y-13385016D01*
X15527243Y-13413588D01*
X15508195Y-13432635D01*
X15489148Y-13442159D01*
X15698671Y-13585016D02*
X15736767Y-13585016D01*
X15755814Y-13575492D01*
X15765338Y-13565968D01*
X15784386Y-13537397D01*
X15793909Y-13499302D01*
X15793909Y-13423111D01*
X15784386Y-13404064D01*
X15774862Y-13394540D01*
X15755814Y-13385016D01*
X15717719Y-13385016D01*
X15698671Y-13394540D01*
X15689148Y-13404064D01*
X15679624Y-13423111D01*
X15679624Y-13470730D01*
X15689148Y-13489778D01*
X15698671Y-13499302D01*
X15717719Y-13508826D01*
X15755814Y-13508826D01*
X15774862Y-13499302D01*
X15784386Y-13489778D01*
X15793909Y-13470730D01*
X15860576Y-13385016D02*
X15993909Y-13385016D01*
X15908195Y-13585016D01*
X16060576Y-13385016D02*
X16060576Y-13423111D01*
X16136767Y-13385016D02*
X16136767Y-13423111D01*
X16432005Y-13661207D02*
X16422481Y-13651683D01*
X16403433Y-13623111D01*
X16393909Y-13604064D01*
X16384386Y-13575492D01*
X16374862Y-13527873D01*
X16374862Y-13489778D01*
X16384386Y-13442159D01*
X16393909Y-13413588D01*
X16403433Y-13394540D01*
X16422481Y-13365968D01*
X16432005Y-13356445D01*
X16612957Y-13585016D02*
X16498671Y-13585016D01*
X16555814Y-13585016D02*
X16555814Y-13385016D01*
X16536767Y-13413588D01*
X16517719Y-13432635D01*
X16498671Y-13442159D01*
X16803433Y-13585016D02*
X16689148Y-13585016D01*
X16746290Y-13585016D02*
X16746290Y-13385016D01*
X16727243Y-13413588D01*
X16708195Y-13432635D01*
X16689148Y-13442159D01*
X17041529Y-13585016D02*
X17041529Y-13385016D01*
X17127243Y-13585016D02*
X17127243Y-13480254D01*
X17117719Y-13461207D01*
X17098671Y-13451683D01*
X17070100Y-13451683D01*
X17051052Y-13461207D01*
X17041529Y-13470730D01*
X17251052Y-13585016D02*
X17232005Y-13575492D01*
X17222481Y-13565968D01*
X17212957Y-13546921D01*
X17212957Y-13489778D01*
X17222481Y-13470730D01*
X17232005Y-13461207D01*
X17251052Y-13451683D01*
X17279624Y-13451683D01*
X17298671Y-13461207D01*
X17308195Y-13470730D01*
X17317719Y-13489778D01*
X17317719Y-13546921D01*
X17308195Y-13565968D01*
X17298671Y-13575492D01*
X17279624Y-13585016D01*
X17251052Y-13585016D01*
X17432005Y-13585016D02*
X17412957Y-13575492D01*
X17403433Y-13556445D01*
X17403433Y-13385016D01*
X17584386Y-13575492D02*
X17565338Y-13585016D01*
X17527243Y-13585016D01*
X17508195Y-13575492D01*
X17498671Y-13556445D01*
X17498671Y-13480254D01*
X17508195Y-13461207D01*
X17527243Y-13451683D01*
X17565338Y-13451683D01*
X17584386Y-13461207D01*
X17593910Y-13480254D01*
X17593910Y-13499302D01*
X17498671Y-13518349D01*
X17670100Y-13575492D02*
X17689148Y-13585016D01*
X17727243Y-13585016D01*
X17746290Y-13575492D01*
X17755814Y-13556445D01*
X17755814Y-13546921D01*
X17746290Y-13527873D01*
X17727243Y-13518349D01*
X17698671Y-13518349D01*
X17679624Y-13508826D01*
X17670100Y-13489778D01*
X17670100Y-13480254D01*
X17679624Y-13461207D01*
X17698671Y-13451683D01*
X17727243Y-13451683D01*
X17746290Y-13461207D01*
X17822481Y-13661207D02*
X17832005Y-13651683D01*
X17851052Y-13623111D01*
X17860576Y-13604064D01*
X17870100Y-13575492D01*
X17879624Y-13527873D01*
X17879624Y-13489778D01*
X17870100Y-13442159D01*
X17860576Y-13413588D01*
X17851052Y-13394540D01*
X17832005Y-13365968D01*
X17822481Y-13356445D01*
D15*
X12848384Y-13786824D02*
X12848384Y-13730255D01*
X12791815Y-13730255D01*
X12791815Y-13786824D01*
X12848384Y-13786824D01*
D11*
X13155814Y-13649016D02*
X13174862Y-13649016D01*
X13193909Y-13658540D01*
X13203433Y-13668064D01*
X13212957Y-13687111D01*
X13222481Y-13725207D01*
X13222481Y-13772826D01*
X13212957Y-13810921D01*
X13203433Y-13829968D01*
X13193909Y-13839492D01*
X13174862Y-13849016D01*
X13155814Y-13849016D01*
X13136767Y-13839492D01*
X13127243Y-13829968D01*
X13117719Y-13810921D01*
X13108195Y-13772826D01*
X13108195Y-13725207D01*
X13117719Y-13687111D01*
X13127243Y-13668064D01*
X13136767Y-13658540D01*
X13155814Y-13649016D01*
X13308195Y-13829968D02*
X13317719Y-13839492D01*
X13308195Y-13849016D01*
X13298671Y-13839492D01*
X13308195Y-13829968D01*
X13308195Y-13849016D01*
X13432005Y-13734730D02*
X13412957Y-13725207D01*
X13403433Y-13715683D01*
X13393909Y-13696635D01*
X13393909Y-13687111D01*
X13403433Y-13668064D01*
X13412957Y-13658540D01*
X13432005Y-13649016D01*
X13470100Y-13649016D01*
X13489148Y-13658540D01*
X13498671Y-13668064D01*
X13508195Y-13687111D01*
X13508195Y-13696635D01*
X13498671Y-13715683D01*
X13489148Y-13725207D01*
X13470100Y-13734730D01*
X13432005Y-13734730D01*
X13412957Y-13744254D01*
X13403433Y-13753778D01*
X13393909Y-13772826D01*
X13393909Y-13810921D01*
X13403433Y-13829968D01*
X13412957Y-13839492D01*
X13432005Y-13849016D01*
X13470100Y-13849016D01*
X13489148Y-13839492D01*
X13498671Y-13829968D01*
X13508195Y-13810921D01*
X13508195Y-13772826D01*
X13498671Y-13753778D01*
X13489148Y-13744254D01*
X13470100Y-13734730D01*
X13632005Y-13649016D02*
X13651052Y-13649016D01*
X13670100Y-13658540D01*
X13679624Y-13668064D01*
X13689148Y-13687111D01*
X13698671Y-13725207D01*
X13698671Y-13772826D01*
X13689148Y-13810921D01*
X13679624Y-13829968D01*
X13670100Y-13839492D01*
X13651052Y-13849016D01*
X13632005Y-13849016D01*
X13612957Y-13839492D01*
X13603433Y-13829968D01*
X13593909Y-13810921D01*
X13584386Y-13772826D01*
X13584386Y-13725207D01*
X13593909Y-13687111D01*
X13603433Y-13668064D01*
X13612957Y-13658540D01*
X13632005Y-13649016D01*
X13822481Y-13649016D02*
X13841528Y-13649016D01*
X13860576Y-13658540D01*
X13870100Y-13668064D01*
X13879624Y-13687111D01*
X13889148Y-13725207D01*
X13889148Y-13772826D01*
X13879624Y-13810921D01*
X13870100Y-13829968D01*
X13860576Y-13839492D01*
X13841528Y-13849016D01*
X13822481Y-13849016D01*
X13803433Y-13839492D01*
X13793909Y-13829968D01*
X13784386Y-13810921D01*
X13774862Y-13772826D01*
X13774862Y-13725207D01*
X13784386Y-13687111D01*
X13793909Y-13668064D01*
X13803433Y-13658540D01*
X13822481Y-13649016D01*
X13974862Y-13849016D02*
X13974862Y-13715683D01*
X13974862Y-13734730D02*
X13984386Y-13725207D01*
X14003433Y-13715683D01*
X14032005Y-13715683D01*
X14051052Y-13725207D01*
X14060576Y-13744254D01*
X14060576Y-13849016D01*
X14060576Y-13744254D02*
X14070100Y-13725207D01*
X14089148Y-13715683D01*
X14117719Y-13715683D01*
X14136767Y-13725207D01*
X14146290Y-13744254D01*
X14146290Y-13849016D01*
X14241528Y-13849016D02*
X14241528Y-13715683D01*
X14241528Y-13734730D02*
X14251052Y-13725207D01*
X14270100Y-13715683D01*
X14298671Y-13715683D01*
X14317719Y-13725207D01*
X14327243Y-13744254D01*
X14327243Y-13849016D01*
X14327243Y-13744254D02*
X14336767Y-13725207D01*
X14355814Y-13715683D01*
X14384386Y-13715683D01*
X14403433Y-13725207D01*
X14412957Y-13744254D01*
X14412957Y-13849016D01*
X14803433Y-13639492D02*
X14632005Y-13896635D01*
X15060576Y-13649016D02*
X15079624Y-13649016D01*
X15098671Y-13658540D01*
X15108195Y-13668064D01*
X15117719Y-13687111D01*
X15127243Y-13725207D01*
X15127243Y-13772826D01*
X15117719Y-13810921D01*
X15108195Y-13829968D01*
X15098671Y-13839492D01*
X15079624Y-13849016D01*
X15060576Y-13849016D01*
X15041528Y-13839492D01*
X15032005Y-13829968D01*
X15022481Y-13810921D01*
X15012957Y-13772826D01*
X15012957Y-13725207D01*
X15022481Y-13687111D01*
X15032005Y-13668064D01*
X15041528Y-13658540D01*
X15060576Y-13649016D01*
X15212957Y-13829968D02*
X15222481Y-13839492D01*
X15212957Y-13849016D01*
X15203433Y-13839492D01*
X15212957Y-13829968D01*
X15212957Y-13849016D01*
X15346290Y-13649016D02*
X15365338Y-13649016D01*
X15384386Y-13658540D01*
X15393909Y-13668064D01*
X15403433Y-13687111D01*
X15412957Y-13725207D01*
X15412957Y-13772826D01*
X15403433Y-13810921D01*
X15393909Y-13829968D01*
X15384386Y-13839492D01*
X15365338Y-13849016D01*
X15346290Y-13849016D01*
X15327243Y-13839492D01*
X15317719Y-13829968D01*
X15308195Y-13810921D01*
X15298671Y-13772826D01*
X15298671Y-13725207D01*
X15308195Y-13687111D01*
X15317719Y-13668064D01*
X15327243Y-13658540D01*
X15346290Y-13649016D01*
X15479624Y-13649016D02*
X15603433Y-13649016D01*
X15536767Y-13725207D01*
X15565338Y-13725207D01*
X15584386Y-13734730D01*
X15593909Y-13744254D01*
X15603433Y-13763302D01*
X15603433Y-13810921D01*
X15593909Y-13829968D01*
X15584386Y-13839492D01*
X15565338Y-13849016D01*
X15508195Y-13849016D01*
X15489148Y-13839492D01*
X15479624Y-13829968D01*
X15793909Y-13849016D02*
X15679624Y-13849016D01*
X15736767Y-13849016D02*
X15736767Y-13649016D01*
X15717719Y-13677588D01*
X15698671Y-13696635D01*
X15679624Y-13706159D01*
X15974862Y-13649016D02*
X15879624Y-13649016D01*
X15870100Y-13744254D01*
X15879624Y-13734730D01*
X15898671Y-13725207D01*
X15946290Y-13725207D01*
X15965338Y-13734730D01*
X15974862Y-13744254D01*
X15984386Y-13763302D01*
X15984386Y-13810921D01*
X15974862Y-13829968D01*
X15965338Y-13839492D01*
X15946290Y-13849016D01*
X15898671Y-13849016D01*
X15879624Y-13839492D01*
X15870100Y-13829968D01*
X16060576Y-13649016D02*
X16060576Y-13687111D01*
X16136767Y-13649016D02*
X16136767Y-13687111D01*
X16432005Y-13925207D02*
X16422481Y-13915683D01*
X16403433Y-13887111D01*
X16393909Y-13868064D01*
X16384386Y-13839492D01*
X16374862Y-13791873D01*
X16374862Y-13753778D01*
X16384386Y-13706159D01*
X16393909Y-13677588D01*
X16403433Y-13658540D01*
X16422481Y-13629968D01*
X16432005Y-13620445D01*
X16536767Y-13734730D02*
X16517719Y-13725207D01*
X16508195Y-13715683D01*
X16498671Y-13696635D01*
X16498671Y-13687111D01*
X16508195Y-13668064D01*
X16517719Y-13658540D01*
X16536767Y-13649016D01*
X16574862Y-13649016D01*
X16593909Y-13658540D01*
X16603433Y-13668064D01*
X16612957Y-13687111D01*
X16612957Y-13696635D01*
X16603433Y-13715683D01*
X16593909Y-13725207D01*
X16574862Y-13734730D01*
X16536767Y-13734730D01*
X16517719Y-13744254D01*
X16508195Y-13753778D01*
X16498671Y-13772826D01*
X16498671Y-13810921D01*
X16508195Y-13829968D01*
X16517719Y-13839492D01*
X16536767Y-13849016D01*
X16574862Y-13849016D01*
X16593909Y-13839492D01*
X16603433Y-13829968D01*
X16612957Y-13810921D01*
X16612957Y-13772826D01*
X16603433Y-13753778D01*
X16593909Y-13744254D01*
X16574862Y-13734730D01*
X16784386Y-13649016D02*
X16746290Y-13649016D01*
X16727243Y-13658540D01*
X16717719Y-13668064D01*
X16698671Y-13696635D01*
X16689148Y-13734730D01*
X16689148Y-13810921D01*
X16698671Y-13829968D01*
X16708195Y-13839492D01*
X16727243Y-13849016D01*
X16765338Y-13849016D01*
X16784386Y-13839492D01*
X16793910Y-13829968D01*
X16803433Y-13810921D01*
X16803433Y-13763302D01*
X16793910Y-13744254D01*
X16784386Y-13734730D01*
X16765338Y-13725207D01*
X16727243Y-13725207D01*
X16708195Y-13734730D01*
X16698671Y-13744254D01*
X16689148Y-13763302D01*
X17041529Y-13849016D02*
X17041529Y-13649016D01*
X17127243Y-13849016D02*
X17127243Y-13744254D01*
X17117719Y-13725207D01*
X17098671Y-13715683D01*
X17070100Y-13715683D01*
X17051052Y-13725207D01*
X17041529Y-13734730D01*
X17251052Y-13849016D02*
X17232005Y-13839492D01*
X17222481Y-13829968D01*
X17212957Y-13810921D01*
X17212957Y-13753778D01*
X17222481Y-13734730D01*
X17232005Y-13725207D01*
X17251052Y-13715683D01*
X17279624Y-13715683D01*
X17298671Y-13725207D01*
X17308195Y-13734730D01*
X17317719Y-13753778D01*
X17317719Y-13810921D01*
X17308195Y-13829968D01*
X17298671Y-13839492D01*
X17279624Y-13849016D01*
X17251052Y-13849016D01*
X17432005Y-13849016D02*
X17412957Y-13839492D01*
X17403433Y-13820445D01*
X17403433Y-13649016D01*
X17584386Y-13839492D02*
X17565338Y-13849016D01*
X17527243Y-13849016D01*
X17508195Y-13839492D01*
X17498671Y-13820445D01*
X17498671Y-13744254D01*
X17508195Y-13725207D01*
X17527243Y-13715683D01*
X17565338Y-13715683D01*
X17584386Y-13725207D01*
X17593910Y-13744254D01*
X17593910Y-13763302D01*
X17498671Y-13782349D01*
X17670100Y-13839492D02*
X17689148Y-13849016D01*
X17727243Y-13849016D01*
X17746290Y-13839492D01*
X17755814Y-13820445D01*
X17755814Y-13810921D01*
X17746290Y-13791873D01*
X17727243Y-13782349D01*
X17698671Y-13782349D01*
X17679624Y-13772826D01*
X17670100Y-13753778D01*
X17670100Y-13744254D01*
X17679624Y-13725207D01*
X17698671Y-13715683D01*
X17727243Y-13715683D01*
X17746290Y-13725207D01*
X17822481Y-13925207D02*
X17832005Y-13915683D01*
X17851052Y-13887111D01*
X17860576Y-13868064D01*
X17870100Y-13839492D01*
X17879624Y-13791873D01*
X17879624Y-13753778D01*
X17870100Y-13706159D01*
X17860576Y-13677588D01*
X17851052Y-13658540D01*
X17832005Y-13629968D01*
X17822481Y-13620445D01*
D10*
X12810100Y-14072540D02*
X12860100Y-14022540D01*
X12810100Y-13972540D01*
X12760100Y-14022540D01*
X12810100Y-14072540D01*
D11*
X13222481Y-14113016D02*
X13108195Y-14113016D01*
X13165338Y-14113016D02*
X13165338Y-13913016D01*
X13146290Y-13941588D01*
X13127243Y-13960635D01*
X13108195Y-13970159D01*
X13308195Y-14093968D02*
X13317719Y-14103492D01*
X13308195Y-14113016D01*
X13298671Y-14103492D01*
X13308195Y-14093968D01*
X13308195Y-14113016D01*
X13441528Y-13913016D02*
X13460576Y-13913016D01*
X13479624Y-13922540D01*
X13489148Y-13932064D01*
X13498671Y-13951111D01*
X13508195Y-13989207D01*
X13508195Y-14036826D01*
X13498671Y-14074921D01*
X13489148Y-14093968D01*
X13479624Y-14103492D01*
X13460576Y-14113016D01*
X13441528Y-14113016D01*
X13422481Y-14103492D01*
X13412957Y-14093968D01*
X13403433Y-14074921D01*
X13393909Y-14036826D01*
X13393909Y-13989207D01*
X13403433Y-13951111D01*
X13412957Y-13932064D01*
X13422481Y-13922540D01*
X13441528Y-13913016D01*
X13632005Y-13913016D02*
X13651052Y-13913016D01*
X13670100Y-13922540D01*
X13679624Y-13932064D01*
X13689148Y-13951111D01*
X13698671Y-13989207D01*
X13698671Y-14036826D01*
X13689148Y-14074921D01*
X13679624Y-14093968D01*
X13670100Y-14103492D01*
X13651052Y-14113016D01*
X13632005Y-14113016D01*
X13612957Y-14103492D01*
X13603433Y-14093968D01*
X13593909Y-14074921D01*
X13584386Y-14036826D01*
X13584386Y-13989207D01*
X13593909Y-13951111D01*
X13603433Y-13932064D01*
X13612957Y-13922540D01*
X13632005Y-13913016D01*
X13822481Y-13913016D02*
X13841528Y-13913016D01*
X13860576Y-13922540D01*
X13870100Y-13932064D01*
X13879624Y-13951111D01*
X13889148Y-13989207D01*
X13889148Y-14036826D01*
X13879624Y-14074921D01*
X13870100Y-14093968D01*
X13860576Y-14103492D01*
X13841528Y-14113016D01*
X13822481Y-14113016D01*
X13803433Y-14103492D01*
X13793909Y-14093968D01*
X13784386Y-14074921D01*
X13774862Y-14036826D01*
X13774862Y-13989207D01*
X13784386Y-13951111D01*
X13793909Y-13932064D01*
X13803433Y-13922540D01*
X13822481Y-13913016D01*
X13974862Y-14113016D02*
X13974862Y-13979683D01*
X13974862Y-13998730D02*
X13984386Y-13989207D01*
X14003433Y-13979683D01*
X14032005Y-13979683D01*
X14051052Y-13989207D01*
X14060576Y-14008254D01*
X14060576Y-14113016D01*
X14060576Y-14008254D02*
X14070100Y-13989207D01*
X14089148Y-13979683D01*
X14117719Y-13979683D01*
X14136767Y-13989207D01*
X14146290Y-14008254D01*
X14146290Y-14113016D01*
X14241528Y-14113016D02*
X14241528Y-13979683D01*
X14241528Y-13998730D02*
X14251052Y-13989207D01*
X14270100Y-13979683D01*
X14298671Y-13979683D01*
X14317719Y-13989207D01*
X14327243Y-14008254D01*
X14327243Y-14113016D01*
X14327243Y-14008254D02*
X14336767Y-13989207D01*
X14355814Y-13979683D01*
X14384386Y-13979683D01*
X14403433Y-13989207D01*
X14412957Y-14008254D01*
X14412957Y-14113016D01*
X14803433Y-13903492D02*
X14632005Y-14160635D01*
X15060576Y-13913016D02*
X15079624Y-13913016D01*
X15098671Y-13922540D01*
X15108195Y-13932064D01*
X15117719Y-13951111D01*
X15127243Y-13989207D01*
X15127243Y-14036826D01*
X15117719Y-14074921D01*
X15108195Y-14093968D01*
X15098671Y-14103492D01*
X15079624Y-14113016D01*
X15060576Y-14113016D01*
X15041528Y-14103492D01*
X15032005Y-14093968D01*
X15022481Y-14074921D01*
X15012957Y-14036826D01*
X15012957Y-13989207D01*
X15022481Y-13951111D01*
X15032005Y-13932064D01*
X15041528Y-13922540D01*
X15060576Y-13913016D01*
X15212957Y-14093968D02*
X15222481Y-14103492D01*
X15212957Y-14113016D01*
X15203433Y-14103492D01*
X15212957Y-14093968D01*
X15212957Y-14113016D01*
X15346290Y-13913016D02*
X15365338Y-13913016D01*
X15384386Y-13922540D01*
X15393909Y-13932064D01*
X15403433Y-13951111D01*
X15412957Y-13989207D01*
X15412957Y-14036826D01*
X15403433Y-14074921D01*
X15393909Y-14093968D01*
X15384386Y-14103492D01*
X15365338Y-14113016D01*
X15346290Y-14113016D01*
X15327243Y-14103492D01*
X15317719Y-14093968D01*
X15308195Y-14074921D01*
X15298671Y-14036826D01*
X15298671Y-13989207D01*
X15308195Y-13951111D01*
X15317719Y-13932064D01*
X15327243Y-13922540D01*
X15346290Y-13913016D01*
X15479624Y-13913016D02*
X15603433Y-13913016D01*
X15536767Y-13989207D01*
X15565338Y-13989207D01*
X15584386Y-13998730D01*
X15593909Y-14008254D01*
X15603433Y-14027302D01*
X15603433Y-14074921D01*
X15593909Y-14093968D01*
X15584386Y-14103492D01*
X15565338Y-14113016D01*
X15508195Y-14113016D01*
X15489148Y-14103492D01*
X15479624Y-14093968D01*
X15698671Y-14113016D02*
X15736767Y-14113016D01*
X15755814Y-14103492D01*
X15765338Y-14093968D01*
X15784386Y-14065397D01*
X15793909Y-14027302D01*
X15793909Y-13951111D01*
X15784386Y-13932064D01*
X15774862Y-13922540D01*
X15755814Y-13913016D01*
X15717719Y-13913016D01*
X15698671Y-13922540D01*
X15689148Y-13932064D01*
X15679624Y-13951111D01*
X15679624Y-13998730D01*
X15689148Y-14017778D01*
X15698671Y-14027302D01*
X15717719Y-14036826D01*
X15755814Y-14036826D01*
X15774862Y-14027302D01*
X15784386Y-14017778D01*
X15793909Y-13998730D01*
X15965338Y-13979683D02*
X15965338Y-14113016D01*
X15917719Y-13903492D02*
X15870100Y-14046349D01*
X15993909Y-14046349D01*
X16060576Y-13913016D02*
X16060576Y-13951111D01*
X16136767Y-13913016D02*
X16136767Y-13951111D01*
X16432005Y-14189207D02*
X16422481Y-14179683D01*
X16403433Y-14151111D01*
X16393909Y-14132064D01*
X16384386Y-14103492D01*
X16374862Y-14055873D01*
X16374862Y-14017778D01*
X16384386Y-13970159D01*
X16393909Y-13941588D01*
X16403433Y-13922540D01*
X16422481Y-13893968D01*
X16432005Y-13884445D01*
X16612957Y-14113016D02*
X16498671Y-14113016D01*
X16555814Y-14113016D02*
X16555814Y-13913016D01*
X16536767Y-13941588D01*
X16517719Y-13960635D01*
X16498671Y-13970159D01*
X16679624Y-13913016D02*
X16803433Y-13913016D01*
X16736767Y-13989207D01*
X16765338Y-13989207D01*
X16784386Y-13998730D01*
X16793910Y-14008254D01*
X16803433Y-14027302D01*
X16803433Y-14074921D01*
X16793910Y-14093968D01*
X16784386Y-14103492D01*
X16765338Y-14113016D01*
X16708195Y-14113016D01*
X16689148Y-14103492D01*
X16679624Y-14093968D01*
X17041529Y-14113016D02*
X17041529Y-13913016D01*
X17127243Y-14113016D02*
X17127243Y-14008254D01*
X17117719Y-13989207D01*
X17098671Y-13979683D01*
X17070100Y-13979683D01*
X17051052Y-13989207D01*
X17041529Y-13998730D01*
X17251052Y-14113016D02*
X17232005Y-14103492D01*
X17222481Y-14093968D01*
X17212957Y-14074921D01*
X17212957Y-14017778D01*
X17222481Y-13998730D01*
X17232005Y-13989207D01*
X17251052Y-13979683D01*
X17279624Y-13979683D01*
X17298671Y-13989207D01*
X17308195Y-13998730D01*
X17317719Y-14017778D01*
X17317719Y-14074921D01*
X17308195Y-14093968D01*
X17298671Y-14103492D01*
X17279624Y-14113016D01*
X17251052Y-14113016D01*
X17432005Y-14113016D02*
X17412957Y-14103492D01*
X17403433Y-14084445D01*
X17403433Y-13913016D01*
X17584386Y-14103492D02*
X17565338Y-14113016D01*
X17527243Y-14113016D01*
X17508195Y-14103492D01*
X17498671Y-14084445D01*
X17498671Y-14008254D01*
X17508195Y-13989207D01*
X17527243Y-13979683D01*
X17565338Y-13979683D01*
X17584386Y-13989207D01*
X17593910Y-14008254D01*
X17593910Y-14027302D01*
X17498671Y-14046349D01*
X17670100Y-14103492D02*
X17689148Y-14113016D01*
X17727243Y-14113016D01*
X17746290Y-14103492D01*
X17755814Y-14084445D01*
X17755814Y-14074921D01*
X17746290Y-14055873D01*
X17727243Y-14046349D01*
X17698671Y-14046349D01*
X17679624Y-14036826D01*
X17670100Y-14017778D01*
X17670100Y-14008254D01*
X17679624Y-13989207D01*
X17698671Y-13979683D01*
X17727243Y-13979683D01*
X17746290Y-13989207D01*
X17822481Y-14189207D02*
X17832005Y-14179683D01*
X17851052Y-14151111D01*
X17860576Y-14132064D01*
X17870100Y-14103492D01*
X17879624Y-14055873D01*
X17879624Y-14017778D01*
X17870100Y-13970159D01*
X17860576Y-13941588D01*
X17851052Y-13922540D01*
X17832005Y-13893968D01*
X17822481Y-13884445D01*
D16*
X12748100Y-14230540D02*
X12860100Y-14342540D01*
X12860100Y-14230540D02*
X12748100Y-14342540D01*
X12860100Y-14286540D02*
G75*
G03*
X12860100Y-14286540I-56000J0D01*
G01*
D11*
X13222481Y-14377016D02*
X13108195Y-14377016D01*
X13165338Y-14377016D02*
X13165338Y-14177016D01*
X13146290Y-14205588D01*
X13127243Y-14224635D01*
X13108195Y-14234159D01*
X13308195Y-14357968D02*
X13317719Y-14367492D01*
X13308195Y-14377016D01*
X13298671Y-14367492D01*
X13308195Y-14357968D01*
X13308195Y-14377016D01*
X13508195Y-14377016D02*
X13393909Y-14377016D01*
X13451052Y-14377016D02*
X13451052Y-14177016D01*
X13432005Y-14205588D01*
X13412957Y-14224635D01*
X13393909Y-14234159D01*
X13584386Y-14196064D02*
X13593909Y-14186540D01*
X13612957Y-14177016D01*
X13660576Y-14177016D01*
X13679624Y-14186540D01*
X13689148Y-14196064D01*
X13698671Y-14215111D01*
X13698671Y-14234159D01*
X13689148Y-14262730D01*
X13574862Y-14377016D01*
X13698671Y-14377016D01*
X13822481Y-14177016D02*
X13841528Y-14177016D01*
X13860576Y-14186540D01*
X13870100Y-14196064D01*
X13879624Y-14215111D01*
X13889148Y-14253207D01*
X13889148Y-14300826D01*
X13879624Y-14338921D01*
X13870100Y-14357968D01*
X13860576Y-14367492D01*
X13841528Y-14377016D01*
X13822481Y-14377016D01*
X13803433Y-14367492D01*
X13793909Y-14357968D01*
X13784386Y-14338921D01*
X13774862Y-14300826D01*
X13774862Y-14253207D01*
X13784386Y-14215111D01*
X13793909Y-14196064D01*
X13803433Y-14186540D01*
X13822481Y-14177016D01*
X13974862Y-14377016D02*
X13974862Y-14243683D01*
X13974862Y-14262730D02*
X13984386Y-14253207D01*
X14003433Y-14243683D01*
X14032005Y-14243683D01*
X14051052Y-14253207D01*
X14060576Y-14272254D01*
X14060576Y-14377016D01*
X14060576Y-14272254D02*
X14070100Y-14253207D01*
X14089148Y-14243683D01*
X14117719Y-14243683D01*
X14136767Y-14253207D01*
X14146290Y-14272254D01*
X14146290Y-14377016D01*
X14241528Y-14377016D02*
X14241528Y-14243683D01*
X14241528Y-14262730D02*
X14251052Y-14253207D01*
X14270100Y-14243683D01*
X14298671Y-14243683D01*
X14317719Y-14253207D01*
X14327243Y-14272254D01*
X14327243Y-14377016D01*
X14327243Y-14272254D02*
X14336767Y-14253207D01*
X14355814Y-14243683D01*
X14384386Y-14243683D01*
X14403433Y-14253207D01*
X14412957Y-14272254D01*
X14412957Y-14377016D01*
X14803433Y-14167492D02*
X14632005Y-14424635D01*
X15060576Y-14177016D02*
X15079624Y-14177016D01*
X15098671Y-14186540D01*
X15108195Y-14196064D01*
X15117719Y-14215111D01*
X15127243Y-14253207D01*
X15127243Y-14300826D01*
X15117719Y-14338921D01*
X15108195Y-14357968D01*
X15098671Y-14367492D01*
X15079624Y-14377016D01*
X15060576Y-14377016D01*
X15041528Y-14367492D01*
X15032005Y-14357968D01*
X15022481Y-14338921D01*
X15012957Y-14300826D01*
X15012957Y-14253207D01*
X15022481Y-14215111D01*
X15032005Y-14196064D01*
X15041528Y-14186540D01*
X15060576Y-14177016D01*
X15212957Y-14357968D02*
X15222481Y-14367492D01*
X15212957Y-14377016D01*
X15203433Y-14367492D01*
X15212957Y-14357968D01*
X15212957Y-14377016D01*
X15346290Y-14177016D02*
X15365338Y-14177016D01*
X15384386Y-14186540D01*
X15393909Y-14196064D01*
X15403433Y-14215111D01*
X15412957Y-14253207D01*
X15412957Y-14300826D01*
X15403433Y-14338921D01*
X15393909Y-14357968D01*
X15384386Y-14367492D01*
X15365338Y-14377016D01*
X15346290Y-14377016D01*
X15327243Y-14367492D01*
X15317719Y-14357968D01*
X15308195Y-14338921D01*
X15298671Y-14300826D01*
X15298671Y-14253207D01*
X15308195Y-14215111D01*
X15317719Y-14196064D01*
X15327243Y-14186540D01*
X15346290Y-14177016D01*
X15584386Y-14243683D02*
X15584386Y-14377016D01*
X15536767Y-14167492D02*
X15489148Y-14310349D01*
X15612957Y-14310349D01*
X15774862Y-14243683D02*
X15774862Y-14377016D01*
X15727243Y-14167492D02*
X15679624Y-14310349D01*
X15803433Y-14310349D01*
X15984386Y-14377016D02*
X15870100Y-14377016D01*
X15927243Y-14377016D02*
X15927243Y-14177016D01*
X15908195Y-14205588D01*
X15889148Y-14224635D01*
X15870100Y-14234159D01*
X16060576Y-14177016D02*
X16060576Y-14215111D01*
X16136767Y-14177016D02*
X16136767Y-14215111D01*
X16432005Y-14453207D02*
X16422481Y-14443683D01*
X16403433Y-14415111D01*
X16393909Y-14396064D01*
X16384386Y-14367492D01*
X16374862Y-14319873D01*
X16374862Y-14281778D01*
X16384386Y-14234159D01*
X16393909Y-14205588D01*
X16403433Y-14186540D01*
X16422481Y-14157968D01*
X16432005Y-14148445D01*
X16612957Y-14377016D02*
X16498671Y-14377016D01*
X16555814Y-14377016D02*
X16555814Y-14177016D01*
X16536767Y-14205588D01*
X16517719Y-14224635D01*
X16498671Y-14234159D01*
X16689148Y-14196064D02*
X16698671Y-14186540D01*
X16717719Y-14177016D01*
X16765338Y-14177016D01*
X16784386Y-14186540D01*
X16793910Y-14196064D01*
X16803433Y-14215111D01*
X16803433Y-14234159D01*
X16793910Y-14262730D01*
X16679624Y-14377016D01*
X16803433Y-14377016D01*
X17041529Y-14377016D02*
X17041529Y-14177016D01*
X17127243Y-14377016D02*
X17127243Y-14272254D01*
X17117719Y-14253207D01*
X17098671Y-14243683D01*
X17070100Y-14243683D01*
X17051052Y-14253207D01*
X17041529Y-14262730D01*
X17251052Y-14377016D02*
X17232005Y-14367492D01*
X17222481Y-14357968D01*
X17212957Y-14338921D01*
X17212957Y-14281778D01*
X17222481Y-14262730D01*
X17232005Y-14253207D01*
X17251052Y-14243683D01*
X17279624Y-14243683D01*
X17298671Y-14253207D01*
X17308195Y-14262730D01*
X17317719Y-14281778D01*
X17317719Y-14338921D01*
X17308195Y-14357968D01*
X17298671Y-14367492D01*
X17279624Y-14377016D01*
X17251052Y-14377016D01*
X17432005Y-14377016D02*
X17412957Y-14367492D01*
X17403433Y-14348445D01*
X17403433Y-14177016D01*
X17584386Y-14367492D02*
X17565338Y-14377016D01*
X17527243Y-14377016D01*
X17508195Y-14367492D01*
X17498671Y-14348445D01*
X17498671Y-14272254D01*
X17508195Y-14253207D01*
X17527243Y-14243683D01*
X17565338Y-14243683D01*
X17584386Y-14253207D01*
X17593910Y-14272254D01*
X17593910Y-14291302D01*
X17498671Y-14310349D01*
X17670100Y-14367492D02*
X17689148Y-14377016D01*
X17727243Y-14377016D01*
X17746290Y-14367492D01*
X17755814Y-14348445D01*
X17755814Y-14338921D01*
X17746290Y-14319873D01*
X17727243Y-14310349D01*
X17698671Y-14310349D01*
X17679624Y-14300826D01*
X17670100Y-14281778D01*
X17670100Y-14272254D01*
X17679624Y-14253207D01*
X17698671Y-14243683D01*
X17727243Y-14243683D01*
X17746290Y-14253207D01*
X17822481Y-14453207D02*
X17832005Y-14443683D01*
X17851052Y-14415111D01*
X17860576Y-14396064D01*
X17870100Y-14367492D01*
X17879624Y-14319873D01*
X17879624Y-14281778D01*
X17870100Y-14234159D01*
X17860576Y-14205588D01*
X17851052Y-14186540D01*
X17832005Y-14157968D01*
X17822481Y-14148445D01*
D17*
X12740100Y-14490540D02*
X12860100Y-14610540D01*
X12860100Y-14490540D02*
X12740100Y-14610540D01*
X12800100Y-14490540D02*
X12800100Y-14610540D01*
X12740100Y-14550540D02*
X12860100Y-14550540D01*
D11*
X13222481Y-14641016D02*
X13108195Y-14641016D01*
X13165338Y-14641016D02*
X13165338Y-14441016D01*
X13146290Y-14469588D01*
X13127243Y-14488635D01*
X13108195Y-14498159D01*
X13308195Y-14621968D02*
X13317719Y-14631492D01*
X13308195Y-14641016D01*
X13298671Y-14631492D01*
X13308195Y-14621968D01*
X13308195Y-14641016D01*
X13393909Y-14460064D02*
X13403433Y-14450540D01*
X13422481Y-14441016D01*
X13470100Y-14441016D01*
X13489148Y-14450540D01*
X13498671Y-14460064D01*
X13508195Y-14479111D01*
X13508195Y-14498159D01*
X13498671Y-14526730D01*
X13384386Y-14641016D01*
X13508195Y-14641016D01*
X13632005Y-14441016D02*
X13651052Y-14441016D01*
X13670100Y-14450540D01*
X13679624Y-14460064D01*
X13689148Y-14479111D01*
X13698671Y-14517207D01*
X13698671Y-14564826D01*
X13689148Y-14602921D01*
X13679624Y-14621968D01*
X13670100Y-14631492D01*
X13651052Y-14641016D01*
X13632005Y-14641016D01*
X13612957Y-14631492D01*
X13603433Y-14621968D01*
X13593909Y-14602921D01*
X13584386Y-14564826D01*
X13584386Y-14517207D01*
X13593909Y-14479111D01*
X13603433Y-14460064D01*
X13612957Y-14450540D01*
X13632005Y-14441016D01*
X13822481Y-14441016D02*
X13841528Y-14441016D01*
X13860576Y-14450540D01*
X13870100Y-14460064D01*
X13879624Y-14479111D01*
X13889148Y-14517207D01*
X13889148Y-14564826D01*
X13879624Y-14602921D01*
X13870100Y-14621968D01*
X13860576Y-14631492D01*
X13841528Y-14641016D01*
X13822481Y-14641016D01*
X13803433Y-14631492D01*
X13793909Y-14621968D01*
X13784386Y-14602921D01*
X13774862Y-14564826D01*
X13774862Y-14517207D01*
X13784386Y-14479111D01*
X13793909Y-14460064D01*
X13803433Y-14450540D01*
X13822481Y-14441016D01*
X13974862Y-14641016D02*
X13974862Y-14507683D01*
X13974862Y-14526730D02*
X13984386Y-14517207D01*
X14003433Y-14507683D01*
X14032005Y-14507683D01*
X14051052Y-14517207D01*
X14060576Y-14536254D01*
X14060576Y-14641016D01*
X14060576Y-14536254D02*
X14070100Y-14517207D01*
X14089148Y-14507683D01*
X14117719Y-14507683D01*
X14136767Y-14517207D01*
X14146290Y-14536254D01*
X14146290Y-14641016D01*
X14241528Y-14641016D02*
X14241528Y-14507683D01*
X14241528Y-14526730D02*
X14251052Y-14517207D01*
X14270100Y-14507683D01*
X14298671Y-14507683D01*
X14317719Y-14517207D01*
X14327243Y-14536254D01*
X14327243Y-14641016D01*
X14327243Y-14536254D02*
X14336767Y-14517207D01*
X14355814Y-14507683D01*
X14384386Y-14507683D01*
X14403433Y-14517207D01*
X14412957Y-14536254D01*
X14412957Y-14641016D01*
X14803433Y-14431492D02*
X14632005Y-14688635D01*
X15060576Y-14441016D02*
X15079624Y-14441016D01*
X15098671Y-14450540D01*
X15108195Y-14460064D01*
X15117719Y-14479111D01*
X15127243Y-14517207D01*
X15127243Y-14564826D01*
X15117719Y-14602921D01*
X15108195Y-14621968D01*
X15098671Y-14631492D01*
X15079624Y-14641016D01*
X15060576Y-14641016D01*
X15041528Y-14631492D01*
X15032005Y-14621968D01*
X15022481Y-14602921D01*
X15012957Y-14564826D01*
X15012957Y-14517207D01*
X15022481Y-14479111D01*
X15032005Y-14460064D01*
X15041528Y-14450540D01*
X15060576Y-14441016D01*
X15212957Y-14621968D02*
X15222481Y-14631492D01*
X15212957Y-14641016D01*
X15203433Y-14631492D01*
X15212957Y-14621968D01*
X15212957Y-14641016D01*
X15346290Y-14441016D02*
X15365338Y-14441016D01*
X15384386Y-14450540D01*
X15393909Y-14460064D01*
X15403433Y-14479111D01*
X15412957Y-14517207D01*
X15412957Y-14564826D01*
X15403433Y-14602921D01*
X15393909Y-14621968D01*
X15384386Y-14631492D01*
X15365338Y-14641016D01*
X15346290Y-14641016D01*
X15327243Y-14631492D01*
X15317719Y-14621968D01*
X15308195Y-14602921D01*
X15298671Y-14564826D01*
X15298671Y-14517207D01*
X15308195Y-14479111D01*
X15317719Y-14460064D01*
X15327243Y-14450540D01*
X15346290Y-14441016D01*
X15584386Y-14507683D02*
X15584386Y-14641016D01*
X15536767Y-14431492D02*
X15489148Y-14574349D01*
X15612957Y-14574349D01*
X15670100Y-14441016D02*
X15803433Y-14441016D01*
X15717719Y-14641016D01*
X15870100Y-14460064D02*
X15879624Y-14450540D01*
X15898671Y-14441016D01*
X15946290Y-14441016D01*
X15965338Y-14450540D01*
X15974862Y-14460064D01*
X15984386Y-14479111D01*
X15984386Y-14498159D01*
X15974862Y-14526730D01*
X15860576Y-14641016D01*
X15984386Y-14641016D01*
X16060576Y-14441016D02*
X16060576Y-14479111D01*
X16136767Y-14441016D02*
X16136767Y-14479111D01*
X16432005Y-14717207D02*
X16422481Y-14707683D01*
X16403433Y-14679111D01*
X16393909Y-14660064D01*
X16384386Y-14631492D01*
X16374862Y-14583873D01*
X16374862Y-14545778D01*
X16384386Y-14498159D01*
X16393909Y-14469588D01*
X16403433Y-14450540D01*
X16422481Y-14421968D01*
X16432005Y-14412445D01*
X16498671Y-14460064D02*
X16508195Y-14450540D01*
X16527243Y-14441016D01*
X16574862Y-14441016D01*
X16593909Y-14450540D01*
X16603433Y-14460064D01*
X16612957Y-14479111D01*
X16612957Y-14498159D01*
X16603433Y-14526730D01*
X16489148Y-14641016D01*
X16612957Y-14641016D01*
X16851052Y-14641016D02*
X16851052Y-14441016D01*
X16936767Y-14641016D02*
X16936767Y-14536254D01*
X16927243Y-14517207D01*
X16908195Y-14507683D01*
X16879624Y-14507683D01*
X16860576Y-14517207D01*
X16851052Y-14526730D01*
X17060576Y-14641016D02*
X17041529Y-14631492D01*
X17032005Y-14621968D01*
X17022481Y-14602921D01*
X17022481Y-14545778D01*
X17032005Y-14526730D01*
X17041529Y-14517207D01*
X17060576Y-14507683D01*
X17089148Y-14507683D01*
X17108195Y-14517207D01*
X17117719Y-14526730D01*
X17127243Y-14545778D01*
X17127243Y-14602921D01*
X17117719Y-14621968D01*
X17108195Y-14631492D01*
X17089148Y-14641016D01*
X17060576Y-14641016D01*
X17241529Y-14641016D02*
X17222481Y-14631492D01*
X17212957Y-14612445D01*
X17212957Y-14441016D01*
X17393910Y-14631492D02*
X17374862Y-14641016D01*
X17336767Y-14641016D01*
X17317719Y-14631492D01*
X17308195Y-14612445D01*
X17308195Y-14536254D01*
X17317719Y-14517207D01*
X17336767Y-14507683D01*
X17374862Y-14507683D01*
X17393910Y-14517207D01*
X17403433Y-14536254D01*
X17403433Y-14555302D01*
X17308195Y-14574349D01*
X17479624Y-14631492D02*
X17498671Y-14641016D01*
X17536767Y-14641016D01*
X17555814Y-14631492D01*
X17565338Y-14612445D01*
X17565338Y-14602921D01*
X17555814Y-14583873D01*
X17536767Y-14574349D01*
X17508195Y-14574349D01*
X17489148Y-14564826D01*
X17479624Y-14545778D01*
X17479624Y-14536254D01*
X17489148Y-14517207D01*
X17508195Y-14507683D01*
X17536767Y-14507683D01*
X17555814Y-14517207D01*
X17632005Y-14717207D02*
X17641529Y-14707683D01*
X17660576Y-14679111D01*
X17670100Y-14660064D01*
X17679624Y-14631492D01*
X17689148Y-14583873D01*
X17689148Y-14545778D01*
X17679624Y-14498159D01*
X17670100Y-14469588D01*
X17660576Y-14450540D01*
X17641529Y-14421968D01*
X17632005Y-14412445D01*
D18*
X12720100Y-14744540D02*
X12860100Y-14884540D01*
X12860100Y-14744540D02*
X12720100Y-14884540D01*
X12839598Y-14864038D02*
X12839598Y-14765042D01*
X12740602Y-14765042D01*
X12740602Y-14864038D01*
X12839598Y-14864038D01*
D11*
X13222481Y-14905016D02*
X13108195Y-14905016D01*
X13165338Y-14905016D02*
X13165338Y-14705016D01*
X13146290Y-14733588D01*
X13127243Y-14752635D01*
X13108195Y-14762159D01*
X13308195Y-14885968D02*
X13317719Y-14895492D01*
X13308195Y-14905016D01*
X13298671Y-14895492D01*
X13308195Y-14885968D01*
X13308195Y-14905016D01*
X13489148Y-14771683D02*
X13489148Y-14905016D01*
X13441528Y-14695492D02*
X13393909Y-14838349D01*
X13517719Y-14838349D01*
X13632005Y-14705016D02*
X13651052Y-14705016D01*
X13670100Y-14714540D01*
X13679624Y-14724064D01*
X13689148Y-14743111D01*
X13698671Y-14781207D01*
X13698671Y-14828826D01*
X13689148Y-14866921D01*
X13679624Y-14885968D01*
X13670100Y-14895492D01*
X13651052Y-14905016D01*
X13632005Y-14905016D01*
X13612957Y-14895492D01*
X13603433Y-14885968D01*
X13593909Y-14866921D01*
X13584386Y-14828826D01*
X13584386Y-14781207D01*
X13593909Y-14743111D01*
X13603433Y-14724064D01*
X13612957Y-14714540D01*
X13632005Y-14705016D01*
X13822481Y-14705016D02*
X13841528Y-14705016D01*
X13860576Y-14714540D01*
X13870100Y-14724064D01*
X13879624Y-14743111D01*
X13889148Y-14781207D01*
X13889148Y-14828826D01*
X13879624Y-14866921D01*
X13870100Y-14885968D01*
X13860576Y-14895492D01*
X13841528Y-14905016D01*
X13822481Y-14905016D01*
X13803433Y-14895492D01*
X13793909Y-14885968D01*
X13784386Y-14866921D01*
X13774862Y-14828826D01*
X13774862Y-14781207D01*
X13784386Y-14743111D01*
X13793909Y-14724064D01*
X13803433Y-14714540D01*
X13822481Y-14705016D01*
X13974862Y-14905016D02*
X13974862Y-14771683D01*
X13974862Y-14790730D02*
X13984386Y-14781207D01*
X14003433Y-14771683D01*
X14032005Y-14771683D01*
X14051052Y-14781207D01*
X14060576Y-14800254D01*
X14060576Y-14905016D01*
X14060576Y-14800254D02*
X14070100Y-14781207D01*
X14089148Y-14771683D01*
X14117719Y-14771683D01*
X14136767Y-14781207D01*
X14146290Y-14800254D01*
X14146290Y-14905016D01*
X14241528Y-14905016D02*
X14241528Y-14771683D01*
X14241528Y-14790730D02*
X14251052Y-14781207D01*
X14270100Y-14771683D01*
X14298671Y-14771683D01*
X14317719Y-14781207D01*
X14327243Y-14800254D01*
X14327243Y-14905016D01*
X14327243Y-14800254D02*
X14336767Y-14781207D01*
X14355814Y-14771683D01*
X14384386Y-14771683D01*
X14403433Y-14781207D01*
X14412957Y-14800254D01*
X14412957Y-14905016D01*
X14803433Y-14695492D02*
X14632005Y-14952635D01*
X15060576Y-14705016D02*
X15079624Y-14705016D01*
X15098671Y-14714540D01*
X15108195Y-14724064D01*
X15117719Y-14743111D01*
X15127243Y-14781207D01*
X15127243Y-14828826D01*
X15117719Y-14866921D01*
X15108195Y-14885968D01*
X15098671Y-14895492D01*
X15079624Y-14905016D01*
X15060576Y-14905016D01*
X15041528Y-14895492D01*
X15032005Y-14885968D01*
X15022481Y-14866921D01*
X15012957Y-14828826D01*
X15012957Y-14781207D01*
X15022481Y-14743111D01*
X15032005Y-14724064D01*
X15041528Y-14714540D01*
X15060576Y-14705016D01*
X15212957Y-14885968D02*
X15222481Y-14895492D01*
X15212957Y-14905016D01*
X15203433Y-14895492D01*
X15212957Y-14885968D01*
X15212957Y-14905016D01*
X15346290Y-14705016D02*
X15365338Y-14705016D01*
X15384386Y-14714540D01*
X15393909Y-14724064D01*
X15403433Y-14743111D01*
X15412957Y-14781207D01*
X15412957Y-14828826D01*
X15403433Y-14866921D01*
X15393909Y-14885968D01*
X15384386Y-14895492D01*
X15365338Y-14905016D01*
X15346290Y-14905016D01*
X15327243Y-14895492D01*
X15317719Y-14885968D01*
X15308195Y-14866921D01*
X15298671Y-14828826D01*
X15298671Y-14781207D01*
X15308195Y-14743111D01*
X15317719Y-14724064D01*
X15327243Y-14714540D01*
X15346290Y-14705016D01*
X15593909Y-14705016D02*
X15498671Y-14705016D01*
X15489148Y-14800254D01*
X15498671Y-14790730D01*
X15517719Y-14781207D01*
X15565338Y-14781207D01*
X15584386Y-14790730D01*
X15593909Y-14800254D01*
X15603433Y-14819302D01*
X15603433Y-14866921D01*
X15593909Y-14885968D01*
X15584386Y-14895492D01*
X15565338Y-14905016D01*
X15517719Y-14905016D01*
X15498671Y-14895492D01*
X15489148Y-14885968D01*
X15784386Y-14705016D02*
X15689148Y-14705016D01*
X15679624Y-14800254D01*
X15689148Y-14790730D01*
X15708195Y-14781207D01*
X15755814Y-14781207D01*
X15774862Y-14790730D01*
X15784386Y-14800254D01*
X15793909Y-14819302D01*
X15793909Y-14866921D01*
X15784386Y-14885968D01*
X15774862Y-14895492D01*
X15755814Y-14905016D01*
X15708195Y-14905016D01*
X15689148Y-14895492D01*
X15679624Y-14885968D01*
X15984386Y-14905016D02*
X15870100Y-14905016D01*
X15927243Y-14905016D02*
X15927243Y-14705016D01*
X15908195Y-14733588D01*
X15889148Y-14752635D01*
X15870100Y-14762159D01*
X16060576Y-14705016D02*
X16060576Y-14743111D01*
X16136767Y-14705016D02*
X16136767Y-14743111D01*
X16432005Y-14981207D02*
X16422481Y-14971683D01*
X16403433Y-14943111D01*
X16393909Y-14924064D01*
X16384386Y-14895492D01*
X16374862Y-14847873D01*
X16374862Y-14809778D01*
X16384386Y-14762159D01*
X16393909Y-14733588D01*
X16403433Y-14714540D01*
X16422481Y-14685968D01*
X16432005Y-14676445D01*
X16593909Y-14705016D02*
X16555814Y-14705016D01*
X16536767Y-14714540D01*
X16527243Y-14724064D01*
X16508195Y-14752635D01*
X16498671Y-14790730D01*
X16498671Y-14866921D01*
X16508195Y-14885968D01*
X16517719Y-14895492D01*
X16536767Y-14905016D01*
X16574862Y-14905016D01*
X16593909Y-14895492D01*
X16603433Y-14885968D01*
X16612957Y-14866921D01*
X16612957Y-14819302D01*
X16603433Y-14800254D01*
X16593909Y-14790730D01*
X16574862Y-14781207D01*
X16536767Y-14781207D01*
X16517719Y-14790730D01*
X16508195Y-14800254D01*
X16498671Y-14819302D01*
X16851052Y-14905016D02*
X16851052Y-14705016D01*
X16936767Y-14905016D02*
X16936767Y-14800254D01*
X16927243Y-14781207D01*
X16908195Y-14771683D01*
X16879624Y-14771683D01*
X16860576Y-14781207D01*
X16851052Y-14790730D01*
X17060576Y-14905016D02*
X17041529Y-14895492D01*
X17032005Y-14885968D01*
X17022481Y-14866921D01*
X17022481Y-14809778D01*
X17032005Y-14790730D01*
X17041529Y-14781207D01*
X17060576Y-14771683D01*
X17089148Y-14771683D01*
X17108195Y-14781207D01*
X17117719Y-14790730D01*
X17127243Y-14809778D01*
X17127243Y-14866921D01*
X17117719Y-14885968D01*
X17108195Y-14895492D01*
X17089148Y-14905016D01*
X17060576Y-14905016D01*
X17241529Y-14905016D02*
X17222481Y-14895492D01*
X17212957Y-14876445D01*
X17212957Y-14705016D01*
X17393910Y-14895492D02*
X17374862Y-14905016D01*
X17336767Y-14905016D01*
X17317719Y-14895492D01*
X17308195Y-14876445D01*
X17308195Y-14800254D01*
X17317719Y-14781207D01*
X17336767Y-14771683D01*
X17374862Y-14771683D01*
X17393910Y-14781207D01*
X17403433Y-14800254D01*
X17403433Y-14819302D01*
X17308195Y-14838349D01*
X17479624Y-14895492D02*
X17498671Y-14905016D01*
X17536767Y-14905016D01*
X17555814Y-14895492D01*
X17565338Y-14876445D01*
X17565338Y-14866921D01*
X17555814Y-14847873D01*
X17536767Y-14838349D01*
X17508195Y-14838349D01*
X17489148Y-14828826D01*
X17479624Y-14809778D01*
X17479624Y-14800254D01*
X17489148Y-14781207D01*
X17508195Y-14771683D01*
X17536767Y-14771683D01*
X17555814Y-14781207D01*
X17632005Y-14981207D02*
X17641529Y-14971683D01*
X17660576Y-14943111D01*
X17670100Y-14924064D01*
X17679624Y-14895492D01*
X17689148Y-14847873D01*
X17689148Y-14809778D01*
X17679624Y-14762159D01*
X17670100Y-14733588D01*
X17660576Y-14714540D01*
X17641529Y-14685968D01*
X17632005Y-14676445D01*
M02*
